G04 --- HEADER BEGIN --- *
G04 #@! TF.GenerationSoftware,LibrePCB,LibrePCB,1.1.0*
G04 #@! TF.CreationDate,2024-09-10T10:23:41*
G04 #@! TF.ProjectId,100818,18c58eaa-e54a-4ec1-94cd-ac7c7134a3b5,v1.0.1*
G04 #@! TF.Part,Single*
G04 #@! TF.SameCoordinates*
G04 #@! TF.FileFunction,Legend,Bot*
G04 #@! TF.FilePolarity,Positive*
%FSLAX66Y66*%
%MOMM*%
G01*
G75*
G04 --- HEADER END --- *
G04 --- APERTURE LIST BEGIN --- *
%ADD10C,0.25*%
%ADD11C,0.15*%
%ADD12C,0.2*%
%AMROUNDEDRECT13*20,1,1.15,-0.625,0.0,0.625,0.0,0.0*20,1,0.95,-0.725,0.0,0.725,0.0,0.0*1,1,0.2,-0.625,0.475*1,1,0.2,0.625,0.475*1,1,0.2,0.625,-0.475*1,1,0.2,-0.625,-0.475*%
%ADD13ROUNDEDRECT13*%
%AMROUNDEDRECT14*20,1,0.95,-0.625,0.0,0.625,0.0,90.0*20,1,0.75,-0.725,0.0,0.725,0.0,90.0*1,1,0.2,-0.375,-0.625*1,1,0.2,-0.375,0.625*1,1,0.2,0.375,0.625*1,1,0.2,0.375,-0.625*%
%ADD14ROUNDEDRECT14*%
%AMROUNDEDRECT15*20,1,1.05,-0.625,0.0,0.625,0.0,90.0*20,1,0.85,-0.725,0.0,0.725,0.0,90.0*1,1,0.2,-0.425,-0.625*1,1,0.2,-0.425,0.625*1,1,0.2,0.425,0.625*1,1,0.2,0.425,-0.625*%
%ADD15ROUNDEDRECT15*%
%ADD16C,5.3562*%
%AMROUNDEDRECT17*20,1,0.95,-0.625,0.0,0.625,0.0,0.0*20,1,0.75,-0.725,0.0,0.725,0.0,0.0*1,1,0.2,-0.625,0.375*1,1,0.2,0.625,0.375*1,1,0.2,0.625,-0.375*1,1,0.2,-0.625,-0.375*%
%ADD17ROUNDEDRECT17*%
%ADD18O,1.5X2.7*%
%ADD19C,2.0*%
%AMROUNDEDRECT20*20,1,2.0,-0.9,0.0,0.9,0.0,0.0*20,1,1.8,-1.0,0.0,1.0,0.0,0.0*1,1,0.2,-0.9,0.9*1,1,0.2,0.9,0.9*1,1,0.2,0.9,-0.9*1,1,0.2,-0.9,-0.9*%
%ADD20ROUNDEDRECT20*%
%AMROUNDEDRECT21*20,1,1.15,-0.625,0.0,0.625,0.0,90.0*20,1,0.95,-0.725,0.0,0.725,0.0,90.0*1,1,0.2,-0.475,-0.625*1,1,0.2,-0.475,0.625*1,1,0.2,0.475,0.625*1,1,0.2,0.475,-0.625*%
%ADD21ROUNDEDRECT21*%
%AMROUNDEDRECT22*20,1,1.0,-0.45,0.0,0.45,0.0,90.0*20,1,0.4,-0.75,0.0,0.75,0.0,90.0*1,1,0.6,-0.2,-0.45*1,1,0.6,-0.2,0.45*1,1,0.6,0.2,0.45*1,1,0.6,0.2,-0.45*%
%ADD22ROUNDEDRECT22*%
%ADD23C,1.5*%
%AMROUNDEDRECT24*20,1,1.5,-0.65,0.0,0.65,0.0,0.0*20,1,1.3,-0.75,0.0,0.75,0.0,0.0*1,1,0.2,-0.65,0.65*1,1,0.2,0.65,0.65*1,1,0.2,0.65,-0.65*1,1,0.2,-0.65,-0.65*%
%ADD24ROUNDEDRECT24*%
%AMROUNDEDRECT25*20,1,1.05,-0.625,0.0,0.625,0.0,0.0*20,1,0.85,-0.725,0.0,0.725,0.0,0.0*1,1,0.2,-0.625,0.425*1,1,0.2,0.625,0.425*1,1,0.2,0.625,-0.425*1,1,0.2,-0.625,-0.425*%
%ADD25ROUNDEDRECT25*%
%ADD26C,1.6224*%
%ADD27C,3.0194*%
%AMROUNDEDRECT28*20,1,1.6224,-0.7112,0.0,0.7112,0.0,0.0*20,1,1.4224,-0.8112,0.0,0.8112,0.0,0.0*1,1,0.2,-0.7112,0.7112*1,1,0.2,0.7112,0.7112*1,1,0.2,0.7112,-0.7112*1,1,0.2,-0.7112,-0.7112*%
%ADD28ROUNDEDRECT28*%
%ADD29C,1.978*%
%AMROUNDEDRECT30*20,1,1.978,-0.889,0.0,0.889,0.0,0.0*20,1,1.778,-0.989,0.0,0.989,0.0,0.0*1,1,0.2,-0.889,0.889*1,1,0.2,0.889,0.889*1,1,0.2,0.889,-0.889*1,1,0.2,-0.889,-0.889*%
%ADD30ROUNDEDRECT30*%
%ADD31C,3.1972*%
%AMROUNDEDRECT32*20,1,1.787,-1.095,0.0,1.095,0.0,0.0*20,1,1.587,-1.195,0.0,1.195,0.0,0.0*1,1,0.2,-1.095,0.7935*1,1,0.2,1.095,0.7935*1,1,0.2,1.095,-0.7935*1,1,0.2,-1.095,-0.7935*%
%ADD32ROUNDEDRECT32*%
%ADD33O,2.39X1.787*%
%AMROUNDEDRECT34*20,1,1.25,-0.8,0.0,0.8,0.0,0.0*20,1,1.05,-0.9,0.0,0.9,0.0,0.0*1,1,0.2,-0.8,0.525*1,1,0.2,0.8,0.525*1,1,0.2,0.8,-0.525*1,1,0.2,-0.8,-0.525*%
%ADD34ROUNDEDRECT34*%
%AMROUNDEDRECT35*20,1,0.8,-0.4,0.0,0.4,0.0,0.0*20,1,0.3,-0.65,0.0,0.65,0.0,0.0*1,1,0.5,-0.4,0.15*1,1,0.5,0.4,0.15*1,1,0.5,0.4,-0.15*1,1,0.5,-0.4,-0.15*%
%ADD35ROUNDEDRECT35*%
%ADD36C,1.207872*%
%AMROUNDEDRECT37*20,1,1.207872,-0.503936,0.0,0.503936,0.0,0.0*20,1,1.007872,-0.603936,0.0,0.603936,0.0,0.0*1,1,0.2,-0.503936,0.503936*1,1,0.2,0.503936,0.503936*1,1,0.2,0.503936,-0.503936*1,1,0.2,-0.503936,-0.503936*%
%ADD37ROUNDEDRECT37*%
%AMROUNDEDRECT38*20,1,0.73,-0.99,0.0,0.99,0.0,0.0*20,1,0.53,-1.09,0.0,1.09,0.0,0.0*1,1,0.2,-0.99,0.265*1,1,0.2,0.99,0.265*1,1,0.2,0.99,-0.265*1,1,0.2,-0.99,-0.265*%
%ADD38ROUNDEDRECT38*%
%AMROUNDEDRECT39*20,1,1.0,-0.425,0.0,0.425,0.0,90.0*20,1,0.8,-0.525,0.0,0.525,0.0,90.0*1,1,0.2,-0.4,-0.425*1,1,0.2,-0.4,0.425*1,1,0.2,0.4,0.425*1,1,0.2,0.4,-0.425*%
%ADD39ROUNDEDRECT39*%
%AMROUNDEDRECT40*20,1,0.53,-0.5675,0.0,0.5675,0.0,0.0*20,1,0.165,-0.75,0.0,0.75,0.0,0.0*1,1,0.365,-0.5675,0.0825*1,1,0.365,0.5675,0.0825*1,1,0.365,0.5675,-0.0825*1,1,0.365,-0.5675,-0.0825*%
%ADD40ROUNDEDRECT40*%
%AMROUNDEDRECT41*20,1,1.25,-0.8,0.0,0.8,0.0,90.0*20,1,1.05,-0.9,0.0,0.9,0.0,90.0*1,1,0.2,-0.525,-0.8*1,1,0.2,-0.525,0.8*1,1,0.2,0.525,0.8*1,1,0.2,0.525,-0.8*%
%ADD41ROUNDEDRECT41*%
%ADD42C,1.7*%
%AMROUNDEDRECT43*20,1,1.7,-0.75,0.0,0.75,0.0,0.0*20,1,1.5,-0.85,0.0,0.85,0.0,0.0*1,1,0.2,-0.75,0.75*1,1,0.2,0.75,0.75*1,1,0.2,0.75,-0.75*1,1,0.2,-0.75,-0.75*%
%ADD43ROUNDEDRECT43*%
%AMROUNDEDRECT44*20,1,1.6986,-0.7493,0.0,0.7493,0.0,0.0*20,1,1.4986,-0.8493,0.0,0.8493,0.0,0.0*1,1,0.2,-0.7493,0.7493*1,1,0.2,0.7493,0.7493*1,1,0.2,0.7493,-0.7493*1,1,0.2,-0.7493,-0.7493*%
%ADD44ROUNDEDRECT44*%
%ADD45C,1.6986*%
%AMROUNDEDRECT46*20,1,2.232,-1.016,0.0,1.016,0.0,0.0*20,1,2.032,-1.116,0.0,1.116,0.0,0.0*1,1,0.2,-1.016,1.016*1,1,0.2,1.016,1.016*1,1,0.2,1.016,-1.016*1,1,0.2,-1.016,-1.016*%
%ADD46ROUNDEDRECT46*%
%ADD47C,2.232*%
%AMROUNDEDRECT48*20,1,1.0,-0.45,0.0,0.45,0.0,0.0*20,1,0.4,-0.75,0.0,0.75,0.0,0.0*1,1,0.6,-0.45,0.2*1,1,0.6,0.45,0.2*1,1,0.6,0.45,-0.2*1,1,0.6,-0.45,-0.2*%
%ADD48ROUNDEDRECT48*%
%AMROUNDEDRECT49*20,1,0.8,-0.4,0.0,0.4,0.0,90.0*20,1,0.3,-0.65,0.0,0.65,0.0,90.0*1,1,0.5,-0.15,-0.4*1,1,0.5,-0.15,0.4*1,1,0.5,0.15,0.4*1,1,0.5,0.15,-0.4*%
%ADD49ROUNDEDRECT49*%
%ADD50C,1.7494*%
%ADD51C,2.613*%
%AMROUNDEDRECT52*20,1,1.7494,-0.7747,0.0,0.7747,0.0,0.0*20,1,1.5494,-0.8747,0.0,0.8747,0.0,0.0*1,1,0.2,-0.7747,0.7747*1,1,0.2,0.7747,0.7747*1,1,0.2,0.7747,-0.7747*1,1,0.2,-0.7747,-0.7747*%
%ADD52ROUNDEDRECT52*%
%ADD53C,0.708*%
G04 --- APERTURE LIST END --- *
G04 --- BOARD BEGIN --- *
D10*
G04 #@! TO.C,C48*
X146350636Y37590000D02*
X146350636Y37340000D01*
X147850636Y37590000D02*
X147850636Y37340000D01*
G04 #@! TO.C,C21*
X122670000Y6225000D02*
X122670000Y6475000D01*
X121170000Y6225000D02*
X121170000Y6475000D01*
G04 #@! TO.C,R24*
X155773000Y29222000D02*
X155123000Y29222000D01*
X155773000Y30722000D02*
X155123000Y30722000D01*
G04 #@! TO.C,L10*
X59153000Y14720000D02*
X58703000Y14720000D01*
X59153000Y13220000D02*
X58703000Y13220000D01*
G04 #@! TO.C,R38*
X151201000Y28206000D02*
X150551000Y28206000D01*
X151201000Y29706000D02*
X150551000Y29706000D01*
G04 #@! TO.C,R30*
X50875500Y37775000D02*
X50875500Y38425000D01*
X52375500Y37775000D02*
X52375500Y38425000D01*
G04 #@! TO.C,C10*
X50671000Y33516000D02*
X50421000Y33516000D01*
X50671000Y32016000D02*
X50421000Y32016000D01*
D11*
G04 #@! TO.C,D1*
X35098000Y1942000D02*
X34498000Y1942000D01*
X36398000Y967000D02*
X36398000Y2317000D01*
X36323000Y2317000D01*
X36323000Y3392000D01*
X35598000Y3392000D01*
X33273000Y2317000D02*
X33273000Y3392000D01*
X33998000Y3392000D01*
D10*
G04 #@! TO.C,C8*
X37477000Y35431000D02*
X37477000Y35181000D01*
X38977000Y35431000D02*
X38977000Y35181000D01*
G04 #@! TO.C,L11*
X45986000Y10766000D02*
X45986000Y10316000D01*
X47486000Y10766000D02*
X47486000Y10316000D01*
G04 #@! TO.C,R22*
X147425636Y34175000D02*
X146775636Y34175000D01*
X147425636Y35675000D02*
X146775636Y35675000D01*
G04 #@! TO.C,R21*
X75113000Y45200000D02*
X75763000Y45200000D01*
X75113000Y43700000D02*
X75763000Y43700000D01*
G04 #@! TO.C,L8*
X69084400Y21436888D02*
X68634400Y21436888D01*
X69084400Y19936888D02*
X68634400Y19936888D01*
G04 #@! TO.C,C46*
X154595636Y37985000D02*
X154845636Y37985000D01*
X154595636Y39485000D02*
X154845636Y39485000D01*
G04 #@! TO.C,C9*
X47257400Y44629800D02*
X47257400Y44879800D01*
X45757400Y44629800D02*
X45757400Y44879800D01*
G04 #@! TO.C,R8*
X35123000Y5092000D02*
X34473000Y5092000D01*
X35123000Y6592000D02*
X34473000Y6592000D01*
G04 #@! TO.C,C55*
X81801400Y13108400D02*
X81801400Y13358400D01*
X80301400Y13108400D02*
X80301400Y13358400D01*
G04 #@! TO.C,C30*
X80262000Y6338000D02*
X80012000Y6338000D01*
X80262000Y4838000D02*
X80012000Y4838000D01*
G04 #@! TO.C,R28*
X145505636Y29960000D02*
X146155636Y29960000D01*
X145505636Y28460000D02*
X146155636Y28460000D01*
D11*
G04 #@! TO.C,Q6*
X18969000Y35343000D02*
X18369000Y35343000D01*
X20269000Y34368000D02*
X20269000Y35718000D01*
X20194000Y35718000D01*
X20194000Y36793000D01*
X19469000Y36793000D01*
X17144000Y35718000D02*
X17144000Y36793000D01*
X17869000Y36793000D01*
D10*
G04 #@! TO.C,C36*
X67299400Y18136888D02*
X67299400Y16886888D01*
X69149400Y18136888D02*
X69149400Y16886888D01*
G04 #@! TO.C,C27*
X90680000Y13855000D02*
X90930000Y13855000D01*
X90680000Y15355000D02*
X90930000Y15355000D01*
G04 #@! TO.C,R37*
X145496400Y28004200D02*
X146146400Y28004200D01*
X145496400Y26504200D02*
X146146400Y26504200D01*
D12*
G04 #@! TO.C,U9*
X31321666Y47601000D02*
X30321666Y47601000D01*
X30321666Y47651000D01*
X28521666Y47651000D01*
X28521666Y47601000D01*
X28521666Y44601000D02*
X28521666Y44551000D01*
X30321666Y44551000D01*
X30321666Y44601000D01*
D10*
G04 #@! TO.C,C24*
X82040000Y49010000D02*
X81790000Y49010000D01*
X82040000Y47510000D02*
X81790000Y47510000D01*
G04 #@! TO.C,R5*
X13772000Y23102000D02*
X14422000Y23102000D01*
X13772000Y21602000D02*
X14422000Y21602000D01*
G04 #@! TO.C,R23*
X146790636Y32270000D02*
X146140636Y32270000D01*
X146790636Y33770000D02*
X146140636Y33770000D01*
D12*
G04 #@! TO.C,U2*
X47180500Y39116000D02*
X47180500Y35052000D01*
X45656500Y35052000D01*
X45656500Y39116000D01*
X47180500Y39116000D01*
X49208500Y40132000D02*
G02*
X48708500Y40132000I-250000J0D01*
G01*
G02*
X49208500Y40132000I250000J0D01*
G01*
D10*
G04 #@! TO.C,C18*
X126680400Y33868200D02*
X126680400Y35118200D01*
X124830400Y33868200D02*
X124830400Y35118200D01*
G04 #@! TO.C,C47*
X150400636Y39485000D02*
X150150636Y39485000D01*
X150400636Y37985000D02*
X150150636Y37985000D01*
G04 #@! TO.C,C37*
X75690000Y20725688D02*
X75440000Y20725688D01*
X75690000Y19225688D02*
X75440000Y19225688D01*
G04 #@! TO.C,C45*
X157780636Y33780000D02*
X157780636Y33530000D01*
X159280636Y33780000D02*
X159280636Y33530000D01*
G04 #@! TO.C,R19*
X55131400Y20899000D02*
X55131400Y20249000D01*
X53631400Y20899000D02*
X53631400Y20249000D01*
G04 #@! TO.C,C29*
X80262000Y8751000D02*
X80012000Y8751000D01*
X80262000Y7251000D02*
X80012000Y7251000D01*
D11*
G04 #@! TO.C,Z2*
X34638000Y15442000D02*
X34638000Y15292000D01*
X33688000Y15442000D02*
X33688000Y15292000D01*
D10*
G04 #@! TO.C,R15*
X129961200Y38598000D02*
X129961200Y37348000D01*
X131811200Y38598000D02*
X131811200Y37348000D01*
G04 #@! TO.C,L9*
X71030400Y21419888D02*
X71030400Y20969888D01*
X72530400Y21419888D02*
X72530400Y20969888D01*
G04 #@! TO.C,C34*
X75080400Y12419888D02*
X74830400Y12419888D01*
X75080400Y10919888D02*
X74830400Y10919888D01*
G04 #@! TO.C,U6*
X156240636Y37005000D02*
X150740636Y37005000D01*
X154890636Y31575000D02*
X150740636Y31575000D01*
D12*
G04 #@! TO.C,U10*
X15033332Y39140000D02*
X16033332Y39140000D01*
X16033332Y39090000D01*
X17833332Y39090000D01*
X17833332Y39140000D01*
X17833332Y42140000D02*
X17833332Y42190000D01*
X16033332Y42190000D01*
X16033332Y42140000D01*
D10*
G04 #@! TO.C,C53*
X21493332Y39880000D02*
X21493332Y40130000D01*
X19993332Y39880000D02*
X19993332Y40130000D01*
G04 #@! TO.C,C19*
X142885000Y44160000D02*
X144135000Y44160000D01*
X142885000Y46010000D02*
X144135000Y46010000D01*
G04 #@! TO.C,R29*
X145505636Y31865000D02*
X146155636Y31865000D01*
X145505636Y30365000D02*
X146155636Y30365000D01*
G04 #@! TO.C,C35*
X72530400Y17894888D02*
X72530400Y18144888D01*
X71030400Y17894888D02*
X71030400Y18144888D01*
G04 #@! TO.C,R31*
X46220500Y33516000D02*
X46870500Y33516000D01*
X46220500Y32016000D02*
X46870500Y32016000D01*
G04 #@! TO.C,R16*
X133675000Y4330000D02*
X133025000Y4330000D01*
X133675000Y5830000D02*
X133025000Y5830000D01*
D11*
G04 #@! TO.C,Q5*
X55030200Y24379200D02*
X55030200Y23779200D01*
X56005200Y25679200D02*
X54655200Y25679200D01*
X54655200Y25604200D01*
X53580200Y25604200D01*
X53580200Y24879200D01*
X54655200Y22554200D02*
X53580200Y22554200D01*
X53580200Y23279200D01*
D10*
G04 #@! TO.C,C54*
X13873332Y39880000D02*
X13873332Y40130000D01*
X12373332Y39880000D02*
X12373332Y40130000D01*
D11*
G04 #@! TO.C,Z1*
X33688000Y12117000D02*
X33688000Y12267000D01*
X34638000Y12117000D02*
X34638000Y12267000D01*
D10*
G04 #@! TO.C,C28*
X58803000Y4711000D02*
X59053000Y4711000D01*
X58803000Y6211000D02*
X59053000Y6211000D01*
G04 #@! TO.C,C44*
X157780636Y36955000D02*
X157780636Y36705000D01*
X159280636Y36955000D02*
X159280636Y36705000D01*
G04 #@! TO.C,R18*
X55536400Y20249000D02*
X55536400Y20899000D01*
X57036400Y20249000D02*
X57036400Y20899000D01*
G04 #@! TO.C,R36*
X145521800Y26099200D02*
X146171800Y26099200D01*
X145521800Y24599200D02*
X146171800Y24599200D01*
G04 #@! TO.C,R1*
X20713000Y35870000D02*
X20713000Y36520000D01*
X22213000Y35870000D02*
X22213000Y36520000D01*
G04 #@! TO.C,C15*
X102110000Y46875000D02*
X102360000Y46875000D01*
X102110000Y48375000D02*
X102360000Y48375000D01*
G04 #@! TO.C,C33*
X71665400Y13064888D02*
X71665400Y12814888D01*
X73165400Y13064888D02*
X73165400Y12814888D01*
G04 #@! TO.C,C50*
X44181300Y41415400D02*
X43931300Y41415400D01*
X44181300Y39915400D02*
X43931300Y39915400D01*
G04 #@! TO.C,C52*
X31846666Y46861000D02*
X31846666Y46611000D01*
X33346666Y46861000D02*
X33346666Y46611000D01*
D12*
G04 #@! TO.C,U3*
X73455400Y17379888D02*
X73455400Y16379888D01*
X73405400Y16379888D01*
X73405400Y14579888D01*
X73455400Y14579888D01*
X76455400Y14579888D02*
X76505400Y14579888D01*
X76505400Y16379888D01*
X76455400Y16379888D01*
D10*
G04 #@! TO.C,C6*
X21969000Y15482000D02*
X21719000Y15482000D01*
X21969000Y13982000D02*
X21719000Y13982000D01*
G04 #@! TO.C,C57*
X114882200Y11748200D02*
X114632200Y11748200D01*
X114882200Y10248200D02*
X114632200Y10248200D01*
G04 #@! TO.C,R4*
X13772000Y25642000D02*
X14422000Y25642000D01*
X13772000Y24142000D02*
X14422000Y24142000D01*
G04 #@! TO.C,R39*
X39949000Y37350000D02*
X39299000Y37350000D01*
X39949000Y38850000D02*
X39299000Y38850000D01*
G04 #@! TO.C,C5*
X19026600Y11848400D02*
X19276600Y11848400D01*
X19026600Y13348400D02*
X19276600Y13348400D01*
G04 #@! TO.C,C51*
X24861666Y46861000D02*
X24861666Y46611000D01*
X26361666Y46861000D02*
X26361666Y46611000D01*
G04 #@! TO.C,R40*
X39949000Y31254000D02*
X39299000Y31254000D01*
X39949000Y32754000D02*
X39299000Y32754000D01*
G04 #@! TO.C,R17*
X70175000Y47510000D02*
X69525000Y47510000D01*
X70175000Y49010000D02*
X69525000Y49010000D01*
G04 #@! TO.C,L1*
X39382000Y10131000D02*
X39382000Y9681000D01*
X40882000Y10131000D02*
X40882000Y9681000D01*
D12*
G04 #@! TO.C,C48*
X147123191Y39608556D02*
X147170969Y39560778D01*
X147313191Y39513000D01*
X147408747Y39513000D01*
X147552080Y39560778D01*
X147646524Y39656333D01*
X147694302Y39750778D01*
X147742080Y39941889D01*
X147742080Y40084111D01*
X147694302Y40275222D01*
X147646524Y40369667D01*
X147552080Y40465222D01*
X147408747Y40513000D01*
X147313191Y40513000D01*
X147170969Y40465222D01*
X147123191Y40417444D01*
X146246524Y40179667D02*
X146246524Y39513000D01*
X146485413Y40560778D02*
X146723191Y39846333D01*
X146104302Y39846333D01*
X145514302Y40084111D02*
X145608746Y40131889D01*
X145656524Y40179667D01*
X145704302Y40275222D01*
X145704302Y40323000D01*
X145656524Y40417444D01*
X145608746Y40465222D01*
X145514302Y40513000D01*
X145323191Y40513000D01*
X145227635Y40465222D01*
X145180969Y40417444D01*
X145133191Y40323000D01*
X145133191Y40275222D01*
X145180969Y40179667D01*
X145227635Y40131889D01*
X145323191Y40084111D01*
X145514302Y40084111D01*
X145608746Y40036333D01*
X145656524Y39989667D01*
X145704302Y39894111D01*
X145704302Y39703000D01*
X145656524Y39608556D01*
X145608746Y39560778D01*
X145514302Y39513000D01*
X145323191Y39513000D01*
X145227635Y39560778D01*
X145180969Y39608556D01*
X145133191Y39703000D01*
X145133191Y39894111D01*
X145180969Y39989667D01*
X145227635Y40036333D01*
X145323191Y40084111D01*
G04 #@! TO.C,C21*
X124249444Y7035555D02*
X124297222Y7083333D01*
X124345000Y7225555D01*
X124345000Y7321111D01*
X124297222Y7464444D01*
X124201667Y7558888D01*
X124107222Y7606666D01*
X123916111Y7654444D01*
X123773889Y7654444D01*
X123582778Y7606666D01*
X123488333Y7558888D01*
X123392778Y7464444D01*
X123345000Y7321111D01*
X123345000Y7225555D01*
X123392778Y7083333D01*
X123440556Y7035555D01*
X123440556Y6587777D02*
X123392778Y6539999D01*
X123345000Y6445555D01*
X123345000Y6206666D01*
X123392778Y6112222D01*
X123440556Y6064444D01*
X123535000Y6016666D01*
X123630556Y6016666D01*
X123773889Y6064444D01*
X124345000Y6635555D01*
X124345000Y6016666D01*
X124345000Y5045555D02*
X124345000Y5616666D01*
X124345000Y5331110D02*
X123345000Y5331110D01*
X123488333Y5426666D01*
X123582778Y5521110D01*
X123630556Y5616666D01*
G04 #@! TO.C,R24*
X159203933Y29441200D02*
X159537266Y29917867D01*
X159775044Y29441200D02*
X159775044Y30441200D01*
X159393933Y30441200D01*
X159298377Y30393422D01*
X159251711Y30345644D01*
X159203933Y30251200D01*
X159203933Y30107867D01*
X159251711Y30012311D01*
X159298377Y29964533D01*
X159393933Y29917867D01*
X159775044Y29917867D01*
X158756155Y30345644D02*
X158708377Y30393422D01*
X158613933Y30441200D01*
X158375044Y30441200D01*
X158280600Y30393422D01*
X158232822Y30345644D01*
X158185044Y30251200D01*
X158185044Y30155644D01*
X158232822Y30012311D01*
X158803933Y29441200D01*
X158185044Y29441200D01*
X157308377Y30107867D02*
X157308377Y29441200D01*
X157547266Y30488978D02*
X157785044Y29774533D01*
X157166155Y29774533D01*
G04 #@! TO.C,L10*
X59660777Y15395000D02*
X60137444Y15395000D01*
X60137444Y16395000D01*
X58689666Y15395000D02*
X59260777Y15395000D01*
X58975221Y15395000D02*
X58975221Y16395000D01*
X59070777Y16251667D01*
X59165221Y16157222D01*
X59260777Y16109444D01*
X58051888Y16395000D02*
X57956333Y16395000D01*
X57860777Y16347222D01*
X57812999Y16299444D01*
X57766333Y16205000D01*
X57718555Y16013889D01*
X57718555Y15776111D01*
X57766333Y15585000D01*
X57812999Y15490556D01*
X57860777Y15442778D01*
X57956333Y15395000D01*
X58051888Y15395000D01*
X58146333Y15442778D01*
X58194110Y15490556D01*
X58241888Y15585000D01*
X58289666Y15776111D01*
X58289666Y16013889D01*
X58241888Y16205000D01*
X58194110Y16299444D01*
X58146333Y16347222D01*
X58051888Y16395000D01*
G04 #@! TO.C,R38*
X151255244Y26774200D02*
X151588577Y27250867D01*
X151826355Y26774200D02*
X151826355Y27774200D01*
X151445244Y27774200D01*
X151349688Y27726422D01*
X151303022Y27678644D01*
X151255244Y27584200D01*
X151255244Y27440867D01*
X151303022Y27345311D01*
X151349688Y27297533D01*
X151445244Y27250867D01*
X151826355Y27250867D01*
X150855244Y27774200D02*
X150236355Y27774200D01*
X150569688Y27393089D01*
X150426355Y27393089D01*
X150331911Y27345311D01*
X150284133Y27297533D01*
X150236355Y27203089D01*
X150236355Y26964200D01*
X150284133Y26869756D01*
X150331911Y26821978D01*
X150426355Y26774200D01*
X150711911Y26774200D01*
X150807466Y26821978D01*
X150855244Y26869756D01*
X149646355Y27345311D02*
X149740799Y27393089D01*
X149788577Y27440867D01*
X149836355Y27536422D01*
X149836355Y27584200D01*
X149788577Y27678644D01*
X149740799Y27726422D01*
X149646355Y27774200D01*
X149455244Y27774200D01*
X149359688Y27726422D01*
X149313022Y27678644D01*
X149265244Y27584200D01*
X149265244Y27536422D01*
X149313022Y27440867D01*
X149359688Y27393089D01*
X149455244Y27345311D01*
X149646355Y27345311D01*
X149740799Y27297533D01*
X149788577Y27250867D01*
X149836355Y27155311D01*
X149836355Y26964200D01*
X149788577Y26869756D01*
X149740799Y26821978D01*
X149646355Y26774200D01*
X149455244Y26774200D01*
X149359688Y26821978D01*
X149313022Y26869756D01*
X149265244Y26964200D01*
X149265244Y27155311D01*
X149313022Y27250867D01*
X149359688Y27297533D01*
X149455244Y27345311D01*
G04 #@! TO.C,R30*
X54050500Y38809444D02*
X53573833Y39142777D01*
X54050500Y39380555D02*
X53050500Y39380555D01*
X53050500Y38999444D01*
X53098278Y38903888D01*
X53146056Y38857222D01*
X53240500Y38809444D01*
X53383833Y38809444D01*
X53479389Y38857222D01*
X53527167Y38903888D01*
X53573833Y38999444D01*
X53573833Y39380555D01*
X53050500Y38409444D02*
X53050500Y37790555D01*
X53431611Y38123888D01*
X53431611Y37980555D01*
X53479389Y37886111D01*
X53527167Y37838333D01*
X53621611Y37790555D01*
X53860500Y37790555D01*
X53954944Y37838333D01*
X54002722Y37886111D01*
X54050500Y37980555D01*
X54050500Y38266111D01*
X54002722Y38361666D01*
X53954944Y38409444D01*
X53050500Y37152777D02*
X53050500Y37057222D01*
X53098278Y36961666D01*
X53146056Y36913888D01*
X53240500Y36867222D01*
X53431611Y36819444D01*
X53669389Y36819444D01*
X53860500Y36867222D01*
X53954944Y36913888D01*
X54002722Y36961666D01*
X54050500Y37057222D01*
X54050500Y37152777D01*
X54002722Y37247222D01*
X53954944Y37294999D01*
X53860500Y37342777D01*
X53669389Y37390555D01*
X53431611Y37390555D01*
X53240500Y37342777D01*
X53146056Y37294999D01*
X53098278Y37247222D01*
X53050500Y37152777D01*
G04 #@! TO.C,C10*
X51537866Y30501956D02*
X51585644Y30454178D01*
X51727866Y30406400D01*
X51823422Y30406400D01*
X51966755Y30454178D01*
X52061199Y30549733D01*
X52108977Y30644178D01*
X52156755Y30835289D01*
X52156755Y30977511D01*
X52108977Y31168622D01*
X52061199Y31263067D01*
X51966755Y31358622D01*
X51823422Y31406400D01*
X51727866Y31406400D01*
X51585644Y31358622D01*
X51537866Y31310844D01*
X50566755Y30406400D02*
X51137866Y30406400D01*
X50852310Y30406400D02*
X50852310Y31406400D01*
X50947866Y31263067D01*
X51042310Y31168622D01*
X51137866Y31120844D01*
X49928977Y31406400D02*
X49833422Y31406400D01*
X49737866Y31358622D01*
X49690088Y31310844D01*
X49643422Y31216400D01*
X49595644Y31025289D01*
X49595644Y30787511D01*
X49643422Y30596400D01*
X49690088Y30501956D01*
X49737866Y30454178D01*
X49833422Y30406400D01*
X49928977Y30406400D01*
X50023422Y30454178D01*
X50071199Y30501956D01*
X50118977Y30596400D01*
X50166755Y30787511D01*
X50166755Y31025289D01*
X50118977Y31216400D01*
X50071199Y31310844D01*
X50023422Y31358622D01*
X49928977Y31406400D01*
G04 #@! TO.C,D1*
X37931600Y3336511D02*
X36931600Y3336511D01*
X36931600Y3098733D01*
X36979378Y2955400D01*
X37074933Y2859844D01*
X37169378Y2813178D01*
X37360489Y2765400D01*
X37502711Y2765400D01*
X37693822Y2813178D01*
X37788267Y2859844D01*
X37883822Y2955400D01*
X37931600Y3098733D01*
X37931600Y3336511D01*
X37931600Y1794289D02*
X37931600Y2365400D01*
X37931600Y2079844D02*
X36931600Y2079844D01*
X37074933Y2175400D01*
X37169378Y2269844D01*
X37217156Y2365400D01*
G04 #@! TO.C,C8*
X36706444Y35482111D02*
X36754222Y35529889D01*
X36802000Y35672111D01*
X36802000Y35767667D01*
X36754222Y35911000D01*
X36658667Y36005444D01*
X36564222Y36053222D01*
X36373111Y36101000D01*
X36230889Y36101000D01*
X36039778Y36053222D01*
X35945333Y36005444D01*
X35849778Y35911000D01*
X35802000Y35767667D01*
X35802000Y35672111D01*
X35849778Y35529889D01*
X35897556Y35482111D01*
X36230889Y34892111D02*
X36183111Y34986555D01*
X36135333Y35034333D01*
X36039778Y35082111D01*
X35992000Y35082111D01*
X35897556Y35034333D01*
X35849778Y34986555D01*
X35802000Y34892111D01*
X35802000Y34701000D01*
X35849778Y34605444D01*
X35897556Y34558778D01*
X35992000Y34511000D01*
X36039778Y34511000D01*
X36135333Y34558778D01*
X36183111Y34605444D01*
X36230889Y34701000D01*
X36230889Y34892111D01*
X36278667Y34986555D01*
X36325333Y35034333D01*
X36420889Y35082111D01*
X36612000Y35082111D01*
X36706444Y35034333D01*
X36754222Y34986555D01*
X36802000Y34892111D01*
X36802000Y34701000D01*
X36754222Y34605444D01*
X36706444Y34558778D01*
X36612000Y34511000D01*
X36420889Y34511000D01*
X36325333Y34558778D01*
X36278667Y34605444D01*
X36230889Y34701000D01*
G04 #@! TO.C,L11*
X48943200Y11222977D02*
X48943200Y11699644D01*
X47943200Y11699644D01*
X48943200Y10251866D02*
X48943200Y10822977D01*
X48943200Y10537421D02*
X47943200Y10537421D01*
X48086533Y10632977D01*
X48180978Y10727421D01*
X48228756Y10822977D01*
X48943200Y9280755D02*
X48943200Y9851866D01*
X48943200Y9566310D02*
X47943200Y9566310D01*
X48086533Y9661866D01*
X48180978Y9756310D01*
X48228756Y9851866D01*
G04 #@! TO.C,R22*
X144379569Y34368800D02*
X144712902Y34845467D01*
X144950680Y34368800D02*
X144950680Y35368800D01*
X144569569Y35368800D01*
X144474013Y35321022D01*
X144427347Y35273244D01*
X144379569Y35178800D01*
X144379569Y35035467D01*
X144427347Y34939911D01*
X144474013Y34892133D01*
X144569569Y34845467D01*
X144950680Y34845467D01*
X143931791Y35273244D02*
X143884013Y35321022D01*
X143789569Y35368800D01*
X143550680Y35368800D01*
X143456236Y35321022D01*
X143408458Y35273244D01*
X143360680Y35178800D01*
X143360680Y35083244D01*
X143408458Y34939911D01*
X143979569Y34368800D01*
X143360680Y34368800D01*
X142912902Y35273244D02*
X142865124Y35321022D01*
X142770680Y35368800D01*
X142531791Y35368800D01*
X142437347Y35321022D01*
X142389569Y35273244D01*
X142341791Y35178800D01*
X142341791Y35083244D01*
X142389569Y34939911D01*
X142960680Y34368800D01*
X142341791Y34368800D01*
G04 #@! TO.C,R21*
X76147444Y42025000D02*
X76480777Y42501667D01*
X76718555Y42025000D02*
X76718555Y43025000D01*
X76337444Y43025000D01*
X76241888Y42977222D01*
X76195222Y42929444D01*
X76147444Y42835000D01*
X76147444Y42691667D01*
X76195222Y42596111D01*
X76241888Y42548333D01*
X76337444Y42501667D01*
X76718555Y42501667D01*
X75699666Y42929444D02*
X75651888Y42977222D01*
X75557444Y43025000D01*
X75318555Y43025000D01*
X75224111Y42977222D01*
X75176333Y42929444D01*
X75128555Y42835000D01*
X75128555Y42739444D01*
X75176333Y42596111D01*
X75747444Y42025000D01*
X75128555Y42025000D01*
X74157444Y42025000D02*
X74728555Y42025000D01*
X74442999Y42025000D02*
X74442999Y43025000D01*
X74538555Y42881667D01*
X74632999Y42787222D01*
X74728555Y42739444D01*
G04 #@! TO.C,L8*
X69106622Y22111888D02*
X69583289Y22111888D01*
X69583289Y23111888D01*
X68516622Y22682999D02*
X68611066Y22730777D01*
X68658844Y22778555D01*
X68706622Y22874110D01*
X68706622Y22921888D01*
X68658844Y23016332D01*
X68611066Y23064110D01*
X68516622Y23111888D01*
X68325511Y23111888D01*
X68229955Y23064110D01*
X68183289Y23016332D01*
X68135511Y22921888D01*
X68135511Y22874110D01*
X68183289Y22778555D01*
X68229955Y22730777D01*
X68325511Y22682999D01*
X68516622Y22682999D01*
X68611066Y22635221D01*
X68658844Y22588555D01*
X68706622Y22492999D01*
X68706622Y22301888D01*
X68658844Y22207444D01*
X68611066Y22159666D01*
X68516622Y22111888D01*
X68325511Y22111888D01*
X68229955Y22159666D01*
X68183289Y22207444D01*
X68135511Y22301888D01*
X68135511Y22492999D01*
X68183289Y22588555D01*
X68229955Y22635221D01*
X68325511Y22682999D01*
G04 #@! TO.C,C46*
X155507791Y39961556D02*
X155555569Y39913778D01*
X155697791Y39866000D01*
X155793347Y39866000D01*
X155936680Y39913778D01*
X156031124Y40009333D01*
X156078902Y40103778D01*
X156126680Y40294889D01*
X156126680Y40437111D01*
X156078902Y40628222D01*
X156031124Y40722667D01*
X155936680Y40818222D01*
X155793347Y40866000D01*
X155697791Y40866000D01*
X155555569Y40818222D01*
X155507791Y40770444D01*
X154631124Y40532667D02*
X154631124Y39866000D01*
X154870013Y40913778D02*
X155107791Y40199333D01*
X154488902Y40199333D01*
X153612235Y40866000D02*
X153803346Y40866000D01*
X153898902Y40818222D01*
X153945569Y40770444D01*
X154041124Y40628222D01*
X154088902Y40437111D01*
X154088902Y40056000D01*
X154041124Y39961556D01*
X153993346Y39913778D01*
X153898902Y39866000D01*
X153707791Y39866000D01*
X153612235Y39913778D01*
X153565569Y39961556D01*
X153517791Y40056000D01*
X153517791Y40294889D01*
X153565569Y40389333D01*
X153612235Y40437111D01*
X153707791Y40484889D01*
X153898902Y40484889D01*
X153993346Y40437111D01*
X154041124Y40389333D01*
X154088902Y40294889D01*
G04 #@! TO.C,C9*
X44976044Y45261111D02*
X45023822Y45308889D01*
X45071600Y45451111D01*
X45071600Y45546667D01*
X45023822Y45690000D01*
X44928267Y45784444D01*
X44833822Y45832222D01*
X44642711Y45880000D01*
X44500489Y45880000D01*
X44309378Y45832222D01*
X44214933Y45784444D01*
X44119378Y45690000D01*
X44071600Y45546667D01*
X44071600Y45451111D01*
X44119378Y45308889D01*
X44167156Y45261111D01*
X45071600Y44765555D02*
X45071600Y44575555D01*
X45023822Y44480000D01*
X44976044Y44432222D01*
X44833822Y44337778D01*
X44642711Y44290000D01*
X44261600Y44290000D01*
X44167156Y44337778D01*
X44119378Y44384444D01*
X44071600Y44480000D01*
X44071600Y44671111D01*
X44119378Y44765555D01*
X44167156Y44813333D01*
X44261600Y44861111D01*
X44500489Y44861111D01*
X44594933Y44813333D01*
X44642711Y44765555D01*
X44690489Y44671111D01*
X44690489Y44480000D01*
X44642711Y44384444D01*
X44594933Y44337778D01*
X44500489Y44290000D01*
G04 #@! TO.C,R8*
X34998000Y7267000D02*
X35331333Y7743667D01*
X35569111Y7267000D02*
X35569111Y8267000D01*
X35188000Y8267000D01*
X35092444Y8219222D01*
X35045778Y8171444D01*
X34998000Y8077000D01*
X34998000Y7933667D01*
X35045778Y7838111D01*
X35092444Y7790333D01*
X35188000Y7743667D01*
X35569111Y7743667D01*
X34408000Y7838111D02*
X34502444Y7885889D01*
X34550222Y7933667D01*
X34598000Y8029222D01*
X34598000Y8077000D01*
X34550222Y8171444D01*
X34502444Y8219222D01*
X34408000Y8267000D01*
X34216889Y8267000D01*
X34121333Y8219222D01*
X34074667Y8171444D01*
X34026889Y8077000D01*
X34026889Y8029222D01*
X34074667Y7933667D01*
X34121333Y7885889D01*
X34216889Y7838111D01*
X34408000Y7838111D01*
X34502444Y7790333D01*
X34550222Y7743667D01*
X34598000Y7648111D01*
X34598000Y7457000D01*
X34550222Y7362556D01*
X34502444Y7314778D01*
X34408000Y7267000D01*
X34216889Y7267000D01*
X34121333Y7314778D01*
X34074667Y7362556D01*
X34026889Y7457000D01*
X34026889Y7648111D01*
X34074667Y7743667D01*
X34121333Y7790333D01*
X34216889Y7838111D01*
G04 #@! TO.C,C55*
X83431644Y13895066D02*
X83479422Y13942844D01*
X83527200Y14085066D01*
X83527200Y14180622D01*
X83479422Y14323955D01*
X83383867Y14418399D01*
X83289422Y14466177D01*
X83098311Y14513955D01*
X82956089Y14513955D01*
X82764978Y14466177D01*
X82670533Y14418399D01*
X82574978Y14323955D01*
X82527200Y14180622D01*
X82527200Y14085066D01*
X82574978Y13942844D01*
X82622756Y13895066D01*
X82527200Y12971733D02*
X82527200Y13447288D01*
X83003867Y13495066D01*
X82956089Y13447288D01*
X82908311Y13351733D01*
X82908311Y13113955D01*
X82956089Y13018399D01*
X83003867Y12971733D01*
X83098311Y12923955D01*
X83337200Y12923955D01*
X83431644Y12971733D01*
X83479422Y13018399D01*
X83527200Y13113955D01*
X83527200Y13351733D01*
X83479422Y13447288D01*
X83431644Y13495066D01*
X82527200Y12000622D02*
X82527200Y12476177D01*
X83003867Y12523955D01*
X82956089Y12476177D01*
X82908311Y12380622D01*
X82908311Y12142844D01*
X82956089Y12047288D01*
X83003867Y12000622D01*
X83098311Y11952844D01*
X83337200Y11952844D01*
X83431644Y12000622D01*
X83479422Y12047288D01*
X83527200Y12142844D01*
X83527200Y12380622D01*
X83479422Y12476177D01*
X83431644Y12523955D01*
G04 #@! TO.C,C30*
X77622155Y5152756D02*
X77669933Y5104978D01*
X77812155Y5057200D01*
X77907711Y5057200D01*
X78051044Y5104978D01*
X78145488Y5200533D01*
X78193266Y5294978D01*
X78241044Y5486089D01*
X78241044Y5628311D01*
X78193266Y5819422D01*
X78145488Y5913867D01*
X78051044Y6009422D01*
X77907711Y6057200D01*
X77812155Y6057200D01*
X77669933Y6009422D01*
X77622155Y5961644D01*
X77222155Y6057200D02*
X76603266Y6057200D01*
X76936599Y5676089D01*
X76793266Y5676089D01*
X76698822Y5628311D01*
X76651044Y5580533D01*
X76603266Y5486089D01*
X76603266Y5247200D01*
X76651044Y5152756D01*
X76698822Y5104978D01*
X76793266Y5057200D01*
X77078822Y5057200D01*
X77174377Y5104978D01*
X77222155Y5152756D01*
X75965488Y6057200D02*
X75869933Y6057200D01*
X75774377Y6009422D01*
X75726599Y5961644D01*
X75679933Y5867200D01*
X75632155Y5676089D01*
X75632155Y5438311D01*
X75679933Y5247200D01*
X75726599Y5152756D01*
X75774377Y5104978D01*
X75869933Y5057200D01*
X75965488Y5057200D01*
X76059933Y5104978D01*
X76107710Y5152756D01*
X76155488Y5247200D01*
X76203266Y5438311D01*
X76203266Y5676089D01*
X76155488Y5867200D01*
X76107710Y5961644D01*
X76059933Y6009422D01*
X75965488Y6057200D01*
G04 #@! TO.C,R28*
X143263480Y28766200D02*
X143596813Y29242867D01*
X143834591Y28766200D02*
X143834591Y29766200D01*
X143453480Y29766200D01*
X143357924Y29718422D01*
X143311258Y29670644D01*
X143263480Y29576200D01*
X143263480Y29432867D01*
X143311258Y29337311D01*
X143357924Y29289533D01*
X143453480Y29242867D01*
X143834591Y29242867D01*
X142815702Y29670644D02*
X142767924Y29718422D01*
X142673480Y29766200D01*
X142434591Y29766200D01*
X142340147Y29718422D01*
X142292369Y29670644D01*
X142244591Y29576200D01*
X142244591Y29480644D01*
X142292369Y29337311D01*
X142863480Y28766200D01*
X142244591Y28766200D01*
X141654591Y29337311D02*
X141749035Y29385089D01*
X141796813Y29432867D01*
X141844591Y29528422D01*
X141844591Y29576200D01*
X141796813Y29670644D01*
X141749035Y29718422D01*
X141654591Y29766200D01*
X141463480Y29766200D01*
X141367924Y29718422D01*
X141321258Y29670644D01*
X141273480Y29576200D01*
X141273480Y29528422D01*
X141321258Y29432867D01*
X141367924Y29385089D01*
X141463480Y29337311D01*
X141654591Y29337311D01*
X141749035Y29289533D01*
X141796813Y29242867D01*
X141844591Y29147311D01*
X141844591Y28956200D01*
X141796813Y28861756D01*
X141749035Y28813978D01*
X141654591Y28766200D01*
X141463480Y28766200D01*
X141367924Y28813978D01*
X141321258Y28861756D01*
X141273480Y28956200D01*
X141273480Y29147311D01*
X141321258Y29242867D01*
X141367924Y29289533D01*
X141463480Y29337311D01*
G04 #@! TO.C,Q6*
X18848133Y32772044D02*
X18943688Y32819822D01*
X19039244Y32915378D01*
X19181466Y33057600D01*
X19277021Y33105378D01*
X19372577Y33105378D01*
X19324799Y32867600D02*
X19419244Y32915378D01*
X19514799Y33010933D01*
X19562577Y33200933D01*
X19562577Y33534267D01*
X19514799Y33724267D01*
X19419244Y33819822D01*
X19324799Y33867600D01*
X19133688Y33867600D01*
X19039244Y33819822D01*
X18943688Y33724267D01*
X18895910Y33534267D01*
X18895910Y33200933D01*
X18943688Y33010933D01*
X19039244Y32915378D01*
X19133688Y32867600D01*
X19324799Y32867600D01*
X17971466Y33867600D02*
X18162577Y33867600D01*
X18258133Y33819822D01*
X18304800Y33772044D01*
X18400355Y33629822D01*
X18448133Y33438711D01*
X18448133Y33057600D01*
X18400355Y32963156D01*
X18352577Y32915378D01*
X18258133Y32867600D01*
X18067022Y32867600D01*
X17971466Y32915378D01*
X17924800Y32963156D01*
X17877022Y33057600D01*
X17877022Y33296489D01*
X17924800Y33390933D01*
X17971466Y33438711D01*
X18067022Y33486489D01*
X18258133Y33486489D01*
X18352577Y33438711D01*
X18400355Y33390933D01*
X18448133Y33296489D01*
G04 #@! TO.C,C36*
X66528844Y18197443D02*
X66576622Y18245221D01*
X66624400Y18387443D01*
X66624400Y18482999D01*
X66576622Y18626332D01*
X66481067Y18720776D01*
X66386622Y18768554D01*
X66195511Y18816332D01*
X66053289Y18816332D01*
X65862178Y18768554D01*
X65767733Y18720776D01*
X65672178Y18626332D01*
X65624400Y18482999D01*
X65624400Y18387443D01*
X65672178Y18245221D01*
X65719956Y18197443D01*
X65624400Y17797443D02*
X65624400Y17178554D01*
X66005511Y17511887D01*
X66005511Y17368554D01*
X66053289Y17274110D01*
X66101067Y17226332D01*
X66195511Y17178554D01*
X66434400Y17178554D01*
X66528844Y17226332D01*
X66576622Y17274110D01*
X66624400Y17368554D01*
X66624400Y17654110D01*
X66576622Y17749665D01*
X66528844Y17797443D01*
X65624400Y16301887D02*
X65624400Y16492998D01*
X65672178Y16588554D01*
X65719956Y16635221D01*
X65862178Y16730776D01*
X66053289Y16778554D01*
X66434400Y16778554D01*
X66528844Y16730776D01*
X66576622Y16682998D01*
X66624400Y16588554D01*
X66624400Y16397443D01*
X66576622Y16301887D01*
X66528844Y16255221D01*
X66434400Y16207443D01*
X66195511Y16207443D01*
X66101067Y16255221D01*
X66053289Y16301887D01*
X66005511Y16397443D01*
X66005511Y16588554D01*
X66053289Y16682998D01*
X66101067Y16730776D01*
X66195511Y16778554D01*
G04 #@! TO.C,C27*
X91538333Y12275556D02*
X91586111Y12227778D01*
X91728333Y12180000D01*
X91823889Y12180000D01*
X91967222Y12227778D01*
X92061666Y12323333D01*
X92109444Y12417778D01*
X92157222Y12608889D01*
X92157222Y12751111D01*
X92109444Y12942222D01*
X92061666Y13036667D01*
X91967222Y13132222D01*
X91823889Y13180000D01*
X91728333Y13180000D01*
X91586111Y13132222D01*
X91538333Y13084444D01*
X91090555Y13084444D02*
X91042777Y13132222D01*
X90948333Y13180000D01*
X90709444Y13180000D01*
X90615000Y13132222D01*
X90567222Y13084444D01*
X90519444Y12990000D01*
X90519444Y12894444D01*
X90567222Y12751111D01*
X91138333Y12180000D01*
X90519444Y12180000D01*
X90119444Y13180000D02*
X89452777Y13180000D01*
X89881666Y12180000D01*
G04 #@! TO.C,R37*
X143403622Y26708800D02*
X143736955Y27185467D01*
X143974733Y26708800D02*
X143974733Y27708800D01*
X143593622Y27708800D01*
X143498066Y27661022D01*
X143451400Y27613244D01*
X143403622Y27518800D01*
X143403622Y27375467D01*
X143451400Y27279911D01*
X143498066Y27232133D01*
X143593622Y27185467D01*
X143974733Y27185467D01*
X143003622Y27708800D02*
X142384733Y27708800D01*
X142718066Y27327689D01*
X142574733Y27327689D01*
X142480289Y27279911D01*
X142432511Y27232133D01*
X142384733Y27137689D01*
X142384733Y26898800D01*
X142432511Y26804356D01*
X142480289Y26756578D01*
X142574733Y26708800D01*
X142860289Y26708800D01*
X142955844Y26756578D01*
X143003622Y26804356D01*
X141984733Y27708800D02*
X141318066Y27708800D01*
X141746955Y26708800D01*
G04 #@! TO.C,U9*
X29456177Y49031400D02*
X29456177Y48221400D01*
X29408399Y48126956D01*
X29360621Y48079178D01*
X29266177Y48031400D01*
X29075066Y48031400D01*
X28979510Y48079178D01*
X28932844Y48126956D01*
X28885066Y48221400D01*
X28885066Y49031400D01*
X28389510Y48031400D02*
X28199510Y48031400D01*
X28103955Y48079178D01*
X28056177Y48126956D01*
X27961733Y48269178D01*
X27913955Y48460289D01*
X27913955Y48841400D01*
X27961733Y48935844D01*
X28008399Y48983622D01*
X28103955Y49031400D01*
X28295066Y49031400D01*
X28389510Y48983622D01*
X28437288Y48935844D01*
X28485066Y48841400D01*
X28485066Y48602511D01*
X28437288Y48508067D01*
X28389510Y48460289D01*
X28295066Y48412511D01*
X28103955Y48412511D01*
X28008399Y48460289D01*
X27961733Y48508067D01*
X27913955Y48602511D01*
G04 #@! TO.C,C24*
X82522844Y46021356D02*
X82570622Y45973578D01*
X82712844Y45925800D01*
X82808400Y45925800D01*
X82951733Y45973578D01*
X83046177Y46069133D01*
X83093955Y46163578D01*
X83141733Y46354689D01*
X83141733Y46496911D01*
X83093955Y46688022D01*
X83046177Y46782467D01*
X82951733Y46878022D01*
X82808400Y46925800D01*
X82712844Y46925800D01*
X82570622Y46878022D01*
X82522844Y46830244D01*
X82075066Y46830244D02*
X82027288Y46878022D01*
X81932844Y46925800D01*
X81693955Y46925800D01*
X81599511Y46878022D01*
X81551733Y46830244D01*
X81503955Y46735800D01*
X81503955Y46640244D01*
X81551733Y46496911D01*
X82122844Y45925800D01*
X81503955Y45925800D01*
X80627288Y46592467D02*
X80627288Y45925800D01*
X80866177Y46973578D02*
X81103955Y46259133D01*
X80485066Y46259133D01*
G04 #@! TO.C,R5*
X14297000Y19927000D02*
X14630333Y20403667D01*
X14868111Y19927000D02*
X14868111Y20927000D01*
X14487000Y20927000D01*
X14391444Y20879222D01*
X14344778Y20831444D01*
X14297000Y20737000D01*
X14297000Y20593667D01*
X14344778Y20498111D01*
X14391444Y20450333D01*
X14487000Y20403667D01*
X14868111Y20403667D01*
X13373667Y20927000D02*
X13849222Y20927000D01*
X13897000Y20450333D01*
X13849222Y20498111D01*
X13753667Y20545889D01*
X13515889Y20545889D01*
X13420333Y20498111D01*
X13373667Y20450333D01*
X13325889Y20355889D01*
X13325889Y20117000D01*
X13373667Y20022556D01*
X13420333Y19974778D01*
X13515889Y19927000D01*
X13753667Y19927000D01*
X13849222Y19974778D01*
X13897000Y20022556D01*
G04 #@! TO.C,R23*
X143744569Y32489200D02*
X144077902Y32965867D01*
X144315680Y32489200D02*
X144315680Y33489200D01*
X143934569Y33489200D01*
X143839013Y33441422D01*
X143792347Y33393644D01*
X143744569Y33299200D01*
X143744569Y33155867D01*
X143792347Y33060311D01*
X143839013Y33012533D01*
X143934569Y32965867D01*
X144315680Y32965867D01*
X143296791Y33393644D02*
X143249013Y33441422D01*
X143154569Y33489200D01*
X142915680Y33489200D01*
X142821236Y33441422D01*
X142773458Y33393644D01*
X142725680Y33299200D01*
X142725680Y33203644D01*
X142773458Y33060311D01*
X143344569Y32489200D01*
X142725680Y32489200D01*
X142325680Y33489200D02*
X141706791Y33489200D01*
X142040124Y33108089D01*
X141896791Y33108089D01*
X141802347Y33060311D01*
X141754569Y33012533D01*
X141706791Y32918089D01*
X141706791Y32679200D01*
X141754569Y32584756D01*
X141802347Y32536978D01*
X141896791Y32489200D01*
X142182347Y32489200D01*
X142277902Y32536978D01*
X142325680Y32584756D01*
G04 #@! TO.C,U2*
X44749700Y34502600D02*
X44749700Y33692600D01*
X44701922Y33598156D01*
X44654144Y33550378D01*
X44559700Y33502600D01*
X44368589Y33502600D01*
X44273033Y33550378D01*
X44226367Y33598156D01*
X44178589Y33692600D01*
X44178589Y34502600D01*
X43730811Y34407044D02*
X43683033Y34454822D01*
X43588589Y34502600D01*
X43349700Y34502600D01*
X43255256Y34454822D01*
X43207478Y34407044D01*
X43159700Y34312600D01*
X43159700Y34217044D01*
X43207478Y34073711D01*
X43778589Y33502600D01*
X43159700Y33502600D01*
G04 #@! TO.C,C18*
X128259844Y35154866D02*
X128307622Y35202644D01*
X128355400Y35344866D01*
X128355400Y35440422D01*
X128307622Y35583755D01*
X128212067Y35678199D01*
X128117622Y35725977D01*
X127926511Y35773755D01*
X127784289Y35773755D01*
X127593178Y35725977D01*
X127498733Y35678199D01*
X127403178Y35583755D01*
X127355400Y35440422D01*
X127355400Y35344866D01*
X127403178Y35202644D01*
X127450956Y35154866D01*
X128355400Y34183755D02*
X128355400Y34754866D01*
X128355400Y34469310D02*
X127355400Y34469310D01*
X127498733Y34564866D01*
X127593178Y34659310D01*
X127640956Y34754866D01*
X127784289Y33593755D02*
X127736511Y33688199D01*
X127688733Y33735977D01*
X127593178Y33783755D01*
X127545400Y33783755D01*
X127450956Y33735977D01*
X127403178Y33688199D01*
X127355400Y33593755D01*
X127355400Y33402644D01*
X127403178Y33307088D01*
X127450956Y33260422D01*
X127545400Y33212644D01*
X127593178Y33212644D01*
X127688733Y33260422D01*
X127736511Y33307088D01*
X127784289Y33402644D01*
X127784289Y33593755D01*
X127832067Y33688199D01*
X127878733Y33735977D01*
X127974289Y33783755D01*
X128165400Y33783755D01*
X128259844Y33735977D01*
X128307622Y33688199D01*
X128355400Y33593755D01*
X128355400Y33402644D01*
X128307622Y33307088D01*
X128259844Y33260422D01*
X128165400Y33212644D01*
X127974289Y33212644D01*
X127878733Y33260422D01*
X127832067Y33307088D01*
X127784289Y33402644D01*
G04 #@! TO.C,C47*
X151008969Y40255556D02*
X151056747Y40207778D01*
X151198969Y40160000D01*
X151294525Y40160000D01*
X151437858Y40207778D01*
X151532302Y40303333D01*
X151580080Y40397778D01*
X151627858Y40588889D01*
X151627858Y40731111D01*
X151580080Y40922222D01*
X151532302Y41016667D01*
X151437858Y41112222D01*
X151294525Y41160000D01*
X151198969Y41160000D01*
X151056747Y41112222D01*
X151008969Y41064444D01*
X150132302Y40826667D02*
X150132302Y40160000D01*
X150371191Y41207778D02*
X150608969Y40493333D01*
X149990080Y40493333D01*
X149590080Y41160000D02*
X148923413Y41160000D01*
X149352302Y40160000D01*
G04 #@! TO.C,C37*
X76298333Y21216844D02*
X76346111Y21169066D01*
X76488333Y21121288D01*
X76583889Y21121288D01*
X76727222Y21169066D01*
X76821666Y21264621D01*
X76869444Y21359066D01*
X76917222Y21550177D01*
X76917222Y21692399D01*
X76869444Y21883510D01*
X76821666Y21977955D01*
X76727222Y22073510D01*
X76583889Y22121288D01*
X76488333Y22121288D01*
X76346111Y22073510D01*
X76298333Y22025732D01*
X75898333Y22121288D02*
X75279444Y22121288D01*
X75612777Y21740177D01*
X75469444Y21740177D01*
X75375000Y21692399D01*
X75327222Y21644621D01*
X75279444Y21550177D01*
X75279444Y21311288D01*
X75327222Y21216844D01*
X75375000Y21169066D01*
X75469444Y21121288D01*
X75755000Y21121288D01*
X75850555Y21169066D01*
X75898333Y21216844D01*
X74879444Y22121288D02*
X74212777Y22121288D01*
X74641666Y21121288D01*
G04 #@! TO.C,C45*
X160896280Y34365955D02*
X160944058Y34413733D01*
X160991836Y34555955D01*
X160991836Y34651511D01*
X160944058Y34794844D01*
X160848503Y34889288D01*
X160754058Y34937066D01*
X160562947Y34984844D01*
X160420725Y34984844D01*
X160229614Y34937066D01*
X160135169Y34889288D01*
X160039614Y34794844D01*
X159991836Y34651511D01*
X159991836Y34555955D01*
X160039614Y34413733D01*
X160087392Y34365955D01*
X160325169Y33489288D02*
X160991836Y33489288D01*
X159944058Y33728177D02*
X160658503Y33965955D01*
X160658503Y33347066D01*
X159991836Y32423733D02*
X159991836Y32899288D01*
X160468503Y32947066D01*
X160420725Y32899288D01*
X160372947Y32803733D01*
X160372947Y32565955D01*
X160420725Y32470399D01*
X160468503Y32423733D01*
X160562947Y32375955D01*
X160801836Y32375955D01*
X160896280Y32423733D01*
X160944058Y32470399D01*
X160991836Y32565955D01*
X160991836Y32803733D01*
X160944058Y32899288D01*
X160896280Y32947066D01*
G04 #@! TO.C,R19*
X52956400Y21259555D02*
X52479733Y21592888D01*
X52956400Y21830666D02*
X51956400Y21830666D01*
X51956400Y21449555D01*
X52004178Y21353999D01*
X52051956Y21307333D01*
X52146400Y21259555D01*
X52289733Y21259555D01*
X52385289Y21307333D01*
X52433067Y21353999D01*
X52479733Y21449555D01*
X52479733Y21830666D01*
X52956400Y20288444D02*
X52956400Y20859555D01*
X52956400Y20573999D02*
X51956400Y20573999D01*
X52099733Y20669555D01*
X52194178Y20763999D01*
X52241956Y20859555D01*
X52956400Y19792888D02*
X52956400Y19602888D01*
X52908622Y19507333D01*
X52860844Y19459555D01*
X52718622Y19365111D01*
X52527511Y19317333D01*
X52146400Y19317333D01*
X52051956Y19365111D01*
X52004178Y19411777D01*
X51956400Y19507333D01*
X51956400Y19698444D01*
X52004178Y19792888D01*
X52051956Y19840666D01*
X52146400Y19888444D01*
X52385289Y19888444D01*
X52479733Y19840666D01*
X52527511Y19792888D01*
X52575289Y19698444D01*
X52575289Y19507333D01*
X52527511Y19411777D01*
X52479733Y19365111D01*
X52385289Y19317333D01*
G04 #@! TO.C,C29*
X77647555Y7464156D02*
X77695333Y7416378D01*
X77837555Y7368600D01*
X77933111Y7368600D01*
X78076444Y7416378D01*
X78170888Y7511933D01*
X78218666Y7606378D01*
X78266444Y7797489D01*
X78266444Y7939711D01*
X78218666Y8130822D01*
X78170888Y8225267D01*
X78076444Y8320822D01*
X77933111Y8368600D01*
X77837555Y8368600D01*
X77695333Y8320822D01*
X77647555Y8273044D01*
X77199777Y8273044D02*
X77151999Y8320822D01*
X77057555Y8368600D01*
X76818666Y8368600D01*
X76724222Y8320822D01*
X76676444Y8273044D01*
X76628666Y8178600D01*
X76628666Y8083044D01*
X76676444Y7939711D01*
X77247555Y7368600D01*
X76628666Y7368600D01*
X76133110Y7368600D02*
X75943110Y7368600D01*
X75847555Y7416378D01*
X75799777Y7464156D01*
X75705333Y7606378D01*
X75657555Y7797489D01*
X75657555Y8178600D01*
X75705333Y8273044D01*
X75751999Y8320822D01*
X75847555Y8368600D01*
X76038666Y8368600D01*
X76133110Y8320822D01*
X76180888Y8273044D01*
X76228666Y8178600D01*
X76228666Y7939711D01*
X76180888Y7845267D01*
X76133110Y7797489D01*
X76038666Y7749711D01*
X75847555Y7749711D01*
X75751999Y7797489D01*
X75705333Y7845267D01*
X75657555Y7939711D01*
G04 #@! TO.C,Z2*
X31963000Y16209778D02*
X31963000Y15543111D01*
X32963000Y16209778D01*
X32963000Y15543111D01*
X32058556Y15095333D02*
X32010778Y15047555D01*
X31963000Y14953111D01*
X31963000Y14714222D01*
X32010778Y14619778D01*
X32058556Y14572000D01*
X32153000Y14524222D01*
X32248556Y14524222D01*
X32391889Y14572000D01*
X32963000Y15143111D01*
X32963000Y14524222D01*
G04 #@! TO.C,R15*
X133578800Y38633155D02*
X133102133Y38966488D01*
X133578800Y39204266D02*
X132578800Y39204266D01*
X132578800Y38823155D01*
X132626578Y38727599D01*
X132674356Y38680933D01*
X132768800Y38633155D01*
X132912133Y38633155D01*
X133007689Y38680933D01*
X133055467Y38727599D01*
X133102133Y38823155D01*
X133102133Y39204266D01*
X133578800Y37662044D02*
X133578800Y38233155D01*
X133578800Y37947599D02*
X132578800Y37947599D01*
X132722133Y38043155D01*
X132816578Y38137599D01*
X132864356Y38233155D01*
X132578800Y36738711D02*
X132578800Y37214266D01*
X133055467Y37262044D01*
X133007689Y37214266D01*
X132959911Y37118711D01*
X132959911Y36880933D01*
X133007689Y36785377D01*
X133055467Y36738711D01*
X133149911Y36690933D01*
X133388800Y36690933D01*
X133483244Y36738711D01*
X133531022Y36785377D01*
X133578800Y36880933D01*
X133578800Y37118711D01*
X133531022Y37214266D01*
X133483244Y37262044D01*
G04 #@! TO.C,L9*
X72285800Y24083710D02*
X72285800Y24560377D01*
X71285800Y24560377D01*
X72285800Y23588154D02*
X72285800Y23398154D01*
X72238022Y23302599D01*
X72190244Y23254821D01*
X72048022Y23160377D01*
X71856911Y23112599D01*
X71475800Y23112599D01*
X71381356Y23160377D01*
X71333578Y23207043D01*
X71285800Y23302599D01*
X71285800Y23493710D01*
X71333578Y23588154D01*
X71381356Y23635932D01*
X71475800Y23683710D01*
X71714689Y23683710D01*
X71809133Y23635932D01*
X71856911Y23588154D01*
X71904689Y23493710D01*
X71904689Y23302599D01*
X71856911Y23207043D01*
X71809133Y23160377D01*
X71714689Y23112599D01*
G04 #@! TO.C,C34*
X75715644Y9507444D02*
X75763422Y9459666D01*
X75905644Y9411888D01*
X76001200Y9411888D01*
X76144533Y9459666D01*
X76238977Y9555221D01*
X76286755Y9649666D01*
X76334533Y9840777D01*
X76334533Y9982999D01*
X76286755Y10174110D01*
X76238977Y10268555D01*
X76144533Y10364110D01*
X76001200Y10411888D01*
X75905644Y10411888D01*
X75763422Y10364110D01*
X75715644Y10316332D01*
X75315644Y10411888D02*
X74696755Y10411888D01*
X75030088Y10030777D01*
X74886755Y10030777D01*
X74792311Y9982999D01*
X74744533Y9935221D01*
X74696755Y9840777D01*
X74696755Y9601888D01*
X74744533Y9507444D01*
X74792311Y9459666D01*
X74886755Y9411888D01*
X75172311Y9411888D01*
X75267866Y9459666D01*
X75315644Y9507444D01*
X73820088Y10078555D02*
X73820088Y9411888D01*
X74058977Y10459666D02*
X74296755Y9745221D01*
X73677866Y9745221D01*
G04 #@! TO.C,U6*
X153383547Y31084400D02*
X153383547Y30274400D01*
X153335769Y30179956D01*
X153287991Y30132178D01*
X153193547Y30084400D01*
X153002436Y30084400D01*
X152906880Y30132178D01*
X152860214Y30179956D01*
X152812436Y30274400D01*
X152812436Y31084400D01*
X151935769Y31084400D02*
X152126880Y31084400D01*
X152222436Y31036622D01*
X152269103Y30988844D01*
X152364658Y30846622D01*
X152412436Y30655511D01*
X152412436Y30274400D01*
X152364658Y30179956D01*
X152316880Y30132178D01*
X152222436Y30084400D01*
X152031325Y30084400D01*
X151935769Y30132178D01*
X151889103Y30179956D01*
X151841325Y30274400D01*
X151841325Y30513289D01*
X151889103Y30607733D01*
X151935769Y30655511D01*
X152031325Y30703289D01*
X152222436Y30703289D01*
X152316880Y30655511D01*
X152364658Y30607733D01*
X152412436Y30513289D01*
G04 #@! TO.C,U10*
X17504198Y38582600D02*
X17504198Y37772600D01*
X17456420Y37678156D01*
X17408642Y37630378D01*
X17314198Y37582600D01*
X17123087Y37582600D01*
X17027531Y37630378D01*
X16980865Y37678156D01*
X16933087Y37772600D01*
X16933087Y38582600D01*
X15961976Y37582600D02*
X16533087Y37582600D01*
X16247531Y37582600D02*
X16247531Y38582600D01*
X16343087Y38439267D01*
X16437531Y38344822D01*
X16533087Y38297044D01*
X15324198Y38582600D02*
X15228643Y38582600D01*
X15133087Y38534822D01*
X15085309Y38487044D01*
X15038643Y38392600D01*
X14990865Y38201489D01*
X14990865Y37963711D01*
X15038643Y37772600D01*
X15085309Y37678156D01*
X15133087Y37630378D01*
X15228643Y37582600D01*
X15324198Y37582600D01*
X15418643Y37630378D01*
X15466420Y37678156D01*
X15514198Y37772600D01*
X15561976Y37963711D01*
X15561976Y38201489D01*
X15514198Y38392600D01*
X15466420Y38487044D01*
X15418643Y38534822D01*
X15324198Y38582600D01*
G04 #@! TO.C,C53*
X22869576Y41858955D02*
X22917354Y41906733D01*
X22965132Y42048955D01*
X22965132Y42144511D01*
X22917354Y42287844D01*
X22821799Y42382288D01*
X22727354Y42430066D01*
X22536243Y42477844D01*
X22394021Y42477844D01*
X22202910Y42430066D01*
X22108465Y42382288D01*
X22012910Y42287844D01*
X21965132Y42144511D01*
X21965132Y42048955D01*
X22012910Y41906733D01*
X22060688Y41858955D01*
X21965132Y40935622D02*
X21965132Y41411177D01*
X22441799Y41458955D01*
X22394021Y41411177D01*
X22346243Y41315622D01*
X22346243Y41077844D01*
X22394021Y40982288D01*
X22441799Y40935622D01*
X22536243Y40887844D01*
X22775132Y40887844D01*
X22869576Y40935622D01*
X22917354Y40982288D01*
X22965132Y41077844D01*
X22965132Y41315622D01*
X22917354Y41411177D01*
X22869576Y41458955D01*
X21965132Y40487844D02*
X21965132Y39868955D01*
X22346243Y40202288D01*
X22346243Y40058955D01*
X22394021Y39964511D01*
X22441799Y39916733D01*
X22536243Y39868955D01*
X22775132Y39868955D01*
X22869576Y39916733D01*
X22917354Y39964511D01*
X22965132Y40058955D01*
X22965132Y40344511D01*
X22917354Y40440066D01*
X22869576Y40487844D01*
G04 #@! TO.C,C19*
X144171666Y42580556D02*
X144219444Y42532778D01*
X144361666Y42485000D01*
X144457222Y42485000D01*
X144600555Y42532778D01*
X144694999Y42628333D01*
X144742777Y42722778D01*
X144790555Y42913889D01*
X144790555Y43056111D01*
X144742777Y43247222D01*
X144694999Y43341667D01*
X144600555Y43437222D01*
X144457222Y43485000D01*
X144361666Y43485000D01*
X144219444Y43437222D01*
X144171666Y43389444D01*
X143200555Y42485000D02*
X143771666Y42485000D01*
X143486110Y42485000D02*
X143486110Y43485000D01*
X143581666Y43341667D01*
X143676110Y43247222D01*
X143771666Y43199444D01*
X142704999Y42485000D02*
X142514999Y42485000D01*
X142419444Y42532778D01*
X142371666Y42580556D01*
X142277222Y42722778D01*
X142229444Y42913889D01*
X142229444Y43295000D01*
X142277222Y43389444D01*
X142323888Y43437222D01*
X142419444Y43485000D01*
X142610555Y43485000D01*
X142704999Y43437222D01*
X142752777Y43389444D01*
X142800555Y43295000D01*
X142800555Y43056111D01*
X142752777Y42961667D01*
X142704999Y42913889D01*
X142610555Y42866111D01*
X142419444Y42866111D01*
X142323888Y42913889D01*
X142277222Y42961667D01*
X142229444Y43056111D01*
G04 #@! TO.C,R29*
X143339680Y30595000D02*
X143673013Y31071667D01*
X143910791Y30595000D02*
X143910791Y31595000D01*
X143529680Y31595000D01*
X143434124Y31547222D01*
X143387458Y31499444D01*
X143339680Y31405000D01*
X143339680Y31261667D01*
X143387458Y31166111D01*
X143434124Y31118333D01*
X143529680Y31071667D01*
X143910791Y31071667D01*
X142891902Y31499444D02*
X142844124Y31547222D01*
X142749680Y31595000D01*
X142510791Y31595000D01*
X142416347Y31547222D01*
X142368569Y31499444D01*
X142320791Y31405000D01*
X142320791Y31309444D01*
X142368569Y31166111D01*
X142939680Y30595000D01*
X142320791Y30595000D01*
X141825235Y30595000D02*
X141635235Y30595000D01*
X141539680Y30642778D01*
X141491902Y30690556D01*
X141397458Y30832778D01*
X141349680Y31023889D01*
X141349680Y31405000D01*
X141397458Y31499444D01*
X141444124Y31547222D01*
X141539680Y31595000D01*
X141730791Y31595000D01*
X141825235Y31547222D01*
X141873013Y31499444D01*
X141920791Y31405000D01*
X141920791Y31166111D01*
X141873013Y31071667D01*
X141825235Y31023889D01*
X141730791Y30976111D01*
X141539680Y30976111D01*
X141444124Y31023889D01*
X141397458Y31071667D01*
X141349680Y31166111D01*
G04 #@! TO.C,C35*
X72366955Y15296044D02*
X72414733Y15248266D01*
X72556955Y15200488D01*
X72652511Y15200488D01*
X72795844Y15248266D01*
X72890288Y15343821D01*
X72938066Y15438266D01*
X72985844Y15629377D01*
X72985844Y15771599D01*
X72938066Y15962710D01*
X72890288Y16057155D01*
X72795844Y16152710D01*
X72652511Y16200488D01*
X72556955Y16200488D01*
X72414733Y16152710D01*
X72366955Y16104932D01*
X71966955Y16200488D02*
X71348066Y16200488D01*
X71681399Y15819377D01*
X71538066Y15819377D01*
X71443622Y15771599D01*
X71395844Y15723821D01*
X71348066Y15629377D01*
X71348066Y15390488D01*
X71395844Y15296044D01*
X71443622Y15248266D01*
X71538066Y15200488D01*
X71823622Y15200488D01*
X71919177Y15248266D01*
X71966955Y15296044D01*
X70424733Y16200488D02*
X70900288Y16200488D01*
X70948066Y15723821D01*
X70900288Y15771599D01*
X70804733Y15819377D01*
X70566955Y15819377D01*
X70471399Y15771599D01*
X70424733Y15723821D01*
X70376955Y15629377D01*
X70376955Y15390488D01*
X70424733Y15296044D01*
X70471399Y15248266D01*
X70566955Y15200488D01*
X70804733Y15200488D01*
X70900288Y15248266D01*
X70948066Y15296044D01*
G04 #@! TO.C,R31*
X47254944Y30341000D02*
X47588277Y30817667D01*
X47826055Y30341000D02*
X47826055Y31341000D01*
X47444944Y31341000D01*
X47349388Y31293222D01*
X47302722Y31245444D01*
X47254944Y31151000D01*
X47254944Y31007667D01*
X47302722Y30912111D01*
X47349388Y30864333D01*
X47444944Y30817667D01*
X47826055Y30817667D01*
X46854944Y31341000D02*
X46236055Y31341000D01*
X46569388Y30959889D01*
X46426055Y30959889D01*
X46331611Y30912111D01*
X46283833Y30864333D01*
X46236055Y30769889D01*
X46236055Y30531000D01*
X46283833Y30436556D01*
X46331611Y30388778D01*
X46426055Y30341000D01*
X46711611Y30341000D01*
X46807166Y30388778D01*
X46854944Y30436556D01*
X45264944Y30341000D02*
X45836055Y30341000D01*
X45550499Y30341000D02*
X45550499Y31341000D01*
X45646055Y31197667D01*
X45740499Y31103222D01*
X45836055Y31055444D01*
G04 #@! TO.C,R16*
X134035555Y6505000D02*
X134368888Y6981667D01*
X134606666Y6505000D02*
X134606666Y7505000D01*
X134225555Y7505000D01*
X134129999Y7457222D01*
X134083333Y7409444D01*
X134035555Y7315000D01*
X134035555Y7171667D01*
X134083333Y7076111D01*
X134129999Y7028333D01*
X134225555Y6981667D01*
X134606666Y6981667D01*
X133064444Y6505000D02*
X133635555Y6505000D01*
X133349999Y6505000D02*
X133349999Y7505000D01*
X133445555Y7361667D01*
X133539999Y7267222D01*
X133635555Y7219444D01*
X132187777Y7505000D02*
X132378888Y7505000D01*
X132474444Y7457222D01*
X132521111Y7409444D01*
X132616666Y7267222D01*
X132664444Y7076111D01*
X132664444Y6695000D01*
X132616666Y6600556D01*
X132568888Y6552778D01*
X132474444Y6505000D01*
X132283333Y6505000D01*
X132187777Y6552778D01*
X132141111Y6600556D01*
X132093333Y6695000D01*
X132093333Y6933889D01*
X132141111Y7028333D01*
X132187777Y7076111D01*
X132283333Y7123889D01*
X132474444Y7123889D01*
X132568888Y7076111D01*
X132616666Y7028333D01*
X132664444Y6933889D01*
G04 #@! TO.C,Q5*
X54560533Y26117244D02*
X54656088Y26165022D01*
X54751644Y26260578D01*
X54893866Y26402800D01*
X54989421Y26450578D01*
X55084977Y26450578D01*
X55037199Y26212800D02*
X55131644Y26260578D01*
X55227199Y26356133D01*
X55274977Y26546133D01*
X55274977Y26879467D01*
X55227199Y27069467D01*
X55131644Y27165022D01*
X55037199Y27212800D01*
X54846088Y27212800D01*
X54751644Y27165022D01*
X54656088Y27069467D01*
X54608310Y26879467D01*
X54608310Y26546133D01*
X54656088Y26356133D01*
X54751644Y26260578D01*
X54846088Y26212800D01*
X55037199Y26212800D01*
X53637200Y27212800D02*
X54112755Y27212800D01*
X54160533Y26736133D01*
X54112755Y26783911D01*
X54017200Y26831689D01*
X53779422Y26831689D01*
X53683866Y26783911D01*
X53637200Y26736133D01*
X53589422Y26641689D01*
X53589422Y26402800D01*
X53637200Y26308356D01*
X53683866Y26260578D01*
X53779422Y26212800D01*
X54017200Y26212800D01*
X54112755Y26260578D01*
X54160533Y26308356D01*
G04 #@! TO.C,C54*
X11642776Y40715955D02*
X11690554Y40763733D01*
X11738332Y40905955D01*
X11738332Y41001511D01*
X11690554Y41144844D01*
X11594999Y41239288D01*
X11500554Y41287066D01*
X11309443Y41334844D01*
X11167221Y41334844D01*
X10976110Y41287066D01*
X10881665Y41239288D01*
X10786110Y41144844D01*
X10738332Y41001511D01*
X10738332Y40905955D01*
X10786110Y40763733D01*
X10833888Y40715955D01*
X10738332Y39792622D02*
X10738332Y40268177D01*
X11214999Y40315955D01*
X11167221Y40268177D01*
X11119443Y40172622D01*
X11119443Y39934844D01*
X11167221Y39839288D01*
X11214999Y39792622D01*
X11309443Y39744844D01*
X11548332Y39744844D01*
X11642776Y39792622D01*
X11690554Y39839288D01*
X11738332Y39934844D01*
X11738332Y40172622D01*
X11690554Y40268177D01*
X11642776Y40315955D01*
X11071665Y38868177D02*
X11738332Y38868177D01*
X10690554Y39107066D02*
X11404999Y39344844D01*
X11404999Y38725955D01*
G04 #@! TO.C,Z1*
X32162600Y13518889D02*
X32162600Y12852222D01*
X33162600Y13518889D01*
X33162600Y12852222D01*
X33162600Y11881111D02*
X33162600Y12452222D01*
X33162600Y12166666D02*
X32162600Y12166666D01*
X32305933Y12262222D01*
X32400378Y12356666D01*
X32448156Y12452222D01*
G04 #@! TO.C,C28*
X59765955Y6814556D02*
X59813733Y6766778D01*
X59955955Y6719000D01*
X60051511Y6719000D01*
X60194844Y6766778D01*
X60289288Y6862333D01*
X60337066Y6956778D01*
X60384844Y7147889D01*
X60384844Y7290111D01*
X60337066Y7481222D01*
X60289288Y7575667D01*
X60194844Y7671222D01*
X60051511Y7719000D01*
X59955955Y7719000D01*
X59813733Y7671222D01*
X59765955Y7623444D01*
X59318177Y7623444D02*
X59270399Y7671222D01*
X59175955Y7719000D01*
X58937066Y7719000D01*
X58842622Y7671222D01*
X58794844Y7623444D01*
X58747066Y7529000D01*
X58747066Y7433444D01*
X58794844Y7290111D01*
X59365955Y6719000D01*
X58747066Y6719000D01*
X58157066Y7290111D02*
X58251510Y7337889D01*
X58299288Y7385667D01*
X58347066Y7481222D01*
X58347066Y7529000D01*
X58299288Y7623444D01*
X58251510Y7671222D01*
X58157066Y7719000D01*
X57965955Y7719000D01*
X57870399Y7671222D01*
X57823733Y7623444D01*
X57775955Y7529000D01*
X57775955Y7481222D01*
X57823733Y7385667D01*
X57870399Y7337889D01*
X57965955Y7290111D01*
X58157066Y7290111D01*
X58251510Y7242333D01*
X58299288Y7195667D01*
X58347066Y7100111D01*
X58347066Y6909000D01*
X58299288Y6814556D01*
X58251510Y6766778D01*
X58157066Y6719000D01*
X57965955Y6719000D01*
X57870399Y6766778D01*
X57823733Y6814556D01*
X57775955Y6909000D01*
X57775955Y7100111D01*
X57823733Y7195667D01*
X57870399Y7242333D01*
X57965955Y7290111D01*
G04 #@! TO.C,C44*
X160845480Y37666444D02*
X160893258Y37714222D01*
X160941036Y37856444D01*
X160941036Y37952000D01*
X160893258Y38095333D01*
X160797703Y38189777D01*
X160703258Y38237555D01*
X160512147Y38285333D01*
X160369925Y38285333D01*
X160178814Y38237555D01*
X160084369Y38189777D01*
X159988814Y38095333D01*
X159941036Y37952000D01*
X159941036Y37856444D01*
X159988814Y37714222D01*
X160036592Y37666444D01*
X160274369Y36789777D02*
X160941036Y36789777D01*
X159893258Y37028666D02*
X160607703Y37266444D01*
X160607703Y36647555D01*
X160274369Y35770888D02*
X160941036Y35770888D01*
X159893258Y36009777D02*
X160607703Y36247555D01*
X160607703Y35628666D01*
G04 #@! TO.C,R18*
X58711400Y21259555D02*
X58234733Y21592888D01*
X58711400Y21830666D02*
X57711400Y21830666D01*
X57711400Y21449555D01*
X57759178Y21353999D01*
X57806956Y21307333D01*
X57901400Y21259555D01*
X58044733Y21259555D01*
X58140289Y21307333D01*
X58188067Y21353999D01*
X58234733Y21449555D01*
X58234733Y21830666D01*
X58711400Y20288444D02*
X58711400Y20859555D01*
X58711400Y20573999D02*
X57711400Y20573999D01*
X57854733Y20669555D01*
X57949178Y20763999D01*
X57996956Y20859555D01*
X58140289Y19698444D02*
X58092511Y19792888D01*
X58044733Y19840666D01*
X57949178Y19888444D01*
X57901400Y19888444D01*
X57806956Y19840666D01*
X57759178Y19792888D01*
X57711400Y19698444D01*
X57711400Y19507333D01*
X57759178Y19411777D01*
X57806956Y19365111D01*
X57901400Y19317333D01*
X57949178Y19317333D01*
X58044733Y19365111D01*
X58092511Y19411777D01*
X58140289Y19507333D01*
X58140289Y19698444D01*
X58188067Y19792888D01*
X58234733Y19840666D01*
X58330289Y19888444D01*
X58521400Y19888444D01*
X58615844Y19840666D01*
X58663622Y19792888D01*
X58711400Y19698444D01*
X58711400Y19507333D01*
X58663622Y19411777D01*
X58615844Y19365111D01*
X58521400Y19317333D01*
X58330289Y19317333D01*
X58234733Y19365111D01*
X58188067Y19411777D01*
X58140289Y19507333D01*
G04 #@! TO.C,R36*
X146607044Y23076600D02*
X146940377Y23553267D01*
X147178155Y23076600D02*
X147178155Y24076600D01*
X146797044Y24076600D01*
X146701488Y24028822D01*
X146654822Y23981044D01*
X146607044Y23886600D01*
X146607044Y23743267D01*
X146654822Y23647711D01*
X146701488Y23599933D01*
X146797044Y23553267D01*
X147178155Y23553267D01*
X146207044Y24076600D02*
X145588155Y24076600D01*
X145921488Y23695489D01*
X145778155Y23695489D01*
X145683711Y23647711D01*
X145635933Y23599933D01*
X145588155Y23505489D01*
X145588155Y23266600D01*
X145635933Y23172156D01*
X145683711Y23124378D01*
X145778155Y23076600D01*
X146063711Y23076600D01*
X146159266Y23124378D01*
X146207044Y23172156D01*
X144711488Y24076600D02*
X144902599Y24076600D01*
X144998155Y24028822D01*
X145044822Y23981044D01*
X145140377Y23838822D01*
X145188155Y23647711D01*
X145188155Y23266600D01*
X145140377Y23172156D01*
X145092599Y23124378D01*
X144998155Y23076600D01*
X144807044Y23076600D01*
X144711488Y23124378D01*
X144664822Y23172156D01*
X144617044Y23266600D01*
X144617044Y23505489D01*
X144664822Y23599933D01*
X144711488Y23647711D01*
X144807044Y23695489D01*
X144998155Y23695489D01*
X145092599Y23647711D01*
X145140377Y23599933D01*
X145188155Y23505489D01*
G04 #@! TO.C,R1*
X23913400Y36090200D02*
X23436733Y36423533D01*
X23913400Y36661311D02*
X22913400Y36661311D01*
X22913400Y36280200D01*
X22961178Y36184644D01*
X23008956Y36137978D01*
X23103400Y36090200D01*
X23246733Y36090200D01*
X23342289Y36137978D01*
X23390067Y36184644D01*
X23436733Y36280200D01*
X23436733Y36661311D01*
X23913400Y35119089D02*
X23913400Y35690200D01*
X23913400Y35404644D02*
X22913400Y35404644D01*
X23056733Y35500200D01*
X23151178Y35594644D01*
X23198956Y35690200D01*
G04 #@! TO.C,C15*
X102896666Y45295556D02*
X102944444Y45247778D01*
X103086666Y45200000D01*
X103182222Y45200000D01*
X103325555Y45247778D01*
X103419999Y45343333D01*
X103467777Y45437778D01*
X103515555Y45628889D01*
X103515555Y45771111D01*
X103467777Y45962222D01*
X103419999Y46056667D01*
X103325555Y46152222D01*
X103182222Y46200000D01*
X103086666Y46200000D01*
X102944444Y46152222D01*
X102896666Y46104444D01*
X101925555Y45200000D02*
X102496666Y45200000D01*
X102211110Y45200000D02*
X102211110Y46200000D01*
X102306666Y46056667D01*
X102401110Y45962222D01*
X102496666Y45914444D01*
X101002222Y46200000D02*
X101477777Y46200000D01*
X101525555Y45723333D01*
X101477777Y45771111D01*
X101382222Y45818889D01*
X101144444Y45818889D01*
X101048888Y45771111D01*
X101002222Y45723333D01*
X100954444Y45628889D01*
X100954444Y45390000D01*
X101002222Y45295556D01*
X101048888Y45247778D01*
X101144444Y45200000D01*
X101382222Y45200000D01*
X101477777Y45247778D01*
X101525555Y45295556D01*
G04 #@! TO.C,C33*
X71021844Y13369932D02*
X71069622Y13417710D01*
X71117400Y13559932D01*
X71117400Y13655488D01*
X71069622Y13798821D01*
X70974067Y13893265D01*
X70879622Y13941043D01*
X70688511Y13988821D01*
X70546289Y13988821D01*
X70355178Y13941043D01*
X70260733Y13893265D01*
X70165178Y13798821D01*
X70117400Y13655488D01*
X70117400Y13559932D01*
X70165178Y13417710D01*
X70212956Y13369932D01*
X70117400Y12969932D02*
X70117400Y12351043D01*
X70498511Y12684376D01*
X70498511Y12541043D01*
X70546289Y12446599D01*
X70594067Y12398821D01*
X70688511Y12351043D01*
X70927400Y12351043D01*
X71021844Y12398821D01*
X71069622Y12446599D01*
X71117400Y12541043D01*
X71117400Y12826599D01*
X71069622Y12922154D01*
X71021844Y12969932D01*
X70117400Y11951043D02*
X70117400Y11332154D01*
X70498511Y11665487D01*
X70498511Y11522154D01*
X70546289Y11427710D01*
X70594067Y11379932D01*
X70688511Y11332154D01*
X70927400Y11332154D01*
X71021844Y11379932D01*
X71069622Y11427710D01*
X71117400Y11522154D01*
X71117400Y11807710D01*
X71069622Y11903265D01*
X71021844Y11951043D01*
G04 #@! TO.C,C50*
X44717966Y42185956D02*
X44765744Y42138178D01*
X44907966Y42090400D01*
X45003522Y42090400D01*
X45146855Y42138178D01*
X45241299Y42233733D01*
X45289077Y42328178D01*
X45336855Y42519289D01*
X45336855Y42661511D01*
X45289077Y42852622D01*
X45241299Y42947067D01*
X45146855Y43042622D01*
X45003522Y43090400D01*
X44907966Y43090400D01*
X44765744Y43042622D01*
X44717966Y42994844D01*
X43794633Y43090400D02*
X44270188Y43090400D01*
X44317966Y42613733D01*
X44270188Y42661511D01*
X44174633Y42709289D01*
X43936855Y42709289D01*
X43841299Y42661511D01*
X43794633Y42613733D01*
X43746855Y42519289D01*
X43746855Y42280400D01*
X43794633Y42185956D01*
X43841299Y42138178D01*
X43936855Y42090400D01*
X44174633Y42090400D01*
X44270188Y42138178D01*
X44317966Y42185956D01*
X43109077Y43090400D02*
X43013522Y43090400D01*
X42917966Y43042622D01*
X42870188Y42994844D01*
X42823522Y42900400D01*
X42775744Y42709289D01*
X42775744Y42471511D01*
X42823522Y42280400D01*
X42870188Y42185956D01*
X42917966Y42138178D01*
X43013522Y42090400D01*
X43109077Y42090400D01*
X43203522Y42138178D01*
X43251299Y42185956D01*
X43299077Y42280400D01*
X43346855Y42471511D01*
X43346855Y42709289D01*
X43299077Y42900400D01*
X43251299Y42994844D01*
X43203522Y43042622D01*
X43109077Y43090400D01*
G04 #@! TO.C,C52*
X34632110Y48666155D02*
X34679888Y48713933D01*
X34727666Y48856155D01*
X34727666Y48951711D01*
X34679888Y49095044D01*
X34584333Y49189488D01*
X34489888Y49237266D01*
X34298777Y49285044D01*
X34156555Y49285044D01*
X33965444Y49237266D01*
X33870999Y49189488D01*
X33775444Y49095044D01*
X33727666Y48951711D01*
X33727666Y48856155D01*
X33775444Y48713933D01*
X33823222Y48666155D01*
X33727666Y47742822D02*
X33727666Y48218377D01*
X34204333Y48266155D01*
X34156555Y48218377D01*
X34108777Y48122822D01*
X34108777Y47885044D01*
X34156555Y47789488D01*
X34204333Y47742822D01*
X34298777Y47695044D01*
X34537666Y47695044D01*
X34632110Y47742822D01*
X34679888Y47789488D01*
X34727666Y47885044D01*
X34727666Y48122822D01*
X34679888Y48218377D01*
X34632110Y48266155D01*
X33823222Y47247266D02*
X33775444Y47199488D01*
X33727666Y47105044D01*
X33727666Y46866155D01*
X33775444Y46771711D01*
X33823222Y46723933D01*
X33917666Y46676155D01*
X34013222Y46676155D01*
X34156555Y46723933D01*
X34727666Y47295044D01*
X34727666Y46676155D01*
G04 #@! TO.C,U3*
X76927200Y16325688D02*
X77737200Y16325688D01*
X77831644Y16277910D01*
X77879422Y16230132D01*
X77927200Y16135688D01*
X77927200Y15944577D01*
X77879422Y15849021D01*
X77831644Y15802355D01*
X77737200Y15754577D01*
X76927200Y15754577D01*
X76927200Y15354577D02*
X76927200Y14735688D01*
X77308311Y15069021D01*
X77308311Y14925688D01*
X77356089Y14831244D01*
X77403867Y14783466D01*
X77498311Y14735688D01*
X77737200Y14735688D01*
X77831644Y14783466D01*
X77879422Y14831244D01*
X77927200Y14925688D01*
X77927200Y15211244D01*
X77879422Y15306799D01*
X77831644Y15354577D01*
G04 #@! TO.C,C6*
X22020111Y16252556D02*
X22067889Y16204778D01*
X22210111Y16157000D01*
X22305667Y16157000D01*
X22449000Y16204778D01*
X22543444Y16300333D01*
X22591222Y16394778D01*
X22639000Y16585889D01*
X22639000Y16728111D01*
X22591222Y16919222D01*
X22543444Y17013667D01*
X22449000Y17109222D01*
X22305667Y17157000D01*
X22210111Y17157000D01*
X22067889Y17109222D01*
X22020111Y17061444D01*
X21143444Y17157000D02*
X21334555Y17157000D01*
X21430111Y17109222D01*
X21476778Y17061444D01*
X21572333Y16919222D01*
X21620111Y16728111D01*
X21620111Y16347000D01*
X21572333Y16252556D01*
X21524555Y16204778D01*
X21430111Y16157000D01*
X21239000Y16157000D01*
X21143444Y16204778D01*
X21096778Y16252556D01*
X21049000Y16347000D01*
X21049000Y16585889D01*
X21096778Y16680333D01*
X21143444Y16728111D01*
X21239000Y16775889D01*
X21430111Y16775889D01*
X21524555Y16728111D01*
X21572333Y16680333D01*
X21620111Y16585889D01*
G04 #@! TO.C,C57*
X115466644Y12518756D02*
X115514422Y12470978D01*
X115656644Y12423200D01*
X115752200Y12423200D01*
X115895533Y12470978D01*
X115989977Y12566533D01*
X116037755Y12660978D01*
X116085533Y12852089D01*
X116085533Y12994311D01*
X116037755Y13185422D01*
X115989977Y13279867D01*
X115895533Y13375422D01*
X115752200Y13423200D01*
X115656644Y13423200D01*
X115514422Y13375422D01*
X115466644Y13327644D01*
X114543311Y13423200D02*
X115018866Y13423200D01*
X115066644Y12946533D01*
X115018866Y12994311D01*
X114923311Y13042089D01*
X114685533Y13042089D01*
X114589977Y12994311D01*
X114543311Y12946533D01*
X114495533Y12852089D01*
X114495533Y12613200D01*
X114543311Y12518756D01*
X114589977Y12470978D01*
X114685533Y12423200D01*
X114923311Y12423200D01*
X115018866Y12470978D01*
X115066644Y12518756D01*
X114095533Y13423200D02*
X113428866Y13423200D01*
X113857755Y12423200D01*
G04 #@! TO.C,R4*
X16835489Y24321200D02*
X17168822Y24797867D01*
X17406600Y24321200D02*
X17406600Y25321200D01*
X17025489Y25321200D01*
X16929933Y25273422D01*
X16883267Y25225644D01*
X16835489Y25131200D01*
X16835489Y24987867D01*
X16883267Y24892311D01*
X16929933Y24844533D01*
X17025489Y24797867D01*
X17406600Y24797867D01*
X15958822Y24987867D02*
X15958822Y24321200D01*
X16197711Y25368978D02*
X16435489Y24654533D01*
X15816600Y24654533D01*
G04 #@! TO.C,R39*
X37183844Y37823200D02*
X37517177Y38299867D01*
X37754955Y37823200D02*
X37754955Y38823200D01*
X37373844Y38823200D01*
X37278288Y38775422D01*
X37231622Y38727644D01*
X37183844Y38633200D01*
X37183844Y38489867D01*
X37231622Y38394311D01*
X37278288Y38346533D01*
X37373844Y38299867D01*
X37754955Y38299867D01*
X36783844Y38823200D02*
X36164955Y38823200D01*
X36498288Y38442089D01*
X36354955Y38442089D01*
X36260511Y38394311D01*
X36212733Y38346533D01*
X36164955Y38252089D01*
X36164955Y38013200D01*
X36212733Y37918756D01*
X36260511Y37870978D01*
X36354955Y37823200D01*
X36640511Y37823200D01*
X36736066Y37870978D01*
X36783844Y37918756D01*
X35669399Y37823200D02*
X35479399Y37823200D01*
X35383844Y37870978D01*
X35336066Y37918756D01*
X35241622Y38060978D01*
X35193844Y38252089D01*
X35193844Y38633200D01*
X35241622Y38727644D01*
X35288288Y38775422D01*
X35383844Y38823200D01*
X35574955Y38823200D01*
X35669399Y38775422D01*
X35717177Y38727644D01*
X35764955Y38633200D01*
X35764955Y38394311D01*
X35717177Y38299867D01*
X35669399Y38252089D01*
X35574955Y38204311D01*
X35383844Y38204311D01*
X35288288Y38252089D01*
X35241622Y38299867D01*
X35193844Y38394311D01*
G04 #@! TO.C,C5*
X19327711Y10268956D02*
X19375489Y10221178D01*
X19517711Y10173400D01*
X19613267Y10173400D01*
X19756600Y10221178D01*
X19851044Y10316733D01*
X19898822Y10411178D01*
X19946600Y10602289D01*
X19946600Y10744511D01*
X19898822Y10935622D01*
X19851044Y11030067D01*
X19756600Y11125622D01*
X19613267Y11173400D01*
X19517711Y11173400D01*
X19375489Y11125622D01*
X19327711Y11077844D01*
X18404378Y11173400D02*
X18879933Y11173400D01*
X18927711Y10696733D01*
X18879933Y10744511D01*
X18784378Y10792289D01*
X18546600Y10792289D01*
X18451044Y10744511D01*
X18404378Y10696733D01*
X18356600Y10602289D01*
X18356600Y10363400D01*
X18404378Y10268956D01*
X18451044Y10221178D01*
X18546600Y10173400D01*
X18784378Y10173400D01*
X18879933Y10221178D01*
X18927711Y10268956D01*
G04 #@! TO.C,C51*
X23735510Y47194466D02*
X23783288Y47242244D01*
X23831066Y47384466D01*
X23831066Y47480022D01*
X23783288Y47623355D01*
X23687733Y47717799D01*
X23593288Y47765577D01*
X23402177Y47813355D01*
X23259955Y47813355D01*
X23068844Y47765577D01*
X22974399Y47717799D01*
X22878844Y47623355D01*
X22831066Y47480022D01*
X22831066Y47384466D01*
X22878844Y47242244D01*
X22926622Y47194466D01*
X22831066Y46271133D02*
X22831066Y46746688D01*
X23307733Y46794466D01*
X23259955Y46746688D01*
X23212177Y46651133D01*
X23212177Y46413355D01*
X23259955Y46317799D01*
X23307733Y46271133D01*
X23402177Y46223355D01*
X23641066Y46223355D01*
X23735510Y46271133D01*
X23783288Y46317799D01*
X23831066Y46413355D01*
X23831066Y46651133D01*
X23783288Y46746688D01*
X23735510Y46794466D01*
X23831066Y45252244D02*
X23831066Y45823355D01*
X23831066Y45537799D02*
X22831066Y45537799D01*
X22974399Y45633355D01*
X23068844Y45727799D01*
X23116622Y45823355D01*
G04 #@! TO.C,R40*
X40181044Y29720600D02*
X40514377Y30197267D01*
X40752155Y29720600D02*
X40752155Y30720600D01*
X40371044Y30720600D01*
X40275488Y30672822D01*
X40228822Y30625044D01*
X40181044Y30530600D01*
X40181044Y30387267D01*
X40228822Y30291711D01*
X40275488Y30243933D01*
X40371044Y30197267D01*
X40752155Y30197267D01*
X39304377Y30387267D02*
X39304377Y29720600D01*
X39543266Y30768378D02*
X39781044Y30053933D01*
X39162155Y30053933D01*
X38524377Y30720600D02*
X38428822Y30720600D01*
X38333266Y30672822D01*
X38285488Y30625044D01*
X38238822Y30530600D01*
X38191044Y30339489D01*
X38191044Y30101711D01*
X38238822Y29910600D01*
X38285488Y29816156D01*
X38333266Y29768378D01*
X38428822Y29720600D01*
X38524377Y29720600D01*
X38618822Y29768378D01*
X38666599Y29816156D01*
X38714377Y29910600D01*
X38762155Y30101711D01*
X38762155Y30339489D01*
X38714377Y30530600D01*
X38666599Y30625044D01*
X38618822Y30672822D01*
X38524377Y30720600D01*
G04 #@! TO.C,R17*
X70405533Y46002000D02*
X70738866Y46478667D01*
X70976644Y46002000D02*
X70976644Y47002000D01*
X70595533Y47002000D01*
X70499977Y46954222D01*
X70453311Y46906444D01*
X70405533Y46812000D01*
X70405533Y46668667D01*
X70453311Y46573111D01*
X70499977Y46525333D01*
X70595533Y46478667D01*
X70976644Y46478667D01*
X69434422Y46002000D02*
X70005533Y46002000D01*
X69719977Y46002000D02*
X69719977Y47002000D01*
X69815533Y46858667D01*
X69909977Y46764222D01*
X70005533Y46716444D01*
X69034422Y47002000D02*
X68367755Y47002000D01*
X68796644Y46002000D01*
G04 #@! TO.C,L1*
X38707000Y10153222D02*
X38707000Y10629889D01*
X37707000Y10629889D01*
X38707000Y9182111D02*
X38707000Y9753222D01*
X38707000Y9467666D02*
X37707000Y9467666D01*
X37850333Y9563222D01*
X37944778Y9657666D01*
X37992556Y9753222D01*
%LPC*%
D13*
G04 #@! TO.C,C48*
X147100636Y38340000D03*
X147100636Y36590000D03*
G04 #@! TO.C,C21*
X121920000Y5475000D03*
X121920000Y7225000D03*
D14*
G04 #@! TO.C,R24*
X154473000Y29972000D03*
X156423000Y29972000D03*
D15*
G04 #@! TO.C,L10*
X59853000Y13970000D03*
X58003000Y13970000D03*
D14*
G04 #@! TO.C,R38*
X149901000Y28956000D03*
X151851000Y28956000D03*
D16*
G04 #@! TO.C,M6*
X50800000Y3810000D03*
G04 #@! TO.C,M5*
X19050000Y46990000D03*
D17*
G04 #@! TO.C,R30*
X51625500Y39075000D03*
X51625500Y37125000D03*
D18*
G04 #@! TO.C,U7*
X58191400Y10312400D03*
X55651400Y10312400D03*
X53111400Y10312400D03*
D19*
G04 #@! TO.C,C20*
X158938600Y26771600D03*
D20*
X153938600Y26771600D03*
D21*
G04 #@! TO.C,C10*
X51421000Y32766000D03*
X49671000Y32766000D03*
D22*
G04 #@! TO.C,D1*
X33848000Y1567000D03*
X34798000Y3767000D03*
X35748000Y1567000D03*
D23*
G04 #@! TO.C,C31*
X91805000Y3175000D03*
D24*
X89805000Y3175000D03*
D13*
G04 #@! TO.C,C8*
X38227000Y36181000D03*
X38227000Y34431000D03*
D25*
G04 #@! TO.C,L11*
X46736000Y11466000D03*
X46736000Y9616000D03*
D14*
G04 #@! TO.C,R22*
X146125636Y34925000D03*
X148075636Y34925000D03*
G04 #@! TO.C,R21*
X76413000Y44450000D03*
X74463000Y44450000D03*
D26*
G04 #@! TO.C,J2*
X38334000Y12970000D03*
X35834000Y14970000D03*
X35834000Y12970000D03*
D27*
X43104000Y10260000D03*
X31064000Y10260000D03*
D28*
X38334000Y14970000D03*
D15*
G04 #@! TO.C,L8*
X69784400Y20686888D03*
X67934400Y20686888D03*
D23*
G04 #@! TO.C,C32*
X60055000Y3175000D03*
D24*
X58055000Y3175000D03*
D29*
G04 #@! TO.C,J6*
X11890000Y30710000D03*
X11890000Y27710000D03*
X8890000Y30710000D03*
D30*
X8890000Y27710000D03*
D31*
G04 #@! TD*
X4572000Y29210000D03*
D21*
G04 #@! TO.C,C46*
X153845636Y38735000D03*
X155595636Y38735000D03*
D13*
G04 #@! TO.C,C9*
X46507400Y43879800D03*
X46507400Y45629800D03*
D30*
G04 #@! TO.C,J5*
X8890000Y38045000D03*
D29*
X8890000Y44045000D03*
X8890000Y41045000D03*
X8890000Y47045000D03*
D31*
G04 #@! TD*
X4572000Y40195500D03*
X4572000Y44894500D03*
D14*
G04 #@! TO.C,R8*
X33823000Y5842000D03*
X35773000Y5842000D03*
D13*
G04 #@! TO.C,C55*
X81051400Y12358400D03*
X81051400Y14108400D03*
D21*
G04 #@! TO.C,C30*
X81012000Y5588000D03*
X79262000Y5588000D03*
D14*
G04 #@! TO.C,R28*
X146805636Y29210000D03*
X144855636Y29210000D03*
D29*
G04 #@! TO.C,J1*
X165910000Y10510000D03*
X168910000Y10510000D03*
X168910000Y19510000D03*
X168910000Y16510000D03*
X165910000Y13510000D03*
D30*
X168910000Y22510000D03*
D29*
X165910000Y22510000D03*
X165910000Y19510000D03*
X165910000Y16510000D03*
X168910000Y13510000D03*
D31*
G04 #@! TD*
X173228000Y20358100D03*
X173228000Y12661900D03*
D32*
G04 #@! TO.C,J11*
X60045600Y41960800D03*
D33*
X60045600Y36880800D03*
X60045600Y29260800D03*
X60045600Y34340800D03*
X60045600Y39420800D03*
X60045600Y31800800D03*
D22*
G04 #@! TO.C,Q6*
X17719000Y34968000D03*
X18669000Y37168000D03*
X19619000Y34968000D03*
D23*
G04 #@! TO.C,C26*
X59182000Y48091600D03*
D24*
X59182000Y46091600D03*
D34*
G04 #@! TO.C,C36*
X68224400Y16086888D03*
X68224400Y18936888D03*
D21*
G04 #@! TO.C,C27*
X89930000Y14605000D03*
X91680000Y14605000D03*
D14*
G04 #@! TO.C,R37*
X146796400Y27254200D03*
X144846400Y27254200D03*
D35*
G04 #@! TO.C,U9*
X28021666Y46101000D03*
X30821666Y46101000D03*
X28021666Y47051000D03*
X30821666Y47051000D03*
X30821666Y45151000D03*
X28021666Y45151000D03*
D36*
G04 #@! TO.C,J12*
X47574200Y23658200D03*
D37*
X47574200Y21158200D03*
D36*
X47574200Y22408200D03*
X47574200Y24908200D03*
D33*
G04 #@! TO.C,J10*
X30226000Y27432000D03*
X32766000Y29972000D03*
X30226000Y29972000D03*
D32*
X30226000Y32512000D03*
D33*
X32766000Y27432000D03*
X32766000Y32512000D03*
D21*
G04 #@! TO.C,C24*
X82790000Y48260000D03*
X81040000Y48260000D03*
D29*
G04 #@! TO.C,J8*
X165910000Y35639000D03*
X165910000Y29639000D03*
X165910000Y32639000D03*
X168910000Y29639000D03*
D30*
X168910000Y35639000D03*
D29*
X168910000Y32639000D03*
D31*
G04 #@! TD*
X173228000Y32639000D03*
D20*
G04 #@! TO.C,C22*
X147761000Y42545000D03*
D19*
X155261000Y42545000D03*
D14*
G04 #@! TO.C,R5*
X15072000Y22352000D03*
X13122000Y22352000D03*
G04 #@! TO.C,R23*
X145490636Y33020000D03*
X147440636Y33020000D03*
D23*
G04 #@! TO.C,C25*
X91805000Y17399000D03*
D24*
X89805000Y17399000D03*
D38*
G04 #@! TO.C,U2*
X43953500Y37719000D03*
X43953500Y38989000D03*
X48883500Y37719000D03*
X48883500Y38989000D03*
X43953500Y36449000D03*
X48883500Y36449000D03*
X48883500Y35179000D03*
X43953500Y35179000D03*
D34*
G04 #@! TO.C,C18*
X125755400Y35918200D03*
X125755400Y33068200D03*
D21*
G04 #@! TO.C,C47*
X151150636Y38735000D03*
X149400636Y38735000D03*
G04 #@! TO.C,C37*
X76440000Y19975688D03*
X74690000Y19975688D03*
D13*
G04 #@! TO.C,C45*
X158530636Y34530000D03*
X158530636Y32780000D03*
D17*
G04 #@! TO.C,R19*
X54381400Y19599000D03*
X54381400Y21549000D03*
D21*
G04 #@! TO.C,C29*
X81012000Y8001000D03*
X79262000Y8001000D03*
D16*
G04 #@! TO.C,M2*
X50800000Y46990000D03*
D39*
G04 #@! TO.C,Z2*
X34163000Y14642000D03*
X34163000Y16092000D03*
D16*
G04 #@! TO.C,M4*
X161925000Y46990000D03*
D34*
G04 #@! TO.C,R15*
X130886200Y36548000D03*
X130886200Y39398000D03*
D25*
G04 #@! TO.C,L9*
X71780400Y22119888D03*
X71780400Y20269888D03*
D21*
G04 #@! TO.C,C34*
X75830400Y11669888D03*
X74080400Y11669888D03*
D40*
G04 #@! TO.C,U6*
X155715636Y32665000D03*
X155715636Y36565000D03*
X149915636Y35265000D03*
X149915636Y33315000D03*
X149915636Y34615000D03*
X149915636Y32015000D03*
X155715636Y33965000D03*
X149915636Y36565000D03*
X155715636Y34615000D03*
X155715636Y33315000D03*
X155715636Y32015000D03*
X149915636Y35915000D03*
X155715636Y35265000D03*
X149915636Y32665000D03*
X149915636Y33965000D03*
X155715636Y35915000D03*
D35*
G04 #@! TO.C,U10*
X18333332Y40640000D03*
X15533332Y40640000D03*
X18333332Y39690000D03*
X15533332Y39690000D03*
X15533332Y41590000D03*
X18333332Y41590000D03*
D13*
G04 #@! TO.C,C53*
X20743332Y39130000D03*
X20743332Y40880000D03*
D41*
G04 #@! TO.C,C19*
X144935000Y45085000D03*
X142085000Y45085000D03*
D23*
G04 #@! TO.C,C23*
X55397400Y43824400D03*
D24*
X55397400Y41824400D03*
D16*
G04 #@! TO.C,M1*
X19050000Y3810000D03*
D42*
G04 #@! TO.C,C56*
X128143000Y40493000D03*
D43*
X128143000Y37993000D03*
D29*
G04 #@! TO.C,J7*
X165910000Y43180000D03*
D30*
X168910000Y43180000D03*
D31*
G04 #@! TD*
X173228000Y43180000D03*
D33*
G04 #@! TO.C,J9*
X25146000Y2540000D03*
X27686000Y5080000D03*
X25146000Y5080000D03*
D32*
X25146000Y7620000D03*
D33*
X27686000Y2540000D03*
X27686000Y7620000D03*
D19*
G04 #@! TO.C,C16*
X102398200Y9702800D03*
D20*
X97398200Y9702800D03*
D19*
G04 #@! TO.C,C17*
X158710000Y11023600D03*
D20*
X153710000Y11023600D03*
D14*
G04 #@! TO.C,R29*
X146805636Y31115000D03*
X144855636Y31115000D03*
D13*
G04 #@! TO.C,C35*
X71780400Y17144888D03*
X71780400Y18894888D03*
D14*
G04 #@! TO.C,R31*
X47520500Y32766000D03*
X45570500Y32766000D03*
D44*
G04 #@! TO.C,S1*
X37796400Y22316000D03*
D45*
X44296400Y17816000D03*
X37796400Y17816000D03*
X44296400Y22316000D03*
D46*
G04 #@! TO.C,U4*
X82550000Y2540000D03*
D47*
X64770000Y48260000D03*
X67310000Y2540000D03*
X77470000Y2540000D03*
X74930000Y48260000D03*
X85090000Y48260000D03*
D14*
G04 #@! TO.C,R16*
X132375000Y5080000D03*
X134325000Y5080000D03*
D48*
G04 #@! TO.C,Q5*
X55405200Y23129200D03*
X53205200Y24079200D03*
X55405200Y25029200D03*
D13*
G04 #@! TO.C,C54*
X13123332Y39130000D03*
X13123332Y40880000D03*
D39*
G04 #@! TO.C,Z1*
X34163000Y12917000D03*
X34163000Y11467000D03*
D21*
G04 #@! TO.C,C28*
X58053000Y5461000D03*
X59803000Y5461000D03*
D13*
G04 #@! TO.C,C44*
X158530636Y37705000D03*
X158530636Y35955000D03*
D17*
G04 #@! TO.C,R18*
X56286400Y21549000D03*
X56286400Y19599000D03*
D14*
G04 #@! TO.C,R36*
X146821800Y25349200D03*
X144871800Y25349200D03*
D17*
G04 #@! TO.C,R1*
X21463000Y37170000D03*
X21463000Y35220000D03*
D21*
G04 #@! TO.C,C15*
X101360000Y47625000D03*
X103110000Y47625000D03*
D29*
G04 #@! TO.C,J3*
X8890000Y6580000D03*
D30*
X8890000Y3580000D03*
D31*
G04 #@! TD*
X4572000Y5080000D03*
D16*
G04 #@! TO.C,M3*
X171450000Y3810000D03*
D13*
G04 #@! TO.C,C33*
X72415400Y13814888D03*
X72415400Y12064888D03*
D23*
G04 #@! TO.C,C43*
X46482000Y15478000D03*
D24*
X46482000Y13478000D03*
D21*
G04 #@! TO.C,C50*
X44931300Y40665400D03*
X43181300Y40665400D03*
D13*
G04 #@! TO.C,C52*
X32596666Y47611000D03*
X32596666Y45861000D03*
D49*
G04 #@! TO.C,U3*
X74005400Y14079888D03*
X75905400Y16879888D03*
X74955400Y16879888D03*
X74005400Y16879888D03*
X75905400Y14079888D03*
D21*
G04 #@! TO.C,C6*
X22719000Y14732000D03*
X20969000Y14732000D03*
G04 #@! TO.C,C57*
X115632200Y10998200D03*
X113882200Y10998200D03*
D14*
G04 #@! TO.C,R4*
X15072000Y24892000D03*
X13122000Y24892000D03*
D50*
G04 #@! TO.C,U5*
X137160000Y19050000D03*
X129540000Y3175000D03*
X137160000Y15240000D03*
X125730000Y31115000D03*
X129540000Y31115000D03*
X133350000Y31115000D03*
D51*
X137160000Y31115000D03*
D50*
X137160000Y3175000D03*
D51*
X121920000Y31115000D03*
D52*
X121920000Y3175000D03*
D14*
G04 #@! TO.C,R39*
X38649000Y38100000D03*
X40599000Y38100000D03*
D21*
G04 #@! TO.C,C5*
X18276600Y12598400D03*
X20026600Y12598400D03*
D29*
G04 #@! TO.C,J4*
X8890000Y20145000D03*
X8890000Y17145000D03*
D30*
X8890000Y14145000D03*
D31*
G04 #@! TD*
X4572000Y17145000D03*
D23*
G04 #@! TO.C,C42*
X47101000Y7366000D03*
D24*
X45101000Y7366000D03*
D13*
G04 #@! TO.C,C51*
X25611666Y47611000D03*
X25611666Y45861000D03*
D14*
G04 #@! TO.C,R40*
X38649000Y32004000D03*
X40599000Y32004000D03*
G04 #@! TO.C,R17*
X68875000Y48260000D03*
X70825000Y48260000D03*
D25*
G04 #@! TO.C,L1*
X40132000Y10831000D03*
X40132000Y8981000D03*
D20*
G04 #@! TO.C,C14*
X103692000Y42545000D03*
D19*
X111192000Y42545000D03*
G04 #@! TO.C,C13*
X100905000Y28067000D03*
D20*
X93405000Y28067000D03*
D53*
G04 #@! TD*
X38531800Y7035800D03*
X83261200Y40817800D03*
G04 --- BOARD END --- *
G04 #@! TF.MD5,968c62ac452688cea119524f404b933b*
M02*
