G04 --- HEADER BEGIN --- *
G04 #@! TF.GenerationSoftware,LibrePCB,LibrePCB,1.1.0*
G04 #@! TF.CreationDate,2024-09-10T10:23:41*
G04 #@! TF.ProjectId,100818,18c58eaa-e54a-4ec1-94cd-ac7c7134a3b5,v1.0.1*
G04 #@! TF.Part,Single*
G04 #@! TF.SameCoordinates*
G04 #@! TF.FileFunction,Legend,Top*
G04 #@! TF.FilePolarity,Positive*
%FSLAX66Y66*%
%MOMM*%
G01*
G75*
G04 --- HEADER END --- *
G04 --- APERTURE LIST BEGIN --- *
%ADD10C,0.25*%
%ADD11C,0.1524*%
%ADD12C,0.2*%
%ADD13C,0.01*%
%ADD14C,0.15*%
%AMROUNDEDRECT15*20,1,0.95,-0.625,0.0,0.625,0.0,0.0*20,1,0.75,-0.725,0.0,0.725,0.0,0.0*1,1,0.2,-0.625,0.375*1,1,0.2,0.625,0.375*1,1,0.2,0.625,-0.375*1,1,0.2,-0.625,-0.375*%
%ADD15ROUNDEDRECT15*%
%ADD16C,5.3562*%
%AMROUNDEDRECT17*20,1,0.8,-0.4,0.0,0.4,0.0,90.0*20,1,0.6,-0.5,0.0,0.5,0.0,90.0*1,1,0.2,-0.3,-0.4*1,1,0.2,-0.3,0.4*1,1,0.2,0.3,0.4*1,1,0.2,0.3,-0.4*%
%ADD17ROUNDEDRECT17*%
%AMROUNDEDRECT18*20,1,0.95,-0.625,0.0,0.625,0.0,90.0*20,1,0.75,-0.725,0.0,0.725,0.0,90.0*1,1,0.2,-0.375,-0.625*1,1,0.2,-0.375,0.625*1,1,0.2,0.375,0.625*1,1,0.2,0.375,-0.625*%
%ADD18ROUNDEDRECT18*%
%AMROUNDEDRECT19*20,1,0.8,-0.4,0.0,0.4,0.0,0.0*20,1,0.6,-0.5,0.0,0.5,0.0,0.0*1,1,0.2,-0.4,0.3*1,1,0.2,0.4,0.3*1,1,0.2,0.4,-0.3*1,1,0.2,-0.4,-0.3*%
%ADD19ROUNDEDRECT19*%
%AMROUNDEDRECT20*20,1,1.15,-0.625,0.0,0.625,0.0,90.0*20,1,0.95,-0.725,0.0,0.725,0.0,90.0*1,1,0.2,-0.475,-0.625*1,1,0.2,-0.475,0.625*1,1,0.2,0.475,0.625*1,1,0.2,0.475,-0.625*%
%ADD20ROUNDEDRECT20*%
%AMROUNDEDRECT21*20,1,1.15,-1.25,0.0,1.25,0.0,0.0*20,1,0.95,-1.35,0.0,1.35,0.0,0.0*1,1,0.2,-1.25,0.475*1,1,0.2,1.25,0.475*1,1,0.2,1.25,-0.475*1,1,0.2,-1.25,-0.475*%
%ADD21ROUNDEDRECT21*%
%ADD22O,1.5X2.7*%
%ADD23C,2.0*%
%AMROUNDEDRECT24*20,1,2.0,-0.9,0.0,0.9,0.0,0.0*20,1,1.8,-1.0,0.0,1.0,0.0,0.0*1,1,0.2,-0.9,0.9*1,1,0.2,0.9,0.9*1,1,0.2,0.9,-0.9*1,1,0.2,-0.9,-0.9*%
%ADD24ROUNDEDRECT24*%
%ADD25C,1.5*%
%AMROUNDEDRECT26*20,1,1.5,-0.65,0.0,0.65,0.0,0.0*20,1,1.3,-0.75,0.0,0.75,0.0,0.0*1,1,0.2,-0.65,0.65*1,1,0.2,0.65,0.65*1,1,0.2,0.65,-0.65*1,1,0.2,-0.65,-0.65*%
%ADD26ROUNDEDRECT26*%
%AMROUNDEDRECT27*20,1,0.65,-0.4875,0.0,0.4875,0.0,0.0*20,1,0.225,-0.7,0.0,0.7,0.0,0.0*1,1,0.425,-0.4875,0.1125*1,1,0.425,0.4875,0.1125*1,1,0.425,0.4875,-0.1125*1,1,0.425,-0.4875,-0.1125*%
%ADD27ROUNDEDRECT27*%
%AMROUNDEDRECT28*20,1,0.65,-0.4875,0.0,0.4875,0.0,90.0*20,1,0.225,-0.7,0.0,0.7,0.0,90.0*1,1,0.425,-0.1125,-0.4875*1,1,0.425,-0.1125,0.4875*1,1,0.425,0.1125,0.4875*1,1,0.425,0.1125,-0.4875*%
%ADD28ROUNDEDRECT28*%
%ADD29C,1.6224*%
%ADD30C,3.0194*%
%AMROUNDEDRECT31*20,1,1.6224,-0.7112,0.0,0.7112,0.0,0.0*20,1,1.4224,-0.8112,0.0,0.8112,0.0,0.0*1,1,0.2,-0.7112,0.7112*1,1,0.2,0.7112,0.7112*1,1,0.2,0.7112,-0.7112*1,1,0.2,-0.7112,-0.7112*%
%ADD31ROUNDEDRECT31*%
%AMROUNDEDRECT32*20,1,1.15,-1.25,0.0,1.25,0.0,90.0*20,1,0.95,-1.35,0.0,1.35,0.0,90.0*1,1,0.2,-0.475,-1.25*1,1,0.2,-0.475,1.25*1,1,0.2,0.475,1.25*1,1,0.2,0.475,-1.25*%
%ADD32ROUNDEDRECT32*%
%ADD33C,1.978*%
%AMROUNDEDRECT34*20,1,1.978,-0.889,0.0,0.889,0.0,0.0*20,1,1.778,-0.989,0.0,0.989,0.0,0.0*1,1,0.2,-0.889,0.889*1,1,0.2,0.889,0.889*1,1,0.2,0.889,-0.889*1,1,0.2,-0.889,-0.889*%
%ADD34ROUNDEDRECT34*%
%ADD35C,3.1972*%
%AMROUNDEDRECT36*20,1,1.0,-0.45,0.0,0.45,0.0,0.0*20,1,0.4,-0.75,0.0,0.75,0.0,0.0*1,1,0.6,-0.45,0.2*1,1,0.6,0.45,0.2*1,1,0.6,0.45,-0.2*1,1,0.6,-0.45,-0.2*%
%ADD36ROUNDEDRECT36*%
%AMROUNDEDRECT37*20,1,1.25,-1.275,0.0,1.275,0.0,0.0*20,1,1.05,-1.375,0.0,1.375,0.0,0.0*1,1,0.2,-1.275,0.525*1,1,0.2,1.275,0.525*1,1,0.2,1.275,-0.525*1,1,0.2,-1.275,-0.525*%
%ADD37ROUNDEDRECT37*%
%AMROUNDEDRECT38*20,1,1.787,-1.095,0.0,1.095,0.0,0.0*20,1,1.587,-1.195,0.0,1.195,0.0,0.0*1,1,0.2,-1.095,0.7935*1,1,0.2,1.095,0.7935*1,1,0.2,1.095,-0.7935*1,1,0.2,-1.095,-0.7935*%
%ADD38ROUNDEDRECT38*%
%ADD39O,2.39X1.787*%
%ADD40C,1.207872*%
%AMROUNDEDRECT41*20,1,1.207872,-0.503936,0.0,0.503936,0.0,0.0*20,1,1.007872,-0.603936,0.0,0.603936,0.0,0.0*1,1,0.2,-0.503936,0.503936*1,1,0.2,0.503936,0.503936*1,1,0.2,0.503936,-0.503936*1,1,0.2,-0.503936,-0.503936*%
%ADD41ROUNDEDRECT41*%
%AMROUNDEDRECT42*20,1,2.2,-1.75,0.0,1.75,0.0,0.0*20,1,2.0,-1.85,0.0,1.85,0.0,0.0*1,1,0.2,-1.75,1.0*1,1,0.2,1.75,1.0*1,1,0.2,1.75,-1.0*1,1,0.2,-1.75,-1.0*%
%ADD42ROUNDEDRECT42*%
%AMROUNDEDRECT43*20,1,2.35,-1.625,0.0,1.625,0.0,90.0*20,1,2.15,-1.725,0.0,1.725,0.0,90.0*1,1,0.2,-1.075,-1.625*1,1,0.2,-1.075,1.625*1,1,0.2,1.075,1.625*1,1,0.2,1.075,-1.625*%
%ADD43ROUNDEDRECT43*%
%AMROUNDEDRECT44*20,1,1.15,-0.8375,0.0,0.8375,0.0,0.0*20,1,0.475,-1.175,0.0,1.175,0.0,0.0*1,1,0.675,-0.8375,0.2375*1,1,0.675,0.8375,0.2375*1,1,0.675,0.8375,-0.2375*1,1,0.675,-0.8375,-0.2375*%
%ADD44ROUNDEDRECT44*%
%AMROUNDEDRECT45*20,1,1.25,-1.25,0.0,1.25,0.0,90.0*20,1,1.05,-1.35,0.0,1.35,0.0,90.0*1,1,0.2,-0.525,-1.25*1,1,0.2,-0.525,1.25*1,1,0.2,0.525,1.25*1,1,0.2,0.525,-1.25*%
%ADD45ROUNDEDRECT45*%
%AMROUNDEDRECT46*20,1,1.4,-1.6,0.0,1.6,0.0,90.0*20,1,1.2,-1.7,0.0,1.7,0.0,90.0*1,1,0.2,-0.6,-1.6*1,1,0.2,-0.6,1.6*1,1,0.2,0.6,1.6*1,1,0.2,0.6,-1.6*%
%ADD46ROUNDEDRECT46*%
%AMROUNDEDRECT47*20,1,0.6,-0.6,0.0,0.6,0.0,90.0*20,1,0.2,-0.8,0.0,0.8,0.0,90.0*1,1,0.4,-0.1,-0.6*1,1,0.4,-0.1,0.6*1,1,0.4,0.1,0.6*1,1,0.4,0.1,-0.6*%
%ADD47ROUNDEDRECT47*%
%AMROUNDEDRECT48*20,1,0.8,-0.55,0.0,0.55,0.0,90.0*20,1,0.3,-0.8,0.0,0.8,0.0,90.0*1,1,0.5,-0.15,-0.55*1,1,0.5,-0.15,0.55*1,1,0.5,0.15,0.55*1,1,0.5,0.15,-0.55*%
%ADD48ROUNDEDRECT48*%
%ADD49C,1.7*%
%AMROUNDEDRECT50*20,1,1.7,-0.75,0.0,0.75,0.0,0.0*20,1,1.5,-0.85,0.0,0.85,0.0,0.0*1,1,0.2,-0.75,0.75*1,1,0.2,0.75,0.75*1,1,0.2,0.75,-0.75*1,1,0.2,-0.75,-0.75*%
%ADD50ROUNDEDRECT50*%
%AMROUNDEDRECT51*20,1,1.6986,-0.7493,0.0,0.7493,0.0,0.0*20,1,1.4986,-0.8493,0.0,0.8493,0.0,0.0*1,1,0.2,-0.7493,0.7493*1,1,0.2,0.7493,0.7493*1,1,0.2,0.7493,-0.7493*1,1,0.2,-0.7493,-0.7493*%
%ADD51ROUNDEDRECT51*%
%ADD52C,1.6986*%
%AMROUNDEDRECT53*20,1,2.232,-1.016,0.0,1.016,0.0,0.0*20,1,2.032,-1.116,0.0,1.116,0.0,0.0*1,1,0.2,-1.016,1.016*1,1,0.2,1.016,1.016*1,1,0.2,1.016,-1.016*1,1,0.2,-1.016,-1.016*%
%ADD53ROUNDEDRECT53*%
%ADD54C,2.232*%
%AMROUNDEDRECT55*20,1,0.4,-0.45,0.0,0.45,0.0,0.0*20,1,0.1,-0.6,0.0,0.6,0.0,0.0*1,1,0.3,-0.45,0.05*1,1,0.3,0.45,0.05*1,1,0.3,0.45,-0.05*1,1,0.3,-0.45,-0.05*%
%ADD55ROUNDEDRECT55*%
%AMROUNDEDRECT56*20,1,0.4,-0.45,0.0,0.45,0.0,90.0*20,1,0.1,-0.6,0.0,0.6,0.0,90.0*1,1,0.3,-0.05,-0.45*1,1,0.3,-0.05,0.45*1,1,0.3,0.05,0.45*1,1,0.3,0.05,-0.45*%
%ADD56ROUNDEDRECT56*%
%AMROUNDEDRECT57*20,1,2.2,-2.5,0.0,2.5,0.0,0.0*20,1,1.5,-2.85,0.0,2.85,0.0,0.0*1,1,0.7,-2.5,0.75*1,1,0.7,2.5,0.75*1,1,0.7,2.5,-0.75*1,1,0.7,-2.5,-0.75*%
%ADD57ROUNDEDRECT57*%
%ADD58C,1.7494*%
%ADD59C,2.613*%
%AMROUNDEDRECT60*20,1,1.7494,-0.7747,0.0,0.7747,0.0,0.0*20,1,1.5494,-0.8747,0.0,0.8747,0.0,0.0*1,1,0.2,-0.7747,0.7747*1,1,0.2,0.7747,0.7747*1,1,0.2,0.7747,-0.7747*1,1,0.2,-0.7747,-0.7747*%
%ADD60ROUNDEDRECT60*%
%AMROUNDEDRECT61*20,1,1.05,-0.625,0.0,0.625,0.0,90.0*20,1,0.85,-0.725,0.0,0.725,0.0,90.0*1,1,0.2,-0.425,-0.625*1,1,0.2,-0.425,0.625*1,1,0.2,0.425,0.625*1,1,0.2,0.425,-0.625*%
%ADD61ROUNDEDRECT61*%
%ADD62C,0.708*%
G04 --- APERTURE LIST END --- *
G04 --- BOARD BEGIN --- *
D10*
G04 #@! TO.C,R13*
X49415000Y22677000D02*
X49415000Y22027000D01*
X50915000Y22677000D02*
X50915000Y22027000D01*
D11*
G04 #@! TO.C,LED2*
X12550000Y16125000D02*
X12850000Y15875000D01*
X12550000Y15625000D01*
X12550000Y16125000D01*
X12850000Y16225000D02*
X12850000Y15525000D01*
D10*
G04 #@! TO.C,R26*
X36012000Y25261000D02*
X35362000Y25261000D01*
X36012000Y23761000D02*
X35362000Y23761000D01*
D11*
G04 #@! TO.C,LED5*
X43311000Y44935000D02*
X43561000Y45235000D01*
X43811000Y44935000D01*
X43311000Y44935000D01*
X43211000Y45235000D02*
X43911000Y45235000D01*
D10*
G04 #@! TO.C,C1*
X20423600Y28309000D02*
X20673600Y28309000D01*
X20423600Y26809000D02*
X20673600Y26809000D01*
G04 #@! TO.C,L7*
X91164000Y9234000D02*
X91164000Y7784000D01*
X88414000Y9234000D02*
X88414000Y7784000D01*
G04 #@! TO.C,R9*
X26944200Y12992800D02*
X26294200Y12992800D01*
X26944200Y11492800D02*
X26294200Y11492800D01*
G04 #@! TO.C,C2*
X23467600Y24370600D02*
X23217600Y24370600D01*
X23467600Y25870600D02*
X23217600Y25870600D01*
G04 #@! TO.C,R14*
X44438000Y24516200D02*
X44438000Y25166200D01*
X42938000Y24516200D02*
X42938000Y25166200D01*
D12*
G04 #@! TO.C,U7*
X49601374Y15912400D02*
X61651388Y15912338D01*
X61651388Y7312400D01*
X49651412Y7312406D01*
X49651412Y15912338D01*
D10*
G04 #@! TO.C,R32*
X44639800Y48331000D02*
X44639800Y47681000D01*
X46139800Y48331000D02*
X46139800Y47681000D01*
D13*
G04 #@! TO.C,C20*
G36*
X156438600Y32821600D02*
X156438600Y26771600D01*
X157838600Y26771600D01*
G02*
X160038600Y26771600I1100000J0D01*
G01*
G02*
X157838600Y26771600I-1100000J0D01*
G01*
X156438600Y26771600D01*
X156438600Y20721600D01*
G03*
X156438600Y32821600I0J6050000D01*
G01*
G37*
D12*
X162788600Y26771600D02*
G02*
X150088600Y26771600I-6350000J0D01*
G01*
G02*
X162788600Y26771600I6350000J0D01*
G01*
D13*
G04 #@! TO.C,C31*
G36*
X90805000Y5475000D02*
X90805000Y3175000D01*
X90955000Y3175000D01*
G02*
X92655000Y3175000I850000J0D01*
G01*
G02*
X90955000Y3175000I-850000J0D01*
G01*
X90805000Y3175000D01*
X90805000Y875000D01*
G03*
X90805000Y5475000I0J2300000D01*
G01*
G37*
D12*
X93405000Y3175000D02*
G02*
X88205000Y3175000I-2600000J0D01*
G01*
G02*
X93405000Y3175000I2600000J0D01*
G01*
G04 #@! TO.C,U8*
X15450000Y10060000D02*
X15450000Y9735000D01*
X15775000Y9735000D01*
X22650000Y10060000D02*
X22650000Y9735000D01*
X22325000Y9735000D01*
X15450000Y16610000D02*
X15450000Y16935000D01*
X15775000Y16935000D01*
X22650000Y16610000D02*
X22650000Y16935000D01*
X22325000Y16935000D01*
X22325000Y17985000D01*
D10*
G04 #@! TO.C,R27*
X32212400Y23735600D02*
X32862400Y23735600D01*
X32212400Y25235600D02*
X32862400Y25235600D01*
D12*
G04 #@! TO.C,J2*
X31064000Y16480028D02*
X43104000Y16480028D01*
X43104000Y-20000D01*
X31064000Y-20066D01*
X31064000Y16480028D01*
D13*
G04 #@! TO.C,C32*
G36*
X59055000Y5475000D02*
X59055000Y3175000D01*
X59205000Y3175000D01*
G02*
X60905000Y3175000I850000J0D01*
G01*
G02*
X59205000Y3175000I-850000J0D01*
G01*
X59055000Y3175000D01*
X59055000Y875000D01*
G03*
X59055000Y5475000I0J2300000D01*
G01*
G37*
D12*
X61655000Y3175000D02*
G02*
X56455000Y3175000I-2600000J0D01*
G01*
G02*
X61655000Y3175000I2600000J0D01*
G01*
D10*
G04 #@! TO.C,R11*
X33838000Y18935000D02*
X34488000Y18935000D01*
X33838000Y20435000D02*
X34488000Y20435000D01*
G04 #@! TO.C,L6*
X55104200Y39652800D02*
X56554200Y39652800D01*
X55104200Y36902800D02*
X56554200Y36902800D01*
D12*
G04 #@! TO.C,J6*
X9906000Y34036000D02*
X-25400Y34036000D01*
X-25400Y24384000D01*
X9906000Y24384000D01*
X9906000Y34036000D01*
D10*
G04 #@! TO.C,C40*
X45722000Y3925000D02*
X45972000Y3925000D01*
X45722000Y2425000D02*
X45972000Y2425000D01*
G04 #@! TO.C,C11*
X40489600Y47841600D02*
X40739600Y47841600D01*
X40489600Y46341600D02*
X40739600Y46341600D01*
D12*
G04 #@! TO.C,J5*
X9906000Y50368200D02*
X0Y50368200D01*
X0Y34721800D01*
X9906000Y34721800D01*
X9906000Y50368200D01*
D14*
G04 #@! TO.C,D2*
X21045000Y30180000D02*
X21045000Y30780000D01*
X22020000Y28880000D02*
X20670000Y28880000D01*
X20670000Y28955000D01*
X19595000Y28955000D01*
X19595000Y29680000D01*
X20670000Y32005000D02*
X19595000Y32005000D01*
X19595000Y31280000D01*
D12*
G04 #@! TO.C,J1*
X167894000Y7188200D02*
X177825400Y7188200D01*
X177825400Y25831800D01*
X167894000Y25831800D01*
X167894000Y7188200D01*
D10*
G04 #@! TO.C,R35*
X92580000Y43190000D02*
X92580000Y44440000D01*
X95380000Y43190000D02*
X95380000Y44440000D01*
G04 #@! TO.C,J11*
X61440600Y43085800D02*
X61440600Y40960800D01*
X61170600Y40690800D01*
X61440600Y40420800D01*
X61440600Y38420800D01*
X61170600Y38150800D01*
X61440600Y37880800D01*
X61440600Y35880800D01*
X61170600Y35610800D01*
X61440600Y35340800D01*
X61440600Y33340800D01*
X61170600Y33070800D01*
X61440600Y32800800D01*
X61440600Y30800800D01*
X61170600Y30530800D01*
X61440600Y30260800D01*
X61440600Y28135800D01*
X61170600Y27865800D01*
X58920600Y27865800D01*
X58650600Y28135800D01*
X58650600Y30260800D01*
X58920600Y30530800D01*
X58650600Y30800800D01*
X58650600Y32800800D01*
X58920600Y33070800D01*
X58650600Y33340800D01*
X58650600Y35340800D01*
X58920600Y35610800D01*
X58650600Y35880800D01*
X58650600Y37880800D01*
X58920600Y38150800D01*
X58650600Y38420800D01*
X58650600Y40420800D01*
X58920600Y40690800D01*
X58650600Y40960800D01*
X58650600Y43085800D01*
X58920600Y43355800D01*
X61170600Y43355800D01*
X61440600Y43085800D01*
D13*
G04 #@! TO.C,C26*
G36*
X56882000Y47091600D02*
X59182000Y47091600D01*
X59182000Y47241600D01*
G02*
X59182000Y48941600I0J850000D01*
G01*
G02*
X59182000Y47241600I0J-850000D01*
G01*
X59182000Y47091600D01*
X61482000Y47091600D01*
G03*
X56882000Y47091600I-2300000J0D01*
G01*
G37*
D12*
X61782000Y47091600D02*
G02*
X56582000Y47091600I-2600000J0D01*
G01*
G02*
X61782000Y47091600I2600000J0D01*
G01*
D11*
G04 #@! TO.C,LED3*
X50981800Y25007288D02*
X51231800Y25307288D01*
X51481800Y25007288D01*
X50981800Y25007288D01*
X50881800Y25307288D02*
X51581800Y25307288D01*
D14*
G04 #@! TO.C,Q7*
X32094000Y43134000D02*
X32094000Y43734000D01*
X33069000Y41834000D02*
X31719000Y41834000D01*
X31719000Y41909000D01*
X30644000Y41909000D01*
X30644000Y42634000D01*
X31719000Y44959000D02*
X30644000Y44959000D01*
X30644000Y44234000D01*
D10*
G04 #@! TO.C,R2*
X12815000Y11740000D02*
X12815000Y12390000D01*
X11315000Y11740000D02*
X11315000Y12390000D01*
D12*
G04 #@! TO.C,J12*
X48724200Y26408200D02*
X48724312Y19658200D01*
X45524200Y19658200D01*
X45524166Y26408200D01*
X48724312Y26408200D01*
G04 #@! TO.C,L4*
X96520000Y38735000D02*
X99060000Y38735000D01*
X99060000Y48895000D01*
X96520000Y48895000D01*
X91440000Y48895000D02*
X88900000Y48895000D01*
X88900000Y38735000D01*
X91440000Y38735000D01*
X99153600Y37719000D02*
G02*
X98153600Y37719000I-500000J0D01*
G01*
G02*
X99153600Y37719000I500000J0D01*
G01*
D10*
G04 #@! TO.C,J10*
X34161000Y33637000D02*
X34161000Y31512000D01*
X33891000Y31242000D01*
X34161000Y30972000D01*
X34161000Y28972000D01*
X33891000Y28702000D01*
X34161000Y28432000D01*
X34161000Y26307000D01*
X33891000Y26037000D01*
X29101000Y26037000D01*
X28831000Y26307000D01*
X28831000Y28432000D01*
X29101000Y28702000D01*
X28831000Y28972000D01*
X28831000Y30972000D01*
X29101000Y31242000D01*
X28831000Y31512000D01*
X28831000Y33637000D01*
X29101000Y33907000D01*
X33891000Y33907000D01*
X34161000Y33637000D01*
D12*
G04 #@! TO.C,Q2*
X17979000Y38076000D02*
X17979000Y37276000D01*
X17979000Y39601000D02*
X17979000Y39926000D01*
X14279000Y39926000D01*
X14279000Y38451000D01*
X19929000Y33551000D02*
X17979000Y33551000D01*
X17979000Y33226000D01*
X14279000Y33226000D01*
X14279000Y34701000D01*
X17979000Y35076000D02*
X17979000Y35876000D01*
G04 #@! TO.C,J8*
X167894000Y26314400D02*
X177825400Y26314400D01*
X177825400Y38963600D01*
X167894000Y38963600D01*
X167894000Y26314400D01*
D10*
G04 #@! TO.C,R10*
X26944200Y14796200D02*
X26294200Y14796200D01*
X26944200Y13296200D02*
X26294200Y13296200D01*
G04 #@! TO.C,R20*
X31567000Y47486000D02*
X30917000Y47486000D01*
X31567000Y45986000D02*
X30917000Y45986000D01*
D13*
G04 #@! TO.C,C22*
G36*
X151511000Y50345000D02*
X151511000Y42545000D01*
X154161000Y42545000D01*
G02*
X156361000Y42545000I1100000J0D01*
G01*
G02*
X154161000Y42545000I-1100000J0D01*
G01*
X151511000Y42545000D01*
X151511000Y34745000D01*
G03*
X151511000Y50345000I0J7800000D01*
G01*
G37*
D12*
X159611000Y42545000D02*
G02*
X143411000Y42545000I-8100000J0D01*
G01*
G02*
X159611000Y42545000I8100000J0D01*
G01*
D10*
G04 #@! TO.C,R3*
X12815000Y7930000D02*
X12815000Y8580000D01*
X11315000Y7930000D02*
X11315000Y8580000D01*
G04 #@! TO.C,C38*
X54112000Y19663000D02*
X55362000Y19663000D01*
X54112000Y16913000D02*
X55362000Y16913000D01*
D13*
G04 #@! TO.C,C25*
G36*
X90805000Y19699000D02*
X90805000Y17399000D01*
X90955000Y17399000D01*
G02*
X92655000Y17399000I850000J0D01*
G01*
G02*
X90955000Y17399000I-850000J0D01*
G01*
X90805000Y17399000D01*
X90805000Y15099000D01*
G03*
X90805000Y19699000I0J2300000D01*
G01*
G37*
D12*
X93405000Y17399000D02*
G02*
X88205000Y17399000I-2600000J0D01*
G01*
G02*
X93405000Y17399000I2600000J0D01*
G01*
D10*
G04 #@! TO.C,F1*
X28430000Y18743000D02*
X26180000Y18743000D01*
X28430000Y15293000D02*
X26180000Y15293000D01*
D11*
G04 #@! TO.C,LED1*
X12550000Y14855000D02*
X12850000Y14605000D01*
X12550000Y14355000D01*
X12550000Y14855000D01*
X12850000Y14955000D02*
X12850000Y14255000D01*
D10*
G04 #@! TO.C,R6*
X17368400Y29477400D02*
X16718400Y29477400D01*
X17368400Y27977400D02*
X16718400Y27977400D01*
D13*
G04 #@! TO.C,C23*
G36*
X53097400Y42824400D02*
X55397400Y42824400D01*
X55397400Y42974400D01*
G02*
X55397400Y44674400I0J850000D01*
G01*
G02*
X55397400Y42974400I0J-850000D01*
G01*
X55397400Y42824400D01*
X57697400Y42824400D01*
G03*
X53097400Y42824400I-2300000J0D01*
G01*
G37*
D12*
X57997400Y42824400D02*
G02*
X52797400Y42824400I-2600000J0D01*
G01*
G02*
X57997400Y42824400I2600000J0D01*
G01*
G04 #@! TO.C,Y2*
X42098000Y24323000D02*
X40198000Y24323000D01*
X42098000Y26223000D02*
X40198000Y26223000D01*
D13*
G04 #@! TO.C,C56*
G36*
X125193000Y39243000D02*
X128143000Y39243000D01*
X128143000Y39543000D01*
G02*
X128143000Y41443000I0J950000D01*
G01*
G02*
X128143000Y39543000I0J-950000D01*
G01*
X128143000Y39243000D01*
X131093000Y39243000D01*
G03*
X125193000Y39243000I-2950000J0D01*
G01*
G37*
D12*
X131393000Y39243000D02*
G02*
X124893000Y39243000I-3250000J0D01*
G01*
G02*
X131393000Y39243000I3250000J0D01*
G01*
G04 #@! TO.C,J7*
X167894000Y39852600D02*
X177825400Y39852600D01*
X177825400Y46507400D01*
X167894000Y46507400D01*
X167894000Y39852600D01*
D10*
G04 #@! TO.C,J9*
X29081000Y8745000D02*
X29081000Y6620000D01*
X28811000Y6350000D01*
X29081000Y6080000D01*
X29081000Y4080000D01*
X28811000Y3810000D01*
X29081000Y3540000D01*
X29081000Y1415000D01*
X28811000Y1145000D01*
X24021000Y1145000D01*
X23751000Y1415000D01*
X23751000Y3540000D01*
X24021000Y3810000D01*
X23751000Y4080000D01*
X23751000Y6080000D01*
X24021000Y6350000D01*
X23751000Y6620000D01*
X23751000Y8745000D01*
X24021000Y9015000D01*
X28811000Y9015000D01*
X29081000Y8745000D01*
D13*
G04 #@! TO.C,C16*
G36*
X99898200Y15752800D02*
X99898200Y9702800D01*
X101298200Y9702800D01*
G02*
X103498200Y9702800I1100000J0D01*
G01*
G02*
X101298200Y9702800I-1100000J0D01*
G01*
X99898200Y9702800D01*
X99898200Y3652800D01*
G03*
X99898200Y15752800I0J6050000D01*
G01*
G37*
D12*
X106248200Y9702800D02*
G02*
X93548200Y9702800I-6350000J0D01*
G01*
G02*
X106248200Y9702800I6350000J0D01*
G01*
G04 #@! TO.C,L5*
X134493000Y46228000D02*
X131953000Y46228000D01*
X131953000Y36068000D01*
X134493000Y36068000D01*
X139573000Y36068000D02*
X142113000Y36068000D01*
X142113000Y46228000D01*
X139573000Y46228000D01*
X132859400Y47244000D02*
G02*
X131859400Y47244000I-500000J0D01*
G01*
G02*
X132859400Y47244000I500000J0D01*
G01*
D13*
G04 #@! TO.C,C17*
G36*
X156210000Y17073600D02*
X156210000Y11023600D01*
X157610000Y11023600D01*
G02*
X159810000Y11023600I1100000J0D01*
G01*
G02*
X157610000Y11023600I-1100000J0D01*
G01*
X156210000Y11023600D01*
X156210000Y4973600D01*
G03*
X156210000Y17073600I0J6050000D01*
G01*
G37*
D12*
X162560000Y11023600D02*
G02*
X149860000Y11023600I-6350000J0D01*
G01*
G02*
X162560000Y11023600I6350000J0D01*
G01*
D10*
G04 #@! TO.C,R12*
X26487000Y31103000D02*
X25837000Y31103000D01*
X26487000Y29603000D02*
X25837000Y29603000D01*
D12*
G04 #@! TO.C,S1*
X38506400Y21336000D02*
X38506400Y18796000D01*
X43586400Y18796000D01*
X43586400Y21336000D01*
X38506400Y21336000D01*
G04 #@! TO.C,U4*
X62230000Y50800000D02*
X87630000Y50800000D01*
X87630000Y0D01*
X62230000Y0D01*
X62230000Y50800000D01*
D10*
G04 #@! TO.C,C39*
X59934000Y17167000D02*
X58684000Y17167000D01*
X59934000Y19917000D02*
X58684000Y19917000D01*
D12*
G04 #@! TO.C,U1*
X37465000Y42025000D02*
X36715000Y42025000D01*
X36715000Y41275000D01*
X35765000Y41275000D01*
X50165000Y42025000D02*
X50915000Y42025000D01*
X50915000Y41275000D01*
X50165000Y27825000D02*
X50915000Y27825000D01*
X50915000Y28575000D01*
X37465000Y27825000D02*
X36715000Y27825000D01*
X36715000Y28575000D01*
D11*
G04 #@! TO.C,LED4*
X44555600Y44884200D02*
X44805600Y45184200D01*
X45055600Y44884200D01*
X44555600Y44884200D01*
X44455600Y45184200D02*
X45155600Y45184200D01*
D10*
G04 #@! TO.C,R34*
X138433000Y41773000D02*
X138433000Y40523000D01*
X135633000Y41773000D02*
X135633000Y40523000D01*
D12*
G04 #@! TO.C,Q4*
X57984000Y25503000D02*
X57984000Y24703000D01*
X57984000Y27028000D02*
X57984000Y27353000D01*
X54284000Y27353000D01*
X54284000Y25878000D01*
X59934000Y20978000D02*
X57984000Y20978000D01*
X57984000Y20653000D01*
X54284000Y20653000D01*
X54284000Y22128000D01*
X57984000Y22503000D02*
X57984000Y23303000D01*
D10*
G04 #@! TO.C,C12*
X26287000Y27190000D02*
X26037000Y27190000D01*
X26287000Y28690000D02*
X26037000Y28690000D01*
G04 #@! TO.C,C7*
X37467000Y45073000D02*
X37717000Y45073000D01*
X37467000Y43573000D02*
X37717000Y43573000D01*
G04 #@! TO.C,C4*
X30249400Y19443000D02*
X29999400Y19443000D01*
X30249400Y20943000D02*
X29999400Y20943000D01*
D12*
G04 #@! TO.C,J3*
X9906000Y9906000D02*
X0Y9906000D01*
X0Y254000D01*
X9906000Y254000D01*
X9906000Y9906000D01*
D10*
G04 #@! TO.C,C41*
X50417000Y17665000D02*
X50167000Y17665000D01*
X50417000Y19165000D02*
X50167000Y19165000D01*
D13*
G04 #@! TO.C,C43*
G36*
X44182000Y14478000D02*
X46482000Y14478000D01*
X46482000Y14628000D01*
G02*
X46482000Y16328000I0J850000D01*
G01*
G02*
X46482000Y14628000I0J-850000D01*
G01*
X46482000Y14478000D01*
X48782000Y14478000D01*
G03*
X44182000Y14478000I-2300000J0D01*
G01*
G37*
D12*
X49082000Y14478000D02*
G02*
X43882000Y14478000I-2600000J0D01*
G01*
G02*
X49082000Y14478000I2600000J0D01*
G01*
D10*
G04 #@! TO.C,R7*
X19639400Y24370600D02*
X20289400Y24370600D01*
X19639400Y25870600D02*
X20289400Y25870600D01*
D12*
G04 #@! TO.C,X1*
X22352000Y24003000D02*
X17272000Y24003000D01*
X22352000Y18923000D02*
X17272000Y18923000D01*
G04 #@! TO.C,U5*
X147828000Y635000D02*
X113538000Y635000D01*
X110998000Y3175000D01*
X110998000Y34671000D01*
X147828000Y34671000D01*
X147828000Y635000D01*
D10*
G04 #@! TO.C,L3*
X37240000Y47486000D02*
X37690000Y47486000D01*
X37240000Y45986000D02*
X37690000Y45986000D01*
G04 #@! TO.C,C3*
X16715200Y25946800D02*
X16965200Y25946800D01*
X16715200Y24446800D02*
X16965200Y24446800D01*
D12*
G04 #@! TO.C,Q3*
X26234000Y43283000D02*
X26234000Y42483000D01*
X26234000Y44808000D02*
X26234000Y45133000D01*
X22534000Y45133000D01*
X22534000Y43658000D01*
X28184000Y38758000D02*
X26234000Y38758000D01*
X26234000Y38433000D01*
X22534000Y38433000D01*
X22534000Y39908000D01*
X26234000Y40283000D02*
X26234000Y41083000D01*
D10*
G04 #@! TO.C,L12*
X83910000Y42440000D02*
X82460000Y42440000D01*
X83910000Y45190000D02*
X82460000Y45190000D01*
G04 #@! TO.C,R25*
X31425000Y36080000D02*
X32075000Y36080000D01*
X31425000Y37580000D02*
X32075000Y37580000D01*
G04 #@! TO.C,R33*
X42760200Y48331000D02*
X42760200Y47681000D01*
X44260200Y48331000D02*
X44260200Y47681000D01*
D12*
G04 #@! TO.C,J4*
X9906000Y23469600D02*
X0Y23469600D01*
X0Y10820400D01*
X9906000Y10820400D01*
X9906000Y23469600D01*
D13*
G04 #@! TO.C,C42*
G36*
X46101000Y9666000D02*
X46101000Y7366000D01*
X46251000Y7366000D01*
G02*
X47951000Y7366000I850000J0D01*
G01*
G02*
X46251000Y7366000I-850000J0D01*
G01*
X46101000Y7366000D01*
X46101000Y5066000D01*
G03*
X46101000Y9666000I0J2300000D01*
G01*
G37*
D12*
X48701000Y7366000D02*
G02*
X43501000Y7366000I-2600000J0D01*
G01*
G02*
X48701000Y7366000I2600000J0D01*
G01*
D10*
G04 #@! TO.C,C49*
X31625000Y40120000D02*
X31875000Y40120000D01*
X31625000Y38620000D02*
X31875000Y38620000D01*
D13*
G04 #@! TO.C,C14*
G36*
X107442000Y50345000D02*
X107442000Y42545000D01*
X110092000Y42545000D01*
G02*
X112292000Y42545000I1100000J0D01*
G01*
G02*
X110092000Y42545000I-1100000J0D01*
G01*
X107442000Y42545000D01*
X107442000Y34745000D01*
G03*
X107442000Y50345000I0J7800000D01*
G01*
G37*
D12*
X115542000Y42545000D02*
G02*
X99342000Y42545000I-8100000J0D01*
G01*
G02*
X115542000Y42545000I8100000J0D01*
G01*
D13*
G04 #@! TO.C,C13*
G36*
X97155000Y36867000D02*
X97155000Y28067000D01*
X99805000Y28067000D01*
G02*
X102005000Y28067000I1100000J0D01*
G01*
G02*
X99805000Y28067000I-1100000J0D01*
G01*
X97155000Y28067000D01*
X97155000Y19267000D01*
G03*
X97155000Y36867000I0J8800000D01*
G01*
G37*
D12*
X106255000Y28067000D02*
G02*
X88055000Y28067000I-9100000J0D01*
G01*
G02*
X106255000Y28067000I9100000J0D01*
G01*
D11*
G04 #@! TD*
X117017800Y40115067D02*
X117319778Y39268400D01*
X117623167Y40115067D01*
X118754878Y39268400D02*
X118029567Y39268400D01*
X118392223Y39268400D02*
X118392223Y40538400D01*
X118270867Y40356367D01*
X118150923Y40236422D01*
X118029567Y40175744D01*
X119221956Y39389756D02*
X119282634Y39329078D01*
X119221956Y39268400D01*
X119161278Y39329078D01*
X119221956Y39389756D01*
X119221956Y39268400D01*
X119991012Y40538400D02*
X120112367Y40538400D01*
X120233723Y40477722D01*
X120294401Y40417044D01*
X120353667Y40297100D01*
X120414345Y40054389D01*
X120414345Y39752411D01*
X120353667Y39509700D01*
X120294401Y39389756D01*
X120233723Y39329078D01*
X120112367Y39268400D01*
X119991012Y39268400D01*
X119871067Y39329078D01*
X119810390Y39389756D01*
X119749712Y39509700D01*
X119689034Y39752411D01*
X119689034Y40054389D01*
X119749712Y40297100D01*
X119810390Y40417044D01*
X119871067Y40477722D01*
X119991012Y40538400D01*
X120881423Y39389756D02*
X120942101Y39329078D01*
X120881423Y39268400D01*
X120820745Y39329078D01*
X120881423Y39389756D01*
X120881423Y39268400D01*
X122073812Y39268400D02*
X121348501Y39268400D01*
X121711157Y39268400D02*
X121711157Y40538400D01*
X121589801Y40356367D01*
X121469857Y40236422D01*
X121348501Y40175744D01*
X117870111Y41554400D02*
X117144800Y41554400D01*
X117507456Y41554400D02*
X117507456Y42824400D01*
X117386100Y42642367D01*
X117266156Y42522422D01*
X117144800Y42461744D01*
X118578489Y42824400D02*
X118699844Y42824400D01*
X118821200Y42763722D01*
X118881878Y42703044D01*
X118941144Y42583100D01*
X119001822Y42340389D01*
X119001822Y42038411D01*
X118941144Y41795700D01*
X118881878Y41675756D01*
X118821200Y41615078D01*
X118699844Y41554400D01*
X118578489Y41554400D01*
X118458544Y41615078D01*
X118397867Y41675756D01*
X118337189Y41795700D01*
X118276511Y42038411D01*
X118276511Y42340389D01*
X118337189Y42583100D01*
X118397867Y42703044D01*
X118458544Y42763722D01*
X118578489Y42824400D01*
X119710200Y42824400D02*
X119831555Y42824400D01*
X119952911Y42763722D01*
X120013589Y42703044D01*
X120072855Y42583100D01*
X120133533Y42340389D01*
X120133533Y42038411D01*
X120072855Y41795700D01*
X120013589Y41675756D01*
X119952911Y41615078D01*
X119831555Y41554400D01*
X119710200Y41554400D01*
X119590255Y41615078D01*
X119529578Y41675756D01*
X119468900Y41795700D01*
X119408222Y42038411D01*
X119408222Y42340389D01*
X119468900Y42583100D01*
X119529578Y42703044D01*
X119590255Y42763722D01*
X119710200Y42824400D01*
X120781233Y42279711D02*
X120661289Y42340389D01*
X120600611Y42401067D01*
X120539933Y42522422D01*
X120539933Y42583100D01*
X120600611Y42703044D01*
X120661289Y42763722D01*
X120781233Y42824400D01*
X121023944Y42824400D01*
X121145300Y42763722D01*
X121204566Y42703044D01*
X121265244Y42583100D01*
X121265244Y42522422D01*
X121204566Y42401067D01*
X121145300Y42340389D01*
X121023944Y42279711D01*
X120781233Y42279711D01*
X120661289Y42219033D01*
X120600611Y42159767D01*
X120539933Y42038411D01*
X120539933Y41795700D01*
X120600611Y41675756D01*
X120661289Y41615078D01*
X120781233Y41554400D01*
X121023944Y41554400D01*
X121145300Y41615078D01*
X121204566Y41675756D01*
X121265244Y41795700D01*
X121265244Y42038411D01*
X121204566Y42159767D01*
X121145300Y42219033D01*
X121023944Y42279711D01*
X122396955Y41554400D02*
X121671644Y41554400D01*
X122034300Y41554400D02*
X122034300Y42824400D01*
X121912944Y42642367D01*
X121793000Y42522422D01*
X121671644Y42461744D01*
X123044655Y42279711D02*
X122924711Y42340389D01*
X122864033Y42401067D01*
X122803355Y42522422D01*
X122803355Y42583100D01*
X122864033Y42703044D01*
X122924711Y42763722D01*
X123044655Y42824400D01*
X123287366Y42824400D01*
X123408722Y42763722D01*
X123467988Y42703044D01*
X123528666Y42583100D01*
X123528666Y42522422D01*
X123467988Y42401067D01*
X123408722Y42340389D01*
X123287366Y42279711D01*
X123044655Y42279711D01*
X122924711Y42219033D01*
X122864033Y42159767D01*
X122803355Y42038411D01*
X122803355Y41795700D01*
X122864033Y41675756D01*
X122924711Y41615078D01*
X123044655Y41554400D01*
X123287366Y41554400D01*
X123408722Y41615078D01*
X123467988Y41675756D01*
X123528666Y41795700D01*
X123528666Y42038411D01*
X123467988Y42159767D01*
X123408722Y42219033D01*
X123287366Y42279711D01*
G04 #@! TO.C,R13*
X51767800Y21774503D02*
X51465117Y21562836D01*
X51767800Y21411847D02*
X51132800Y21411847D01*
X51132800Y21653853D01*
X51163139Y21714530D01*
X51193478Y21744164D01*
X51253450Y21774503D01*
X51344467Y21774503D01*
X51405144Y21744164D01*
X51435483Y21714530D01*
X51465117Y21653853D01*
X51465117Y21411847D01*
X51767800Y22416559D02*
X51767800Y22053903D01*
X51767800Y22235231D02*
X51132800Y22235231D01*
X51223817Y22174553D01*
X51283789Y22114581D01*
X51314128Y22053903D01*
X51132800Y22695959D02*
X51132800Y23088953D01*
X51374806Y22877287D01*
X51374806Y22968303D01*
X51405144Y23028276D01*
X51435483Y23058615D01*
X51495456Y23088953D01*
X51647150Y23088953D01*
X51707122Y23058615D01*
X51737461Y23028276D01*
X51767800Y22968303D01*
X51767800Y22786976D01*
X51737461Y22726298D01*
X51707122Y22695959D01*
D12*
G04 #@! TO.C,M6*
X53918111Y3124200D02*
X53918111Y4124200D01*
X54251444Y3409756D01*
X54584778Y4124200D01*
X54584778Y3124200D01*
X55461445Y4124200D02*
X55270334Y4124200D01*
X55174778Y4076422D01*
X55128111Y4028644D01*
X55032556Y3886422D01*
X54984778Y3695311D01*
X54984778Y3314200D01*
X55032556Y3219756D01*
X55080334Y3171978D01*
X55174778Y3124200D01*
X55365889Y3124200D01*
X55461445Y3171978D01*
X55508111Y3219756D01*
X55555889Y3314200D01*
X55555889Y3553089D01*
X55508111Y3647533D01*
X55461445Y3695311D01*
X55365889Y3743089D01*
X55174778Y3743089D01*
X55080334Y3695311D01*
X55032556Y3647533D01*
X54984778Y3553089D01*
D11*
G04 #@! TO.C,LED2*
X11611610Y16662400D02*
X11248390Y16662400D01*
X11248390Y17424400D01*
X11916410Y17061180D02*
X12170410Y17061180D01*
X12279630Y16662400D02*
X11916410Y16662400D01*
X11916410Y17424400D01*
X12279630Y17424400D01*
X12584430Y16662400D02*
X12584430Y17424400D01*
X12765617Y17424400D01*
X12874837Y17387993D01*
X12947650Y17315180D01*
X12983210Y17243213D01*
X13019617Y17097587D01*
X13019617Y16989213D01*
X12983210Y16843587D01*
X12947650Y16771620D01*
X12874837Y16698807D01*
X12765617Y16662400D01*
X12584430Y16662400D01*
X13360824Y17351587D02*
X13397230Y17387993D01*
X13469197Y17424400D01*
X13651230Y17424400D01*
X13723197Y17387993D01*
X13759604Y17351587D01*
X13796010Y17279620D01*
X13796010Y17206807D01*
X13759604Y17097587D01*
X13324417Y16662400D01*
X13796010Y16662400D01*
D12*
G04 #@! TO.C,R26*
X34698156Y22543200D02*
X34364823Y23019867D01*
X34127045Y22543200D02*
X34127045Y23543200D01*
X34508156Y23543200D01*
X34603712Y23495422D01*
X34650378Y23447644D01*
X34698156Y23353200D01*
X34698156Y23209867D01*
X34650378Y23114311D01*
X34603712Y23066533D01*
X34508156Y23019867D01*
X34127045Y23019867D01*
X35145934Y23447644D02*
X35193712Y23495422D01*
X35288156Y23543200D01*
X35527045Y23543200D01*
X35621489Y23495422D01*
X35669267Y23447644D01*
X35717045Y23353200D01*
X35717045Y23257644D01*
X35669267Y23114311D01*
X35098156Y22543200D01*
X35717045Y22543200D01*
X36593712Y23543200D02*
X36402601Y23543200D01*
X36307045Y23495422D01*
X36260378Y23447644D01*
X36164823Y23305422D01*
X36117045Y23114311D01*
X36117045Y22733200D01*
X36164823Y22638756D01*
X36212601Y22590978D01*
X36307045Y22543200D01*
X36498156Y22543200D01*
X36593712Y22590978D01*
X36640378Y22638756D01*
X36688156Y22733200D01*
X36688156Y22972089D01*
X36640378Y23066533D01*
X36593712Y23114311D01*
X36498156Y23162089D01*
X36307045Y23162089D01*
X36212601Y23114311D01*
X36164823Y23066533D01*
X36117045Y22972089D01*
G04 #@! TO.C,M5*
X22269711Y47447200D02*
X22269711Y48447200D01*
X22603044Y47732756D01*
X22936378Y48447200D01*
X22936378Y47447200D01*
X23859711Y48447200D02*
X23384156Y48447200D01*
X23336378Y47970533D01*
X23384156Y48018311D01*
X23479711Y48066089D01*
X23717489Y48066089D01*
X23813045Y48018311D01*
X23859711Y47970533D01*
X23907489Y47876089D01*
X23907489Y47637200D01*
X23859711Y47542756D01*
X23813045Y47494978D01*
X23717489Y47447200D01*
X23479711Y47447200D01*
X23384156Y47494978D01*
X23336378Y47542756D01*
D11*
G04 #@! TO.C,LED5*
X42722800Y43837013D02*
X42722800Y43473793D01*
X41960800Y43473793D01*
X42324020Y44141813D02*
X42324020Y44395813D01*
X42722800Y44505033D02*
X42722800Y44141813D01*
X41960800Y44141813D01*
X41960800Y44505033D01*
X42722800Y44809833D02*
X41960800Y44809833D01*
X41960800Y44991020D01*
X41997207Y45100240D01*
X42070020Y45173053D01*
X42141987Y45208613D01*
X42287613Y45245020D01*
X42395987Y45245020D01*
X42541613Y45208613D01*
X42613580Y45173053D01*
X42686393Y45100240D01*
X42722800Y44991020D01*
X42722800Y44809833D01*
X41960800Y45948600D02*
X41960800Y45586227D01*
X42324020Y45549820D01*
X42287613Y45586227D01*
X42251207Y45659040D01*
X42251207Y45840227D01*
X42287613Y45913040D01*
X42324020Y45948600D01*
X42395987Y45985007D01*
X42578020Y45985007D01*
X42649987Y45948600D01*
X42686393Y45913040D01*
X42722800Y45840227D01*
X42722800Y45659040D01*
X42686393Y45586227D01*
X42649987Y45549820D01*
D12*
G04 #@! TO.C,C1*
X22963289Y27047556D02*
X22915511Y26999778D01*
X22773289Y26952000D01*
X22677733Y26952000D01*
X22534400Y26999778D01*
X22439956Y27095333D01*
X22392178Y27189778D01*
X22344400Y27380889D01*
X22344400Y27523111D01*
X22392178Y27714222D01*
X22439956Y27808667D01*
X22534400Y27904222D01*
X22677733Y27952000D01*
X22773289Y27952000D01*
X22915511Y27904222D01*
X22963289Y27856444D01*
X23934400Y26952000D02*
X23363289Y26952000D01*
X23648845Y26952000D02*
X23648845Y27952000D01*
X23553289Y27808667D01*
X23458845Y27714222D01*
X23363289Y27666444D01*
G04 #@! TO.C,L7*
X89659600Y11074400D02*
X89182933Y11074400D01*
X89182933Y12074400D01*
X90059600Y12074400D02*
X90726267Y12074400D01*
X90297378Y11074400D01*
G04 #@! TO.C,R9*
X26825600Y10224200D02*
X26492267Y10700867D01*
X26254489Y10224200D02*
X26254489Y11224200D01*
X26635600Y11224200D01*
X26731156Y11176422D01*
X26777822Y11128644D01*
X26825600Y11034200D01*
X26825600Y10890867D01*
X26777822Y10795311D01*
X26731156Y10747533D01*
X26635600Y10700867D01*
X26254489Y10700867D01*
X27321156Y10224200D02*
X27511156Y10224200D01*
X27606711Y10271978D01*
X27654489Y10319756D01*
X27748933Y10461978D01*
X27796711Y10653089D01*
X27796711Y11034200D01*
X27748933Y11128644D01*
X27702267Y11176422D01*
X27606711Y11224200D01*
X27415600Y11224200D01*
X27321156Y11176422D01*
X27273378Y11128644D01*
X27225600Y11034200D01*
X27225600Y10795311D01*
X27273378Y10700867D01*
X27321156Y10653089D01*
X27415600Y10605311D01*
X27606711Y10605311D01*
X27702267Y10653089D01*
X27748933Y10700867D01*
X27796711Y10795311D01*
G04 #@! TO.C,C2*
X24615800Y23070556D02*
X24568022Y23022778D01*
X24425800Y22975000D01*
X24330244Y22975000D01*
X24186911Y23022778D01*
X24092467Y23118333D01*
X24044689Y23212778D01*
X23996911Y23403889D01*
X23996911Y23546111D01*
X24044689Y23737222D01*
X24092467Y23831667D01*
X24186911Y23927222D01*
X24330244Y23975000D01*
X24425800Y23975000D01*
X24568022Y23927222D01*
X24615800Y23879444D01*
X25063578Y23879444D02*
X25111356Y23927222D01*
X25205800Y23975000D01*
X25444689Y23975000D01*
X25539133Y23927222D01*
X25586911Y23879444D01*
X25634689Y23785000D01*
X25634689Y23689444D01*
X25586911Y23546111D01*
X25015800Y22975000D01*
X25634689Y22975000D01*
D11*
G04 #@! TO.C,R14*
X42720200Y22702802D02*
X42478053Y22533469D01*
X42720200Y22412678D02*
X42212200Y22412678D01*
X42212200Y22606282D01*
X42236471Y22654825D01*
X42260742Y22678531D01*
X42308720Y22702802D01*
X42381533Y22702802D01*
X42430076Y22678531D01*
X42454347Y22654825D01*
X42478053Y22606282D01*
X42478053Y22412678D01*
X42720200Y23246926D02*
X42720200Y22956802D01*
X42720200Y23101864D02*
X42212200Y23101864D01*
X42285013Y23053322D01*
X42332991Y23005344D01*
X42357262Y22956802D01*
X42381533Y23743073D02*
X42720200Y23743073D01*
X42187929Y23621717D02*
X42550867Y23500926D01*
X42550867Y23815322D01*
D12*
G04 #@! TO.C,U7*
X54349911Y6537200D02*
X54349911Y5727200D01*
X54397689Y5632756D01*
X54445467Y5584978D01*
X54539911Y5537200D01*
X54731022Y5537200D01*
X54826578Y5584978D01*
X54873244Y5632756D01*
X54921022Y5727200D01*
X54921022Y6537200D01*
X55321022Y6537200D02*
X55987689Y6537200D01*
X55558800Y5537200D01*
G04 #@! TO.C,R32*
X47637000Y47399667D02*
X47160333Y47066334D01*
X47637000Y46828556D02*
X46637000Y46828556D01*
X46637000Y47209667D01*
X46684778Y47305223D01*
X46732556Y47351889D01*
X46827000Y47399667D01*
X46970333Y47399667D01*
X47065889Y47351889D01*
X47113667Y47305223D01*
X47160333Y47209667D01*
X47160333Y46828556D01*
X46637000Y47799667D02*
X46637000Y48418556D01*
X47018111Y48085223D01*
X47018111Y48228556D01*
X47065889Y48323000D01*
X47113667Y48370778D01*
X47208111Y48418556D01*
X47447000Y48418556D01*
X47541444Y48370778D01*
X47589222Y48323000D01*
X47637000Y48228556D01*
X47637000Y47943000D01*
X47589222Y47847445D01*
X47541444Y47799667D01*
X46732556Y48866334D02*
X46684778Y48914112D01*
X46637000Y49008556D01*
X46637000Y49247445D01*
X46684778Y49341889D01*
X46732556Y49389667D01*
X46827000Y49437445D01*
X46922556Y49437445D01*
X47065889Y49389667D01*
X47637000Y48818556D01*
X47637000Y49437445D01*
G04 #@! TO.C,C20*
X164420244Y25719245D02*
X164468022Y25671467D01*
X164515800Y25529245D01*
X164515800Y25433689D01*
X164468022Y25290356D01*
X164372467Y25195912D01*
X164278022Y25148134D01*
X164086911Y25100356D01*
X163944689Y25100356D01*
X163753578Y25148134D01*
X163659133Y25195912D01*
X163563578Y25290356D01*
X163515800Y25433689D01*
X163515800Y25529245D01*
X163563578Y25671467D01*
X163611356Y25719245D01*
X163611356Y26167023D02*
X163563578Y26214801D01*
X163515800Y26309245D01*
X163515800Y26548134D01*
X163563578Y26642578D01*
X163611356Y26690356D01*
X163705800Y26738134D01*
X163801356Y26738134D01*
X163944689Y26690356D01*
X164515800Y26119245D01*
X164515800Y26738134D01*
X163515800Y27375912D02*
X163515800Y27471467D01*
X163563578Y27567023D01*
X163611356Y27614801D01*
X163705800Y27661467D01*
X163896911Y27709245D01*
X164134689Y27709245D01*
X164325800Y27661467D01*
X164420244Y27614801D01*
X164468022Y27567023D01*
X164515800Y27471467D01*
X164515800Y27375912D01*
X164468022Y27281467D01*
X164420244Y27233690D01*
X164325800Y27185912D01*
X164134689Y27138134D01*
X163896911Y27138134D01*
X163705800Y27185912D01*
X163611356Y27233690D01*
X163563578Y27281467D01*
X163515800Y27375912D01*
G04 #@! TO.C,C31*
X93751645Y601556D02*
X93703867Y553778D01*
X93561645Y506000D01*
X93466089Y506000D01*
X93322756Y553778D01*
X93228312Y649333D01*
X93180534Y743778D01*
X93132756Y934889D01*
X93132756Y1077111D01*
X93180534Y1268222D01*
X93228312Y1362667D01*
X93322756Y1458222D01*
X93466089Y1506000D01*
X93561645Y1506000D01*
X93703867Y1458222D01*
X93751645Y1410444D01*
X94151645Y1506000D02*
X94770534Y1506000D01*
X94437201Y1124889D01*
X94580534Y1124889D01*
X94674978Y1077111D01*
X94722756Y1029333D01*
X94770534Y934889D01*
X94770534Y696000D01*
X94722756Y601556D01*
X94674978Y553778D01*
X94580534Y506000D01*
X94294978Y506000D01*
X94199423Y553778D01*
X94151645Y601556D01*
X95741645Y506000D02*
X95170534Y506000D01*
X95456090Y506000D02*
X95456090Y1506000D01*
X95360534Y1362667D01*
X95266090Y1268222D01*
X95170534Y1220444D01*
G04 #@! TO.C,U8*
X18170289Y8010400D02*
X18170289Y7200400D01*
X18218067Y7105956D01*
X18265845Y7058178D01*
X18360289Y7010400D01*
X18551400Y7010400D01*
X18646956Y7058178D01*
X18693622Y7105956D01*
X18741400Y7200400D01*
X18741400Y8010400D01*
X19331400Y7581511D02*
X19236956Y7629289D01*
X19189178Y7677067D01*
X19141400Y7772622D01*
X19141400Y7820400D01*
X19189178Y7914844D01*
X19236956Y7962622D01*
X19331400Y8010400D01*
X19522511Y8010400D01*
X19618067Y7962622D01*
X19664733Y7914844D01*
X19712511Y7820400D01*
X19712511Y7772622D01*
X19664733Y7677067D01*
X19618067Y7629289D01*
X19522511Y7581511D01*
X19331400Y7581511D01*
X19236956Y7533733D01*
X19189178Y7487067D01*
X19141400Y7391511D01*
X19141400Y7200400D01*
X19189178Y7105956D01*
X19236956Y7058178D01*
X19331400Y7010400D01*
X19522511Y7010400D01*
X19618067Y7058178D01*
X19664733Y7105956D01*
X19712511Y7200400D01*
X19712511Y7391511D01*
X19664733Y7487067D01*
X19618067Y7533733D01*
X19522511Y7581511D01*
G04 #@! TO.C,R27*
X28732178Y23954800D02*
X28398845Y24431467D01*
X28161067Y23954800D02*
X28161067Y24954800D01*
X28542178Y24954800D01*
X28637734Y24907022D01*
X28684400Y24859244D01*
X28732178Y24764800D01*
X28732178Y24621467D01*
X28684400Y24525911D01*
X28637734Y24478133D01*
X28542178Y24431467D01*
X28161067Y24431467D01*
X29179956Y24859244D02*
X29227734Y24907022D01*
X29322178Y24954800D01*
X29561067Y24954800D01*
X29655511Y24907022D01*
X29703289Y24859244D01*
X29751067Y24764800D01*
X29751067Y24669244D01*
X29703289Y24525911D01*
X29132178Y23954800D01*
X29751067Y23954800D01*
X30151067Y24954800D02*
X30817734Y24954800D01*
X30388845Y23954800D01*
G04 #@! TO.C,J2*
X34265111Y18720000D02*
X34265111Y18005556D01*
X34217333Y17863333D01*
X34121778Y17767778D01*
X33979556Y17720000D01*
X33884000Y17720000D01*
X34712889Y18624444D02*
X34760667Y18672222D01*
X34855111Y18720000D01*
X35094000Y18720000D01*
X35188444Y18672222D01*
X35236222Y18624444D01*
X35284000Y18530000D01*
X35284000Y18434444D01*
X35236222Y18291111D01*
X34665111Y17720000D01*
X35284000Y17720000D01*
G04 #@! TO.C,C32*
X54002156Y804756D02*
X53954378Y756978D01*
X53812156Y709200D01*
X53716600Y709200D01*
X53573267Y756978D01*
X53478823Y852533D01*
X53431045Y946978D01*
X53383267Y1138089D01*
X53383267Y1280311D01*
X53431045Y1471422D01*
X53478823Y1565867D01*
X53573267Y1661422D01*
X53716600Y1709200D01*
X53812156Y1709200D01*
X53954378Y1661422D01*
X54002156Y1613644D01*
X54402156Y1709200D02*
X55021045Y1709200D01*
X54687712Y1328089D01*
X54831045Y1328089D01*
X54925489Y1280311D01*
X54973267Y1232533D01*
X55021045Y1138089D01*
X55021045Y899200D01*
X54973267Y804756D01*
X54925489Y756978D01*
X54831045Y709200D01*
X54545489Y709200D01*
X54449934Y756978D01*
X54402156Y804756D01*
X55468823Y1613644D02*
X55516601Y1661422D01*
X55611045Y1709200D01*
X55849934Y1709200D01*
X55944378Y1661422D01*
X55992156Y1613644D01*
X56039934Y1519200D01*
X56039934Y1423644D01*
X55992156Y1280311D01*
X55421045Y709200D01*
X56039934Y709200D01*
G04 #@! TO.C,R11*
X33477445Y21110000D02*
X33144112Y21586667D01*
X32906334Y21110000D02*
X32906334Y22110000D01*
X33287445Y22110000D01*
X33383001Y22062222D01*
X33429667Y22014444D01*
X33477445Y21920000D01*
X33477445Y21776667D01*
X33429667Y21681111D01*
X33383001Y21633333D01*
X33287445Y21586667D01*
X32906334Y21586667D01*
X34448556Y21110000D02*
X33877445Y21110000D01*
X34163001Y21110000D02*
X34163001Y22110000D01*
X34067445Y21966667D01*
X33973001Y21872222D01*
X33877445Y21824444D01*
X35419667Y21110000D02*
X34848556Y21110000D01*
X35134112Y21110000D02*
X35134112Y22110000D01*
X35038556Y21966667D01*
X34944112Y21872222D01*
X34848556Y21824444D01*
G04 #@! TO.C,L6*
X55581978Y35293800D02*
X55105311Y35293800D01*
X55105311Y36293800D01*
X56458645Y36293800D02*
X56267534Y36293800D01*
X56171978Y36246022D01*
X56125311Y36198244D01*
X56029756Y36056022D01*
X55981978Y35864911D01*
X55981978Y35483800D01*
X56029756Y35389356D01*
X56077534Y35341578D01*
X56171978Y35293800D01*
X56363089Y35293800D01*
X56458645Y35341578D01*
X56505311Y35389356D01*
X56553089Y35483800D01*
X56553089Y35722689D01*
X56505311Y35817133D01*
X56458645Y35864911D01*
X56363089Y35912689D01*
X56171978Y35912689D01*
X56077534Y35864911D01*
X56029756Y35817133D01*
X55981978Y35722689D01*
G04 #@! TO.C,J6*
X11252200Y32471000D02*
X11966644Y32471000D01*
X12108867Y32423222D01*
X12204422Y32327667D01*
X12252200Y32185445D01*
X12252200Y32089889D01*
X11252200Y33347667D02*
X11252200Y33156556D01*
X11299978Y33061000D01*
X11347756Y33014333D01*
X11489978Y32918778D01*
X11681089Y32871000D01*
X12062200Y32871000D01*
X12156644Y32918778D01*
X12204422Y32966556D01*
X12252200Y33061000D01*
X12252200Y33252111D01*
X12204422Y33347667D01*
X12156644Y33394333D01*
X12062200Y33442111D01*
X11823311Y33442111D01*
X11728867Y33394333D01*
X11681089Y33347667D01*
X11633311Y33252111D01*
X11633311Y33061000D01*
X11681089Y32966556D01*
X11728867Y32918778D01*
X11823311Y32871000D01*
G04 #@! TO.C,C40*
X44170845Y936356D02*
X44123067Y888578D01*
X43980845Y840800D01*
X43885289Y840800D01*
X43741956Y888578D01*
X43647512Y984133D01*
X43599734Y1078578D01*
X43551956Y1269689D01*
X43551956Y1411911D01*
X43599734Y1603022D01*
X43647512Y1697467D01*
X43741956Y1793022D01*
X43885289Y1840800D01*
X43980845Y1840800D01*
X44123067Y1793022D01*
X44170845Y1745244D01*
X45047512Y1507467D02*
X45047512Y840800D01*
X44808623Y1888578D02*
X44570845Y1174133D01*
X45189734Y1174133D01*
X45827512Y1840800D02*
X45923067Y1840800D01*
X46018623Y1793022D01*
X46066401Y1745244D01*
X46113067Y1650800D01*
X46160845Y1459689D01*
X46160845Y1221911D01*
X46113067Y1030800D01*
X46066401Y936356D01*
X46018623Y888578D01*
X45923067Y840800D01*
X45827512Y840800D01*
X45733067Y888578D01*
X45685290Y936356D01*
X45637512Y1030800D01*
X45589734Y1221911D01*
X45589734Y1459689D01*
X45637512Y1650800D01*
X45685290Y1745244D01*
X45733067Y1793022D01*
X45827512Y1840800D01*
G04 #@! TO.C,C11*
X39952934Y48612156D02*
X39905156Y48564378D01*
X39762934Y48516600D01*
X39667378Y48516600D01*
X39524045Y48564378D01*
X39429601Y48659933D01*
X39381823Y48754378D01*
X39334045Y48945489D01*
X39334045Y49087711D01*
X39381823Y49278822D01*
X39429601Y49373267D01*
X39524045Y49468822D01*
X39667378Y49516600D01*
X39762934Y49516600D01*
X39905156Y49468822D01*
X39952934Y49421044D01*
X40924045Y48516600D02*
X40352934Y48516600D01*
X40638490Y48516600D02*
X40638490Y49516600D01*
X40542934Y49373267D01*
X40448490Y49278822D01*
X40352934Y49231044D01*
X41895156Y48516600D02*
X41324045Y48516600D01*
X41609601Y48516600D02*
X41609601Y49516600D01*
X41514045Y49373267D01*
X41419601Y49278822D01*
X41324045Y49231044D01*
G04 #@! TO.C,J5*
X10769600Y43647000D02*
X11484044Y43647000D01*
X11626267Y43599222D01*
X11721822Y43503667D01*
X11769600Y43361445D01*
X11769600Y43265889D01*
X10769600Y44570333D02*
X10769600Y44094778D01*
X11246267Y44047000D01*
X11198489Y44094778D01*
X11150711Y44190333D01*
X11150711Y44428111D01*
X11198489Y44523667D01*
X11246267Y44570333D01*
X11340711Y44618111D01*
X11579600Y44618111D01*
X11674044Y44570333D01*
X11721822Y44523667D01*
X11769600Y44428111D01*
X11769600Y44190333D01*
X11721822Y44094778D01*
X11674044Y44047000D01*
G04 #@! TO.C,D2*
X17696200Y31486600D02*
X17696200Y32486600D01*
X17933978Y32486600D01*
X18077311Y32438822D01*
X18172867Y32343267D01*
X18219533Y32248822D01*
X18267311Y32057711D01*
X18267311Y31915489D01*
X18219533Y31724378D01*
X18172867Y31629933D01*
X18077311Y31534378D01*
X17933978Y31486600D01*
X17696200Y31486600D01*
X18715089Y32391044D02*
X18762867Y32438822D01*
X18857311Y32486600D01*
X19096200Y32486600D01*
X19190644Y32438822D01*
X19238422Y32391044D01*
X19286200Y32296600D01*
X19286200Y32201044D01*
X19238422Y32057711D01*
X18667311Y31486600D01*
X19286200Y31486600D01*
G04 #@! TO.C,J1*
X163287200Y17713600D02*
X164001644Y17713600D01*
X164143867Y17665822D01*
X164239422Y17570267D01*
X164287200Y17428045D01*
X164287200Y17332489D01*
X164287200Y18684711D02*
X164287200Y18113600D01*
X164287200Y18399156D02*
X163287200Y18399156D01*
X163430533Y18303600D01*
X163524978Y18209156D01*
X163572756Y18113600D01*
G04 #@! TO.C,R35*
X91782800Y43181756D02*
X91306133Y42848423D01*
X91782800Y42610645D02*
X90782800Y42610645D01*
X90782800Y42991756D01*
X90830578Y43087312D01*
X90878356Y43133978D01*
X90972800Y43181756D01*
X91116133Y43181756D01*
X91211689Y43133978D01*
X91259467Y43087312D01*
X91306133Y42991756D01*
X91306133Y42610645D01*
X90782800Y43581756D02*
X90782800Y44200645D01*
X91163911Y43867312D01*
X91163911Y44010645D01*
X91211689Y44105089D01*
X91259467Y44152867D01*
X91353911Y44200645D01*
X91592800Y44200645D01*
X91687244Y44152867D01*
X91735022Y44105089D01*
X91782800Y44010645D01*
X91782800Y43725089D01*
X91735022Y43629534D01*
X91687244Y43581756D01*
X90782800Y45123978D02*
X90782800Y44648423D01*
X91259467Y44600645D01*
X91211689Y44648423D01*
X91163911Y44743978D01*
X91163911Y44981756D01*
X91211689Y45077312D01*
X91259467Y45123978D01*
X91353911Y45171756D01*
X91592800Y45171756D01*
X91687244Y45123978D01*
X91735022Y45077312D01*
X91782800Y44981756D01*
X91782800Y44743978D01*
X91735022Y44648423D01*
X91687244Y44600645D01*
G04 #@! TO.C,J11*
X56937400Y31782245D02*
X57651844Y31782245D01*
X57794067Y31734467D01*
X57889622Y31638912D01*
X57937400Y31496690D01*
X57937400Y31401134D01*
X57937400Y32753356D02*
X57937400Y32182245D01*
X57937400Y32467801D02*
X56937400Y32467801D01*
X57080733Y32372245D01*
X57175178Y32277801D01*
X57222956Y32182245D01*
X57937400Y33724467D02*
X57937400Y33153356D01*
X57937400Y33438912D02*
X56937400Y33438912D01*
X57080733Y33343356D01*
X57175178Y33248912D01*
X57222956Y33153356D01*
G04 #@! TO.C,C26*
X55786444Y46406045D02*
X55834222Y46358267D01*
X55882000Y46216045D01*
X55882000Y46120489D01*
X55834222Y45977156D01*
X55738667Y45882712D01*
X55644222Y45834934D01*
X55453111Y45787156D01*
X55310889Y45787156D01*
X55119778Y45834934D01*
X55025333Y45882712D01*
X54929778Y45977156D01*
X54882000Y46120489D01*
X54882000Y46216045D01*
X54929778Y46358267D01*
X54977556Y46406045D01*
X54977556Y46853823D02*
X54929778Y46901601D01*
X54882000Y46996045D01*
X54882000Y47234934D01*
X54929778Y47329378D01*
X54977556Y47377156D01*
X55072000Y47424934D01*
X55167556Y47424934D01*
X55310889Y47377156D01*
X55882000Y46806045D01*
X55882000Y47424934D01*
X54882000Y48301601D02*
X54882000Y48110490D01*
X54929778Y48014934D01*
X54977556Y47968267D01*
X55119778Y47872712D01*
X55310889Y47824934D01*
X55692000Y47824934D01*
X55786444Y47872712D01*
X55834222Y47920490D01*
X55882000Y48014934D01*
X55882000Y48206045D01*
X55834222Y48301601D01*
X55786444Y48348267D01*
X55692000Y48396045D01*
X55453111Y48396045D01*
X55358667Y48348267D01*
X55310889Y48301601D01*
X55263111Y48206045D01*
X55263111Y48014934D01*
X55310889Y47920490D01*
X55358667Y47872712D01*
X55453111Y47824934D01*
D11*
G04 #@! TO.C,LED3*
X51540410Y27011488D02*
X51177190Y27011488D01*
X51177190Y27773488D01*
X51845210Y27410268D02*
X52099210Y27410268D01*
X52208430Y27011488D02*
X51845210Y27011488D01*
X51845210Y27773488D01*
X52208430Y27773488D01*
X52513230Y27011488D02*
X52513230Y27773488D01*
X52694417Y27773488D01*
X52803637Y27737081D01*
X52876450Y27664268D01*
X52912010Y27592301D01*
X52948417Y27446675D01*
X52948417Y27338301D01*
X52912010Y27192675D01*
X52876450Y27120708D01*
X52803637Y27047895D01*
X52694417Y27011488D01*
X52513230Y27011488D01*
X53253217Y27773488D02*
X53724810Y27773488D01*
X53470810Y27483081D01*
X53580030Y27483081D01*
X53651997Y27446675D01*
X53688404Y27410268D01*
X53724810Y27338301D01*
X53724810Y27156268D01*
X53688404Y27084301D01*
X53651997Y27047895D01*
X53580030Y27011488D01*
X53362437Y27011488D01*
X53289624Y27047895D01*
X53253217Y27084301D01*
D12*
G04 #@! TO.C,Q7*
X34317089Y41119244D02*
X34221534Y41167022D01*
X34125978Y41262578D01*
X33983756Y41404800D01*
X33888201Y41452578D01*
X33792645Y41452578D01*
X33840423Y41214800D02*
X33745978Y41262578D01*
X33650423Y41358133D01*
X33602645Y41548133D01*
X33602645Y41881467D01*
X33650423Y42071467D01*
X33745978Y42167022D01*
X33840423Y42214800D01*
X34031534Y42214800D01*
X34125978Y42167022D01*
X34221534Y42071467D01*
X34269312Y41881467D01*
X34269312Y41548133D01*
X34221534Y41358133D01*
X34125978Y41262578D01*
X34031534Y41214800D01*
X33840423Y41214800D01*
X34717089Y42214800D02*
X35383756Y42214800D01*
X34954867Y41214800D01*
D11*
G04 #@! TO.C,R2*
X11046400Y10675197D02*
X10683180Y10421197D01*
X11046400Y10240010D02*
X10284400Y10240010D01*
X10284400Y10530417D01*
X10320807Y10603230D01*
X10357213Y10638790D01*
X10429180Y10675197D01*
X10538400Y10675197D01*
X10611213Y10638790D01*
X10647620Y10603230D01*
X10683180Y10530417D01*
X10683180Y10240010D01*
X10357213Y11016404D02*
X10320807Y11052810D01*
X10284400Y11124777D01*
X10284400Y11306810D01*
X10320807Y11378777D01*
X10357213Y11415184D01*
X10429180Y11451590D01*
X10501993Y11451590D01*
X10611213Y11415184D01*
X11046400Y10979997D01*
X11046400Y11451590D01*
D12*
G04 #@! TO.C,J12*
X49129000Y24428556D02*
X49843444Y24428556D01*
X49985667Y24380778D01*
X50081222Y24285223D01*
X50129000Y24143001D01*
X50129000Y24047445D01*
X50129000Y25399667D02*
X50129000Y24828556D01*
X50129000Y25114112D02*
X49129000Y25114112D01*
X49272333Y25018556D01*
X49366778Y24924112D01*
X49414556Y24828556D01*
X49224556Y25847445D02*
X49176778Y25895223D01*
X49129000Y25989667D01*
X49129000Y26228556D01*
X49176778Y26323000D01*
X49224556Y26370778D01*
X49319000Y26418556D01*
X49414556Y26418556D01*
X49557889Y26370778D01*
X50129000Y25799667D01*
X50129000Y26418556D01*
G04 #@! TO.C,L4*
X97747489Y49241200D02*
X97270822Y49241200D01*
X97270822Y50241200D01*
X98624156Y49907867D02*
X98624156Y49241200D01*
X98385267Y50288978D02*
X98147489Y49574533D01*
X98766378Y49574533D01*
G04 #@! TO.C,J10*
X30309045Y35442400D02*
X30309045Y34727956D01*
X30261267Y34585733D01*
X30165712Y34490178D01*
X30023490Y34442400D01*
X29927934Y34442400D01*
X31280156Y34442400D02*
X30709045Y34442400D01*
X30994601Y34442400D02*
X30994601Y35442400D01*
X30899045Y35299067D01*
X30804601Y35204622D01*
X30709045Y35156844D01*
X31917934Y35442400D02*
X32013489Y35442400D01*
X32109045Y35394622D01*
X32156823Y35346844D01*
X32203489Y35252400D01*
X32251267Y35061289D01*
X32251267Y34823511D01*
X32203489Y34632400D01*
X32156823Y34537956D01*
X32109045Y34490178D01*
X32013489Y34442400D01*
X31917934Y34442400D01*
X31823489Y34490178D01*
X31775712Y34537956D01*
X31727934Y34632400D01*
X31680156Y34823511D01*
X31680156Y35061289D01*
X31727934Y35252400D01*
X31775712Y35346844D01*
X31823489Y35394622D01*
X31917934Y35442400D01*
G04 #@! TO.C,Q2*
X15773578Y31416444D02*
X15678023Y31464222D01*
X15582467Y31559778D01*
X15440245Y31702000D01*
X15344690Y31749778D01*
X15249134Y31749778D01*
X15296912Y31512000D02*
X15202467Y31559778D01*
X15106912Y31655333D01*
X15059134Y31845333D01*
X15059134Y32178667D01*
X15106912Y32368667D01*
X15202467Y32464222D01*
X15296912Y32512000D01*
X15488023Y32512000D01*
X15582467Y32464222D01*
X15678023Y32368667D01*
X15725801Y32178667D01*
X15725801Y31845333D01*
X15678023Y31655333D01*
X15582467Y31559778D01*
X15488023Y31512000D01*
X15296912Y31512000D01*
X16221356Y32416444D02*
X16269134Y32464222D01*
X16363578Y32512000D01*
X16602467Y32512000D01*
X16696911Y32464222D01*
X16744689Y32416444D01*
X16792467Y32322000D01*
X16792467Y32226444D01*
X16744689Y32083111D01*
X16173578Y31512000D01*
X16792467Y31512000D01*
G04 #@! TO.C,J8*
X163261800Y33918800D02*
X163976244Y33918800D01*
X164118467Y33871022D01*
X164214022Y33775467D01*
X164261800Y33633245D01*
X164261800Y33537689D01*
X163690689Y34508800D02*
X163642911Y34414356D01*
X163595133Y34366578D01*
X163499578Y34318800D01*
X163451800Y34318800D01*
X163357356Y34366578D01*
X163309578Y34414356D01*
X163261800Y34508800D01*
X163261800Y34699911D01*
X163309578Y34795467D01*
X163357356Y34842133D01*
X163451800Y34889911D01*
X163499578Y34889911D01*
X163595133Y34842133D01*
X163642911Y34795467D01*
X163690689Y34699911D01*
X163690689Y34508800D01*
X163738467Y34414356D01*
X163785133Y34366578D01*
X163880689Y34318800D01*
X164071800Y34318800D01*
X164166244Y34366578D01*
X164214022Y34414356D01*
X164261800Y34508800D01*
X164261800Y34699911D01*
X164214022Y34795467D01*
X164166244Y34842133D01*
X164071800Y34889911D01*
X163880689Y34889911D01*
X163785133Y34842133D01*
X163738467Y34795467D01*
X163690689Y34699911D01*
G04 #@! TO.C,R10*
X28880045Y13561000D02*
X28546712Y14037667D01*
X28308934Y13561000D02*
X28308934Y14561000D01*
X28690045Y14561000D01*
X28785601Y14513222D01*
X28832267Y14465444D01*
X28880045Y14371000D01*
X28880045Y14227667D01*
X28832267Y14132111D01*
X28785601Y14084333D01*
X28690045Y14037667D01*
X28308934Y14037667D01*
X29851156Y13561000D02*
X29280045Y13561000D01*
X29565601Y13561000D02*
X29565601Y14561000D01*
X29470045Y14417667D01*
X29375601Y14323222D01*
X29280045Y14275444D01*
X30488934Y14561000D02*
X30584489Y14561000D01*
X30680045Y14513222D01*
X30727823Y14465444D01*
X30774489Y14371000D01*
X30822267Y14179889D01*
X30822267Y13942111D01*
X30774489Y13751000D01*
X30727823Y13656556D01*
X30680045Y13608778D01*
X30584489Y13561000D01*
X30488934Y13561000D01*
X30394489Y13608778D01*
X30346712Y13656556D01*
X30298934Y13751000D01*
X30251156Y13942111D01*
X30251156Y14179889D01*
X30298934Y14371000D01*
X30346712Y14465444D01*
X30394489Y14513222D01*
X30488934Y14561000D01*
G04 #@! TO.C,R20*
X31827956Y48070200D02*
X31494623Y48546867D01*
X31256845Y48070200D02*
X31256845Y49070200D01*
X31637956Y49070200D01*
X31733512Y49022422D01*
X31780178Y48974644D01*
X31827956Y48880200D01*
X31827956Y48736867D01*
X31780178Y48641311D01*
X31733512Y48593533D01*
X31637956Y48546867D01*
X31256845Y48546867D01*
X32275734Y48974644D02*
X32323512Y49022422D01*
X32417956Y49070200D01*
X32656845Y49070200D01*
X32751289Y49022422D01*
X32799067Y48974644D01*
X32846845Y48880200D01*
X32846845Y48784644D01*
X32799067Y48641311D01*
X32227956Y48070200D01*
X32846845Y48070200D01*
X33484623Y49070200D02*
X33580178Y49070200D01*
X33675734Y49022422D01*
X33723512Y48974644D01*
X33770178Y48880200D01*
X33817956Y48689089D01*
X33817956Y48451311D01*
X33770178Y48260200D01*
X33723512Y48165756D01*
X33675734Y48117978D01*
X33580178Y48070200D01*
X33484623Y48070200D01*
X33390178Y48117978D01*
X33342401Y48165756D01*
X33294623Y48260200D01*
X33246845Y48451311D01*
X33246845Y48689089D01*
X33294623Y48880200D01*
X33342401Y48974644D01*
X33390178Y49022422D01*
X33484623Y49070200D01*
G04 #@! TO.C,C22*
X142724356Y48189356D02*
X142676578Y48141578D01*
X142534356Y48093800D01*
X142438800Y48093800D01*
X142295467Y48141578D01*
X142201023Y48237133D01*
X142153245Y48331578D01*
X142105467Y48522689D01*
X142105467Y48664911D01*
X142153245Y48856022D01*
X142201023Y48950467D01*
X142295467Y49046022D01*
X142438800Y49093800D01*
X142534356Y49093800D01*
X142676578Y49046022D01*
X142724356Y48998244D01*
X143172134Y48998244D02*
X143219912Y49046022D01*
X143314356Y49093800D01*
X143553245Y49093800D01*
X143647689Y49046022D01*
X143695467Y48998244D01*
X143743245Y48903800D01*
X143743245Y48808244D01*
X143695467Y48664911D01*
X143124356Y48093800D01*
X143743245Y48093800D01*
X144191023Y48998244D02*
X144238801Y49046022D01*
X144333245Y49093800D01*
X144572134Y49093800D01*
X144666578Y49046022D01*
X144714356Y48998244D01*
X144762134Y48903800D01*
X144762134Y48808244D01*
X144714356Y48664911D01*
X144143245Y48093800D01*
X144762134Y48093800D01*
G04 #@! TO.C,R3*
X11787711Y5553200D02*
X11454378Y6029867D01*
X11216600Y5553200D02*
X11216600Y6553200D01*
X11597711Y6553200D01*
X11693267Y6505422D01*
X11739933Y6457644D01*
X11787711Y6363200D01*
X11787711Y6219867D01*
X11739933Y6124311D01*
X11693267Y6076533D01*
X11597711Y6029867D01*
X11216600Y6029867D01*
X12187711Y6553200D02*
X12806600Y6553200D01*
X12473267Y6172089D01*
X12616600Y6172089D01*
X12711044Y6124311D01*
X12758822Y6076533D01*
X12806600Y5982089D01*
X12806600Y5743200D01*
X12758822Y5648756D01*
X12711044Y5600978D01*
X12616600Y5553200D01*
X12331044Y5553200D01*
X12235489Y5600978D01*
X12187711Y5648756D01*
D11*
G04 #@! TO.C,C38*
X52335007Y19948813D02*
X52298601Y19912407D01*
X52190227Y19876000D01*
X52117414Y19876000D01*
X52008194Y19912407D01*
X51936227Y19985220D01*
X51899821Y20057187D01*
X51863414Y20202813D01*
X51863414Y20311187D01*
X51899821Y20456813D01*
X51936227Y20528780D01*
X52008194Y20601593D01*
X52117414Y20638000D01*
X52190227Y20638000D01*
X52298601Y20601593D01*
X52335007Y20565187D01*
X52639807Y20638000D02*
X53111400Y20638000D01*
X52857400Y20347593D01*
X52966620Y20347593D01*
X53038587Y20311187D01*
X53074994Y20274780D01*
X53111400Y20202813D01*
X53111400Y20020780D01*
X53074994Y19948813D01*
X53038587Y19912407D01*
X52966620Y19876000D01*
X52749027Y19876000D01*
X52676214Y19912407D01*
X52639807Y19948813D01*
X53560980Y20311187D02*
X53489013Y20347593D01*
X53452607Y20384000D01*
X53416200Y20456813D01*
X53416200Y20493220D01*
X53452607Y20565187D01*
X53489013Y20601593D01*
X53560980Y20638000D01*
X53706607Y20638000D01*
X53779420Y20601593D01*
X53814980Y20565187D01*
X53851387Y20493220D01*
X53851387Y20456813D01*
X53814980Y20384000D01*
X53779420Y20347593D01*
X53706607Y20311187D01*
X53560980Y20311187D01*
X53489013Y20274780D01*
X53452607Y20239220D01*
X53416200Y20166407D01*
X53416200Y20020780D01*
X53452607Y19948813D01*
X53489013Y19912407D01*
X53560980Y19876000D01*
X53706607Y19876000D01*
X53779420Y19912407D01*
X53814980Y19948813D01*
X53851387Y20020780D01*
X53851387Y20166407D01*
X53814980Y20239220D01*
X53779420Y20274780D01*
X53706607Y20311187D01*
D12*
G04 #@! TO.C,C25*
X88671645Y13428556D02*
X88623867Y13380778D01*
X88481645Y13333000D01*
X88386089Y13333000D01*
X88242756Y13380778D01*
X88148312Y13476333D01*
X88100534Y13570778D01*
X88052756Y13761889D01*
X88052756Y13904111D01*
X88100534Y14095222D01*
X88148312Y14189667D01*
X88242756Y14285222D01*
X88386089Y14333000D01*
X88481645Y14333000D01*
X88623867Y14285222D01*
X88671645Y14237444D01*
X89119423Y14237444D02*
X89167201Y14285222D01*
X89261645Y14333000D01*
X89500534Y14333000D01*
X89594978Y14285222D01*
X89642756Y14237444D01*
X89690534Y14143000D01*
X89690534Y14047444D01*
X89642756Y13904111D01*
X89071645Y13333000D01*
X89690534Y13333000D01*
X90613867Y14333000D02*
X90138312Y14333000D01*
X90090534Y13856333D01*
X90138312Y13904111D01*
X90233867Y13951889D01*
X90471645Y13951889D01*
X90567201Y13904111D01*
X90613867Y13856333D01*
X90661645Y13761889D01*
X90661645Y13523000D01*
X90613867Y13428556D01*
X90567201Y13380778D01*
X90471645Y13333000D01*
X90233867Y13333000D01*
X90138312Y13380778D01*
X90090534Y13428556D01*
G04 #@! TO.C,F1*
X23206044Y18362533D02*
X22872711Y18362533D01*
X22872711Y17839200D02*
X22872711Y18839200D01*
X23349378Y18839200D01*
X24320489Y17839200D02*
X23749378Y17839200D01*
X24034934Y17839200D02*
X24034934Y18839200D01*
X23939378Y18695867D01*
X23844934Y18601422D01*
X23749378Y18553644D01*
G04 #@! TO.C,M2*
X53208422Y49174400D02*
X53208422Y50174400D01*
X53541755Y49459956D01*
X53875089Y50174400D01*
X53875089Y49174400D01*
X54322867Y50078844D02*
X54370645Y50126622D01*
X54465089Y50174400D01*
X54703978Y50174400D01*
X54798422Y50126622D01*
X54846200Y50078844D01*
X54893978Y49984400D01*
X54893978Y49888844D01*
X54846200Y49745511D01*
X54275089Y49174400D01*
X54893978Y49174400D01*
D11*
G04 #@! TO.C,LED1*
X11099800Y13585613D02*
X11099800Y13222393D01*
X10337800Y13222393D01*
X10701020Y13890413D02*
X10701020Y14144413D01*
X11099800Y14253633D02*
X11099800Y13890413D01*
X10337800Y13890413D01*
X10337800Y14253633D01*
X11099800Y14558433D02*
X10337800Y14558433D01*
X10337800Y14739620D01*
X10374207Y14848840D01*
X10447020Y14921653D01*
X10518987Y14957213D01*
X10664613Y14993620D01*
X10772987Y14993620D01*
X10918613Y14957213D01*
X10990580Y14921653D01*
X11063393Y14848840D01*
X11099800Y14739620D01*
X11099800Y14558433D01*
X11099800Y15733607D02*
X11099800Y15298420D01*
X11099800Y15516013D02*
X10337800Y15516013D01*
X10447020Y15443200D01*
X10518987Y15371233D01*
X10555393Y15298420D01*
D12*
G04 #@! TO.C,M4*
X165120822Y48285400D02*
X165120822Y49285400D01*
X165454155Y48570956D01*
X165787489Y49285400D01*
X165787489Y48285400D01*
X166664156Y48952067D02*
X166664156Y48285400D01*
X166425267Y49333178D02*
X166187489Y48618733D01*
X166806378Y48618733D01*
G04 #@! TO.C,R6*
X16564000Y29934600D02*
X16230667Y30411267D01*
X15992889Y29934600D02*
X15992889Y30934600D01*
X16374000Y30934600D01*
X16469556Y30886822D01*
X16516222Y30839044D01*
X16564000Y30744600D01*
X16564000Y30601267D01*
X16516222Y30505711D01*
X16469556Y30457933D01*
X16374000Y30411267D01*
X15992889Y30411267D01*
X17440667Y30934600D02*
X17249556Y30934600D01*
X17154000Y30886822D01*
X17107333Y30839044D01*
X17011778Y30696822D01*
X16964000Y30505711D01*
X16964000Y30124600D01*
X17011778Y30030156D01*
X17059556Y29982378D01*
X17154000Y29934600D01*
X17345111Y29934600D01*
X17440667Y29982378D01*
X17487333Y30030156D01*
X17535111Y30124600D01*
X17535111Y30363489D01*
X17487333Y30457933D01*
X17440667Y30505711D01*
X17345111Y30553489D01*
X17154000Y30553489D01*
X17059556Y30505711D01*
X17011778Y30457933D01*
X16964000Y30363489D01*
D11*
G04 #@! TO.C,C23*
X52303987Y42309204D02*
X52340393Y42272798D01*
X52376800Y42164424D01*
X52376800Y42091611D01*
X52340393Y41982391D01*
X52267580Y41910424D01*
X52195613Y41874018D01*
X52049987Y41837611D01*
X51941613Y41837611D01*
X51795987Y41874018D01*
X51724020Y41910424D01*
X51651207Y41982391D01*
X51614800Y42091611D01*
X51614800Y42164424D01*
X51651207Y42272798D01*
X51687613Y42309204D01*
X51687613Y42650411D02*
X51651207Y42686817D01*
X51614800Y42758784D01*
X51614800Y42940817D01*
X51651207Y43012784D01*
X51687613Y43049191D01*
X51759580Y43085597D01*
X51832393Y43085597D01*
X51941613Y43049191D01*
X52376800Y42614004D01*
X52376800Y43085597D01*
X51614800Y43390397D02*
X51614800Y43861990D01*
X51905207Y43607990D01*
X51905207Y43717210D01*
X51941613Y43789177D01*
X51978020Y43825584D01*
X52049987Y43861990D01*
X52232020Y43861990D01*
X52303987Y43825584D01*
X52340393Y43789177D01*
X52376800Y43717210D01*
X52376800Y43499617D01*
X52340393Y43426804D01*
X52303987Y43390397D01*
D12*
G04 #@! TO.C,M1*
X14421111Y1270000D02*
X14421111Y2270000D01*
X14754444Y1555556D01*
X15087778Y2270000D01*
X15087778Y1270000D01*
X16058889Y1270000D02*
X15487778Y1270000D01*
X15773334Y1270000D02*
X15773334Y2270000D01*
X15677778Y2126667D01*
X15583334Y2032222D01*
X15487778Y1984444D01*
G04 #@! TO.C,Y2*
X38816333Y24565355D02*
X39293000Y24565355D01*
X38293000Y24232022D02*
X38816333Y24565355D01*
X38293000Y24898689D01*
X38388556Y25346467D02*
X38340778Y25394245D01*
X38293000Y25488689D01*
X38293000Y25727578D01*
X38340778Y25822022D01*
X38388556Y25869800D01*
X38483000Y25917578D01*
X38578556Y25917578D01*
X38721889Y25869800D01*
X39293000Y25298689D01*
X39293000Y25917578D01*
G04 #@! TO.C,C56*
X124097444Y38581334D02*
X124145222Y38533556D01*
X124193000Y38391334D01*
X124193000Y38295778D01*
X124145222Y38152445D01*
X124049667Y38058001D01*
X123955222Y38010223D01*
X123764111Y37962445D01*
X123621889Y37962445D01*
X123430778Y38010223D01*
X123336333Y38058001D01*
X123240778Y38152445D01*
X123193000Y38295778D01*
X123193000Y38391334D01*
X123240778Y38533556D01*
X123288556Y38581334D01*
X123193000Y39504667D02*
X123193000Y39029112D01*
X123669667Y38981334D01*
X123621889Y39029112D01*
X123574111Y39124667D01*
X123574111Y39362445D01*
X123621889Y39458001D01*
X123669667Y39504667D01*
X123764111Y39552445D01*
X124003000Y39552445D01*
X124097444Y39504667D01*
X124145222Y39458001D01*
X124193000Y39362445D01*
X124193000Y39124667D01*
X124145222Y39029112D01*
X124097444Y38981334D01*
X123193000Y40429112D02*
X123193000Y40238001D01*
X123240778Y40142445D01*
X123288556Y40095778D01*
X123430778Y40000223D01*
X123621889Y39952445D01*
X124003000Y39952445D01*
X124097444Y40000223D01*
X124145222Y40048001D01*
X124193000Y40142445D01*
X124193000Y40333556D01*
X124145222Y40429112D01*
X124097444Y40475778D01*
X124003000Y40523556D01*
X123764111Y40523556D01*
X123669667Y40475778D01*
X123621889Y40429112D01*
X123574111Y40333556D01*
X123574111Y40142445D01*
X123621889Y40048001D01*
X123669667Y40000223D01*
X123764111Y39952445D01*
G04 #@! TO.C,J7*
X166182800Y45326422D02*
X166897244Y45326422D01*
X167039467Y45278644D01*
X167135022Y45183089D01*
X167182800Y45040867D01*
X167182800Y44945311D01*
X166182800Y45726422D02*
X166182800Y46393089D01*
X167182800Y45964200D01*
G04 #@! TO.C,J9*
X22057000Y2117600D02*
X22057000Y1403156D01*
X22009222Y1260933D01*
X21913667Y1165378D01*
X21771445Y1117600D01*
X21675889Y1117600D01*
X22552556Y1117600D02*
X22742556Y1117600D01*
X22838111Y1165378D01*
X22885889Y1213156D01*
X22980333Y1355378D01*
X23028111Y1546489D01*
X23028111Y1927600D01*
X22980333Y2022044D01*
X22933667Y2069822D01*
X22838111Y2117600D01*
X22647000Y2117600D01*
X22552556Y2069822D01*
X22504778Y2022044D01*
X22457000Y1927600D01*
X22457000Y1688711D01*
X22504778Y1594267D01*
X22552556Y1546489D01*
X22647000Y1498711D01*
X22838111Y1498711D01*
X22933667Y1546489D01*
X22980333Y1594267D01*
X23028111Y1688711D01*
G04 #@! TO.C,C16*
X99236534Y16848356D02*
X99188756Y16800578D01*
X99046534Y16752800D01*
X98950978Y16752800D01*
X98807645Y16800578D01*
X98713201Y16896133D01*
X98665423Y16990578D01*
X98617645Y17181689D01*
X98617645Y17323911D01*
X98665423Y17515022D01*
X98713201Y17609467D01*
X98807645Y17705022D01*
X98950978Y17752800D01*
X99046534Y17752800D01*
X99188756Y17705022D01*
X99236534Y17657244D01*
X100207645Y16752800D02*
X99636534Y16752800D01*
X99922090Y16752800D02*
X99922090Y17752800D01*
X99826534Y17609467D01*
X99732090Y17515022D01*
X99636534Y17467244D01*
X101084312Y17752800D02*
X100893201Y17752800D01*
X100797645Y17705022D01*
X100750978Y17657244D01*
X100655423Y17515022D01*
X100607645Y17323911D01*
X100607645Y16942800D01*
X100655423Y16848356D01*
X100703201Y16800578D01*
X100797645Y16752800D01*
X100988756Y16752800D01*
X101084312Y16800578D01*
X101130978Y16848356D01*
X101178756Y16942800D01*
X101178756Y17181689D01*
X101130978Y17276133D01*
X101084312Y17323911D01*
X100988756Y17371689D01*
X100797645Y17371689D01*
X100703201Y17323911D01*
X100655423Y17276133D01*
X100607645Y17181689D01*
G04 #@! TO.C,L5*
X131241800Y45244178D02*
X131241800Y44767511D01*
X130241800Y44767511D01*
X130241800Y46167511D02*
X130241800Y45691956D01*
X130718467Y45644178D01*
X130670689Y45691956D01*
X130622911Y45787511D01*
X130622911Y46025289D01*
X130670689Y46120845D01*
X130718467Y46167511D01*
X130812911Y46215289D01*
X131051800Y46215289D01*
X131146244Y46167511D01*
X131194022Y46120845D01*
X131241800Y46025289D01*
X131241800Y45787511D01*
X131194022Y45691956D01*
X131146244Y45644178D01*
G04 #@! TO.C,C17*
X155170356Y2700556D02*
X155122578Y2652778D01*
X154980356Y2605000D01*
X154884800Y2605000D01*
X154741467Y2652778D01*
X154647023Y2748333D01*
X154599245Y2842778D01*
X154551467Y3033889D01*
X154551467Y3176111D01*
X154599245Y3367222D01*
X154647023Y3461667D01*
X154741467Y3557222D01*
X154884800Y3605000D01*
X154980356Y3605000D01*
X155122578Y3557222D01*
X155170356Y3509444D01*
X156141467Y2605000D02*
X155570356Y2605000D01*
X155855912Y2605000D02*
X155855912Y3605000D01*
X155760356Y3461667D01*
X155665912Y3367222D01*
X155570356Y3319444D01*
X156541467Y3605000D02*
X157208134Y3605000D01*
X156779245Y2605000D01*
G04 #@! TO.C,R12*
X26290756Y31534800D02*
X25957423Y32011467D01*
X25719645Y31534800D02*
X25719645Y32534800D01*
X26100756Y32534800D01*
X26196312Y32487022D01*
X26242978Y32439244D01*
X26290756Y32344800D01*
X26290756Y32201467D01*
X26242978Y32105911D01*
X26196312Y32058133D01*
X26100756Y32011467D01*
X25719645Y32011467D01*
X27261867Y31534800D02*
X26690756Y31534800D01*
X26976312Y31534800D02*
X26976312Y32534800D01*
X26880756Y32391467D01*
X26786312Y32297022D01*
X26690756Y32249244D01*
X27709645Y32439244D02*
X27757423Y32487022D01*
X27851867Y32534800D01*
X28090756Y32534800D01*
X28185200Y32487022D01*
X28232978Y32439244D01*
X28280756Y32344800D01*
X28280756Y32249244D01*
X28232978Y32105911D01*
X27661867Y31534800D01*
X28280756Y31534800D01*
G04 #@! TO.C,S1*
X40453089Y16929378D02*
X40596422Y16881600D01*
X40834200Y16881600D01*
X40929756Y16929378D01*
X40976422Y16977156D01*
X41024200Y17071600D01*
X41024200Y17167156D01*
X40976422Y17262711D01*
X40929756Y17310489D01*
X40834200Y17358267D01*
X40643089Y17404933D01*
X40548645Y17452711D01*
X40500867Y17500489D01*
X40453089Y17596044D01*
X40453089Y17691600D01*
X40500867Y17786044D01*
X40548645Y17833822D01*
X40643089Y17881600D01*
X40881978Y17881600D01*
X41024200Y17833822D01*
X41995311Y16881600D02*
X41424200Y16881600D01*
X41709756Y16881600D02*
X41709756Y17881600D01*
X41614200Y17738267D01*
X41519756Y17643822D01*
X41424200Y17596044D01*
D11*
G04 #@! TO.C,C39*
X60513807Y20227213D02*
X60477401Y20190807D01*
X60369027Y20154400D01*
X60296214Y20154400D01*
X60186994Y20190807D01*
X60115027Y20263620D01*
X60078621Y20335587D01*
X60042214Y20481213D01*
X60042214Y20589587D01*
X60078621Y20735213D01*
X60115027Y20807180D01*
X60186994Y20879993D01*
X60296214Y20916400D01*
X60369027Y20916400D01*
X60477401Y20879993D01*
X60513807Y20843587D01*
X60818607Y20916400D02*
X61290200Y20916400D01*
X61036200Y20625993D01*
X61145420Y20625993D01*
X61217387Y20589587D01*
X61253794Y20553180D01*
X61290200Y20481213D01*
X61290200Y20299180D01*
X61253794Y20227213D01*
X61217387Y20190807D01*
X61145420Y20154400D01*
X60927827Y20154400D01*
X60855014Y20190807D01*
X60818607Y20227213D01*
X61667813Y20154400D02*
X61812593Y20154400D01*
X61885407Y20190807D01*
X61921813Y20227213D01*
X61993780Y20335587D01*
X62030187Y20481213D01*
X62030187Y20771620D01*
X61993780Y20843587D01*
X61958220Y20879993D01*
X61885407Y20916400D01*
X61739780Y20916400D01*
X61667813Y20879993D01*
X61631407Y20843587D01*
X61595000Y20771620D01*
X61595000Y20589587D01*
X61631407Y20517620D01*
X61667813Y20481213D01*
X61739780Y20444807D01*
X61885407Y20444807D01*
X61958220Y20481213D01*
X61993780Y20517620D01*
X62030187Y20589587D01*
D12*
G04 #@! TO.C,U1*
X52467000Y30357089D02*
X53277000Y30357089D01*
X53371444Y30404867D01*
X53419222Y30452645D01*
X53467000Y30547089D01*
X53467000Y30738200D01*
X53419222Y30833756D01*
X53371444Y30880422D01*
X53277000Y30928200D01*
X52467000Y30928200D01*
X53467000Y31899311D02*
X53467000Y31328200D01*
X53467000Y31613756D02*
X52467000Y31613756D01*
X52610333Y31518200D01*
X52704778Y31423756D01*
X52752556Y31328200D01*
D11*
G04 #@! TO.C,LED4*
X46532800Y43945810D02*
X46532800Y43582590D01*
X45770800Y43582590D01*
X46134020Y44250610D02*
X46134020Y44504610D01*
X46532800Y44613830D02*
X46532800Y44250610D01*
X45770800Y44250610D01*
X45770800Y44613830D01*
X46532800Y44918630D02*
X45770800Y44918630D01*
X45770800Y45099817D01*
X45807207Y45209037D01*
X45880020Y45281850D01*
X45951987Y45317410D01*
X46097613Y45353817D01*
X46205987Y45353817D01*
X46351613Y45317410D01*
X46423580Y45281850D01*
X46496393Y45209037D01*
X46532800Y45099817D01*
X46532800Y44918630D01*
X46024800Y46021837D02*
X46532800Y46021837D01*
X45734393Y45839804D02*
X46278800Y45658617D01*
X46278800Y46130210D01*
D12*
G04 #@! TO.C,R34*
X140408000Y40414667D02*
X139931333Y40081334D01*
X140408000Y39843556D02*
X139408000Y39843556D01*
X139408000Y40224667D01*
X139455778Y40320223D01*
X139503556Y40366889D01*
X139598000Y40414667D01*
X139741333Y40414667D01*
X139836889Y40366889D01*
X139884667Y40320223D01*
X139931333Y40224667D01*
X139931333Y39843556D01*
X139408000Y40814667D02*
X139408000Y41433556D01*
X139789111Y41100223D01*
X139789111Y41243556D01*
X139836889Y41338000D01*
X139884667Y41385778D01*
X139979111Y41433556D01*
X140218000Y41433556D01*
X140312444Y41385778D01*
X140360222Y41338000D01*
X140408000Y41243556D01*
X140408000Y40958000D01*
X140360222Y40862445D01*
X140312444Y40814667D01*
X139741333Y42310223D02*
X140408000Y42310223D01*
X139360222Y42071334D02*
X140074667Y41833556D01*
X140074667Y42452445D01*
G04 #@! TO.C,Q4*
X55930978Y27682644D02*
X55835423Y27730422D01*
X55739867Y27825978D01*
X55597645Y27968200D01*
X55502090Y28015978D01*
X55406534Y28015978D01*
X55454312Y27778200D02*
X55359867Y27825978D01*
X55264312Y27921533D01*
X55216534Y28111533D01*
X55216534Y28444867D01*
X55264312Y28634867D01*
X55359867Y28730422D01*
X55454312Y28778200D01*
X55645423Y28778200D01*
X55739867Y28730422D01*
X55835423Y28634867D01*
X55883201Y28444867D01*
X55883201Y28111533D01*
X55835423Y27921533D01*
X55739867Y27825978D01*
X55645423Y27778200D01*
X55454312Y27778200D01*
X56807645Y28444867D02*
X56807645Y27778200D01*
X56568756Y28825978D02*
X56330978Y28111533D01*
X56949867Y28111533D01*
G04 #@! TO.C,C12*
X25527245Y25940756D02*
X25479467Y25892978D01*
X25337245Y25845200D01*
X25241689Y25845200D01*
X25098356Y25892978D01*
X25003912Y25988533D01*
X24956134Y26082978D01*
X24908356Y26274089D01*
X24908356Y26416311D01*
X24956134Y26607422D01*
X25003912Y26701867D01*
X25098356Y26797422D01*
X25241689Y26845200D01*
X25337245Y26845200D01*
X25479467Y26797422D01*
X25527245Y26749644D01*
X26498356Y25845200D02*
X25927245Y25845200D01*
X26212801Y25845200D02*
X26212801Y26845200D01*
X26117245Y26701867D01*
X26022801Y26607422D01*
X25927245Y26559644D01*
X26946134Y26749644D02*
X26993912Y26797422D01*
X27088356Y26845200D01*
X27327245Y26845200D01*
X27421689Y26797422D01*
X27469467Y26749644D01*
X27517245Y26655200D01*
X27517245Y26559644D01*
X27469467Y26416311D01*
X26898356Y25845200D01*
X27517245Y25845200D01*
D11*
G04 #@! TO.C,C7*
X35109997Y44144413D02*
X35073591Y44108007D01*
X34965217Y44071600D01*
X34892404Y44071600D01*
X34783184Y44108007D01*
X34711217Y44180820D01*
X34674811Y44252787D01*
X34638404Y44398413D01*
X34638404Y44506787D01*
X34674811Y44652413D01*
X34711217Y44724380D01*
X34783184Y44797193D01*
X34892404Y44833600D01*
X34965217Y44833600D01*
X35073591Y44797193D01*
X35109997Y44760787D01*
X35414797Y44833600D02*
X35922797Y44833600D01*
X35595984Y44071600D01*
D12*
G04 #@! TO.C,C4*
X30076800Y21343356D02*
X30029022Y21295578D01*
X29886800Y21247800D01*
X29791244Y21247800D01*
X29647911Y21295578D01*
X29553467Y21391133D01*
X29505689Y21485578D01*
X29457911Y21676689D01*
X29457911Y21818911D01*
X29505689Y22010022D01*
X29553467Y22104467D01*
X29647911Y22200022D01*
X29791244Y22247800D01*
X29886800Y22247800D01*
X30029022Y22200022D01*
X30076800Y22152244D01*
X30953467Y21914467D02*
X30953467Y21247800D01*
X30714578Y22295578D02*
X30476800Y21581133D01*
X31095689Y21581133D01*
G04 #@! TO.C,J3*
X10566400Y3186311D02*
X11280844Y3186311D01*
X11423067Y3138533D01*
X11518622Y3042978D01*
X11566400Y2900756D01*
X11566400Y2805200D01*
X10566400Y3586311D02*
X10566400Y4205200D01*
X10947511Y3871867D01*
X10947511Y4015200D01*
X10995289Y4109644D01*
X11043067Y4157422D01*
X11137511Y4205200D01*
X11376400Y4205200D01*
X11470844Y4157422D01*
X11518622Y4109644D01*
X11566400Y4015200D01*
X11566400Y3729644D01*
X11518622Y3634089D01*
X11470844Y3586311D01*
G04 #@! TO.C,M3*
X174772822Y3352800D02*
X174772822Y4352800D01*
X175106155Y3638356D01*
X175439489Y4352800D01*
X175439489Y3352800D01*
X175839489Y4352800D02*
X176458378Y4352800D01*
X176125045Y3971689D01*
X176268378Y3971689D01*
X176362822Y3923911D01*
X176410600Y3876133D01*
X176458378Y3781689D01*
X176458378Y3542800D01*
X176410600Y3448356D01*
X176362822Y3400578D01*
X176268378Y3352800D01*
X175982822Y3352800D01*
X175887267Y3400578D01*
X175839489Y3448356D01*
D11*
G04 #@! TO.C,C41*
X49769607Y16707213D02*
X49733201Y16670807D01*
X49624827Y16634400D01*
X49552014Y16634400D01*
X49442794Y16670807D01*
X49370827Y16743620D01*
X49334421Y16815587D01*
X49298014Y16961213D01*
X49298014Y17069587D01*
X49334421Y17215213D01*
X49370827Y17287180D01*
X49442794Y17359993D01*
X49552014Y17396400D01*
X49624827Y17396400D01*
X49733201Y17359993D01*
X49769607Y17323587D01*
X50437627Y17142400D02*
X50437627Y16634400D01*
X50255594Y17432807D02*
X50074407Y16888400D01*
X50546000Y16888400D01*
X51285987Y16634400D02*
X50850800Y16634400D01*
X51068393Y16634400D02*
X51068393Y17396400D01*
X50995580Y17287180D01*
X50923613Y17215213D01*
X50850800Y17178807D01*
D12*
G04 #@! TO.C,C43*
X46028556Y17586756D02*
X45980778Y17538978D01*
X45838556Y17491200D01*
X45743000Y17491200D01*
X45599667Y17538978D01*
X45505223Y17634533D01*
X45457445Y17728978D01*
X45409667Y17920089D01*
X45409667Y18062311D01*
X45457445Y18253422D01*
X45505223Y18347867D01*
X45599667Y18443422D01*
X45743000Y18491200D01*
X45838556Y18491200D01*
X45980778Y18443422D01*
X46028556Y18395644D01*
X46905223Y18157867D02*
X46905223Y17491200D01*
X46666334Y18538978D02*
X46428556Y17824533D01*
X47047445Y17824533D01*
X47447445Y18491200D02*
X48066334Y18491200D01*
X47733001Y18110089D01*
X47876334Y18110089D01*
X47970778Y18062311D01*
X48018556Y18014533D01*
X48066334Y17920089D01*
X48066334Y17681200D01*
X48018556Y17586756D01*
X47970778Y17538978D01*
X47876334Y17491200D01*
X47590778Y17491200D01*
X47495223Y17538978D01*
X47447445Y17586756D01*
D11*
G04 #@! TO.C,R7*
X19787729Y23675400D02*
X19618396Y23917547D01*
X19497605Y23675400D02*
X19497605Y24183400D01*
X19691209Y24183400D01*
X19739752Y24159129D01*
X19763458Y24134858D01*
X19787729Y24086880D01*
X19787729Y24014067D01*
X19763458Y23965524D01*
X19739752Y23941253D01*
X19691209Y23917547D01*
X19497605Y23917547D01*
X20041729Y24183400D02*
X20380396Y24183400D01*
X20162520Y23675400D01*
D12*
G04 #@! TO.C,X1*
X13608311Y23926800D02*
X14274978Y22926800D01*
X14274978Y23926800D02*
X13608311Y22926800D01*
X15246089Y22926800D02*
X14674978Y22926800D01*
X14960534Y22926800D02*
X14960534Y23926800D01*
X14864978Y23783467D01*
X14770534Y23689022D01*
X14674978Y23641244D01*
G04 #@! TO.C,U5*
X108220000Y30343889D02*
X109030000Y30343889D01*
X109124444Y30391667D01*
X109172222Y30439445D01*
X109220000Y30533889D01*
X109220000Y30725000D01*
X109172222Y30820556D01*
X109124444Y30867222D01*
X109030000Y30915000D01*
X108220000Y30915000D01*
X108220000Y31838333D02*
X108220000Y31362778D01*
X108696667Y31315000D01*
X108648889Y31362778D01*
X108601111Y31458333D01*
X108601111Y31696111D01*
X108648889Y31791667D01*
X108696667Y31838333D01*
X108791111Y31886111D01*
X109030000Y31886111D01*
X109124444Y31838333D01*
X109172222Y31791667D01*
X109220000Y31696111D01*
X109220000Y31458333D01*
X109172222Y31362778D01*
X109124444Y31315000D01*
G04 #@! TO.C,L3*
X37320889Y47932400D02*
X36844222Y47932400D01*
X36844222Y48932400D01*
X37720889Y48932400D02*
X38339778Y48932400D01*
X38006445Y48551289D01*
X38149778Y48551289D01*
X38244222Y48503511D01*
X38292000Y48455733D01*
X38339778Y48361289D01*
X38339778Y48122400D01*
X38292000Y48027956D01*
X38244222Y47980178D01*
X38149778Y47932400D01*
X37864222Y47932400D01*
X37768667Y47980178D01*
X37720889Y48027956D01*
G04 #@! TO.C,C3*
X14049400Y24710756D02*
X14001622Y24662978D01*
X13859400Y24615200D01*
X13763844Y24615200D01*
X13620511Y24662978D01*
X13526067Y24758533D01*
X13478289Y24852978D01*
X13430511Y25044089D01*
X13430511Y25186311D01*
X13478289Y25377422D01*
X13526067Y25471867D01*
X13620511Y25567422D01*
X13763844Y25615200D01*
X13859400Y25615200D01*
X14001622Y25567422D01*
X14049400Y25519644D01*
X14449400Y25615200D02*
X15068289Y25615200D01*
X14734956Y25234089D01*
X14878289Y25234089D01*
X14972733Y25186311D01*
X15020511Y25138533D01*
X15068289Y25044089D01*
X15068289Y24805200D01*
X15020511Y24710756D01*
X14972733Y24662978D01*
X14878289Y24615200D01*
X14592733Y24615200D01*
X14497178Y24662978D01*
X14449400Y24710756D01*
G04 #@! TO.C,Q3*
X24587378Y36852044D02*
X24491823Y36899822D01*
X24396267Y36995378D01*
X24254045Y37137600D01*
X24158490Y37185378D01*
X24062934Y37185378D01*
X24110712Y36947600D02*
X24016267Y36995378D01*
X23920712Y37090933D01*
X23872934Y37280933D01*
X23872934Y37614267D01*
X23920712Y37804267D01*
X24016267Y37899822D01*
X24110712Y37947600D01*
X24301823Y37947600D01*
X24396267Y37899822D01*
X24491823Y37804267D01*
X24539601Y37614267D01*
X24539601Y37280933D01*
X24491823Y37090933D01*
X24396267Y36995378D01*
X24301823Y36947600D01*
X24110712Y36947600D01*
X24987378Y37947600D02*
X25606267Y37947600D01*
X25272934Y37566489D01*
X25416267Y37566489D01*
X25510711Y37518711D01*
X25558489Y37470933D01*
X25606267Y37376489D01*
X25606267Y37137600D01*
X25558489Y37043156D01*
X25510711Y36995378D01*
X25416267Y36947600D01*
X25130711Y36947600D01*
X25035156Y36995378D01*
X24987378Y37043156D01*
G04 #@! TO.C,L12*
X80679800Y42943534D02*
X80679800Y42466867D01*
X79679800Y42466867D01*
X80679800Y43914645D02*
X80679800Y43343534D01*
X80679800Y43629090D02*
X79679800Y43629090D01*
X79823133Y43533534D01*
X79917578Y43439090D01*
X79965356Y43343534D01*
X79775356Y44362423D02*
X79727578Y44410201D01*
X79679800Y44504645D01*
X79679800Y44743534D01*
X79727578Y44837978D01*
X79775356Y44885756D01*
X79869800Y44933534D01*
X79965356Y44933534D01*
X80108689Y44885756D01*
X80679800Y44314645D01*
X80679800Y44933534D01*
G04 #@! TO.C,R25*
X34848800Y35945356D02*
X34372133Y35612023D01*
X34848800Y35374245D02*
X33848800Y35374245D01*
X33848800Y35755356D01*
X33896578Y35850912D01*
X33944356Y35897578D01*
X34038800Y35945356D01*
X34182133Y35945356D01*
X34277689Y35897578D01*
X34325467Y35850912D01*
X34372133Y35755356D01*
X34372133Y35374245D01*
X33944356Y36393134D02*
X33896578Y36440912D01*
X33848800Y36535356D01*
X33848800Y36774245D01*
X33896578Y36868689D01*
X33944356Y36916467D01*
X34038800Y36964245D01*
X34134356Y36964245D01*
X34277689Y36916467D01*
X34848800Y36345356D01*
X34848800Y36964245D01*
X33848800Y37887578D02*
X33848800Y37412023D01*
X34325467Y37364245D01*
X34277689Y37412023D01*
X34229911Y37507578D01*
X34229911Y37745356D01*
X34277689Y37840912D01*
X34325467Y37887578D01*
X34419911Y37935356D01*
X34658800Y37935356D01*
X34753244Y37887578D01*
X34801022Y37840912D01*
X34848800Y37745356D01*
X34848800Y37507578D01*
X34801022Y37412023D01*
X34753244Y37364245D01*
D11*
G04 #@! TO.C,R33*
X43047134Y49784000D02*
X42835467Y50086683D01*
X42684478Y49784000D02*
X42684478Y50419000D01*
X42926484Y50419000D01*
X42987161Y50388661D01*
X43016795Y50358322D01*
X43047134Y50298350D01*
X43047134Y50207333D01*
X43016795Y50146656D01*
X42987161Y50116317D01*
X42926484Y50086683D01*
X42684478Y50086683D01*
X43326534Y50419000D02*
X43719528Y50419000D01*
X43507862Y50176994D01*
X43598878Y50176994D01*
X43658851Y50146656D01*
X43689190Y50116317D01*
X43719528Y50056344D01*
X43719528Y49904650D01*
X43689190Y49844678D01*
X43658851Y49814339D01*
X43598878Y49784000D01*
X43417551Y49784000D01*
X43356873Y49814339D01*
X43326534Y49844678D01*
X43998928Y50419000D02*
X44391922Y50419000D01*
X44180256Y50176994D01*
X44271272Y50176994D01*
X44331245Y50146656D01*
X44361584Y50116317D01*
X44391922Y50056344D01*
X44391922Y49904650D01*
X44361584Y49844678D01*
X44331245Y49814339D01*
X44271272Y49784000D01*
X44089945Y49784000D01*
X44029267Y49814339D01*
X43998928Y49844678D01*
D12*
G04 #@! TO.C,J4*
X10388600Y18451711D02*
X11103044Y18451711D01*
X11245267Y18403933D01*
X11340822Y18308378D01*
X11388600Y18166156D01*
X11388600Y18070600D01*
X10721933Y19328378D02*
X11388600Y19328378D01*
X10340822Y19089489D02*
X11055267Y18851711D01*
X11055267Y19470600D01*
G04 #@! TO.C,C42*
X47017156Y10278956D02*
X46969378Y10231178D01*
X46827156Y10183400D01*
X46731600Y10183400D01*
X46588267Y10231178D01*
X46493823Y10326733D01*
X46446045Y10421178D01*
X46398267Y10612289D01*
X46398267Y10754511D01*
X46446045Y10945622D01*
X46493823Y11040067D01*
X46588267Y11135622D01*
X46731600Y11183400D01*
X46827156Y11183400D01*
X46969378Y11135622D01*
X47017156Y11087844D01*
X47893823Y10850067D02*
X47893823Y10183400D01*
X47654934Y11231178D02*
X47417156Y10516733D01*
X48036045Y10516733D01*
X48483823Y11087844D02*
X48531601Y11135622D01*
X48626045Y11183400D01*
X48864934Y11183400D01*
X48959378Y11135622D01*
X49007156Y11087844D01*
X49054934Y10993400D01*
X49054934Y10897844D01*
X49007156Y10754511D01*
X48436045Y10183400D01*
X49054934Y10183400D01*
G04 #@! TO.C,C49*
X29952644Y38407645D02*
X30000422Y38359867D01*
X30048200Y38217645D01*
X30048200Y38122089D01*
X30000422Y37978756D01*
X29904867Y37884312D01*
X29810422Y37836534D01*
X29619311Y37788756D01*
X29477089Y37788756D01*
X29285978Y37836534D01*
X29191533Y37884312D01*
X29095978Y37978756D01*
X29048200Y38122089D01*
X29048200Y38217645D01*
X29095978Y38359867D01*
X29143756Y38407645D01*
X29381533Y39284312D02*
X30048200Y39284312D01*
X29000422Y39045423D02*
X29714867Y38807645D01*
X29714867Y39426534D01*
X30048200Y39922090D02*
X30048200Y40112090D01*
X30000422Y40207645D01*
X29952644Y40255423D01*
X29810422Y40349867D01*
X29619311Y40397645D01*
X29238200Y40397645D01*
X29143756Y40349867D01*
X29095978Y40303201D01*
X29048200Y40207645D01*
X29048200Y40016534D01*
X29095978Y39922090D01*
X29143756Y39874312D01*
X29238200Y39826534D01*
X29477089Y39826534D01*
X29571533Y39874312D01*
X29619311Y39922090D01*
X29667089Y40016534D01*
X29667089Y40207645D01*
X29619311Y40303201D01*
X29571533Y40349867D01*
X29477089Y40397645D01*
G04 #@! TO.C,C14*
X114605045Y35997356D02*
X114557267Y35949578D01*
X114415045Y35901800D01*
X114319489Y35901800D01*
X114176156Y35949578D01*
X114081712Y36045133D01*
X114033934Y36139578D01*
X113986156Y36330689D01*
X113986156Y36472911D01*
X114033934Y36664022D01*
X114081712Y36758467D01*
X114176156Y36854022D01*
X114319489Y36901800D01*
X114415045Y36901800D01*
X114557267Y36854022D01*
X114605045Y36806244D01*
X115576156Y35901800D02*
X115005045Y35901800D01*
X115290601Y35901800D02*
X115290601Y36901800D01*
X115195045Y36758467D01*
X115100601Y36664022D01*
X115005045Y36616244D01*
X116452823Y36568467D02*
X116452823Y35901800D01*
X116213934Y36949578D02*
X115976156Y36235133D01*
X116595045Y36235133D01*
G04 #@! TO.C,C13*
X107727444Y27605645D02*
X107775222Y27557867D01*
X107823000Y27415645D01*
X107823000Y27320089D01*
X107775222Y27176756D01*
X107679667Y27082312D01*
X107585222Y27034534D01*
X107394111Y26986756D01*
X107251889Y26986756D01*
X107060778Y27034534D01*
X106966333Y27082312D01*
X106870778Y27176756D01*
X106823000Y27320089D01*
X106823000Y27415645D01*
X106870778Y27557867D01*
X106918556Y27605645D01*
X107823000Y28576756D02*
X107823000Y28005645D01*
X107823000Y28291201D02*
X106823000Y28291201D01*
X106966333Y28195645D01*
X107060778Y28101201D01*
X107108556Y28005645D01*
X106823000Y28976756D02*
X106823000Y29595645D01*
X107204111Y29262312D01*
X107204111Y29405645D01*
X107251889Y29500089D01*
X107299667Y29547867D01*
X107394111Y29595645D01*
X107633000Y29595645D01*
X107727444Y29547867D01*
X107775222Y29500089D01*
X107823000Y29405645D01*
X107823000Y29120089D01*
X107775222Y29024534D01*
X107727444Y28976756D01*
%LPC*%
D15*
G04 #@! TO.C,R13*
X50165000Y21377000D03*
X50165000Y23327000D03*
D16*
G04 #@! TO.C,M6*
X50800000Y3810000D03*
D17*
G04 #@! TO.C,LED2*
X12000000Y15875000D03*
X13400000Y15875000D03*
D18*
G04 #@! TO.C,R26*
X34712000Y24511000D03*
X36662000Y24511000D03*
D16*
G04 #@! TO.C,M5*
X19050000Y46990000D03*
D19*
G04 #@! TO.C,LED5*
X43561000Y44385000D03*
X43561000Y45785000D03*
D20*
G04 #@! TO.C,C1*
X19673600Y27559000D03*
X21423600Y27559000D03*
D21*
G04 #@! TO.C,L7*
X89789000Y9984000D03*
X89789000Y7034000D03*
D18*
G04 #@! TO.C,R9*
X25644200Y12242800D03*
X27594200Y12242800D03*
D20*
G04 #@! TO.C,C2*
X24217600Y25120600D03*
X22467600Y25120600D03*
D15*
G04 #@! TO.C,R14*
X43688000Y25816200D03*
X43688000Y23866200D03*
D22*
G04 #@! TO.C,U7*
X58191400Y10312400D03*
X55651400Y10312400D03*
X53111400Y10312400D03*
D15*
G04 #@! TO.C,R32*
X45389800Y47031000D03*
X45389800Y48981000D03*
D23*
G04 #@! TO.C,C20*
X158938600Y26771600D03*
D24*
X153938600Y26771600D03*
D25*
G04 #@! TO.C,C31*
X91805000Y3175000D03*
D26*
X89805000Y3175000D03*
D27*
G04 #@! TO.C,U8*
X23200000Y10535000D03*
X23200000Y14535000D03*
X14900000Y15335000D03*
X23200000Y15335000D03*
D28*
X17050000Y17485000D03*
X17850000Y17485000D03*
D27*
X14900000Y11335000D03*
X23200000Y16135000D03*
D28*
X17050000Y9185000D03*
D27*
X14900000Y14535000D03*
D28*
X20250000Y17485000D03*
X21050000Y17485000D03*
D27*
X23200000Y12935000D03*
D28*
X21050000Y9185000D03*
X16250000Y9185000D03*
X21850000Y9185000D03*
D27*
X14900000Y16135000D03*
X23200000Y11335000D03*
D28*
X19450000Y9185000D03*
D27*
X23200000Y13735000D03*
D28*
X21850000Y17485000D03*
D27*
X23200000Y12135000D03*
X14900000Y12935000D03*
D28*
X18650000Y9185000D03*
X20250000Y9185000D03*
D27*
X14900000Y10535000D03*
X14900000Y13735000D03*
D28*
X17850000Y9185000D03*
X19450000Y17485000D03*
D27*
X14900000Y12135000D03*
D28*
X18650000Y17485000D03*
X16250000Y17485000D03*
D18*
G04 #@! TO.C,R27*
X33512400Y24485600D03*
X31562400Y24485600D03*
D29*
G04 #@! TO.C,J2*
X38334000Y12970000D03*
X35834000Y14970000D03*
X35834000Y12970000D03*
D30*
X43104000Y10260000D03*
X31064000Y10260000D03*
D31*
X38334000Y14970000D03*
D25*
G04 #@! TO.C,C32*
X60055000Y3175000D03*
D26*
X58055000Y3175000D03*
D18*
G04 #@! TO.C,R11*
X35138000Y19685000D03*
X33188000Y19685000D03*
D32*
G04 #@! TO.C,L6*
X54354200Y38277800D03*
X57304200Y38277800D03*
D33*
G04 #@! TO.C,J6*
X11890000Y30710000D03*
X11890000Y27710000D03*
X8890000Y30710000D03*
D34*
X8890000Y27710000D03*
D35*
G04 #@! TD*
X4572000Y29210000D03*
D20*
G04 #@! TO.C,C40*
X44972000Y3175000D03*
X46722000Y3175000D03*
G04 #@! TO.C,C11*
X39739600Y47091600D03*
X41489600Y47091600D03*
D34*
G04 #@! TO.C,J5*
X8890000Y38045000D03*
D33*
X8890000Y44045000D03*
X8890000Y41045000D03*
X8890000Y47045000D03*
D35*
G04 #@! TD*
X4572000Y40195500D03*
X4572000Y44894500D03*
D36*
G04 #@! TO.C,D2*
X21420000Y31430000D03*
X19220000Y30480000D03*
X21420000Y29530000D03*
D33*
G04 #@! TO.C,J1*
X165910000Y10510000D03*
X168910000Y10510000D03*
X168910000Y19510000D03*
X168910000Y16510000D03*
X165910000Y13510000D03*
D34*
X168910000Y22510000D03*
D33*
X165910000Y22510000D03*
X165910000Y19510000D03*
X165910000Y16510000D03*
X168910000Y13510000D03*
D35*
G04 #@! TD*
X173228000Y20358100D03*
X173228000Y12661900D03*
D37*
G04 #@! TO.C,R35*
X93980000Y45240000D03*
X93980000Y42390000D03*
D38*
G04 #@! TO.C,J11*
X60045600Y41960800D03*
D39*
X60045600Y36880800D03*
X60045600Y29260800D03*
X60045600Y34340800D03*
X60045600Y39420800D03*
X60045600Y31800800D03*
D25*
G04 #@! TO.C,C26*
X59182000Y48091600D03*
D26*
X59182000Y46091600D03*
D19*
G04 #@! TO.C,LED3*
X51231800Y24457288D03*
X51231800Y25857288D03*
D36*
G04 #@! TO.C,Q7*
X32469000Y44384000D03*
X30269000Y43434000D03*
X32469000Y42484000D03*
D15*
G04 #@! TO.C,R2*
X12065000Y13040000D03*
X12065000Y11090000D03*
D40*
G04 #@! TO.C,J12*
X47574200Y23658200D03*
D41*
X47574200Y21158200D03*
D40*
X47574200Y22408200D03*
X47574200Y24908200D03*
D42*
G04 #@! TO.C,L4*
X93980000Y39315000D03*
X93980000Y48315000D03*
D39*
G04 #@! TO.C,J10*
X30226000Y27432000D03*
X32766000Y29972000D03*
X30226000Y29972000D03*
D38*
X30226000Y32512000D03*
D39*
X32766000Y27432000D03*
X32766000Y32512000D03*
D43*
G04 #@! TO.C,Q2*
X13229000Y36576000D03*
D44*
X19029000Y34276000D03*
X19029000Y36576000D03*
X19029000Y38876000D03*
D33*
G04 #@! TO.C,J8*
X165910000Y35639000D03*
X165910000Y29639000D03*
X165910000Y32639000D03*
X168910000Y29639000D03*
D34*
X168910000Y35639000D03*
D33*
X168910000Y32639000D03*
D35*
G04 #@! TD*
X173228000Y32639000D03*
D18*
G04 #@! TO.C,R10*
X25644200Y14046200D03*
X27594200Y14046200D03*
G04 #@! TO.C,R20*
X30267000Y46736000D03*
X32217000Y46736000D03*
D24*
G04 #@! TO.C,C22*
X147761000Y42545000D03*
D23*
X155261000Y42545000D03*
D15*
G04 #@! TO.C,R3*
X12065000Y9230000D03*
X12065000Y7280000D03*
D45*
G04 #@! TO.C,C38*
X56162000Y18288000D03*
X53312000Y18288000D03*
D25*
G04 #@! TO.C,C25*
X91805000Y17399000D03*
D26*
X89805000Y17399000D03*
D46*
G04 #@! TO.C,F1*
X25305000Y17018000D03*
X29305000Y17018000D03*
D16*
G04 #@! TO.C,M2*
X50800000Y46990000D03*
D17*
G04 #@! TO.C,LED1*
X12000000Y14605000D03*
X13400000Y14605000D03*
D16*
G04 #@! TO.C,M4*
X161925000Y46990000D03*
D18*
G04 #@! TO.C,R6*
X16068400Y28727400D03*
X18018400Y28727400D03*
D25*
G04 #@! TO.C,C23*
X55397400Y43824400D03*
D26*
X55397400Y41824400D03*
D16*
G04 #@! TO.C,M1*
X19050000Y3810000D03*
D47*
G04 #@! TO.C,Y2*
X41148000Y25273000D03*
D48*
X42098000Y25273000D03*
X40198000Y25273000D03*
D49*
G04 #@! TO.C,C56*
X128143000Y40493000D03*
D50*
X128143000Y37993000D03*
D33*
G04 #@! TO.C,J7*
X165910000Y43180000D03*
D34*
X168910000Y43180000D03*
D35*
G04 #@! TD*
X173228000Y43180000D03*
D39*
G04 #@! TO.C,J9*
X25146000Y2540000D03*
X27686000Y5080000D03*
X25146000Y5080000D03*
D38*
X25146000Y7620000D03*
D39*
X27686000Y2540000D03*
X27686000Y7620000D03*
D23*
G04 #@! TO.C,C16*
X102398200Y9702800D03*
D24*
X97398200Y9702800D03*
D42*
G04 #@! TO.C,L5*
X137033000Y45648000D03*
X137033000Y36648000D03*
D23*
G04 #@! TO.C,C17*
X158710000Y11023600D03*
D24*
X153710000Y11023600D03*
D18*
G04 #@! TO.C,R12*
X25187000Y30353000D03*
X27137000Y30353000D03*
D51*
G04 #@! TO.C,S1*
X37796400Y22316000D03*
D52*
X44296400Y17816000D03*
X37796400Y17816000D03*
X44296400Y22316000D03*
D53*
G04 #@! TO.C,U4*
X82550000Y2540000D03*
D54*
X64770000Y48260000D03*
X67310000Y2540000D03*
X77470000Y2540000D03*
X74930000Y48260000D03*
X85090000Y48260000D03*
D45*
G04 #@! TO.C,C39*
X57884000Y18542000D03*
X60734000Y18542000D03*
D55*
G04 #@! TO.C,U1*
X36165000Y36925000D03*
X36165000Y38425000D03*
D56*
X44815000Y27275000D03*
D55*
X36165000Y29925000D03*
X51465000Y38925000D03*
X51465000Y37425000D03*
X51465000Y40425000D03*
X36165000Y32425000D03*
X36165000Y35925000D03*
X36165000Y37925000D03*
D56*
X40815000Y42575000D03*
D55*
X51465000Y33925000D03*
D56*
X40815000Y27275000D03*
D55*
X36165000Y31925000D03*
D56*
X44315000Y42575000D03*
X42815000Y42575000D03*
X45815000Y27275000D03*
D55*
X51465000Y30425000D03*
D56*
X42815000Y27275000D03*
D55*
X36165000Y32925000D03*
X51465000Y40925000D03*
D56*
X47815000Y42575000D03*
D55*
X36165000Y29425000D03*
X51465000Y34925000D03*
D56*
X46815000Y27275000D03*
X41815000Y42575000D03*
X41815000Y27275000D03*
D55*
X51465000Y34425000D03*
X36165000Y30425000D03*
X36165000Y39425000D03*
X51465000Y28925000D03*
D56*
X46315000Y27275000D03*
X45315000Y27275000D03*
D55*
X51465000Y38425000D03*
D56*
X45315000Y42575000D03*
D55*
X51465000Y39925000D03*
X36165000Y31425000D03*
D56*
X39815000Y27275000D03*
X45815000Y42575000D03*
X48815000Y42575000D03*
X43315000Y27275000D03*
D55*
X51465000Y35925000D03*
X51465000Y29925000D03*
X51465000Y32425000D03*
X51465000Y36425000D03*
X36165000Y38925000D03*
D56*
X39315000Y42575000D03*
D55*
X36165000Y33925000D03*
X36165000Y35425000D03*
X36165000Y40925000D03*
X51465000Y29425000D03*
D56*
X38815000Y27275000D03*
X49315000Y27275000D03*
X38315000Y27275000D03*
X38815000Y42575000D03*
D55*
X36165000Y33425000D03*
D56*
X37815000Y42575000D03*
D55*
X51465000Y36925000D03*
X51465000Y33425000D03*
D56*
X40315000Y27275000D03*
X46315000Y42575000D03*
D55*
X36165000Y34925000D03*
X36165000Y28925000D03*
X36165000Y34425000D03*
X36165000Y36425000D03*
D56*
X47315000Y42575000D03*
X43815000Y27275000D03*
X41315000Y27275000D03*
X47315000Y27275000D03*
D55*
X51465000Y39425000D03*
D56*
X37815000Y27275000D03*
D55*
X36165000Y40425000D03*
X51465000Y32925000D03*
D56*
X48315000Y27275000D03*
X42315000Y27275000D03*
D55*
X36165000Y30925000D03*
X36165000Y39925000D03*
D56*
X44815000Y42575000D03*
X38315000Y42575000D03*
X43315000Y42575000D03*
X44315000Y27275000D03*
X42315000Y42575000D03*
X47815000Y27275000D03*
X49815000Y42575000D03*
X39815000Y42575000D03*
X43815000Y42575000D03*
D55*
X51465000Y35425000D03*
D56*
X48815000Y27275000D03*
X48315000Y42575000D03*
D55*
X51465000Y31925000D03*
D56*
X46815000Y42575000D03*
D55*
X51465000Y31425000D03*
D56*
X41315000Y42575000D03*
D55*
X51465000Y37925000D03*
X36165000Y37425000D03*
D56*
X49315000Y42575000D03*
X39315000Y27275000D03*
X40315000Y42575000D03*
X49815000Y27275000D03*
D55*
X51465000Y30925000D03*
D19*
G04 #@! TO.C,LED4*
X44805600Y44334200D03*
X44805600Y45734200D03*
D37*
G04 #@! TO.C,R34*
X137033000Y39723000D03*
X137033000Y42573000D03*
D43*
G04 #@! TO.C,Q4*
X53234000Y24003000D03*
D44*
X59034000Y21703000D03*
X59034000Y24003000D03*
X59034000Y26303000D03*
D20*
G04 #@! TO.C,C12*
X27037000Y27940000D03*
X25287000Y27940000D03*
G04 #@! TO.C,C7*
X36717000Y44323000D03*
X38467000Y44323000D03*
G04 #@! TO.C,C4*
X30999400Y20193000D03*
X29249400Y20193000D03*
D33*
G04 #@! TO.C,J3*
X8890000Y6580000D03*
D34*
X8890000Y3580000D03*
D35*
G04 #@! TD*
X4572000Y5080000D03*
D16*
G04 #@! TO.C,M3*
X171450000Y3810000D03*
D20*
G04 #@! TO.C,C41*
X51167000Y18415000D03*
X49417000Y18415000D03*
D25*
G04 #@! TO.C,C43*
X46482000Y15478000D03*
D26*
X46482000Y13478000D03*
D18*
G04 #@! TO.C,R7*
X20939400Y25120600D03*
X18989400Y25120600D03*
D57*
G04 #@! TO.C,X1*
X24762000Y21463000D03*
X14862000Y21463000D03*
D58*
G04 #@! TO.C,U5*
X137160000Y19050000D03*
X129540000Y3175000D03*
X137160000Y15240000D03*
X125730000Y31115000D03*
X129540000Y31115000D03*
X133350000Y31115000D03*
D59*
X137160000Y31115000D03*
D58*
X137160000Y3175000D03*
D59*
X121920000Y31115000D03*
D60*
X121920000Y3175000D03*
D61*
G04 #@! TO.C,L3*
X36540000Y46736000D03*
X38390000Y46736000D03*
D20*
G04 #@! TO.C,C3*
X15965200Y25196800D03*
X17715200Y25196800D03*
D43*
G04 #@! TO.C,Q3*
X21484000Y41783000D03*
D44*
X27284000Y39483000D03*
X27284000Y41783000D03*
X27284000Y44083000D03*
D32*
G04 #@! TO.C,L12*
X84660000Y43815000D03*
X81710000Y43815000D03*
D18*
G04 #@! TO.C,R25*
X32725000Y36830000D03*
X30775000Y36830000D03*
D15*
G04 #@! TO.C,R33*
X43510200Y47031000D03*
X43510200Y48981000D03*
D33*
G04 #@! TO.C,J4*
X8890000Y20145000D03*
X8890000Y17145000D03*
D34*
X8890000Y14145000D03*
D35*
G04 #@! TD*
X4572000Y17145000D03*
D25*
G04 #@! TO.C,C42*
X47101000Y7366000D03*
D26*
X45101000Y7366000D03*
D20*
G04 #@! TO.C,C49*
X30875000Y39370000D03*
X32625000Y39370000D03*
D24*
G04 #@! TO.C,C14*
X103692000Y42545000D03*
D23*
X111192000Y42545000D03*
G04 #@! TO.C,C13*
X100905000Y28067000D03*
D24*
X93405000Y28067000D03*
D62*
G04 #@! TD*
X38531800Y7035800D03*
X83261200Y40817800D03*
G04 --- BOARD END --- *
G04 #@! TF.MD5,ec060f6770b4df1e05076c5c5c8e983f*
M02*
