G04 --- HEADER BEGIN --- *
G04 #@! TF.GenerationSoftware,LibrePCB,LibrePCB,1.1.0*
G04 #@! TF.CreationDate,2024-09-10T10:23:41*
G04 #@! TF.ProjectId,100818,18c58eaa-e54a-4ec1-94cd-ac7c7134a3b5,v1.0.1*
G04 #@! TF.Part,Single*
G04 #@! TF.SameCoordinates*
G04 #@! TF.FileFunction,Paste,Top*
G04 #@! TF.FilePolarity,Positive*
%FSLAX66Y66*%
%MOMM*%
G01*
G75*
G04 --- HEADER END --- *
G04 --- APERTURE LIST BEGIN --- *
%ADD10R,1.1X0.6*%
%ADD11R,0.48X0.68*%
%ADD12R,0.6X1.1*%
%ADD13R,0.68X0.48*%
%ADD14R,0.76X1.06*%
%ADD15R,2.31X0.76*%
%AMROUNDEDRECT16*20,1,0.36,-0.4875,0.0,0.4875,0.0,0.0*20,1,0.225,-0.555,0.0,0.555,0.0,0.0*1,1,0.135,-0.4875,0.1125*1,1,0.135,0.4875,0.1125*1,1,0.135,0.4875,-0.1125*1,1,0.135,-0.4875,-0.1125*%
%ADD16ROUNDEDRECT16*%
%AMROUNDEDRECT17*20,1,0.36,-0.4875,0.0,0.4875,0.0,90.0*20,1,0.225,-0.555,0.0,0.555,0.0,90.0*1,1,0.135,-0.1125,-0.4875*1,1,0.135,-0.1125,0.4875*1,1,0.135,0.1125,0.4875*1,1,0.135,0.1125,-0.4875*%
%ADD17ROUNDEDRECT17*%
%ADD18R,0.76X2.31*%
%AMROUNDEDRECT19*20,1,0.64,-0.45,0.0,0.45,0.0,0.0*20,1,0.4,-0.57,0.0,0.57,0.0,0.0*1,1,0.24,-0.45,0.2*1,1,0.24,0.45,0.2*1,1,0.24,0.45,-0.2*1,1,0.24,-0.45,-0.2*%
%ADD19ROUNDEDRECT19*%
%ADD20R,2.34X0.84*%
%ADD21R,3.1X1.6*%
%ADD22R,1.72X2.82*%
%AMROUNDEDRECT23*20,1,0.76,-0.8375,0.0,0.8375,0.0,0.0*20,1,0.475,-0.98,0.0,0.98,0.0,0.0*1,1,0.285,-0.8375,0.2375*1,1,0.285,0.8375,0.2375*1,1,0.285,0.8375,-0.2375*1,1,0.285,-0.8375,-0.2375*%
%ADD23ROUNDEDRECT23*%
%ADD24R,0.84X2.29*%
%ADD25R,0.96X2.96*%
%AMROUNDEDRECT26*20,1,0.32,-0.6,0.0,0.6,0.0,90.0*20,1,0.2,-0.66,0.0,0.66,0.0,90.0*1,1,0.12,-0.1,-0.6*1,1,0.12,-0.1,0.6*1,1,0.12,0.1,0.6*1,1,0.12,0.1,-0.6*%
%ADD26ROUNDEDRECT26*%
%AMROUNDEDRECT27*20,1,0.48,-0.55,0.0,0.55,0.0,90.0*20,1,0.3,-0.64,0.0,0.64,0.0,90.0*1,1,0.18,-0.15,-0.55*1,1,0.18,-0.15,0.55*1,1,0.18,0.15,0.55*1,1,0.18,0.15,-0.55*%
%ADD27ROUNDEDRECT27*%
%AMROUNDEDRECT28*20,1,0.16,-0.45,0.0,0.45,0.0,0.0*20,1,0.1,-0.48,0.0,0.48,0.0,0.0*1,1,0.06,-0.45,0.05*1,1,0.06,0.45,0.05*1,1,0.06,0.45,-0.05*1,1,0.06,-0.45,-0.05*%
%ADD28ROUNDEDRECT28*%
%AMROUNDEDRECT29*20,1,0.16,-0.45,0.0,0.45,0.0,90.0*20,1,0.1,-0.48,0.0,0.48,0.0,90.0*1,1,0.06,-0.05,-0.45*1,1,0.06,-0.05,0.45*1,1,0.06,0.05,0.45*1,1,0.06,0.05,-0.45*%
%ADD29ROUNDEDRECT29*%
%AMROUNDEDRECT30*20,1,1.6,-2.5,0.0,2.5,0.0,0.0*20,1,1.5,-2.55,0.0,2.55,0.0,0.0*1,1,0.1,-2.5,0.75*1,1,0.1,2.5,0.75*1,1,0.1,2.5,-0.75*1,1,0.1,-2.5,-0.75*%
%ADD30ROUNDEDRECT30*%
%ADD31R,0.68X1.08*%
G04 --- APERTURE LIST END --- *
G04 --- BOARD BEGIN --- *
D10*
G04 #@! TO.C,R13*
X50165000Y21377000D03*
X50165000Y23327000D03*
D11*
G04 #@! TO.C,LED2*
X12000000Y15875000D03*
X13400000Y15875000D03*
D12*
G04 #@! TO.C,R26*
X34712000Y24511000D03*
X36662000Y24511000D03*
D13*
G04 #@! TO.C,LED5*
X43561000Y44385000D03*
X43561000Y45785000D03*
D14*
G04 #@! TO.C,C1*
X19673600Y27559000D03*
X21423600Y27559000D03*
D15*
G04 #@! TO.C,L7*
X89789000Y9984000D03*
X89789000Y7034000D03*
D12*
G04 #@! TO.C,R9*
X25644200Y12242800D03*
X27594200Y12242800D03*
D14*
G04 #@! TO.C,C2*
X24217600Y25120600D03*
X22467600Y25120600D03*
D10*
G04 #@! TO.C,R14*
X43688000Y25816200D03*
X43688000Y23866200D03*
G04 #@! TO.C,R32*
X45389800Y47031000D03*
X45389800Y48981000D03*
D16*
G04 #@! TO.C,U8*
X23200000Y10535000D03*
X23200000Y14535000D03*
X14900000Y15335000D03*
X23200000Y15335000D03*
D17*
X17050000Y17485000D03*
X17850000Y17485000D03*
D16*
X14900000Y11335000D03*
X23200000Y16135000D03*
D17*
X17050000Y9185000D03*
D16*
X14900000Y14535000D03*
D17*
X20250000Y17485000D03*
X21050000Y17485000D03*
D16*
X23200000Y12935000D03*
D17*
X21050000Y9185000D03*
X16250000Y9185000D03*
X21850000Y9185000D03*
D16*
X14900000Y16135000D03*
X23200000Y11335000D03*
D17*
X19450000Y9185000D03*
D16*
X23200000Y13735000D03*
D17*
X21850000Y17485000D03*
D16*
X23200000Y12135000D03*
X14900000Y12935000D03*
D17*
X18650000Y9185000D03*
X20250000Y9185000D03*
D16*
X14900000Y10535000D03*
X14900000Y13735000D03*
D17*
X17850000Y9185000D03*
X19450000Y17485000D03*
D16*
X14900000Y12135000D03*
D17*
X18650000Y17485000D03*
X16250000Y17485000D03*
D12*
G04 #@! TO.C,R27*
X33512400Y24485600D03*
X31562400Y24485600D03*
G04 #@! TO.C,R11*
X35138000Y19685000D03*
X33188000Y19685000D03*
D18*
G04 #@! TO.C,L6*
X54354200Y38277800D03*
X57304200Y38277800D03*
D14*
G04 #@! TO.C,C40*
X44972000Y3175000D03*
X46722000Y3175000D03*
G04 #@! TO.C,C11*
X39739600Y47091600D03*
X41489600Y47091600D03*
D19*
G04 #@! TO.C,D2*
X21420000Y31430000D03*
X19220000Y30480000D03*
X21420000Y29530000D03*
D20*
G04 #@! TO.C,R35*
X93980000Y45240000D03*
X93980000Y42390000D03*
D13*
G04 #@! TO.C,LED3*
X51231800Y24457288D03*
X51231800Y25857288D03*
D19*
G04 #@! TO.C,Q7*
X32469000Y44384000D03*
X30269000Y43434000D03*
X32469000Y42484000D03*
D10*
G04 #@! TO.C,R2*
X12065000Y13040000D03*
X12065000Y11090000D03*
D21*
G04 #@! TO.C,L4*
X93980000Y39315000D03*
X93980000Y48315000D03*
D22*
G04 #@! TO.C,Q2*
X13229000Y36576000D03*
D23*
X19029000Y34276000D03*
X19029000Y36576000D03*
X19029000Y38876000D03*
D12*
G04 #@! TO.C,R10*
X25644200Y14046200D03*
X27594200Y14046200D03*
G04 #@! TO.C,R20*
X30267000Y46736000D03*
X32217000Y46736000D03*
D10*
G04 #@! TO.C,R3*
X12065000Y9230000D03*
X12065000Y7280000D03*
D24*
G04 #@! TO.C,C38*
X56162000Y18288000D03*
X53312000Y18288000D03*
D25*
G04 #@! TO.C,F1*
X25305000Y17018000D03*
X29305000Y17018000D03*
D11*
G04 #@! TO.C,LED1*
X12000000Y14605000D03*
X13400000Y14605000D03*
D12*
G04 #@! TO.C,R6*
X16068400Y28727400D03*
X18018400Y28727400D03*
D26*
G04 #@! TO.C,Y2*
X41148000Y25273000D03*
D27*
X42098000Y25273000D03*
X40198000Y25273000D03*
D21*
G04 #@! TO.C,L5*
X137033000Y45648000D03*
X137033000Y36648000D03*
D12*
G04 #@! TO.C,R12*
X25187000Y30353000D03*
X27137000Y30353000D03*
D24*
G04 #@! TO.C,C39*
X57884000Y18542000D03*
X60734000Y18542000D03*
D28*
G04 #@! TO.C,U1*
X36165000Y36925000D03*
X36165000Y38425000D03*
D29*
X44815000Y27275000D03*
D28*
X36165000Y29925000D03*
X51465000Y38925000D03*
X51465000Y37425000D03*
X51465000Y40425000D03*
X36165000Y32425000D03*
X36165000Y35925000D03*
X36165000Y37925000D03*
D29*
X40815000Y42575000D03*
D28*
X51465000Y33925000D03*
D29*
X40815000Y27275000D03*
D28*
X36165000Y31925000D03*
D29*
X44315000Y42575000D03*
X42815000Y42575000D03*
X45815000Y27275000D03*
D28*
X51465000Y30425000D03*
D29*
X42815000Y27275000D03*
D28*
X36165000Y32925000D03*
X51465000Y40925000D03*
D29*
X47815000Y42575000D03*
D28*
X36165000Y29425000D03*
X51465000Y34925000D03*
D29*
X46815000Y27275000D03*
X41815000Y42575000D03*
X41815000Y27275000D03*
D28*
X51465000Y34425000D03*
X36165000Y30425000D03*
X36165000Y39425000D03*
X51465000Y28925000D03*
D29*
X46315000Y27275000D03*
X45315000Y27275000D03*
D28*
X51465000Y38425000D03*
D29*
X45315000Y42575000D03*
D28*
X51465000Y39925000D03*
X36165000Y31425000D03*
D29*
X39815000Y27275000D03*
X45815000Y42575000D03*
X48815000Y42575000D03*
X43315000Y27275000D03*
D28*
X51465000Y35925000D03*
X51465000Y29925000D03*
X51465000Y32425000D03*
X51465000Y36425000D03*
X36165000Y38925000D03*
D29*
X39315000Y42575000D03*
D28*
X36165000Y33925000D03*
X36165000Y35425000D03*
X36165000Y40925000D03*
X51465000Y29425000D03*
D29*
X38815000Y27275000D03*
X49315000Y27275000D03*
X38315000Y27275000D03*
X38815000Y42575000D03*
D28*
X36165000Y33425000D03*
D29*
X37815000Y42575000D03*
D28*
X51465000Y36925000D03*
X51465000Y33425000D03*
D29*
X40315000Y27275000D03*
X46315000Y42575000D03*
D28*
X36165000Y34925000D03*
X36165000Y28925000D03*
X36165000Y34425000D03*
X36165000Y36425000D03*
D29*
X47315000Y42575000D03*
X43815000Y27275000D03*
X41315000Y27275000D03*
X47315000Y27275000D03*
D28*
X51465000Y39425000D03*
D29*
X37815000Y27275000D03*
D28*
X36165000Y40425000D03*
X51465000Y32925000D03*
D29*
X48315000Y27275000D03*
X42315000Y27275000D03*
D28*
X36165000Y30925000D03*
X36165000Y39925000D03*
D29*
X44815000Y42575000D03*
X38315000Y42575000D03*
X43315000Y42575000D03*
X44315000Y27275000D03*
X42315000Y42575000D03*
X47815000Y27275000D03*
X49815000Y42575000D03*
X39815000Y42575000D03*
X43815000Y42575000D03*
D28*
X51465000Y35425000D03*
D29*
X48815000Y27275000D03*
X48315000Y42575000D03*
D28*
X51465000Y31925000D03*
D29*
X46815000Y42575000D03*
D28*
X51465000Y31425000D03*
D29*
X41315000Y42575000D03*
D28*
X51465000Y37925000D03*
X36165000Y37425000D03*
D29*
X49315000Y42575000D03*
X39315000Y27275000D03*
X40315000Y42575000D03*
X49815000Y27275000D03*
D28*
X51465000Y30925000D03*
D13*
G04 #@! TO.C,LED4*
X44805600Y44334200D03*
X44805600Y45734200D03*
D20*
G04 #@! TO.C,R34*
X137033000Y39723000D03*
X137033000Y42573000D03*
D22*
G04 #@! TO.C,Q4*
X53234000Y24003000D03*
D23*
X59034000Y21703000D03*
X59034000Y24003000D03*
X59034000Y26303000D03*
D14*
G04 #@! TO.C,C12*
X27037000Y27940000D03*
X25287000Y27940000D03*
G04 #@! TO.C,C7*
X36717000Y44323000D03*
X38467000Y44323000D03*
G04 #@! TO.C,C4*
X30999400Y20193000D03*
X29249400Y20193000D03*
G04 #@! TO.C,C41*
X51167000Y18415000D03*
X49417000Y18415000D03*
D12*
G04 #@! TO.C,R7*
X20939400Y25120600D03*
X18989400Y25120600D03*
D30*
G04 #@! TO.C,X1*
X24762000Y21463000D03*
X14862000Y21463000D03*
D31*
G04 #@! TO.C,L3*
X36540000Y46736000D03*
X38390000Y46736000D03*
D14*
G04 #@! TO.C,C3*
X15965200Y25196800D03*
X17715200Y25196800D03*
D22*
G04 #@! TO.C,Q3*
X21484000Y41783000D03*
D23*
X27284000Y39483000D03*
X27284000Y41783000D03*
X27284000Y44083000D03*
D18*
G04 #@! TO.C,L12*
X84660000Y43815000D03*
X81710000Y43815000D03*
D12*
G04 #@! TO.C,R25*
X32725000Y36830000D03*
X30775000Y36830000D03*
D10*
G04 #@! TO.C,R33*
X43510200Y47031000D03*
X43510200Y48981000D03*
D14*
G04 #@! TO.C,C49*
X30875000Y39370000D03*
X32625000Y39370000D03*
G04 --- BOARD END --- *
G04 #@! TF.MD5,fbbc79450a09b2209dd8ac4c506d8c86*
M02*
