M48
; #@! TF.GenerationSoftware,LibrePCB,LibrePCB,1.1.0
; #@! TF.CreationDate,2024-09-10T10:23:41
; #@! TF.ProjectId,100818,18c58eaa-e54a-4ec1-94cd-ac7c7134a3b5,v1.0.1
; #@! TF.Part,Single
; #@! TF.SameCoordinates
; #@! TF.FileFunction,Plated,1,4,PTH
FMAT,2
METRIC,TZ
; #@! TA.AperFunction,ViaDrill
T1C0.3
; #@! TA.AperFunction,ViaDrill
T2C0.3048
; #@! TA.AperFunction,ComponentDrill
T3C0.499999
; #@! TA.AperFunction,ViaDrill
T4C0.508
; #@! TA.AperFunction,ComponentDrill
T5C0.7
; #@! TA.AperFunction,ComponentDrill
T6C0.8
; #@! TA.AperFunction,ComponentDrill
T7C0.9144
; #@! TA.AperFunction,ComponentDrill
T8C0.9906
; #@! TA.AperFunction,ComponentDrill
T9C1.0
; #@! TA.AperFunction,ComponentDrill
T10C1.016
; #@! TA.AperFunction,ComponentDrill
T11C1.02
; #@! TA.AperFunction,ComponentDrill
T12C1.35
; #@! TA.AperFunction,ComponentDrill
T13C1.82
; #@! TA.AperFunction,ComponentDrill
T14C2.3114
; #@! TA.AperFunction,ComponentDrill
T15C3.2639
%
G90
G05
M71
T1
X22.5806Y33.6296
X15.0368Y28.7274
X121.92Y8.4836
X50.0634Y25.1206
X56.1594Y16.3322
X73.0504Y18.8976
X19.2278Y14.7066
X69.723Y16.129
X13.081Y42.037
X39.751Y45.3898
X31.0134Y18.8976
X157.3784Y39.243
X24.4856Y45.9232
X20.2184Y16.2306
X15.4178Y18.161
X48.0314Y29.0322
X77.6986Y27.2034
X82.7024Y27.559
X145.2372Y36.576
X75.0062Y18.3134
X14.097Y18.5928
X82.804Y19.2278
X78.0796Y19.8882
X30.0736Y2.1082
X21.3868Y38.0746
X33.8074Y45.8724
X34.9758Y43.1546
X49.6824Y34.1122
X21.8186Y13.2588
X19.5326Y40.8432
X78.5368Y25.1968
X79.7306Y27.1018
X43.561Y31.5722
X43.5356Y29.6926
X33.4518Y35.4584
X47.0916Y37.719
X41.148Y24.0284
X104.4448Y47.6758
X21.3868Y12.2428
X15.9512Y26.416
X10.1854Y33.5788
X47.1424Y36.449
X148.3106Y39.1668
X21.463Y34.3408
X42.1132Y40.64
X48.3616Y18.3642
X33.7312Y44.3738
X33.6042Y43.2816
X28.4988Y11.3284
X44.577Y32.766
X47.8028Y43.8404
X52.9844Y33.5026
X50.0126Y41.2496
X36.5252Y48.2092
X37.6682Y37.2364
X28.5242Y36.6522
X66.3448Y10.8966
X86.4616Y31.2166
X53.1114Y26.6192
X143.9672Y40.513
X30.3022Y48.2092
X25.2222Y31.7246
X66.5226Y20.6756
X67.9958Y28.8036
X35.9664Y18.3134
X22.5806Y39.1668
X145.6182Y38.862
X41.5798Y33.2486
X23.1648Y16.9418
X42.1132Y48.9458
X56.6928Y23.241
X147.2184Y46.0756
X72.4154Y10.8458
X140.2334Y45.593
X16.637Y35.0266
X78.4606Y28.6258
X39.5986Y39.4462
X82.042Y28.2702
X45.9232Y38.8366
X60.7314Y15.875
X140.6906Y22.4028
X56.8452Y5.2324
X139.2428Y23.8506
X139.192Y24.765
X140.6398Y23.5204
X161.4932Y22.4028
X139.319Y22.7584
X140.6144Y24.5618
X59.8424Y9.8806
X13.6652Y12.954
X13.716Y28.3464
X35.814Y26.3652
X42.3926Y35.2044
X38.2016Y33.4264
X27.9908Y33.4518
X79.7306Y48.2854
X34.2646Y38.4048
X37.8206Y39.2684
X46.7106Y1.905
X33.6804Y39.37
X40.8686Y29.1846
X61.1378Y21.7424
X83.3882Y29.1084
X76.3016Y27.2034
X47.2694Y29.7942
X39.9288Y41.0972
X47.117Y40.5892
X84.3026Y23.2664
X84.8868Y28.7274
X57.8866Y16.6878
X23.9776Y28.4226
X61.468Y23.8506
X99.7966Y46.1518
X21.0185Y44.1325
X16.4846Y43.2308
X40.1066Y8.001
X151.4348Y35.9156
X25.4Y25.1714
X47.752Y45.3644
T2
X23.0378Y9.2202
X14.9098Y8.9662
T3
X47.5742Y24.9082
X47.5742Y22.4082
X47.5742Y21.1582
X47.5742Y23.6582
T4
X83.2612Y40.8178
X38.5318Y7.0358
T5
X45.101Y7.366
X47.101Y7.366
X46.482Y13.478
X46.482Y15.478
X128.143Y37.993
X128.143Y40.493
X55.3974Y41.8244
X55.3974Y43.8244
X89.805Y17.399
X91.805Y17.399
X59.182Y46.0916
X59.182Y48.0916
X58.055Y3.175
X60.055Y3.175
X89.805Y3.175
X91.805Y3.175
T6
X53.1114Y10.3124
X55.6514Y10.3124
X58.1914Y10.3124
T7
X38.334Y14.97
X35.834Y12.97
X35.834Y14.97
X38.334Y12.97
T8
X44.2964Y22.316
X37.7964Y17.816
X44.2964Y17.816
X37.7964Y22.316
T9
X93.405Y28.067
X100.905Y28.067
X111.192Y42.545
X103.692Y42.545
X153.71Y11.0236
X158.71Y11.0236
X97.3982Y9.7028
X102.3982Y9.7028
X27.686Y7.62
X27.686Y2.54
X25.146Y7.62
X25.146Y5.08
X27.686Y5.08
X25.146Y2.54
X155.261Y42.545
X147.761Y42.545
X32.766Y32.512
X32.766Y27.432
X30.226Y32.512
X30.226Y29.972
X32.766Y29.972
X30.226Y27.432
X60.0456Y31.8008
X60.0456Y39.4208
X60.0456Y34.3408
X60.0456Y29.2608
X60.0456Y36.8808
X60.0456Y41.9608
X153.9386Y26.7716
X158.9386Y26.7716
T10
X8.89Y14.145
X8.89Y17.145
X8.89Y20.145
X8.89Y3.58
X8.89Y6.58
X168.91Y43.18
X165.91Y43.18
X168.91Y32.639
X168.91Y35.639
X168.91Y29.639
X165.91Y32.639
X165.91Y29.639
X165.91Y35.639
X168.91Y13.51
X165.91Y16.51
X165.91Y19.51
X165.91Y22.51
X168.91Y22.51
X165.91Y13.51
X168.91Y16.51
X168.91Y19.51
X168.91Y10.51
X165.91Y10.51
X8.89Y47.045
X8.89Y41.045
X8.89Y44.045
X8.89Y38.045
X8.89Y27.71
X8.89Y30.71
X11.89Y27.71
X11.89Y30.71
T11
X121.92Y3.175
X137.16Y3.175
X133.35Y31.115
X129.54Y31.115
X125.73Y31.115
X137.16Y15.24
X129.54Y3.175
X137.16Y19.05
T12
X85.09Y48.26
X74.93Y48.26
X77.47Y2.54
X67.31Y2.54
X64.77Y48.26
X82.55Y2.54
T13
X121.92Y31.115
X137.16Y31.115
T14
X31.064Y10.26
X43.104Y10.26
T15
X171.45Y3.81
X19.05Y3.81
X161.925Y46.99
X50.8Y46.99
X19.05Y46.99
X50.8Y3.81
T0
M30
