G04 --- HEADER BEGIN --- *
G04 #@! TF.GenerationSoftware,LibrePCB,LibrePCB,1.1.0*
G04 #@! TF.CreationDate,2024-09-10T10:23:41*
G04 #@! TF.ProjectId,100818,18c58eaa-e54a-4ec1-94cd-ac7c7134a3b5,v1.0.1*
G04 #@! TF.Part,Single*
G04 #@! TF.SameCoordinates*
G04 #@! TF.FileFunction,Copper,L4,Bot*
G04 #@! TF.FilePolarity,Positive*
%FSLAX66Y66*%
%MOMM*%
G01*
G75*
G04 --- HEADER END --- *
G04 --- APERTURE LIST BEGIN --- *
G04 #@! TA.AperFunction,SMDPad,CuDef*
%ADD10R,1.25X0.95*%
%ADD11R,0.75X1.25*%
%ADD12R,0.85X1.25*%
G04 #@! TA.AperFunction,ComponentPad*
%ADD13C,5.1562*%
G04 #@! TA.AperFunction,SMDPad,CuDef*
%ADD14R,1.25X0.75*%
G04 #@! TA.AperFunction,ComponentPad*
%ADD15O,1.3X2.5*%
%ADD16C,1.8*%
%ADD17R,1.8X1.8*%
G04 #@! TA.AperFunction,SMDPad,CuDef*
%ADD18R,0.95X1.25*%
%AMROUNDEDRECT19*20,1,0.8,-0.45,0.0,0.45,0.0,90.0*20,1,0.4,-0.65,0.0,0.65,0.0,90.0*1,1,0.4,-0.2,-0.45*1,1,0.4,-0.2,0.45*1,1,0.4,0.2,0.45*1,1,0.4,0.2,-0.45*%
%ADD19ROUNDEDRECT19*%
G04 #@! TA.AperFunction,ComponentPad*
%ADD20C,1.3*%
%ADD21R,1.3X1.3*%
G04 #@! TA.AperFunction,SMDPad,CuDef*
%ADD22R,1.25X0.85*%
G04 #@! TA.AperFunction,ComponentPad*
%ADD23C,1.4224*%
%ADD24C,2.8194*%
%ADD25R,1.4224X1.4224*%
%ADD26C,1.778*%
%ADD27R,1.778X1.778*%
%ADD28R,2.19X1.587*%
%ADD29O,2.19X1.587*%
G04 #@! TA.AperFunction,SMDPad,CuDef*
%ADD30R,1.6X1.05*%
%AMROUNDEDRECT31*20,1,0.6,-0.4,0.0,0.4,0.0,0.0*20,1,0.3,-0.55,0.0,0.55,0.0,0.0*1,1,0.3,-0.4,0.15*1,1,0.3,0.4,0.15*1,1,0.3,0.4,-0.15*1,1,0.3,-0.4,-0.15*%
%ADD31ROUNDEDRECT31*%
G04 #@! TA.AperFunction,ComponentPad*
%ADD32C,1.007872*%
%ADD33R,1.007872X1.007872*%
G04 #@! TA.AperFunction,SMDPad,CuDef*
%ADD34R,1.98X0.53*%
%ADD35R,0.8X0.85*%
%AMROUNDEDRECT36*20,1,0.33,-0.5675,0.0,0.5675,0.0,0.0*20,1,0.165,-0.65,0.0,0.65,0.0,0.0*1,1,0.165,-0.5675,0.0825*1,1,0.165,0.5675,0.0825*1,1,0.165,0.5675,-0.0825*1,1,0.165,-0.5675,-0.0825*%
%ADD36ROUNDEDRECT36*%
%ADD37R,1.05X1.6*%
G04 #@! TA.AperFunction,ComponentPad*
%ADD38C,1.5*%
%ADD39R,1.5X1.5*%
%ADD40R,1.4986X1.4986*%
%ADD41C,1.4986*%
%ADD42R,2.032X2.032*%
%ADD43C,2.032*%
G04 #@! TA.AperFunction,SMDPad,CuDef*
%AMROUNDEDRECT44*20,1,0.8,-0.45,0.0,0.45,0.0,0.0*20,1,0.4,-0.65,0.0,0.65,0.0,0.0*1,1,0.4,-0.45,0.2*1,1,0.4,0.45,0.2*1,1,0.4,0.45,-0.2*1,1,0.4,-0.45,-0.2*%
%ADD44ROUNDEDRECT44*%
%AMROUNDEDRECT45*20,1,0.6,-0.4,0.0,0.4,0.0,90.0*20,1,0.3,-0.55,0.0,0.55,0.0,90.0*1,1,0.3,-0.15,-0.4*1,1,0.3,-0.15,0.4*1,1,0.3,0.15,0.4*1,1,0.3,0.15,-0.4*%
%ADD45ROUNDEDRECT45*%
G04 #@! TA.AperFunction,ComponentPad*
%ADD46C,1.5494*%
%ADD47C,2.413*%
%ADD48R,1.5494X1.5494*%
G04 #@! TA.AperFunction,Conductor*
%ADD49C,0.254*%
G04 #@! TA.AperFunction,ViaPad*
%ADD50C,0.7*%
G04 #@! TA.AperFunction,Conductor*
%ADD51C,0.2032*%
%ADD52C,0.1524*%
G04 #@! TA.AperFunction,ViaPad*
%ADD53C,1.016*%
G04 #@! TA.AperFunction,Conductor*
%ADD54C,0.508*%
%ADD55C,2.54*%
G04 #@! TA.AperFunction,ViaPad*
%ADD56C,0.8128*%
G04 #@! TA.AperFunction,Conductor*
%ADD57C,0.5*%
G04 #@! TD*
G04 --- APERTURE LIST END --- *
G04 --- BOARD BEGIN --- *
D10*
G04 #@! TO.N,5V*
G04 #@! TO.C,C48*
G04 #@! TO.P,C48,1,1*
X147100636Y38340000D03*
G04 #@! TO.N,GND*
G04 #@! TO.P,C48,2,2*
X147100636Y36590000D03*
G04 #@! TO.N,N65*
G04 #@! TO.C,C21*
G04 #@! TO.P,C21,1,1*
X121920000Y5475000D03*
G04 #@! TO.N,GND*
G04 #@! TO.P,C21,2,2*
X121920000Y7225000D03*
D11*
G04 #@! TO.N,RS485_A*
G04 #@! TO.C,R24*
G04 #@! TO.P,R24,2,2*
X154473000Y29972000D03*
G04 #@! TO.N,N64*
G04 #@! TO.P,R24,1,1*
X156423000Y29972000D03*
D12*
G04 #@! TO.N,VIN*
G04 #@! TO.C,L10*
G04 #@! TO.P,L10,1,1*
X59853000Y13970000D03*
G04 #@! TO.N,N50*
G04 #@! TO.P,L10,2,2*
X58003000Y13970000D03*
D11*
G04 #@! TO.N,RS485_B*
G04 #@! TO.C,R38*
G04 #@! TO.P,R38,2,2*
X149901000Y28956000D03*
G04 #@! TO.N,N53*
G04 #@! TO.P,R38,1,1*
X151851000Y28956000D03*
D13*
G04 #@! TO.N,N/C*
G04 #@! TO.C,M6*
G04 #@! TO.P,M6,1,1*
X50800000Y3810000D03*
G04 #@! TO.C,M5*
G04 #@! TO.P,M5,1,1*
X19050000Y46990000D03*
D14*
G04 #@! TO.N,N58*
G04 #@! TO.C,R30*
G04 #@! TO.P,R30,2,2*
X51625500Y39075000D03*
G04 #@! TO.N,PE0*
G04 #@! TO.P,R30,1,1*
X51625500Y37125000D03*
D15*
G04 #@! TO.N,N50*
G04 #@! TO.C,U7*
G04 #@! TO.P,U7,1,IN*
X58191400Y10312400D03*
G04 #@! TO.N,GND*
G04 #@! TO.P,U7,2,GND*
X55651400Y10312400D03*
G04 #@! TO.N,N47*
G04 #@! TO.P,U7,3,OUT*
X53111400Y10312400D03*
D16*
G04 #@! TO.N,GND*
G04 #@! TO.C,C20*
G04 #@! TO.P,C20,-,-*
X158938600Y26771600D03*
D17*
G04 #@! TO.N,N65*
G04 #@! TO.P,C20,+,+*
X153938600Y26771600D03*
D18*
G04 #@! TO.N,5V*
G04 #@! TO.C,C10*
G04 #@! TO.P,C10,1,1*
X51421000Y32766000D03*
G04 #@! TO.N,GND*
G04 #@! TO.P,C10,2,2*
X49671000Y32766000D03*
D19*
G04 #@! TO.N,N/C*
G04 #@! TO.C,D1*
G04 #@! TO.P,D1,2*
X33848000Y1567000D03*
G04 #@! TO.N,5V*
G04 #@! TO.P,D1,3,C*
X34798000Y3767000D03*
G04 #@! TO.N,N3*
G04 #@! TO.P,D1,1,A*
X35748000Y1567000D03*
D20*
G04 #@! TO.N,GND*
G04 #@! TO.C,C31*
G04 #@! TO.P,C31,-,-*
X91805000Y3175000D03*
D21*
G04 #@! TO.N,N34*
G04 #@! TO.P,C31,+,+*
X89805000Y3175000D03*
D10*
G04 #@! TO.N,5V*
G04 #@! TO.C,C8*
G04 #@! TO.P,C8,1,1*
X38227000Y36181000D03*
G04 #@! TO.N,GND*
G04 #@! TO.P,C8,2,2*
X38227000Y34431000D03*
D22*
G04 #@! TO.N,N47*
G04 #@! TO.C,L11*
G04 #@! TO.P,L11,1,1*
X46736000Y11466000D03*
G04 #@! TO.N,12V*
G04 #@! TO.P,L11,2,2*
X46736000Y9616000D03*
D11*
G04 #@! TO.N,CONSOLE_TX_OUT*
G04 #@! TO.C,R22*
G04 #@! TO.P,R22,2,2*
X146125636Y34925000D03*
G04 #@! TO.N,N52*
G04 #@! TO.P,R22,1,1*
X148075636Y34925000D03*
G04 #@! TO.N,N31*
G04 #@! TO.C,R21*
G04 #@! TO.P,R21,2,2*
X76413000Y44450000D03*
G04 #@! TO.N,N35*
G04 #@! TO.P,R21,1,1*
X74463000Y44450000D03*
D23*
G04 #@! TO.N,N18*
G04 #@! TO.C,J2*
G04 #@! TO.P,J2,4,GND*
X38334000Y12970000D03*
G04 #@! TO.N,N13*
G04 #@! TO.P,J2,2,D-*
X35834000Y14970000D03*
G04 #@! TO.N,N12*
G04 #@! TO.P,J2,3,D+*
X35834000Y12970000D03*
D24*
G04 #@! TO.N,N18*
G04 #@! TO.P,J2,M1,Shield*
X43104000Y10260000D03*
G04 #@! TO.P,J2,M2,Shield*
X31064000Y10260000D03*
D25*
G04 #@! TO.N,N38*
G04 #@! TO.P,J2,1,VBUS*
X38334000Y14970000D03*
D12*
G04 #@! TO.N,N42*
G04 #@! TO.C,L8*
G04 #@! TO.P,L8,1,1*
X69784400Y20686888D03*
G04 #@! TO.N,5V*
G04 #@! TO.P,L8,2,2*
X67934400Y20686888D03*
D20*
G04 #@! TO.N,GND*
G04 #@! TO.C,C32*
G04 #@! TO.P,C32,-,-*
X60055000Y3175000D03*
D21*
G04 #@! TO.N,VIN*
G04 #@! TO.P,C32,+,+*
X58055000Y3175000D03*
D26*
G04 #@! TO.N,24VA*
G04 #@! TO.C,J6*
G04 #@! TO.P,J6,4,4*
X11890000Y30710000D03*
G04 #@! TO.N,RS485_A*
G04 #@! TO.P,J6,3,3*
X11890000Y27710000D03*
G04 #@! TO.N,RS485_B*
G04 #@! TO.P,J6,2,2*
X8890000Y30710000D03*
D27*
G04 #@! TO.N,GND*
G04 #@! TO.P,J6,1,1*
X8890000Y27710000D03*
D18*
G04 #@! TO.N,N28*
G04 #@! TO.C,C46*
G04 #@! TO.P,C46,1,1*
X153845636Y38735000D03*
G04 #@! TO.N,GND*
G04 #@! TO.P,C46,2,2*
X155595636Y38735000D03*
D10*
G04 #@! TO.N,5V*
G04 #@! TO.C,C9*
G04 #@! TO.P,C9,1,1*
X46507400Y43879800D03*
G04 #@! TO.N,GND*
G04 #@! TO.P,C9,2,2*
X46507400Y45629800D03*
D27*
G04 #@! TO.C,J5*
G04 #@! TO.P,J5,1,1*
X8890000Y38045000D03*
D26*
G04 #@! TO.N,PICO_TX_3V*
G04 #@! TO.P,J5,3,3*
X8890000Y44045000D03*
G04 #@! TO.N,PICO_RX_3V*
G04 #@! TO.P,J5,2,2*
X8890000Y41045000D03*
G04 #@! TO.N,N43*
G04 #@! TO.P,J5,4,4*
X8890000Y47045000D03*
D11*
G04 #@! TO.N,5V*
G04 #@! TO.C,R8*
G04 #@! TO.P,R8,2,2*
X33823000Y5842000D03*
G04 #@! TO.N,N3*
G04 #@! TO.P,R8,1,1*
X35773000Y5842000D03*
D10*
G04 #@! TO.N,N34*
G04 #@! TO.C,C55*
G04 #@! TO.P,C55,1,1*
X81051400Y12358400D03*
G04 #@! TO.N,N31*
G04 #@! TO.P,C55,2,2*
X81051400Y14108400D03*
D18*
G04 #@! TO.N,N34*
G04 #@! TO.C,C30*
G04 #@! TO.P,C30,1,1*
X81012000Y5588000D03*
G04 #@! TO.N,GND*
G04 #@! TO.P,C30,2,2*
X79262000Y5588000D03*
D11*
G04 #@! TO.N,CONSOLE_TX_TTL*
G04 #@! TO.C,R28*
G04 #@! TO.P,R28,2,2*
X146805636Y29210000D03*
G04 #@! TO.N,TX1*
G04 #@! TO.P,R28,1,1*
X144855636Y29210000D03*
D26*
G04 #@! TO.N,VIN*
G04 #@! TO.C,J1*
G04 #@! TO.P,J1,10,10*
X165910000Y10510000D03*
G04 #@! TO.N,GND*
G04 #@! TO.P,J1,5,5*
X168910000Y10510000D03*
G04 #@! TO.P,J1,2,2*
X168910000Y19510000D03*
G04 #@! TO.P,J1,3,3*
X168910000Y16510000D03*
G04 #@! TO.N,24VA*
G04 #@! TO.P,J1,9,9*
X165910000Y13510000D03*
D27*
G04 #@! TO.N,GND*
G04 #@! TO.P,J1,1,1*
X168910000Y22510000D03*
D26*
G04 #@! TO.N,5V*
G04 #@! TO.P,J1,6,6*
X165910000Y22510000D03*
G04 #@! TO.N,12V*
G04 #@! TO.P,J1,7,7*
X165910000Y19510000D03*
G04 #@! TO.N,24VB*
G04 #@! TO.P,J1,8,8*
X165910000Y16510000D03*
G04 #@! TO.N,GND*
G04 #@! TO.P,J1,4,4*
X168910000Y13510000D03*
D28*
G04 #@! TO.N,N71*
G04 #@! TO.C,J11*
G04 #@! TO.P,J11,1,1*
X60045600Y41960800D03*
D29*
G04 #@! TO.N,N67*
G04 #@! TO.P,J11,3,3*
X60045600Y36880800D03*
G04 #@! TO.N,RX3*
G04 #@! TO.P,J11,6,6*
X60045600Y29260800D03*
G04 #@! TO.N,N66*
G04 #@! TO.P,J11,4,4*
X60045600Y34340800D03*
G04 #@! TO.N,N70*
G04 #@! TO.P,J11,2,2*
X60045600Y39420800D03*
G04 #@! TO.N,TX3*
G04 #@! TO.P,J11,5,5*
X60045600Y31800800D03*
D19*
G04 #@! TO.N,GND*
G04 #@! TO.C,Q6*
G04 #@! TO.P,Q6,2,S*
X17719000Y34968000D03*
G04 #@! TO.N,N37*
G04 #@! TO.P,Q6,3,D*
X18669000Y37168000D03*
G04 #@! TO.N,CFP_ON*
G04 #@! TO.P,Q6,1,G*
X19619000Y34968000D03*
D20*
G04 #@! TO.N,GND*
G04 #@! TO.C,C26*
G04 #@! TO.P,C26,-,-*
X59182000Y48091600D03*
D21*
G04 #@! TO.N,N31*
G04 #@! TO.P,C26,+,+*
X59182000Y46091600D03*
D30*
G04 #@! TO.N,GND*
G04 #@! TO.C,C36*
G04 #@! TO.P,C36,2,2*
X68224400Y16086888D03*
G04 #@! TO.N,5V*
G04 #@! TO.P,C36,1,1*
X68224400Y18936888D03*
D18*
G04 #@! TO.N,24VB*
G04 #@! TO.C,C27*
G04 #@! TO.P,C27,1,1*
X89930000Y14605000D03*
G04 #@! TO.N,GND*
G04 #@! TO.P,C27,2,2*
X91680000Y14605000D03*
D11*
G04 #@! TO.N,N17*
G04 #@! TO.C,R37*
G04 #@! TO.P,R37,2,2*
X146796400Y27254200D03*
G04 #@! TO.N,PE1*
G04 #@! TO.P,R37,1,1*
X144846400Y27254200D03*
D31*
G04 #@! TO.N,5V*
G04 #@! TO.C,U9*
G04 #@! TO.P,U9,5,OE*
X28021666Y46101000D03*
G04 #@! TO.N,GND*
G04 #@! TO.P,U9,2,GND*
X30821666Y46101000D03*
G04 #@! TO.N,3V3*
G04 #@! TO.P,U9,6,VCCB*
X28021666Y47051000D03*
G04 #@! TO.N,5V*
G04 #@! TO.P,U9,1,VCCA*
X30821666Y47051000D03*
G04 #@! TO.N,TX2*
G04 #@! TO.P,U9,3,A*
X30821666Y45151000D03*
G04 #@! TO.N,PICO_TX_3V*
G04 #@! TO.P,U9,4,BY*
X28021666Y45151000D03*
D32*
G04 #@! TO.N,SP3*
G04 #@! TO.C,J12*
G04 #@! TO.P,J12,3,3*
X47574200Y23658200D03*
D33*
G04 #@! TO.N,SP1*
G04 #@! TO.P,J12,1,1*
X47574200Y21158200D03*
D32*
G04 #@! TO.N,SP2*
G04 #@! TO.P,J12,2,2*
X47574200Y22408200D03*
G04 #@! TO.N,SP4*
G04 #@! TO.P,J12,4,4*
X47574200Y24908200D03*
D29*
G04 #@! TO.N,RESET*
G04 #@! TO.C,J10*
G04 #@! TO.P,J10,5,5*
X30226000Y27432000D03*
G04 #@! TO.N,PB2*
G04 #@! TO.P,J10,4,4*
X32766000Y29972000D03*
G04 #@! TO.N,PB1*
G04 #@! TO.P,J10,3,3*
X30226000Y29972000D03*
D28*
G04 #@! TO.N,PB3*
G04 #@! TO.P,J10,1,1*
X30226000Y32512000D03*
D29*
G04 #@! TO.N,GND*
G04 #@! TO.P,J10,6,6*
X32766000Y27432000D03*
G04 #@! TO.N,5V*
G04 #@! TO.P,J10,2,2*
X32766000Y32512000D03*
D18*
G04 #@! TO.N,N31*
G04 #@! TO.C,C24*
G04 #@! TO.P,C24,1,1*
X82790000Y48260000D03*
G04 #@! TO.N,GND*
G04 #@! TO.P,C24,2,2*
X81040000Y48260000D03*
D26*
G04 #@! TO.N,CONSOLE_TX_OUT*
G04 #@! TO.C,J8*
G04 #@! TO.P,J8,4,4*
X165910000Y35639000D03*
G04 #@! TO.N,VIN*
G04 #@! TO.P,J8,6,6*
X165910000Y29639000D03*
G04 #@! TO.N,VIN2*
G04 #@! TO.P,J8,5,5*
X165910000Y32639000D03*
G04 #@! TO.N,CONSOLE_RX_IN*
G04 #@! TO.P,J8,3,3*
X168910000Y29639000D03*
D27*
G04 #@! TO.N,GND*
G04 #@! TO.P,J8,1,1*
X168910000Y35639000D03*
D26*
G04 #@! TO.P,J8,2,2*
X168910000Y32639000D03*
D17*
G04 #@! TO.N,VIN2*
G04 #@! TO.C,C22*
G04 #@! TO.P,C22,+,+*
X147761000Y42545000D03*
D16*
G04 #@! TO.N,GND*
G04 #@! TO.P,C22,-,-*
X155261000Y42545000D03*
D11*
G04 #@! TO.N,N21*
G04 #@! TO.C,R5*
G04 #@! TO.P,R5,2,2*
X15072000Y22352000D03*
G04 #@! TO.N,PE1*
G04 #@! TO.P,R5,1,1*
X13122000Y22352000D03*
G04 #@! TO.N,CONSOLE_RX_IN*
G04 #@! TO.C,R23*
G04 #@! TO.P,R23,2,2*
X145490636Y33020000D03*
G04 #@! TO.N,N51*
G04 #@! TO.P,R23,1,1*
X147440636Y33020000D03*
D20*
G04 #@! TO.N,GND*
G04 #@! TO.C,C25*
G04 #@! TO.P,C25,-,-*
X91805000Y17399000D03*
D21*
G04 #@! TO.N,24VB*
G04 #@! TO.P,C25,+,+*
X89805000Y17399000D03*
D34*
G04 #@! TO.N,N69*
G04 #@! TO.C,U2*
G04 #@! TO.P,U2,7,B*
X43953500Y37719000D03*
G04 #@! TO.N,5V*
G04 #@! TO.P,U2,8,VCC*
X43953500Y38989000D03*
G04 #@! TO.N,!485_RE*
G04 #@! TO.P,U2,2,#RE*
X48883500Y37719000D03*
G04 #@! TO.N,N58*
G04 #@! TO.P,U2,1,R*
X48883500Y38989000D03*
G04 #@! TO.N,N68*
G04 #@! TO.P,U2,6,A*
X43953500Y36449000D03*
G04 #@! TO.N,485_DE*
G04 #@! TO.P,U2,3,DE*
X48883500Y36449000D03*
G04 #@! TO.N,N59*
G04 #@! TO.P,U2,4,D*
X48883500Y35179000D03*
G04 #@! TO.N,GND*
G04 #@! TO.P,U2,5,GND*
X43953500Y35179000D03*
D30*
G04 #@! TO.C,C18*
G04 #@! TO.P,C18,2,2*
X125755400Y35918200D03*
G04 #@! TO.N,N27*
G04 #@! TO.P,C18,1,1*
X125755400Y33068200D03*
D18*
G04 #@! TO.N,N49*
G04 #@! TO.C,C47*
G04 #@! TO.P,C47,1,1*
X151150636Y38735000D03*
G04 #@! TO.N,GND*
G04 #@! TO.P,C47,2,2*
X149400636Y38735000D03*
G04 #@! TO.N,12V*
G04 #@! TO.C,C37*
G04 #@! TO.P,C37,1,1*
X76440000Y19975688D03*
G04 #@! TO.N,GND*
G04 #@! TO.P,C37,2,2*
X74690000Y19975688D03*
D10*
G04 #@! TO.N,N33*
G04 #@! TO.C,C45*
G04 #@! TO.P,C45,1,1*
X158530636Y34530000D03*
G04 #@! TO.N,N48*
G04 #@! TO.P,C45,2,2*
X158530636Y32780000D03*
D14*
G04 #@! TO.N,N32*
G04 #@! TO.C,R19*
G04 #@! TO.P,R19,2,2*
X54381400Y19599000D03*
G04 #@! TO.N,N40*
G04 #@! TO.P,R19,1,1*
X54381400Y21549000D03*
D18*
G04 #@! TO.N,N34*
G04 #@! TO.C,C29*
G04 #@! TO.P,C29,1,1*
X81012000Y8001000D03*
G04 #@! TO.N,GND*
G04 #@! TO.P,C29,2,2*
X79262000Y8001000D03*
D13*
G04 #@! TO.N,N/C*
G04 #@! TO.C,M2*
G04 #@! TO.P,M2,1,1*
X50800000Y46990000D03*
D35*
G04 #@! TO.N,N13*
G04 #@! TO.C,Z2*
G04 #@! TO.P,Z2,2,2*
X34163000Y14642000D03*
G04 #@! TO.N,N18*
G04 #@! TO.P,Z2,1,1*
X34163000Y16092000D03*
D13*
G04 #@! TO.N,N/C*
G04 #@! TO.C,M4*
G04 #@! TO.P,M4,1,1*
X161925000Y46990000D03*
D30*
G04 #@! TO.N,N29*
G04 #@! TO.C,R15*
G04 #@! TO.P,R15,2,2*
X130886200Y36548000D03*
G04 #@! TO.N,GND*
G04 #@! TO.P,R15,1,1*
X130886200Y39398000D03*
D22*
G04 #@! TO.N,12V*
G04 #@! TO.C,L9*
G04 #@! TO.P,L9,1,1*
X71780400Y22119888D03*
G04 #@! TO.N,N44*
G04 #@! TO.P,L9,2,2*
X71780400Y20269888D03*
D18*
G04 #@! TO.N,N45*
G04 #@! TO.C,C34*
G04 #@! TO.P,C34,1,1*
X75830400Y11669888D03*
G04 #@! TO.N,GND*
G04 #@! TO.P,C34,2,2*
X74080400Y11669888D03*
D36*
G04 #@! TO.N,N53*
G04 #@! TO.C,U6*
G04 #@! TO.P,U6,7,T2OUT*
X155715636Y32665000D03*
G04 #@! TO.N,N54*
G04 #@! TO.P,U6,1,C1+*
X155715636Y36565000D03*
G04 #@! TO.N,N52*
G04 #@! TO.P,U6,14,T1OUT*
X149915636Y35265000D03*
G04 #@! TO.N,CONSOLE_TX_TTL*
G04 #@! TO.P,U6,11,T1IN*
X149915636Y33315000D03*
G04 #@! TO.N,N51*
G04 #@! TO.P,U6,13,R1IN*
X149915636Y34615000D03*
G04 #@! TO.N,N46*
G04 #@! TO.P,U6,9,R2OUT*
X149915636Y32015000D03*
G04 #@! TO.N,N48*
G04 #@! TO.P,U6,5,C2-*
X155715636Y33965000D03*
G04 #@! TO.N,5V*
G04 #@! TO.P,U6,16,VCC*
X149915636Y36565000D03*
G04 #@! TO.N,N33*
G04 #@! TO.P,U6,4,C2+*
X155715636Y34615000D03*
G04 #@! TO.N,N49*
G04 #@! TO.P,U6,6,V-*
X155715636Y33315000D03*
G04 #@! TO.N,N64*
G04 #@! TO.P,U6,8,R2IN*
X155715636Y32015000D03*
G04 #@! TO.N,GND*
G04 #@! TO.P,U6,15,GND*
X149915636Y35915000D03*
G04 #@! TO.N,N57*
G04 #@! TO.P,U6,3,C1-*
X155715636Y35265000D03*
G04 #@! TO.N,N17*
G04 #@! TO.P,U6,10,T2IN*
X149915636Y32665000D03*
G04 #@! TO.N,CONSOLE_RX_TTL*
G04 #@! TO.P,U6,12,R1OUT*
X149915636Y33965000D03*
G04 #@! TO.N,N28*
G04 #@! TO.P,U6,2,V+*
X155715636Y35915000D03*
D31*
G04 #@! TO.N,3V3*
G04 #@! TO.C,U10*
G04 #@! TO.P,U10,5,OE*
X18333332Y40640000D03*
G04 #@! TO.N,GND*
G04 #@! TO.P,U10,2,GND*
X15533332Y40640000D03*
G04 #@! TO.N,5V*
G04 #@! TO.P,U10,6,VCCB*
X18333332Y39690000D03*
G04 #@! TO.N,3V3*
G04 #@! TO.P,U10,1,VCCA*
X15533332Y39690000D03*
G04 #@! TO.N,PICO_RX_3V*
G04 #@! TO.P,U10,3,A*
X15533332Y41590000D03*
G04 #@! TO.N,RX2*
G04 #@! TO.P,U10,4,BY*
X18333332Y41590000D03*
D10*
G04 #@! TO.N,5V*
G04 #@! TO.C,C53*
G04 #@! TO.P,C53,1,1*
X20743332Y39130000D03*
G04 #@! TO.N,GND*
G04 #@! TO.P,C53,2,2*
X20743332Y40880000D03*
D37*
G04 #@! TO.C,C19*
G04 #@! TO.P,C19,2,2*
X144935000Y45085000D03*
G04 #@! TO.N,VIN2*
G04 #@! TO.P,C19,1,1*
X142085000Y45085000D03*
D20*
G04 #@! TO.N,GND*
G04 #@! TO.C,C23*
G04 #@! TO.P,C23,-,-*
X55397400Y43824400D03*
D21*
G04 #@! TO.N,24VB*
G04 #@! TO.P,C23,+,+*
X55397400Y41824400D03*
D13*
G04 #@! TO.N,N/C*
G04 #@! TO.C,M1*
G04 #@! TO.P,M1,1,1*
X19050000Y3810000D03*
D38*
G04 #@! TO.N,GND*
G04 #@! TO.C,C56*
G04 #@! TO.P,C56,-,-*
X128143000Y40493000D03*
D39*
G04 #@! TO.N,N65*
G04 #@! TO.P,C56,+,+*
X128143000Y37993000D03*
D26*
G04 #@! TO.N,24VA*
G04 #@! TO.C,J7*
G04 #@! TO.P,J7,2,2*
X165910000Y43180000D03*
D27*
G04 #@! TO.N,GND*
G04 #@! TO.P,J7,1,1*
X168910000Y43180000D03*
D29*
G04 #@! TO.N,N3*
G04 #@! TO.C,J9*
G04 #@! TO.P,J9,5,5*
X25146000Y2540000D03*
G04 #@! TO.N,N5*
G04 #@! TO.P,J9,4,4*
X27686000Y5080000D03*
G04 #@! TO.N,N7*
G04 #@! TO.P,J9,3,3*
X25146000Y5080000D03*
D28*
G04 #@! TO.N,N6*
G04 #@! TO.P,J9,1,1*
X25146000Y7620000D03*
D29*
G04 #@! TO.N,GND*
G04 #@! TO.P,J9,6,6*
X27686000Y2540000D03*
G04 #@! TO.N,5V*
G04 #@! TO.P,J9,2,2*
X27686000Y7620000D03*
D16*
G04 #@! TO.N,GND*
G04 #@! TO.C,C16*
G04 #@! TO.P,C16,-,-*
X102398200Y9702800D03*
D17*
G04 #@! TO.N,N27*
G04 #@! TO.P,C16,+,+*
X97398200Y9702800D03*
D16*
G04 #@! TO.N,GND*
G04 #@! TO.C,C17*
G04 #@! TO.P,C17,-,-*
X158710000Y11023600D03*
D17*
G04 #@! TO.N,N65*
G04 #@! TO.P,C17,+,+*
X153710000Y11023600D03*
D11*
G04 #@! TO.N,CONSOLE_RX_TTL*
G04 #@! TO.C,R29*
G04 #@! TO.P,R29,2,2*
X146805636Y31115000D03*
G04 #@! TO.N,RX1*
G04 #@! TO.P,R29,1,1*
X144855636Y31115000D03*
D10*
G04 #@! TO.N,N44*
G04 #@! TO.C,C35*
G04 #@! TO.P,C35,1,1*
X71780400Y17144888D03*
G04 #@! TO.N,GND*
G04 #@! TO.P,C35,2,2*
X71780400Y18894888D03*
D11*
G04 #@! TO.N,N59*
G04 #@! TO.C,R31*
G04 #@! TO.P,R31,2,2*
X47520500Y32766000D03*
G04 #@! TO.N,PE1*
G04 #@! TO.P,R31,1,1*
X45570500Y32766000D03*
D40*
G04 #@! TO.N,GND*
G04 #@! TO.C,S1*
G04 #@! TO.P,S1,1,1*
X37796400Y22316000D03*
D41*
G04 #@! TO.N,RESET*
G04 #@! TO.P,S1,4,2*
X44296400Y17816000D03*
G04 #@! TO.P,S1,3,2*
X37796400Y17816000D03*
G04 #@! TO.N,GND*
G04 #@! TO.P,S1,2,1*
X44296400Y22316000D03*
D42*
G04 #@! TO.N,N34*
G04 #@! TO.C,U4*
G04 #@! TO.P,U4,1,+VIN*
X82550000Y2540000D03*
D43*
G04 #@! TO.N,N35*
G04 #@! TO.P,U4,6,TRIM*
X64770000Y48260000D03*
G04 #@! TO.N,N/C*
G04 #@! TO.P,U4,3,EN*
X67310000Y2540000D03*
G04 #@! TO.N,GND*
G04 #@! TO.P,U4,2,-VIN*
X77470000Y2540000D03*
G04 #@! TO.P,U4,5,-VOUT*
X74930000Y48260000D03*
G04 #@! TO.N,N31*
G04 #@! TO.P,U4,4,+VOUT*
X85090000Y48260000D03*
D11*
G04 #@! TO.N,N30*
G04 #@! TO.C,R16*
G04 #@! TO.P,R16,2,2*
X132375000Y5080000D03*
G04 #@! TO.N,GND*
G04 #@! TO.P,R16,1,1*
X134325000Y5080000D03*
D44*
G04 #@! TO.C,Q5*
G04 #@! TO.P,Q5,2,S*
X55405200Y23129200D03*
G04 #@! TO.N,N40*
G04 #@! TO.P,Q5,3,D*
X53205200Y24079200D03*
G04 #@! TO.N,MVP_ON*
G04 #@! TO.P,Q5,1,G*
X55405200Y25029200D03*
D10*
G04 #@! TO.N,3V3*
G04 #@! TO.C,C54*
G04 #@! TO.P,C54,1,1*
X13123332Y39130000D03*
G04 #@! TO.N,GND*
G04 #@! TO.P,C54,2,2*
X13123332Y40880000D03*
D35*
G04 #@! TO.N,N12*
G04 #@! TO.C,Z1*
G04 #@! TO.P,Z1,2,2*
X34163000Y12917000D03*
G04 #@! TO.N,N18*
G04 #@! TO.P,Z1,1,1*
X34163000Y11467000D03*
D18*
G04 #@! TO.N,VIN*
G04 #@! TO.C,C28*
G04 #@! TO.P,C28,1,1*
X58053000Y5461000D03*
G04 #@! TO.N,GND*
G04 #@! TO.P,C28,2,2*
X59803000Y5461000D03*
D10*
G04 #@! TO.N,N54*
G04 #@! TO.C,C44*
G04 #@! TO.P,C44,1,1*
X158530636Y37705000D03*
G04 #@! TO.N,N57*
G04 #@! TO.P,C44,2,2*
X158530636Y35955000D03*
D14*
G04 #@! TO.N,24VB*
G04 #@! TO.C,R18*
G04 #@! TO.P,R18,2,2*
X56286400Y21549000D03*
G04 #@! TO.N,N32*
G04 #@! TO.P,R18,1,1*
X56286400Y19599000D03*
D11*
G04 #@! TO.N,N46*
G04 #@! TO.C,R36*
G04 #@! TO.P,R36,2,2*
X146821800Y25349200D03*
G04 #@! TO.N,PE0*
G04 #@! TO.P,R36,1,1*
X144871800Y25349200D03*
D14*
G04 #@! TO.N,12V*
G04 #@! TO.C,R1*
G04 #@! TO.P,R1,2,2*
X21463000Y37170000D03*
G04 #@! TO.N,N37*
G04 #@! TO.P,R1,1,1*
X21463000Y35220000D03*
D18*
G04 #@! TO.N,24VA*
G04 #@! TO.C,C15*
G04 #@! TO.P,C15,1,1*
X101360000Y47625000D03*
G04 #@! TO.N,GND*
G04 #@! TO.P,C15,2,2*
X103110000Y47625000D03*
D26*
G04 #@! TO.N,N39*
G04 #@! TO.C,J3*
G04 #@! TO.P,J3,2,2*
X8890000Y6580000D03*
D27*
G04 #@! TO.N,GND*
G04 #@! TO.P,J3,1,1*
X8890000Y3580000D03*
D13*
G04 #@! TO.N,N/C*
G04 #@! TO.C,M3*
G04 #@! TO.P,M3,1,1*
X171450000Y3810000D03*
D10*
G04 #@! TO.N,N42*
G04 #@! TO.C,C33*
G04 #@! TO.P,C33,1,1*
X72415400Y13814888D03*
G04 #@! TO.N,GND*
G04 #@! TO.P,C33,2,2*
X72415400Y12064888D03*
D20*
G04 #@! TO.C,C43*
G04 #@! TO.P,C43,-,-*
X46482000Y15478000D03*
D21*
G04 #@! TO.N,N47*
G04 #@! TO.P,C43,+,+*
X46482000Y13478000D03*
D18*
G04 #@! TO.N,5V*
G04 #@! TO.C,C50*
G04 #@! TO.P,C50,1,1*
X44931300Y40665400D03*
G04 #@! TO.N,GND*
G04 #@! TO.P,C50,2,2*
X43181300Y40665400D03*
D10*
G04 #@! TO.N,5V*
G04 #@! TO.C,C52*
G04 #@! TO.P,C52,1,1*
X32596666Y47611000D03*
G04 #@! TO.N,GND*
G04 #@! TO.P,C52,2,2*
X32596666Y45861000D03*
D45*
G04 #@! TO.N,N42*
G04 #@! TO.C,U3*
G04 #@! TO.P,U3,5,OUT*
X74005400Y14079888D03*
G04 #@! TO.N,N44*
G04 #@! TO.P,U3,3,EN*
X75905400Y16879888D03*
G04 #@! TO.N,GND*
G04 #@! TO.P,U3,2,GND*
X74955400Y16879888D03*
G04 #@! TO.N,N44*
G04 #@! TO.P,U3,1,IN*
X74005400Y16879888D03*
G04 #@! TO.N,N45*
G04 #@! TO.P,U3,4,BYP*
X75905400Y14079888D03*
D18*
G04 #@! TO.N,5V*
G04 #@! TO.C,C6*
G04 #@! TO.P,C6,1,1*
X22719000Y14732000D03*
G04 #@! TO.N,GND*
G04 #@! TO.P,C6,2,2*
X20969000Y14732000D03*
G04 #@! TO.N,N65*
G04 #@! TO.C,C57*
G04 #@! TO.P,C57,1,1*
X115632200Y10998200D03*
G04 #@! TO.N,N27*
G04 #@! TO.P,C57,2,2*
X113882200Y10998200D03*
D11*
G04 #@! TO.N,N20*
G04 #@! TO.C,R4*
G04 #@! TO.P,R4,2,2*
X15072000Y24892000D03*
G04 #@! TO.N,PE0*
G04 #@! TO.P,R4,1,1*
X13122000Y24892000D03*
D46*
G04 #@! TO.N,N/C*
G04 #@! TO.C,U5*
G04 #@! TO.P,U5,34,IMON*
X137160000Y19050000D03*
G04 #@! TO.N,N30*
G04 #@! TO.P,U5,2,ON/OFF*
X129540000Y3175000D03*
G04 #@! TO.N,GND*
G04 #@! TO.P,U5,32,SYNC*
X137160000Y15240000D03*
G04 #@! TO.N,N27*
G04 #@! TO.P,U5,7,+SENSE*
X125730000Y31115000D03*
G04 #@! TO.N,N29*
G04 #@! TO.P,U5,6,TRIM*
X129540000Y31115000D03*
G04 #@! TO.N,N/C*
G04 #@! TO.P,U5,5,PGOOD*
X133350000Y31115000D03*
D47*
G04 #@! TO.N,GND*
G04 #@! TO.P,U5,4,-VOUT/GND*
X137160000Y31115000D03*
D46*
G04 #@! TO.P,U5,3,-VIN/GND*
X137160000Y3175000D03*
D47*
G04 #@! TO.N,N27*
G04 #@! TO.P,U5,8,+VOUT*
X121920000Y31115000D03*
D48*
G04 #@! TO.N,N65*
G04 #@! TO.P,U5,1,+VIN*
X121920000Y3175000D03*
D11*
G04 #@! TO.N,RS485_B*
G04 #@! TO.C,R39*
G04 #@! TO.P,R39,2,2*
X38649000Y38100000D03*
G04 #@! TO.N,N69*
G04 #@! TO.P,R39,1,1*
X40599000Y38100000D03*
D18*
G04 #@! TO.N,GND*
G04 #@! TO.C,C5*
G04 #@! TO.P,C5,1,1*
X18276600Y12598400D03*
G04 #@! TO.N,N19*
G04 #@! TO.P,C5,2,2*
X20026600Y12598400D03*
D26*
G04 #@! TO.N,N36*
G04 #@! TO.C,J4*
G04 #@! TO.P,J4,3,3*
X8890000Y20145000D03*
G04 #@! TO.N,CFP_AN_OUT*
G04 #@! TO.P,J4,2,2*
X8890000Y17145000D03*
D27*
G04 #@! TO.N,GND*
G04 #@! TO.P,J4,1,1*
X8890000Y14145000D03*
D20*
G04 #@! TO.C,C42*
G04 #@! TO.P,C42,-,-*
X47101000Y7366000D03*
D21*
G04 #@! TO.N,12V*
G04 #@! TO.P,C42,+,+*
X45101000Y7366000D03*
D10*
G04 #@! TO.N,3V3*
G04 #@! TO.C,C51*
G04 #@! TO.P,C51,1,1*
X25611666Y47611000D03*
G04 #@! TO.N,GND*
G04 #@! TO.P,C51,2,2*
X25611666Y45861000D03*
D11*
G04 #@! TO.N,RS485_A*
G04 #@! TO.C,R40*
G04 #@! TO.P,R40,2,2*
X38649000Y32004000D03*
G04 #@! TO.N,N68*
G04 #@! TO.P,R40,1,1*
X40599000Y32004000D03*
G04 #@! TO.N,N35*
G04 #@! TO.C,R17*
G04 #@! TO.P,R17,2,2*
X68875000Y48260000D03*
G04 #@! TO.N,GND*
G04 #@! TO.P,R17,1,1*
X70825000Y48260000D03*
D22*
G04 #@! TO.N,N18*
G04 #@! TO.C,L1*
G04 #@! TO.P,L1,1,1*
X40132000Y10831000D03*
G04 #@! TO.N,GND*
G04 #@! TO.P,L1,2,2*
X40132000Y8981000D03*
D17*
G04 #@! TO.N,24VA*
G04 #@! TO.C,C14*
G04 #@! TO.P,C14,+,+*
X103692000Y42545000D03*
D16*
G04 #@! TO.N,GND*
G04 #@! TO.P,C14,-,-*
X111192000Y42545000D03*
G04 #@! TO.C,C13*
G04 #@! TO.P,C13,-,-*
X100905000Y28067000D03*
D17*
G04 #@! TO.N,24VA*
G04 #@! TO.P,C13,+,+*
X93405000Y28067000D03*
D49*
G04 #@! TD.C*
G04 #@! TD.P*
G04 #@! TO.N,GND*
X59803000Y5461000D02*
X59803000Y3427000D01*
X59803000Y3427000D02*
X60055000Y3175000D01*
D50*
X47752000Y45364400D03*
D51*
X46772800Y45364400D02*
X46507400Y45629800D01*
X47752000Y45364400D02*
X46772800Y45364400D01*
D50*
X25400000Y25171400D03*
D49*
G04 #@! TO.N,N58*
X51539500Y38989000D02*
X51625500Y39075000D01*
X48883500Y38989000D02*
X51539500Y38989000D01*
D52*
G04 #@! TO.N,N30*
X132375000Y5080000D02*
X131445000Y5080000D01*
X131445000Y5080000D02*
X129540000Y3175000D01*
D50*
G04 #@! TO.N,GND*
X151434800Y35915600D03*
D52*
X151434200Y35915000D02*
X151434800Y35915600D01*
X149915636Y35915000D02*
X151434200Y35915000D01*
D53*
G04 #@! TO.N,N39*
X38531800Y7035800D03*
D54*
X37541200Y8153400D02*
X38531800Y7035800D01*
X10186800Y6580000D02*
X14224000Y10617200D01*
X20675600Y10617200D02*
X21183600Y11125200D01*
X21183600Y11125200D02*
X26873200Y11125200D01*
X14224000Y10617200D02*
X20675600Y10617200D01*
X30480000Y8153400D02*
X37541200Y8153400D01*
X30226000Y8407400D02*
X30480000Y8153400D01*
X8890000Y6580000D02*
X10186800Y6580000D01*
X26873200Y11125200D02*
X29591000Y8407400D01*
X29591000Y8407400D02*
X30226000Y8407400D01*
D49*
G04 #@! TO.N,N13*
X34682600Y14642000D02*
X35026600Y14986000D01*
X35026600Y14986000D02*
X35818000Y14986000D01*
X35818000Y14986000D02*
X35834000Y14970000D01*
X34163000Y14642000D02*
X34682600Y14642000D01*
G04 #@! TO.N,N50*
X58039000Y13934000D02*
X58039000Y10414000D01*
X58039000Y10414000D02*
X58191400Y10312400D01*
X58039000Y13934000D02*
X58003000Y13970000D01*
D52*
G04 #@! TO.N,CONSOLE_TX_TTL*
X147701000Y29387800D02*
X147523200Y29210000D01*
X146805636Y29210000D02*
X147523200Y29210000D01*
X148564600Y32867600D02*
X148564600Y31597600D01*
X148564600Y31597600D02*
X147701000Y30734000D01*
X149915636Y33315000D02*
X149012000Y33315000D01*
X149012000Y33315000D02*
X148564600Y32867600D01*
X147701000Y30734000D02*
X147701000Y29387800D01*
D54*
G04 #@! TO.N,N34*
X81012000Y12319000D02*
X81051400Y12358400D01*
X86944200Y3149600D02*
X89779600Y3149600D01*
X82550000Y4953000D02*
X81915000Y5588000D01*
X89779600Y3149600D02*
X89805000Y3175000D01*
X86334600Y2540000D02*
X86944200Y3149600D01*
X81012000Y5588000D02*
X81915000Y5588000D01*
X82550000Y2540000D02*
X82550000Y4953000D01*
X81012000Y8001000D02*
X81012000Y5588000D01*
X81012000Y5588000D02*
X81012000Y5588000D01*
X82550000Y2540000D02*
X86334600Y2540000D01*
X81012000Y8001000D02*
X81012000Y12319000D01*
D50*
G04 #@! TO.N,GND*
X40106600Y8001000D03*
D52*
X40132000Y8026400D02*
X40106600Y8001000D01*
X40132000Y8981000D02*
X40132000Y8026400D01*
D50*
G04 #@! TO.N,3V3*
X16484600Y43230800D03*
X21018500Y44132500D03*
D49*
X15533332Y39690000D02*
X16576000Y39690000D01*
X18282532Y40589200D02*
X18333332Y40640000D01*
X17475200Y40589200D02*
X18282532Y40589200D01*
X21018500Y44132500D02*
X24497000Y47611000D01*
X28021666Y47051000D02*
X27269400Y47051000D01*
X15533332Y39690000D02*
X15533332Y39690000D01*
X25611666Y47611000D02*
X24497000Y47611000D01*
X14772600Y39690000D02*
X14274800Y39192200D01*
X16484600Y41579800D02*
X17475200Y40589200D01*
X15533332Y39690000D02*
X14772600Y39690000D01*
X14274800Y39192200D02*
X13185532Y39192200D01*
X25648466Y47574200D02*
X25611666Y47611000D01*
X13185532Y39192200D02*
X13123332Y39130000D01*
X26746200Y47574200D02*
X25648466Y47574200D01*
X16484600Y43230800D02*
X16484600Y41579800D01*
X27269400Y47051000D02*
X26746200Y47574200D01*
X16576000Y39690000D02*
X17475200Y40589200D01*
D53*
G04 #@! TO.N,24VA*
X83261200Y40817800D03*
D50*
X99796600Y46151800D03*
D54*
X58674000Y44170600D02*
X65608200Y44170600D01*
X29641800Y41300400D02*
X37033200Y41300400D01*
X101269800Y47625000D02*
X99796600Y46151800D01*
X24866600Y36525200D02*
X29641800Y41300400D01*
X43916600Y43230800D02*
X44754800Y42392600D01*
X14022200Y30710000D02*
X15240000Y31927800D01*
X15240000Y31927800D02*
X22377400Y31927800D01*
X67183000Y42595800D02*
X82651600Y42595800D01*
X44754800Y42392600D02*
X51308000Y42392600D01*
X65608200Y44170600D02*
X67183000Y42595800D01*
X51308000Y42392600D02*
X54533800Y45618400D01*
X37033200Y41300400D02*
X38963600Y43230800D01*
X83286600Y41960800D02*
X83286600Y40843200D01*
X101360000Y47625000D02*
X101269800Y47625000D01*
X83286600Y40843200D02*
X83261200Y40817800D01*
X24866600Y34417000D02*
X24866600Y36525200D01*
X82651600Y42595800D02*
X83286600Y41960800D01*
X22377400Y31927800D02*
X24866600Y34417000D01*
X54533800Y45618400D02*
X57226200Y45618400D01*
X57226200Y45618400D02*
X58674000Y44170600D01*
X38963600Y43230800D02*
X43916600Y43230800D01*
X11890000Y30710000D02*
X14022200Y30710000D01*
D52*
G04 #@! TO.N,GND*
X135255000Y5080000D02*
X137160000Y3175000D01*
X134325000Y5080000D02*
X135255000Y5080000D01*
D50*
G04 #@! TO.N,24VB*
X61468000Y23850600D03*
D54*
X90271600Y13208000D02*
X89941400Y13538200D01*
X154000200Y16510000D02*
X153593800Y16103600D01*
X153593800Y16103600D02*
X141452600Y16103600D01*
D52*
X60452000Y22834600D02*
X61468000Y23850600D01*
D54*
X89930000Y14605000D02*
X89930000Y17274000D01*
X115341400Y15773400D02*
X97942400Y15773400D01*
D52*
X56286400Y21549000D02*
X56286400Y21844000D01*
D54*
X141452600Y16103600D02*
X138633200Y13284200D01*
X138633200Y13284200D02*
X117830600Y13284200D01*
D52*
X56286400Y21844000D02*
X57277000Y22834600D01*
D54*
X165910000Y16510000D02*
X154000200Y16510000D01*
X95377000Y13208000D02*
X90271600Y13208000D01*
X89941400Y13538200D02*
X89941400Y14593600D01*
D52*
X57277000Y22834600D02*
X60452000Y22834600D01*
D54*
X97942400Y15773400D02*
X95377000Y13208000D01*
X89941400Y14593600D02*
X89930000Y14605000D01*
X117830600Y13284200D02*
X115341400Y15773400D01*
X89930000Y17274000D02*
X89805000Y17399000D01*
D50*
G04 #@! TO.N,GND*
X23977600Y28422600D03*
X57886600Y16687800D03*
G04 #@! TO.N,N31*
X84886800Y28727400D03*
X84302600Y23266400D03*
D54*
X84302600Y23266400D02*
X81051400Y20015200D01*
X77368400Y44373800D02*
X76489200Y44373800D01*
X84886800Y45288200D02*
X83769200Y46405800D01*
X83769200Y46405800D02*
X79400400Y46405800D01*
D52*
X85090000Y48260000D02*
X82790000Y48260000D01*
D54*
X76489200Y44373800D02*
X76413000Y44450000D01*
X79400400Y46405800D02*
X77368400Y44373800D01*
X85090000Y47726600D02*
X83769200Y46405800D01*
X84886800Y28727400D02*
X84886800Y45288200D01*
X85090000Y48260000D02*
X85090000Y47726600D01*
X81051400Y14108400D02*
X81051400Y20015200D01*
D50*
G04 #@! TO.N,PE0*
X47117000Y40589200D03*
X39928800Y41097200D03*
D52*
X52628800Y36728400D02*
X52232200Y37125000D01*
X21717000Y30099000D02*
X26695400Y35077400D01*
X142798800Y27762200D02*
X142087600Y28473400D01*
X76098400Y30683200D02*
X76936600Y29845000D01*
X104749600Y25349200D02*
X83286600Y25349200D01*
X143967200Y25349200D02*
X142798800Y26517600D01*
X52959000Y37058600D02*
X52628800Y36728400D01*
X76936600Y29845000D02*
X78790800Y29845000D01*
X83286600Y25349200D02*
X80467200Y28168600D01*
X107873800Y28473400D02*
X104749600Y25349200D01*
X26695400Y36855400D02*
X30302200Y40462200D01*
X142798800Y26517600D02*
X142798800Y27762200D01*
X47117000Y40589200D02*
X52120800Y40640000D01*
X54737000Y32537400D02*
X56591200Y30683200D01*
X52959000Y39801800D02*
X52959000Y37058600D01*
X51625500Y37125000D02*
X52232200Y37125000D01*
X54737000Y34620200D02*
X54737000Y32537400D01*
X144871800Y25349200D02*
X143967200Y25349200D01*
X52120800Y40640000D02*
X52959000Y39801800D01*
X78790800Y29845000D02*
X80467200Y28168600D01*
X56591200Y30683200D02*
X76098400Y30683200D01*
X14960600Y30099000D02*
X21717000Y30099000D01*
X39293800Y40462200D02*
X39928800Y41097200D01*
X52628800Y36728400D02*
X54737000Y34620200D01*
X14351000Y27254200D02*
X14351000Y29489400D01*
X13122000Y26025200D02*
X14351000Y27254200D01*
X14351000Y29489400D02*
X14960600Y30099000D01*
X142087600Y28473400D02*
X107873800Y28473400D01*
X13122000Y24892000D02*
X13122000Y26025200D01*
X30302200Y40462200D02*
X39293800Y40462200D01*
X26695400Y35077400D02*
X26695400Y36855400D01*
D50*
G04 #@! TO.N,RX1*
X47269400Y29794200D03*
X76301600Y27203400D03*
X83388200Y29108400D03*
D52*
X104317800Y26390600D02*
X83820000Y26390600D01*
X47269400Y29794200D02*
X55067200Y29794200D01*
X83388200Y29108400D02*
X83388200Y26720800D01*
X58039000Y26822400D02*
X74701400Y26822400D01*
X142341600Y31115000D02*
X140716000Y29489400D01*
X55067200Y29794200D02*
X58039000Y26822400D01*
X76301600Y27203400D02*
X76225400Y27203400D01*
X144855636Y31115000D02*
X142341600Y31115000D01*
X74701400Y26822400D02*
X75844400Y26822400D01*
X107416600Y29489400D02*
X104317800Y26390600D01*
X76225400Y27203400D02*
X75844400Y26822400D01*
X83820000Y26390600D02*
X83718400Y26390600D01*
X140716000Y29489400D02*
X107416600Y29489400D01*
X83718400Y26390600D02*
X83388200Y26720800D01*
D50*
G04 #@! TO.N,N32*
X61137800Y21742400D03*
D52*
X56286400Y19599000D02*
X58994400Y19599000D01*
X58994400Y19599000D02*
X61137800Y21742400D01*
X56286400Y19599000D02*
X54381400Y19599000D01*
X56286400Y19599000D02*
X54381400Y19599000D01*
D50*
G04 #@! TO.N,GND*
X40868600Y29184600D03*
X33680400Y39370000D03*
X46710600Y1905000D03*
G04 #@! TO.N,PICO_ON*
X37820600Y39268400D03*
X34264600Y38404800D03*
D52*
X37820600Y39268400D02*
X36042600Y39268400D01*
X34264600Y38404800D02*
X35179000Y38404800D01*
X35179000Y38404800D02*
X36042600Y39268400D01*
D49*
G04 #@! TO.N,N47*
X49987200Y11506200D02*
X51282600Y10210800D01*
X46736000Y11506200D02*
X46736000Y13224000D01*
X46736000Y11506200D02*
X46736000Y11466000D01*
X53111400Y10312400D02*
X52959000Y10287000D01*
X46736000Y13224000D02*
X46482000Y13478000D01*
X51282600Y10210800D02*
X52755800Y10210800D01*
X46736000Y11506200D02*
X49987200Y11506200D01*
X52755800Y10210800D02*
X53111400Y10312400D01*
D50*
G04 #@! TO.N,GND*
X79730600Y48285400D03*
D54*
X81040000Y48260000D02*
X79756000Y48260000D01*
X79756000Y48260000D02*
X79730600Y48285400D01*
D50*
G04 #@! TO.N,RS485_A*
X27990800Y33451800D03*
D52*
X108280200Y27736800D02*
X105054400Y24511000D01*
X38649000Y31927800D02*
X38649000Y32004000D01*
X28575000Y34036000D02*
X27990800Y33451800D01*
X81051400Y26314400D02*
X82854800Y24511000D01*
X38649000Y31927800D02*
X35890200Y31927800D01*
X57658000Y25857200D02*
X77724000Y25857200D01*
X47294800Y28321000D02*
X55194200Y28321000D01*
X141554200Y26035000D02*
X141554200Y27482800D01*
X153111200Y29083000D02*
X153111200Y28625800D01*
X77724000Y25857200D02*
X78181200Y26314400D01*
X33782000Y34036000D02*
X28575000Y34036000D01*
X148031200Y23545800D02*
X144043400Y23545800D01*
X81051400Y26314400D02*
X78181200Y26314400D01*
X55194200Y28321000D02*
X57658000Y25857200D01*
X154000200Y29972000D02*
X153111200Y29083000D01*
X38649000Y30870800D02*
X39039800Y30480000D01*
X45135800Y30480000D02*
X47294800Y28321000D01*
X144043400Y23545800D02*
X141554200Y26035000D01*
X105054400Y24511000D02*
X82854800Y24511000D01*
X141554200Y27482800D02*
X141300200Y27736800D01*
X35890200Y31927800D02*
X33782000Y34036000D01*
X38649000Y31927800D02*
X38649000Y30870800D01*
X154473000Y29972000D02*
X154000200Y29972000D01*
X148031200Y23545800D02*
X151638000Y27152600D01*
X39039800Y30480000D02*
X45135800Y30480000D01*
X141300200Y27736800D02*
X108280200Y27736800D01*
X153111200Y28625800D02*
X151638000Y27152600D01*
D50*
G04 #@! TO.N,GND*
X38201600Y33426400D03*
D52*
X38227000Y34431000D02*
X38227000Y33451800D01*
X38227000Y33451800D02*
X38201600Y33426400D01*
D50*
X42392600Y35204400D03*
D49*
X42418000Y35179000D02*
X42392600Y35204400D01*
X43953500Y35179000D02*
X42418000Y35179000D01*
D50*
G04 #@! TO.N,MVP_ON*
X35814000Y26365200D03*
D52*
X43586400Y29006800D02*
X43129200Y28549600D01*
X43586400Y29006800D02*
X45237400Y29006800D01*
X54584600Y27381200D02*
X46863000Y27381200D01*
X43129200Y28549600D02*
X37998400Y28549600D01*
X55405200Y26560600D02*
X54584600Y27381200D01*
X35814000Y26365200D02*
X37998400Y28549600D01*
X45262800Y28981400D02*
X46863000Y27381200D01*
X45262800Y28981400D02*
X45237400Y29006800D01*
X55405200Y25029200D02*
X55405200Y26560600D01*
D50*
G04 #@! TO.N,N4*
X13716000Y28346400D03*
X13665200Y12954000D03*
D52*
X13665200Y12954000D02*
X13665200Y17068800D01*
X11455400Y21488400D02*
X11455400Y25095200D01*
X13665200Y17068800D02*
X12750800Y17983200D01*
X12750800Y17983200D02*
X12750800Y20193000D01*
X13716000Y28346400D02*
X13716000Y27355800D01*
X12750800Y20193000D02*
X11455400Y21488400D01*
X11455400Y25095200D02*
X13716000Y27355800D01*
D49*
G04 #@! TO.N,N45*
X75830400Y14004888D02*
X75905400Y14079888D01*
X75830400Y11669888D02*
X75830400Y14004888D01*
D50*
G04 #@! TO.N,VIN*
X59842400Y9880600D03*
X140614400Y24561800D03*
X139319000Y22758400D03*
X161493200Y22402800D03*
X140639800Y23520400D03*
X139192000Y24765000D03*
X139242800Y23850600D03*
X56845200Y5232400D03*
X140690600Y22402800D03*
X60731400Y15875000D03*
D55*
X140690600Y22402800D02*
X140639800Y23520400D01*
X139319000Y22758400D02*
X139192000Y24765000D01*
D54*
X59853000Y9891200D02*
X59842400Y9880600D01*
D55*
X151511000Y19862800D02*
X144068800Y19862800D01*
X140690600Y22402800D02*
X140614400Y24561800D01*
D54*
X56845200Y5232400D02*
X57824400Y5232400D01*
D55*
X140690600Y22402800D02*
X140639800Y23520400D01*
X154152600Y22504400D02*
X151511000Y19862800D01*
X139319000Y22758400D02*
X139242800Y23850600D01*
X140690600Y22402800D02*
X140614400Y24561800D01*
D49*
X58053000Y3177000D02*
X58055000Y3175000D01*
D55*
X161493200Y22402800D02*
X154152600Y22504400D01*
X140690600Y22402800D02*
X140639800Y23520400D01*
D54*
X59853000Y13970000D02*
X59853000Y9891200D01*
D55*
X140690600Y22402800D02*
X139319000Y22758400D01*
D54*
X60731400Y15875000D02*
X60731400Y14848400D01*
D55*
X165910000Y27022800D02*
X161493200Y22402800D01*
X140690600Y22402800D02*
X144068800Y19862800D01*
D54*
X60731400Y14848400D02*
X59853000Y13970000D01*
D55*
X139319000Y22758400D02*
X139242800Y23850600D01*
D54*
X57824400Y5232400D02*
X58053000Y5461000D01*
D55*
X140690600Y22402800D02*
X140639800Y23520400D01*
X165910000Y29639000D02*
X165910000Y27022800D01*
D49*
X58053000Y5461000D02*
X58053000Y3177000D01*
D50*
G04 #@! TO.N,PE1*
X45923200Y38836600D03*
X82042000Y28270200D03*
X39598600Y39446200D03*
X78460600Y28625800D03*
D52*
X45570500Y32766000D02*
X45570500Y31899500D01*
X54686200Y30734000D02*
X58166000Y27254200D01*
X13122000Y22352000D02*
X13122000Y23155000D01*
X58166000Y27254200D02*
X75234800Y27254200D01*
X14909800Y27203400D02*
X17094200Y29387800D01*
X27482800Y36753800D02*
X30734000Y40005000D01*
X107721400Y28829000D02*
X104597200Y25704800D01*
X82042000Y27152600D02*
X83489800Y25704800D01*
X76708000Y28625800D02*
X76657200Y28676600D01*
X82042000Y28270200D02*
X82042000Y27152600D01*
X45567600Y34163000D02*
X45567600Y32768900D01*
X30734000Y40005000D02*
X39039800Y40005000D01*
X45923200Y38836600D02*
X45923200Y34518600D01*
X45923200Y34518600D02*
X45567600Y34163000D01*
X45570500Y31899500D02*
X46736000Y30734000D01*
X13919200Y26060400D02*
X14909800Y27051000D01*
X75234800Y27254200D02*
X76657200Y28676600D01*
X17094200Y29387800D02*
X21742400Y29387800D01*
X46736000Y30734000D02*
X54686200Y30734000D01*
X27482800Y35128200D02*
X27482800Y36753800D01*
X144846400Y27254200D02*
X143941800Y27254200D01*
X14909800Y27051000D02*
X14909800Y27203400D01*
X78460600Y28625800D02*
X76708000Y28625800D01*
X13122000Y23155000D02*
X13919200Y23952200D01*
X45567600Y32768900D02*
X45570500Y32766000D01*
X39039800Y40005000D02*
X39598600Y39446200D01*
X21742400Y29387800D02*
X27482800Y35128200D01*
X104597200Y25704800D02*
X83489800Y25704800D01*
X142367000Y28829000D02*
X107721400Y28829000D01*
X13919200Y23952200D02*
X13919200Y26060400D01*
X143941800Y27254200D02*
X142367000Y28829000D01*
D49*
G04 #@! TO.N,PICO_RX_3V*
X15533332Y41590000D02*
X15533332Y42556468D01*
X12598400Y42900600D02*
X10769600Y41071800D01*
X10769600Y41071800D02*
X8916800Y41071800D01*
X15189200Y42900600D02*
X12598400Y42900600D01*
X8916800Y41071800D02*
X8890000Y41045000D01*
X15533332Y42556468D02*
X15189200Y42900600D01*
D52*
G04 #@! TO.N,N40*
X54381400Y21549000D02*
X54092200Y21549000D01*
X53289200Y22352000D02*
X53289200Y23995200D01*
X54092200Y21549000D02*
X53289200Y22352000D01*
X53289200Y23995200D02*
X53205200Y24079200D01*
D50*
G04 #@! TO.N,GND*
X16637000Y35026600D03*
D49*
X17719000Y34968000D02*
X16695600Y34968000D01*
X16695600Y34968000D02*
X16637000Y35026600D01*
G04 #@! TO.N,PICO_TX_3V*
X16129000Y44424600D02*
X16764000Y44424600D01*
X25273000Y43256200D02*
X27178000Y45161200D01*
X17932400Y43256200D02*
X25273000Y43256200D01*
X17932400Y43256200D02*
X16764000Y44424600D01*
X15749400Y44045000D02*
X16129000Y44424600D01*
X8890000Y44045000D02*
X15749400Y44045000D01*
X27178000Y45161200D02*
X28011466Y45161200D01*
X28011466Y45161200D02*
X28021666Y45151000D01*
D50*
G04 #@! TO.N,VIN2*
X140233400Y45593000D03*
D49*
X142085000Y45085000D02*
X140741400Y45085000D01*
X140741400Y45085000D02*
X140233400Y45593000D01*
D50*
G04 #@! TO.N,GND*
X72415400Y10845800D03*
D49*
X72415400Y10845800D02*
X72415400Y12064888D01*
X74080400Y11669888D02*
X72810400Y11669888D01*
X72810400Y11669888D02*
X72415400Y12064888D01*
D50*
X147218400Y46075600D03*
D49*
X146227800Y45085000D02*
X147218400Y46075600D01*
X144935000Y45085000D02*
X146227800Y45085000D01*
D50*
X56692800Y23241000D03*
D52*
X56581000Y23129200D02*
X56692800Y23241000D01*
X55405200Y23129200D02*
X56581000Y23129200D01*
D50*
X42113200Y48945800D03*
G04 #@! TO.N,5V*
X23164800Y16941800D03*
X41579800Y33248600D03*
X145618200Y38862000D03*
X22580600Y39166800D03*
X35966400Y18313400D03*
X67995800Y28803600D03*
X66522600Y20675600D03*
X25222200Y31724600D03*
X30302200Y48209200D03*
X143967200Y40513000D03*
X53111400Y26619200D03*
X86461600Y31216600D03*
X66344800Y10896600D03*
X28524200Y36652200D03*
X37668200Y37236400D03*
X36525200Y48209200D03*
X50012600Y41249600D03*
X52984400Y33502600D03*
X47802800Y43840400D03*
X44577000Y32766000D03*
X28498800Y11328400D03*
D49*
X149915636Y36565000D02*
X149159800Y36565000D01*
X44805600Y39852600D02*
X44805600Y40539700D01*
X28473400Y13335000D02*
X28473400Y11353800D01*
X37630100Y20027900D02*
X37680900Y20027900D01*
X66700400Y18999200D02*
X68173600Y18999200D01*
X28473400Y11353800D02*
X28498800Y11328400D01*
X147100636Y38340000D02*
X146140200Y38340000D01*
X58851800Y27889200D02*
X56515000Y30226000D01*
X33807400Y7086600D02*
X33807400Y5857600D01*
X28524200Y36652200D02*
X28524200Y35458400D01*
X52501800Y26009600D02*
X53111400Y26619200D01*
X28930600Y46101000D02*
X29921200Y47091600D01*
X44577000Y32766000D02*
X44094400Y33248600D01*
X21590000Y39166800D02*
X21553200Y39130000D01*
X22580600Y39166800D02*
X21590000Y39166800D01*
D51*
X52222400Y32715200D02*
X51471800Y32715200D01*
D49*
X43953500Y39356100D02*
X44272200Y39674800D01*
X27686000Y7620000D02*
X33451800Y7442200D01*
X44577000Y38989000D02*
X45491400Y38074600D01*
X147100636Y38340000D02*
X147100636Y38340000D01*
X30821666Y47051000D02*
X29921200Y47091600D01*
X67934400Y20686888D02*
X67923112Y20675600D01*
X45515500Y41249600D02*
X50012600Y41249600D01*
X37680900Y20027900D02*
X38150800Y20497800D01*
X36525200Y48209200D02*
X38404800Y46329600D01*
D52*
X38252400Y36206400D02*
X38227000Y36181000D01*
D49*
X44627800Y39674800D02*
X44805600Y39852600D01*
X33451800Y18313400D02*
X35966400Y18313400D01*
X23164800Y15177800D02*
X22719000Y14732000D01*
X35763200Y24536400D02*
X35763200Y21894800D01*
X44931300Y40665400D02*
X45515500Y41249600D01*
X25222200Y31724600D02*
X27025600Y33528000D01*
X86893400Y31216600D02*
X86461600Y31216600D01*
X52984400Y33248600D02*
X52984400Y33502600D01*
X32766000Y32512000D02*
X31496000Y31242000D01*
D52*
X38252400Y37033200D02*
X38252400Y36206400D01*
D49*
X51562000Y22352000D02*
X51562000Y25171400D01*
X148361400Y37363400D02*
X148361400Y37871400D01*
X143967200Y40513000D02*
X140741400Y43738800D01*
X34772600Y25527000D02*
X35763200Y24536400D01*
X43953500Y38989000D02*
X44577000Y38989000D01*
X48412400Y19202400D02*
X51562000Y22352000D01*
X43953500Y38989000D02*
X43953500Y39356100D01*
X149159800Y36565000D02*
X148361400Y37363400D01*
X32036666Y47051000D02*
X32596666Y47611000D01*
X67934400Y20686888D02*
X67934400Y20686888D01*
X140741400Y43738800D02*
X125857000Y43738800D01*
X56515000Y30226000D02*
X56007000Y30226000D01*
X25704800Y31242000D02*
X31496000Y31242000D01*
X25222200Y31724600D02*
X25704800Y31242000D01*
X148361400Y37871400D02*
X147980400Y38252400D01*
X27025600Y33528000D02*
X27025600Y33959800D01*
X45491400Y34848800D02*
X44754800Y34112200D01*
X37680900Y20027900D02*
X35966400Y18313400D01*
X35763200Y21894800D02*
X37630100Y20027900D01*
X30821666Y47051000D02*
X30781066Y47091600D01*
X43891200Y33248600D02*
X41579800Y33248600D01*
X18333332Y39690000D02*
X20183332Y39690000D01*
X30821666Y47051000D02*
X30821666Y47051000D01*
X146140200Y38340000D02*
X145618200Y38862000D01*
X20743332Y39130000D02*
X21553200Y39130000D01*
X28021666Y46101000D02*
X28930600Y46101000D01*
X27025600Y33959800D02*
X28524200Y35458400D01*
X34104400Y3767000D02*
X33782000Y4089400D01*
X90703400Y35026600D02*
X86893400Y31216600D01*
X30302200Y47142400D02*
X30821666Y47051000D01*
X22719000Y14732000D02*
X27076400Y14732000D01*
X51573400Y32918400D02*
X51421000Y32766000D01*
X43484800Y20497800D02*
X44780200Y19202400D01*
X33823000Y5842000D02*
X33782000Y4089400D01*
X34798000Y3767000D02*
X34104400Y3767000D01*
X67923112Y20675600D02*
X66522600Y20675600D01*
X66344800Y10896600D02*
X66344800Y18643600D01*
D51*
X52984400Y33502600D02*
X52222400Y32715200D01*
D49*
X27076400Y14732000D02*
X28473400Y13335000D01*
X147980400Y38252400D02*
X147188236Y38252400D01*
X44805600Y40539700D02*
X44931300Y40665400D01*
X30821666Y47051000D02*
X30781066Y47091600D01*
X56007000Y30226000D02*
X52984400Y33248600D01*
X28473400Y13335000D02*
X33451800Y18313400D01*
X67934400Y20686888D02*
X68224400Y20396888D01*
D51*
X46507400Y43879800D02*
X47802800Y43840400D01*
D49*
X45491400Y38074600D02*
X45491400Y34848800D01*
X33807400Y5857600D02*
X33823000Y5842000D01*
X42087800Y46329600D02*
X44537600Y43879800D01*
X125857000Y43738800D02*
X117144800Y35026600D01*
X44780200Y19202400D02*
X48412400Y19202400D01*
D51*
X51471800Y32715200D02*
X51421000Y32766000D01*
D49*
X38404800Y46329600D02*
X42087800Y46329600D01*
X52400200Y26009600D02*
X52501800Y26009600D01*
X34772600Y30505400D02*
X34772600Y25527000D01*
X32766000Y32512000D02*
X34772600Y30505400D01*
X67995800Y28803600D02*
X67081400Y27889200D01*
X44754800Y34112200D02*
X43891200Y33248600D01*
X67081400Y27889200D02*
X58851800Y27889200D01*
X68224400Y18936888D02*
X68224400Y20396888D01*
X20183332Y39690000D02*
X20743332Y39130000D01*
X33451800Y7442200D02*
X33807400Y7086600D01*
X30821666Y47051000D02*
X32036666Y47051000D01*
X30302200Y48209200D02*
X30302200Y47142400D01*
X44094400Y33248600D02*
X43891200Y33248600D01*
X66344800Y18643600D02*
X66700400Y18999200D01*
X117144800Y35026600D02*
X90703400Y35026600D01*
X68173600Y18999200D02*
X68224400Y18936888D01*
D52*
X38049200Y37236400D02*
X38252400Y37033200D01*
D49*
X44272200Y39674800D02*
X44627800Y39674800D01*
X147100636Y38340000D02*
X147188236Y38252400D01*
X44537600Y43879800D02*
X46507400Y43879800D01*
X23164800Y16941800D02*
X23164800Y15177800D01*
X51562000Y25171400D02*
X52400200Y26009600D01*
X38150800Y20497800D02*
X43484800Y20497800D01*
D52*
X37668200Y37236400D02*
X38049200Y37236400D01*
D50*
G04 #@! TO.N,TX2*
X33604200Y43281600D03*
D52*
X30821666Y45151000D02*
X31125200Y45151000D01*
X31125200Y45151000D02*
X31750000Y44526200D01*
X32969200Y43307000D02*
X31750000Y44526200D01*
X33604200Y43281600D02*
X32969200Y43307000D01*
D54*
G04 #@! TO.N,N35*
X68580000Y44450000D02*
X64770000Y48260000D01*
X74463000Y44450000D02*
X68580000Y44450000D01*
D52*
X64770000Y48260000D02*
X68875000Y48260000D01*
D56*
G04 #@! TO.N,N5*
X14909800Y8966200D03*
D49*
X23749000Y6400800D02*
X23571200Y6578600D01*
X20751800Y8966200D02*
X14909800Y8966200D01*
X24155400Y9093200D02*
X24155400Y9931400D01*
X22098000Y10312400D02*
X20751800Y8966200D01*
X23774400Y10312400D02*
X22098000Y10312400D01*
X27609800Y5156200D02*
X27686000Y5080000D01*
X27406600Y6400800D02*
X23749000Y6400800D01*
X27609800Y6197600D02*
X27609800Y5156200D01*
X27406600Y6400800D02*
X27609800Y6197600D01*
X23571200Y6578600D02*
X23571200Y8509000D01*
X23571200Y8509000D02*
X24155400Y9093200D01*
X24155400Y9931400D02*
X23774400Y10312400D01*
D52*
G04 #@! TO.N,N46*
X147624800Y25349200D02*
X148590000Y26314400D01*
X149910800Y32010164D02*
X149915636Y32015000D01*
X148590000Y30226000D02*
X149910800Y31546800D01*
X148590000Y26314400D02*
X148590000Y30226000D01*
X149910800Y31546800D02*
X149910800Y32010164D01*
X146821800Y25349200D02*
X147624800Y25349200D01*
D56*
G04 #@! TO.N,N3*
X23037800Y9220200D03*
D49*
X37134800Y2082800D02*
X37134800Y5359400D01*
X35748000Y1567000D02*
X35748000Y1567000D01*
X29921200Y3733800D02*
X26339800Y3733800D01*
X30962600Y2692400D02*
X29921200Y3733800D01*
X35026600Y2692400D02*
X30962600Y2692400D01*
X35798400Y5867400D02*
X35773000Y5842000D01*
X35748000Y1567000D02*
X36619000Y1567000D01*
X35748000Y1567000D02*
X35748000Y1971000D01*
X35748000Y1971000D02*
X35026600Y2692400D01*
X23037800Y9220200D02*
X23037800Y3225800D01*
X37134800Y5359400D02*
X36626800Y5867400D01*
X36626800Y5867400D02*
X35798400Y5867400D01*
X36619000Y1567000D02*
X37134800Y2082800D01*
X26339800Y3733800D02*
X25146000Y2540000D01*
X23037800Y3225800D02*
X23723600Y2540000D01*
X25146000Y2540000D02*
X23723600Y2540000D01*
D50*
G04 #@! TO.N,GND*
X33731200Y44373800D03*
D52*
G04 #@! TO.N,N52*
X148075636Y34925000D02*
X148691600Y34925000D01*
X148691600Y34925000D02*
X149021800Y35255200D01*
X149905836Y35255200D02*
X149915636Y35265000D01*
X149021800Y35255200D02*
X149905836Y35255200D01*
D50*
G04 #@! TO.N,GND*
X48361600Y18364200D03*
D49*
G04 #@! TO.N,N67*
X59969400Y36804600D02*
X60045600Y36880800D01*
D50*
G04 #@! TO.N,GND*
X42113200Y40640000D03*
D49*
X43181300Y40665400D02*
X42138600Y40665400D01*
X42138600Y40665400D02*
X42113200Y40640000D01*
D50*
G04 #@! TO.N,N37*
X21463000Y34340800D03*
D49*
X19347000Y37168000D02*
X20421600Y36093400D01*
X21310600Y36093400D02*
X21437600Y35966400D01*
X18669000Y37168000D02*
X19347000Y37168000D01*
X21463000Y35220000D02*
X21463000Y34340800D01*
X21437600Y35245400D02*
X21463000Y35220000D01*
X21437600Y35966400D02*
X21437600Y35245400D01*
X20421600Y36093400D02*
X21310600Y36093400D01*
G04 #@! TO.N,N12*
X35781000Y12917000D02*
X35834000Y12970000D01*
X34163000Y12917000D02*
X35781000Y12917000D01*
D54*
G04 #@! TO.N,N65*
X117297200Y10998200D02*
X119811800Y8483600D01*
X119811800Y3962400D02*
X120548400Y3225800D01*
X121920000Y3175000D02*
X121920000Y5475000D01*
X121869200Y3225800D02*
X121920000Y3175000D01*
X120548400Y3225800D02*
X121869200Y3225800D01*
X119811800Y8483600D02*
X119811800Y3962400D01*
X115632200Y10998200D02*
X117297200Y10998200D01*
D50*
G04 #@! TO.N,GND*
X148310600Y39166800D03*
D52*
X149400636Y38735000D02*
X148742400Y38735000D01*
X148742400Y38735000D02*
X148310600Y39166800D01*
D50*
G04 #@! TO.N,485_DE*
X47142400Y36449000D03*
D52*
X48883500Y36449000D02*
X47142400Y36449000D01*
D50*
G04 #@! TO.N,CFP_AN_OUT*
X10185400Y33578800D03*
D52*
X7493000Y18542000D02*
X8890000Y17145000D01*
X7493000Y31419800D02*
X7493000Y18542000D01*
X10185400Y33578800D02*
X9652000Y33578800D01*
X9652000Y33578800D02*
X7493000Y31419800D01*
D50*
G04 #@! TO.N,GND*
X15951200Y26416000D03*
D52*
G04 #@! TO.N,N49*
X155715636Y33315000D02*
X154314800Y33315000D01*
X154314800Y33315000D02*
X152806400Y34823400D01*
X152323800Y38811200D02*
X151226836Y38811200D01*
X152806400Y34823400D02*
X152806400Y38328600D01*
X152806400Y38328600D02*
X152323800Y38811200D01*
X151226836Y38811200D02*
X151150636Y38735000D01*
D50*
G04 #@! TO.N,N19*
X21386800Y12242800D03*
D49*
X20077400Y12649200D02*
X20026600Y12598400D01*
X21183600Y12242800D02*
X20777200Y12649200D01*
X21386800Y12242800D02*
X21183600Y12242800D01*
X20777200Y12649200D02*
X20077400Y12649200D01*
D52*
G04 #@! TO.N,CONSOLE_RX_TTL*
X146805636Y31115000D02*
X147523200Y31115000D01*
X148209000Y31800800D02*
X147523200Y31115000D01*
X149915636Y33965000D02*
X149103200Y33965000D01*
X149103200Y33965000D02*
X148209000Y33070800D01*
X148209000Y33070800D02*
X148209000Y31800800D01*
D50*
G04 #@! TO.N,GND*
X104444800Y47675800D03*
D54*
X104394000Y47625000D02*
X104444800Y47675800D01*
X103110000Y47625000D02*
X104394000Y47625000D01*
D52*
G04 #@! TO.N,N53*
X153543600Y32665000D02*
X151917400Y31038800D01*
X151917400Y29022400D02*
X151851000Y28956000D01*
X155715636Y32665000D02*
X153543600Y32665000D01*
X151917400Y31038800D02*
X151917400Y29022400D01*
D50*
G04 #@! TO.N,GND*
X41148000Y24028400D03*
D49*
G04 #@! TO.N,N42*
X70586600Y14376400D02*
X70586600Y16891000D01*
X69773800Y17703800D02*
X69773800Y20676288D01*
X72415400Y13814888D02*
X71148112Y13814888D01*
X72415400Y13814888D02*
X73740400Y13814888D01*
X73740400Y13814888D02*
X74005400Y14079888D01*
X69773800Y20676288D02*
X69784400Y20686888D01*
X70586600Y16891000D02*
X69773800Y17703800D01*
X71148112Y13814888D02*
X70586600Y14376400D01*
D50*
G04 #@! TO.N,!485_RE*
X47091600Y37719000D03*
D52*
X48883500Y37719000D02*
X47091600Y37719000D01*
D54*
G04 #@! TO.N,GND*
X91680000Y14605000D02*
X91680000Y17274000D01*
X91680000Y17274000D02*
X91805000Y17399000D01*
D52*
G04 #@! TO.N,CONSOLE_RX_IN*
X169976800Y37515800D02*
X161569400Y37515800D01*
X143078200Y34569400D02*
X144576800Y33070800D01*
X144576800Y33070800D02*
X145439836Y33070800D01*
X143078200Y38227000D02*
X143078200Y34569400D01*
X168932600Y29639000D02*
X170535600Y31242000D01*
X170535600Y31242000D02*
X170535600Y36957000D01*
X170535600Y36957000D02*
X169976800Y37515800D01*
X158318200Y40767000D02*
X145618200Y40767000D01*
X145618200Y40767000D02*
X143078200Y38227000D01*
X145439836Y33070800D02*
X145490636Y33020000D01*
X161569400Y37515800D02*
X158318200Y40767000D01*
X168910000Y29639000D02*
X168932600Y29639000D01*
D49*
G04 #@! TO.N,N44*
X75905400Y16879888D02*
X75905400Y15910600D01*
X70942200Y20218400D02*
X71728912Y20218400D01*
X75615800Y15621000D02*
X74345800Y15621000D01*
X70510400Y18313400D02*
X70510400Y19786600D01*
X71780400Y17144888D02*
X72055600Y16869688D01*
X74015600Y16869688D02*
X72055600Y16869688D01*
X74345800Y15621000D02*
X74015600Y15951200D01*
X74015600Y16869688D02*
X74005400Y16879888D01*
X74015600Y15951200D02*
X74015600Y16869688D01*
X71678912Y17144888D02*
X70510400Y18313400D01*
X70510400Y19786600D02*
X70942200Y20218400D01*
X71728912Y20218400D02*
X71780400Y20269888D01*
X71780400Y17144888D02*
X71678912Y17144888D01*
X71780400Y17144888D02*
X71780400Y17144888D01*
X75905400Y15910600D02*
X75615800Y15621000D01*
D52*
G04 #@! TO.N,N64*
X155752800Y31521400D02*
X155752800Y31977836D01*
X155752800Y31977836D02*
X155715636Y32015000D01*
X156423000Y30851200D02*
X155752800Y31521400D01*
X156423000Y29972000D02*
X156423000Y30851200D01*
D50*
G04 #@! TO.N,RS485_B*
X33451800Y35458400D03*
X43535600Y29692600D03*
X43561000Y31572200D03*
X79730600Y27101800D03*
X78536800Y25196800D03*
D52*
X79768700Y27063700D02*
X79730600Y27101800D01*
X142113000Y27762200D02*
X141757400Y28117800D01*
X47167800Y27787600D02*
X54787800Y27787600D01*
X43535600Y29692600D02*
X45262800Y29692600D01*
X144170400Y24180800D02*
X142113000Y26238200D01*
X141757400Y28117800D02*
X108127800Y28117800D01*
X54787800Y27787600D02*
X57302400Y25273000D01*
X35941000Y38201600D02*
X38547400Y38201600D01*
X33451800Y35712400D02*
X35941000Y38201600D01*
X80962500Y27063700D02*
X83134200Y24892000D01*
X108127800Y28117800D02*
X104902000Y24892000D01*
X38547400Y38201600D02*
X38649000Y38100000D01*
X33451800Y35458400D02*
X33451800Y35712400D01*
X57302400Y25273000D02*
X77774800Y25273000D01*
X39674800Y31292800D02*
X40030400Y30937200D01*
X40030400Y30937200D02*
X42926000Y30937200D01*
X80962500Y27063700D02*
X79768700Y27063700D01*
X77774800Y25273000D02*
X77851000Y25196800D01*
X42926000Y30937200D02*
X43561000Y31572200D01*
X149901000Y28956000D02*
X149901000Y26228400D01*
X142113000Y26238200D02*
X142113000Y27762200D01*
X78536800Y25196800D02*
X77851000Y25196800D01*
X39293800Y38100000D02*
X39674800Y37719000D01*
X104902000Y24892000D02*
X83134200Y24892000D01*
X147853400Y24180800D02*
X144170400Y24180800D01*
X39674800Y37719000D02*
X39674800Y31292800D01*
X149901000Y26228400D02*
X147853400Y24180800D01*
X38649000Y38100000D02*
X39293800Y38100000D01*
X45262800Y29692600D02*
X47167800Y27787600D01*
G04 #@! TO.N,N54*
X156554600Y36565000D02*
X157632400Y37642800D01*
X158468436Y37642800D02*
X158530636Y37705000D01*
X157632400Y37642800D02*
X158468436Y37642800D01*
X155715636Y36565000D02*
X156554600Y36565000D01*
D54*
G04 #@! TO.N,GND*
X79262000Y5588000D02*
X79262000Y5588000D01*
X79262000Y4332000D02*
X77470000Y2540000D01*
X79262000Y5588000D02*
X79262000Y4332000D01*
X79262000Y5588000D02*
X79262000Y8001000D01*
D50*
X19532600Y40843200D03*
D49*
X19569400Y40880000D02*
X19532600Y40843200D01*
X20743332Y40880000D02*
X19569400Y40880000D01*
D52*
X74930000Y48260000D02*
X70825000Y48260000D01*
D54*
G04 #@! TO.N,N29*
X130937000Y35077400D02*
X130937000Y36497200D01*
X129540000Y33680400D02*
X130937000Y35077400D01*
X129540000Y31115000D02*
X129540000Y33680400D01*
X130937000Y36497200D02*
X130886200Y36548000D01*
D50*
G04 #@! TO.N,GND*
X21818600Y13258800D03*
X49682400Y34112200D03*
D51*
X49671000Y34100800D02*
X49682400Y34112200D01*
X49671000Y32766000D02*
X49671000Y34100800D01*
D50*
G04 #@! TO.N,RX2*
X34975800Y43154600D03*
D52*
X23342600Y42494200D02*
X26289000Y42494200D01*
X26289000Y42494200D02*
X26416000Y42367200D01*
X34975800Y43154600D02*
X34975800Y43103800D01*
X19913600Y42570400D02*
X23266400Y42570400D01*
X18333332Y41590000D02*
X18933200Y41590000D01*
X34975800Y43103800D02*
X34239200Y42367200D01*
X34239200Y42367200D02*
X26416000Y42367200D01*
X23266400Y42570400D02*
X23342600Y42494200D01*
X18933200Y41590000D02*
X19913600Y42570400D01*
D50*
G04 #@! TO.N,GND*
X33807400Y45872400D03*
D49*
X32596666Y45861000D02*
X33796000Y45861000D01*
X30821666Y46101000D02*
X32356666Y46101000D01*
X32596666Y45861000D02*
X32356666Y46101000D01*
X33796000Y45861000D02*
X33807400Y45872400D01*
X32596666Y45861000D02*
X32596666Y45861000D01*
D52*
G04 #@! TO.N,N28*
X153898600Y36474400D02*
X153898600Y38682036D01*
X153898600Y38682036D02*
X153845636Y38735000D01*
X155715636Y35915000D02*
X154458000Y35915000D01*
X154458000Y35915000D02*
X153898600Y36474400D01*
D50*
G04 #@! TO.N,12V*
X21386800Y38074600D03*
X30073600Y2108200D03*
X78079600Y19888200D03*
X82804000Y19227800D03*
D49*
X22479000Y5994400D02*
X22479000Y2616200D01*
D54*
X62052200Y8280400D02*
X49403000Y8280400D01*
X48056800Y9626600D02*
X46746600Y9626600D01*
D49*
X1879600Y32842200D02*
X1879600Y12166600D01*
D54*
X97967800Y17246600D02*
X94513400Y20701000D01*
D49*
X46736000Y9616000D02*
X45582400Y9616000D01*
X21132800Y7340600D02*
X22479000Y5994400D01*
D54*
X94513400Y20701000D02*
X85521800Y20701000D01*
X139903200Y17703800D02*
X139446000Y17246600D01*
D49*
X5689600Y36652200D02*
X1879600Y32842200D01*
D54*
X152984200Y17703800D02*
X139903200Y17703800D01*
D49*
X21386800Y38074600D02*
X19786600Y38074600D01*
X19786600Y38074600D02*
X19304000Y38557200D01*
D54*
X76440000Y19975688D02*
X76327000Y21336000D01*
D49*
X15925800Y7340600D02*
X21132800Y7340600D01*
X7010400Y7035800D02*
X7010400Y5867400D01*
X45161200Y9194800D02*
X45161200Y7426200D01*
D54*
X65985688Y22119888D02*
X64236600Y20370800D01*
X71780400Y22119888D02*
X65985688Y22119888D01*
X71780400Y22119888D02*
X71780400Y22119888D01*
D49*
X22479000Y2616200D02*
X23825200Y1270000D01*
X7010400Y5867400D02*
X7721600Y5156200D01*
D54*
X165910000Y19510000D02*
X154790400Y19510000D01*
D49*
X15951200Y38557200D02*
X14046200Y36652200D01*
X23825200Y1270000D02*
X29235400Y1270000D01*
D54*
X64236600Y20370800D02*
X64236600Y10464800D01*
D49*
X21463000Y37170000D02*
X21463000Y37998400D01*
D54*
X49403000Y8280400D02*
X48056800Y9626600D01*
X46746600Y9626600D02*
X46736000Y9616000D01*
D49*
X1879600Y12166600D02*
X7010400Y7035800D01*
X13741400Y5156200D02*
X15925800Y7340600D01*
X19304000Y38557200D02*
X15951200Y38557200D01*
X45582400Y9616000D02*
X45161200Y9194800D01*
D54*
X71780400Y22119888D02*
X75543112Y22119888D01*
D49*
X21463000Y37998400D02*
X21386800Y38074600D01*
X29235400Y1270000D02*
X30073600Y2108200D01*
X45161200Y7426200D02*
X45101000Y7366000D01*
D54*
X85496400Y20675600D02*
X84251800Y20675600D01*
D49*
X14046200Y36652200D02*
X5689600Y36652200D01*
D54*
X154790400Y19510000D02*
X152984200Y17703800D01*
X85521800Y20701000D02*
X85496400Y20675600D01*
X84251800Y20675600D02*
X82804000Y19227800D01*
X76527488Y19888200D02*
X76440000Y19975688D01*
X64236600Y10464800D02*
X62052200Y8280400D01*
X75543112Y22119888D02*
X76327000Y21336000D01*
X139446000Y17246600D02*
X97967800Y17246600D01*
D49*
X7721600Y5156200D02*
X13741400Y5156200D01*
D54*
X78079600Y19888200D02*
X76527488Y19888200D01*
D49*
G04 #@! TO.N,N68*
X40690800Y36144200D02*
X40690800Y32095800D01*
X40690800Y32095800D02*
X40599000Y32004000D01*
X43953500Y36449000D02*
X40995600Y36449000D01*
X40995600Y36449000D02*
X40690800Y36144200D01*
D50*
G04 #@! TO.N,N20*
X14097000Y18592800D03*
D52*
X15046600Y24917400D02*
X15072000Y24892000D01*
X15072000Y24063600D02*
X14122400Y23114000D01*
X14122400Y18618200D02*
X14097000Y18592800D01*
X15072000Y24892000D02*
X15072000Y24063600D01*
X14122400Y23114000D02*
X14122400Y18618200D01*
D50*
G04 #@! TO.N,GND*
X75006200Y18313400D03*
D49*
X74690000Y19975688D02*
X74690000Y18629600D01*
X74690000Y18629600D02*
X75006200Y18313400D01*
X75006200Y18313400D02*
X74955400Y16879888D01*
D57*
G04 #@! TO.N,N27*
X99887400Y12166600D02*
X97398200Y9702800D01*
D54*
X113856800Y11023600D02*
X113882200Y10998200D01*
X111379000Y12192000D02*
X112547400Y11023600D01*
X125755400Y31140400D02*
X125730000Y31115000D01*
X112547400Y11023600D02*
X113856800Y11023600D01*
D57*
X111353600Y12166600D02*
X111379000Y12192000D01*
D54*
X125755400Y33068200D02*
X125755400Y31140400D01*
D57*
X99887400Y12166600D02*
X111353600Y12166600D01*
D50*
G04 #@! TO.N,GND*
X145237200Y36576000D03*
D49*
X147100636Y36590000D02*
X145251200Y36590000D01*
X145251200Y36590000D02*
X145237200Y36576000D01*
D52*
G04 #@! TO.N,N51*
X147599400Y33756600D02*
X147599400Y33178764D01*
X147675600Y33832800D02*
X147599400Y33756600D01*
X148844000Y34239200D02*
X148437600Y33832800D01*
X148844000Y34391600D02*
X148844000Y34239200D01*
X148437600Y33832800D02*
X147675600Y33832800D01*
X147599400Y33178764D02*
X147440636Y33020000D01*
X149915636Y34615000D02*
X149067400Y34615000D01*
X149067400Y34615000D02*
X148844000Y34391600D01*
G04 #@! TO.N,N48*
X157353000Y33096200D02*
X157657800Y32791400D01*
X157271600Y33965000D02*
X157353000Y33883600D01*
X157657800Y32791400D02*
X158519236Y32791400D01*
X157353000Y33883600D02*
X157353000Y33096200D01*
X155715636Y33965000D02*
X157271600Y33965000D01*
X158519236Y32791400D02*
X158530636Y32780000D01*
D49*
G04 #@! TO.N,N18*
X34163000Y16092000D02*
X39254600Y16092000D01*
X40132000Y12369800D02*
X39522400Y12979400D01*
X34188400Y10617200D02*
X34188400Y11441600D01*
X43104000Y10260000D02*
X40703000Y10260000D01*
X39547800Y15798800D02*
X39547800Y14183800D01*
X40132000Y10831000D02*
X40132000Y12369800D01*
X38334000Y12970000D02*
X39522400Y12979400D01*
X31064000Y10260000D02*
X33831200Y10260000D01*
X36831000Y11467000D02*
X38334000Y12970000D01*
X39547800Y14183800D02*
X38334000Y12970000D01*
X34163000Y11467000D02*
X36831000Y11467000D01*
X40132000Y10831000D02*
X40703000Y10260000D01*
X33831200Y10260000D02*
X34188400Y10617200D01*
X39254600Y16092000D02*
X39547800Y15798800D01*
X40132000Y10831000D02*
X40132000Y10831000D01*
X34188400Y11441600D02*
X34163000Y11467000D01*
D54*
G04 #@! TO.N,GND*
X125755400Y35918200D02*
X125755400Y38105400D01*
X125755400Y38105400D02*
X128143000Y40493000D01*
X129238000Y39398000D02*
X128143000Y40493000D01*
X130886200Y39398000D02*
X129238000Y39398000D01*
D52*
G04 #@! TO.N,N33*
X158445636Y34615000D02*
X158530636Y34530000D01*
X155715636Y34615000D02*
X158445636Y34615000D01*
D50*
G04 #@! TO.N,TX1*
X82702400Y27559000D03*
X77698600Y27203400D03*
X48031400Y29032200D03*
D52*
X83642200Y26060400D02*
X83616800Y26060400D01*
X77698600Y27203400D02*
X77698600Y27127200D01*
X144119600Y29260800D02*
X144804836Y29260800D01*
X144804836Y29260800D02*
X144855636Y29210000D01*
X55270400Y29032200D02*
X57912000Y26390600D01*
X104521000Y26111200D02*
X104495600Y26111200D01*
X83642200Y26060400D02*
X104444800Y26060400D01*
X48031400Y29032200D02*
X55270400Y29032200D01*
X76962000Y26390600D02*
X77165200Y26593800D01*
X83616800Y26060400D02*
X82677000Y27000200D01*
X107594400Y29184600D02*
X104521000Y26111200D01*
X82677000Y27000200D02*
X82677000Y27533600D01*
X83642200Y26060400D02*
X83642200Y26060400D01*
X77698600Y27127200D02*
X77165200Y26593800D01*
X57912000Y26390600D02*
X76962000Y26390600D01*
X144043400Y29184600D02*
X144119600Y29260800D01*
X140766800Y29184600D02*
X144043400Y29184600D01*
X82677000Y27533600D02*
X82702400Y27559000D01*
X104495600Y26111200D02*
X104444800Y26060400D01*
X140766800Y29184600D02*
X107594400Y29184600D01*
G04 #@! TO.N,N57*
X158530636Y35955000D02*
X157443200Y35955000D01*
X155725436Y35255200D02*
X155715636Y35265000D01*
X156743400Y35255200D02*
X155725436Y35255200D01*
X157443200Y35955000D02*
X156743400Y35255200D01*
D50*
G04 #@! TO.N,N21*
X15417800Y18161000D03*
D52*
X15072000Y22352000D02*
X15072000Y18506800D01*
X15072000Y18506800D02*
X15417800Y18161000D01*
D50*
G04 #@! TO.N,GND*
X20218400Y16230600D03*
X24485600Y45923200D03*
D49*
X25611666Y45861000D02*
X24547800Y45861000D01*
X24547800Y45861000D02*
X24485600Y45923200D01*
G04 #@! TO.N,N69*
X43953500Y37719000D02*
X41960800Y37719000D01*
X40649800Y38049200D02*
X40599000Y38100000D01*
X41630600Y38049200D02*
X40649800Y38049200D01*
X41960800Y37719000D02*
X41630600Y38049200D01*
D50*
G04 #@! TO.N,GND*
X157378400Y39243000D03*
D52*
X155595636Y38735000D02*
X156870400Y38735000D01*
X156870400Y38735000D02*
X157378400Y39243000D01*
D51*
G04 #@! TO.N,N59*
X47472600Y32813900D02*
X47520500Y32766000D01*
X47472600Y35026600D02*
X47472600Y32813900D01*
X48883500Y35179000D02*
X47625000Y35179000D01*
X47625000Y35179000D02*
X47472600Y35026600D01*
D50*
G04 #@! TO.N,GND*
X31013400Y18897600D03*
X39751000Y45389800D03*
X13081000Y42037000D03*
D49*
X13363332Y40640000D02*
X13123332Y40880000D01*
D52*
X13123332Y40880000D02*
X13123332Y41994668D01*
D49*
X15533332Y40640000D02*
X13363332Y40640000D01*
D52*
X13123332Y41994668D02*
X13081000Y42037000D01*
D50*
X69723000Y16129000D03*
D49*
X69680888Y16086888D02*
X69723000Y16129000D01*
X68224400Y16086888D02*
X69680888Y16086888D01*
D50*
X19227800Y14706600D03*
D49*
X20969000Y14732000D02*
X19253200Y14732000D01*
X18276600Y12598400D02*
X18276600Y13755400D01*
X19253200Y14732000D02*
X19227800Y14706600D01*
X18276600Y13755400D02*
X19227800Y14706600D01*
D50*
X73050400Y18897600D03*
D49*
X71780400Y18894888D02*
X73047688Y18894888D01*
X73047688Y18894888D02*
X73050400Y18897600D01*
D50*
X56159400Y16332200D03*
D52*
G04 #@! TO.N,CONSOLE_TX_OUT*
X160197800Y37998400D02*
X158140400Y40055800D01*
X165910000Y35639000D02*
X161515800Y35639000D01*
X143992600Y36169600D02*
X145237200Y34925000D01*
X160197800Y36957000D02*
X160197800Y37998400D01*
X161515800Y35639000D02*
X160197800Y36957000D01*
X158140400Y40055800D02*
X145669000Y40055800D01*
X143992600Y38379400D02*
X143992600Y36169600D01*
X146125636Y34925000D02*
X145237200Y34925000D01*
X145669000Y40055800D02*
X143992600Y38379400D01*
D50*
G04 #@! TO.N,GND*
X50063400Y25120600D03*
X121920000Y8483600D03*
D54*
X121920000Y8483600D02*
X121920000Y7225000D01*
D50*
X15036800Y28727400D03*
G04 #@! TO.N,CFP_ON*
X22580600Y33629600D03*
D52*
X19619000Y34968000D02*
X19619000Y34559200D01*
X19619000Y34559200D02*
X20548600Y33629600D01*
X22580600Y33629600D02*
X20548600Y33629600D01*
G04 #@! TO.N,N17*
X149022400Y32665000D02*
X148869400Y32512000D01*
X148869400Y31369000D02*
X148031200Y30530800D01*
X148869400Y32512000D02*
X148869400Y31369000D01*
X147421600Y27254200D02*
X148031200Y27863800D01*
X148031200Y27863800D02*
X148031200Y30530800D01*
X148031200Y30530800D02*
X148031200Y30530800D01*
X149915636Y32665000D02*
X149022400Y32665000D01*
X146796400Y27254200D02*
X147421600Y27254200D01*
G04 --- BOARD END --- *
G04 #@! TF.MD5,e81fb227c17a0dc5b1bcb7169e53963d*
M02*
