G04 --- HEADER BEGIN --- *
G04 #@! TF.GenerationSoftware,LibrePCB,LibrePCB,1.1.0*
G04 #@! TF.CreationDate,2024-09-10T10:23:41*
G04 #@! TF.ProjectId,100818,18c58eaa-e54a-4ec1-94cd-ac7c7134a3b5,v1.0.1*
G04 #@! TF.Part,Single*
G04 #@! TF.SameCoordinates*
G04 #@! TF.FileFunction,Paste,Bot*
G04 #@! TF.FilePolarity,Positive*
%FSLAX66Y66*%
%MOMM*%
G01*
G75*
G04 --- HEADER END --- *
G04 --- APERTURE LIST BEGIN --- *
%ADD10R,1.06X0.76*%
%ADD11R,0.6X1.1*%
%ADD12R,0.68X1.08*%
%ADD13R,1.1X0.6*%
%ADD14R,0.76X1.06*%
%AMROUNDEDRECT15*20,1,0.64,-0.45,0.0,0.45,0.0,90.0*20,1,0.4,-0.57,0.0,0.57,0.0,90.0*1,1,0.24,-0.2,-0.45*1,1,0.24,-0.2,0.45*1,1,0.24,0.2,0.45*1,1,0.24,0.2,-0.45*%
%ADD15ROUNDEDRECT15*%
%ADD16R,1.08X0.68*%
%ADD17R,1.39X0.84*%
%AMROUNDEDRECT18*20,1,0.48,-0.4,0.0,0.4,0.0,0.0*20,1,0.3,-0.49,0.0,0.49,0.0,0.0*1,1,0.18,-0.4,0.15*1,1,0.18,0.4,0.15*1,1,0.18,0.4,-0.15*1,1,0.18,-0.4,-0.15*%
%ADD18ROUNDEDRECT18*%
%ADD19R,1.874X0.424*%
%ADD20R,0.64X0.69*%
%AMROUNDEDRECT21*20,1,0.264,-0.5675,0.0,0.5675,0.0,0.0*20,1,0.165,-0.617,0.0,0.617,0.0,0.0*1,1,0.099,-0.5675,0.0825*1,1,0.099,0.5675,0.0825*1,1,0.099,0.5675,-0.0825*1,1,0.099,-0.5675,-0.0825*%
%ADD21ROUNDEDRECT21*%
%ADD22R,0.84X1.39*%
%AMROUNDEDRECT23*20,1,0.64,-0.45,0.0,0.45,0.0,0.0*20,1,0.4,-0.57,0.0,0.57,0.0,0.0*1,1,0.24,-0.45,0.2*1,1,0.24,0.45,0.2*1,1,0.24,0.45,-0.2*1,1,0.24,-0.45,-0.2*%
%ADD23ROUNDEDRECT23*%
%AMROUNDEDRECT24*20,1,0.48,-0.4,0.0,0.4,0.0,90.0*20,1,0.3,-0.49,0.0,0.49,0.0,90.0*1,1,0.18,-0.15,-0.4*1,1,0.18,-0.15,0.4*1,1,0.18,0.15,0.4*1,1,0.18,0.15,-0.4*%
%ADD24ROUNDEDRECT24*%
G04 --- APERTURE LIST END --- *
G04 --- BOARD BEGIN --- *
D10*
G04 #@! TO.C,C48*
X147100636Y38340000D03*
X147100636Y36590000D03*
G04 #@! TO.C,C21*
X121920000Y5475000D03*
X121920000Y7225000D03*
D11*
G04 #@! TO.C,R24*
X154473000Y29972000D03*
X156423000Y29972000D03*
D12*
G04 #@! TO.C,L10*
X59853000Y13970000D03*
X58003000Y13970000D03*
D11*
G04 #@! TO.C,R38*
X149901000Y28956000D03*
X151851000Y28956000D03*
D13*
G04 #@! TO.C,R30*
X51625500Y39075000D03*
X51625500Y37125000D03*
D14*
G04 #@! TO.C,C10*
X51421000Y32766000D03*
X49671000Y32766000D03*
D15*
G04 #@! TO.C,D1*
X33848000Y1567000D03*
X34798000Y3767000D03*
X35748000Y1567000D03*
D10*
G04 #@! TO.C,C8*
X38227000Y36181000D03*
X38227000Y34431000D03*
D16*
G04 #@! TO.C,L11*
X46736000Y11466000D03*
X46736000Y9616000D03*
D11*
G04 #@! TO.C,R22*
X146125636Y34925000D03*
X148075636Y34925000D03*
G04 #@! TO.C,R21*
X76413000Y44450000D03*
X74463000Y44450000D03*
D12*
G04 #@! TO.C,L8*
X69784400Y20686888D03*
X67934400Y20686888D03*
D14*
G04 #@! TO.C,C46*
X153845636Y38735000D03*
X155595636Y38735000D03*
D10*
G04 #@! TO.C,C9*
X46507400Y43879800D03*
X46507400Y45629800D03*
D11*
G04 #@! TO.C,R8*
X33823000Y5842000D03*
X35773000Y5842000D03*
D10*
G04 #@! TO.C,C55*
X81051400Y12358400D03*
X81051400Y14108400D03*
D14*
G04 #@! TO.C,C30*
X81012000Y5588000D03*
X79262000Y5588000D03*
D11*
G04 #@! TO.C,R28*
X146805636Y29210000D03*
X144855636Y29210000D03*
D15*
G04 #@! TO.C,Q6*
X17719000Y34968000D03*
X18669000Y37168000D03*
X19619000Y34968000D03*
D17*
G04 #@! TO.C,C36*
X68224400Y16086888D03*
X68224400Y18936888D03*
D14*
G04 #@! TO.C,C27*
X89930000Y14605000D03*
X91680000Y14605000D03*
D11*
G04 #@! TO.C,R37*
X146796400Y27254200D03*
X144846400Y27254200D03*
D18*
G04 #@! TO.C,U9*
X28021666Y46101000D03*
X30821666Y46101000D03*
X28021666Y47051000D03*
X30821666Y47051000D03*
X30821666Y45151000D03*
X28021666Y45151000D03*
D14*
G04 #@! TO.C,C24*
X82790000Y48260000D03*
X81040000Y48260000D03*
D11*
G04 #@! TO.C,R5*
X15072000Y22352000D03*
X13122000Y22352000D03*
G04 #@! TO.C,R23*
X145490636Y33020000D03*
X147440636Y33020000D03*
D19*
G04 #@! TO.C,U2*
X43953500Y37719000D03*
X43953500Y38989000D03*
X48883500Y37719000D03*
X48883500Y38989000D03*
X43953500Y36449000D03*
X48883500Y36449000D03*
X48883500Y35179000D03*
X43953500Y35179000D03*
D17*
G04 #@! TO.C,C18*
X125755400Y35918200D03*
X125755400Y33068200D03*
D14*
G04 #@! TO.C,C47*
X151150636Y38735000D03*
X149400636Y38735000D03*
G04 #@! TO.C,C37*
X76440000Y19975688D03*
X74690000Y19975688D03*
D10*
G04 #@! TO.C,C45*
X158530636Y34530000D03*
X158530636Y32780000D03*
D13*
G04 #@! TO.C,R19*
X54381400Y19599000D03*
X54381400Y21549000D03*
D14*
G04 #@! TO.C,C29*
X81012000Y8001000D03*
X79262000Y8001000D03*
D20*
G04 #@! TO.C,Z2*
X34163000Y14642000D03*
X34163000Y16092000D03*
D17*
G04 #@! TO.C,R15*
X130886200Y36548000D03*
X130886200Y39398000D03*
D16*
G04 #@! TO.C,L9*
X71780400Y22119888D03*
X71780400Y20269888D03*
D14*
G04 #@! TO.C,C34*
X75830400Y11669888D03*
X74080400Y11669888D03*
D21*
G04 #@! TO.C,U6*
X155715636Y32665000D03*
X155715636Y36565000D03*
X149915636Y35265000D03*
X149915636Y33315000D03*
X149915636Y34615000D03*
X149915636Y32015000D03*
X155715636Y33965000D03*
X149915636Y36565000D03*
X155715636Y34615000D03*
X155715636Y33315000D03*
X155715636Y32015000D03*
X149915636Y35915000D03*
X155715636Y35265000D03*
X149915636Y32665000D03*
X149915636Y33965000D03*
X155715636Y35915000D03*
D18*
G04 #@! TO.C,U10*
X18333332Y40640000D03*
X15533332Y40640000D03*
X18333332Y39690000D03*
X15533332Y39690000D03*
X15533332Y41590000D03*
X18333332Y41590000D03*
D10*
G04 #@! TO.C,C53*
X20743332Y39130000D03*
X20743332Y40880000D03*
D22*
G04 #@! TO.C,C19*
X144935000Y45085000D03*
X142085000Y45085000D03*
D11*
G04 #@! TO.C,R29*
X146805636Y31115000D03*
X144855636Y31115000D03*
D10*
G04 #@! TO.C,C35*
X71780400Y17144888D03*
X71780400Y18894888D03*
D11*
G04 #@! TO.C,R31*
X47520500Y32766000D03*
X45570500Y32766000D03*
G04 #@! TO.C,R16*
X132375000Y5080000D03*
X134325000Y5080000D03*
D23*
G04 #@! TO.C,Q5*
X55405200Y23129200D03*
X53205200Y24079200D03*
X55405200Y25029200D03*
D10*
G04 #@! TO.C,C54*
X13123332Y39130000D03*
X13123332Y40880000D03*
D20*
G04 #@! TO.C,Z1*
X34163000Y12917000D03*
X34163000Y11467000D03*
D14*
G04 #@! TO.C,C28*
X58053000Y5461000D03*
X59803000Y5461000D03*
D10*
G04 #@! TO.C,C44*
X158530636Y37705000D03*
X158530636Y35955000D03*
D13*
G04 #@! TO.C,R18*
X56286400Y21549000D03*
X56286400Y19599000D03*
D11*
G04 #@! TO.C,R36*
X146821800Y25349200D03*
X144871800Y25349200D03*
D13*
G04 #@! TO.C,R1*
X21463000Y37170000D03*
X21463000Y35220000D03*
D14*
G04 #@! TO.C,C15*
X101360000Y47625000D03*
X103110000Y47625000D03*
D10*
G04 #@! TO.C,C33*
X72415400Y13814888D03*
X72415400Y12064888D03*
D14*
G04 #@! TO.C,C50*
X44931300Y40665400D03*
X43181300Y40665400D03*
D10*
G04 #@! TO.C,C52*
X32596666Y47611000D03*
X32596666Y45861000D03*
D24*
G04 #@! TO.C,U3*
X74005400Y14079888D03*
X75905400Y16879888D03*
X74955400Y16879888D03*
X74005400Y16879888D03*
X75905400Y14079888D03*
D14*
G04 #@! TO.C,C6*
X22719000Y14732000D03*
X20969000Y14732000D03*
G04 #@! TO.C,C57*
X115632200Y10998200D03*
X113882200Y10998200D03*
D11*
G04 #@! TO.C,R4*
X15072000Y24892000D03*
X13122000Y24892000D03*
G04 #@! TO.C,R39*
X38649000Y38100000D03*
X40599000Y38100000D03*
D14*
G04 #@! TO.C,C5*
X18276600Y12598400D03*
X20026600Y12598400D03*
D10*
G04 #@! TO.C,C51*
X25611666Y47611000D03*
X25611666Y45861000D03*
D11*
G04 #@! TO.C,R40*
X38649000Y32004000D03*
X40599000Y32004000D03*
G04 #@! TO.C,R17*
X68875000Y48260000D03*
X70825000Y48260000D03*
D16*
G04 #@! TO.C,L1*
X40132000Y10831000D03*
X40132000Y8981000D03*
G04 --- BOARD END --- *
G04 #@! TF.MD5,05c1c2ca354f9ee7ca31d513f082c4c4*
M02*
