  0
SECTION
  2
HEADER
  9
$ACADVER
  1
AC1009
  9
$DWGCODEPAGE
  3
ansi_1252
  9
$INSBASE
 10
0.0
 20
0.0
 30
0.0
  9
$EXTMIN
 10
1.000000000000000E+20
 20
1.000000000000000E+20
 30
1.000000000000000E+20
  9
$EXTMAX
 10
-1.000000000000000E+20
 20
-1.000000000000000E+20
 30
-1.000000000000000E+20
  9
$LIMMIN
 10
0.0
 20
0.0
  9
$LIMMAX
 10
12.0
 20
9.0
  9
$ORTHOMODE
 70
     0
  9
$REGENMODE
 70
     1
  9
$FILLMODE
 70
     1
  9
$QTEXTMODE
 70
     0
  9
$MIRRTEXT
 70
     1
  9
$DRAGMODE
 70
     2
  9
$LTSCALE
 40
1.0
  9
$OSMODE
 70
    37
  9
$ATTMODE
 70
     1
  9
$TEXTSIZE
 40
0.2
  9
$TRACEWID
 40
0.05
  9
$TEXTSTYLE
  7
STANDARD
  9
$CLAYER
  8
0
  9
$CELTYPE
  6
BYLAYER
  9
$CECOLOR
 62
   256
  9
$DIMSCALE
 40
1.0
  9
$DIMASZ
 40
0.18
  9
$DIMEXO
 40
0.0625
  9
$DIMDLI
 40
0.38
  9
$DIMRND
 40
0.0
  9
$DIMDLE
 40
0.0
  9
$DIMEXE
 40
0.18
  9
$DIMTP
 40
0.0
  9
$DIMTM
 40
0.0
  9
$DIMTXT
 40
0.18
  9
$DIMCEN
 40
0.09
  9
$DIMTSZ
 40
0.0
  9
$DIMTOL
 70
     0
  9
$DIMLIM
 70
     0
  9
$DIMTIH
 70
     1
  9
$DIMTOH
 70
     1
  9
$DIMSE1
 70
     0
  9
$DIMSE2
 70
     0
  9
$DIMTAD
 70
     0
  9
$DIMZIN
 70
     0
  9
$DIMBLK
  1

  9
$DIMASO
 70
     1
  9
$DIMSHO
 70
     1
  9
$DIMPOST
  1

  9
$DIMAPOST
  1

  9
$DIMALT
 70
     0
  9
$DIMALTD
 70
     2
  9
$DIMALTF
 40
25.4
  9
$DIMLFAC
 40
1.0
  9
$DIMTOFL
 70
     0
  9
$DIMTVP
 40
0.0
  9
$DIMTIX
 70
     0
  9
$DIMSOXD
 70
     0
  9
$DIMSAH
 70
     0
  9
$DIMBLK1
  1

  9
$DIMBLK2
  1

  9
$DIMSTYLE
  2
STANDARD
  9
$DIMCLRD
 70
     0
  9
$DIMCLRE
 70
     0
  9
$DIMCLRT
 70
     0
  9
$DIMTFAC
 40
1.0
  9
$DIMGAP
 40
0.09
  9
$LUNITS
 70
     2
  9
$LUPREC
 70
     4
  9
$SKETCHINC
 40
0.1
  9
$FILLETRAD
 40
0.0
  9
$AUNITS
 70
     0
  9
$AUPREC
 70
     0
  9
$MENU
  1
.
  9
$ELEVATION
 40
0.0
  9
$PELEVATION
 40
0.0
  9
$THICKNESS
 40
0.0
  9
$LIMCHECK
 70
     0
  9
$CHAMFERA
 40
0.0
  9
$CHAMFERB
 40
0.0
  9
$SKPOLY
 70
     0
  9
$TDCREATE
 40
2461161.651821632
  9
$TDUPDATE
 40
2461161.65182169
  9
$TDINDWG
 40
0.0000000116
  9
$TDUSRTIMER
 40
0.0000000116
  9
$USRTIMER
 70
     1
  9
$ANGBASE
 50
0.0
  9
$ANGDIR
 70
     0
  9
$PDMODE
 70
     0
  9
$PDSIZE
 40
0.0
  9
$PLINEWID
 40
0.0
  9
$COORDS
 70
     1
  9
$SPLFRAME
 70
     0
  9
$SPLINETYPE
 70
     6
  9
$SPLINESEGS
 70
     8
  9
$ATTDIA
 70
     0
  9
$ATTREQ
 70
     1
  9
$HANDLING
 70
     1
  9
$HANDSEED
  5
1000016E
  9
$SURFTAB1
 70
     6
  9
$SURFTAB2
 70
     6
  9
$SURFTYPE
 70
     6
  9
$SURFU
 70
     6
  9
$SURFV
 70
     6
  9
$UCSNAME
  2

  9
$UCSORG
 10
0.0
 20
0.0
 30
0.0
  9
$UCSXDIR
 10
1.0
 20
0.0
 30
0.0
  9
$UCSYDIR
 10
0.0
 20
1.0
 30
0.0
  9
$PUCSNAME
  2

  9
$PUCSORG
 10
0.0
 20
0.0
 30
0.0
  9
$PUCSXDIR
 10
1.0
 20
0.0
 30
0.0
  9
$PUCSYDIR
 10
0.0
 20
1.0
 30
0.0
  9
$USERI1
 70
     0
  9
$USERI2
 70
     0
  9
$USERI3
 70
     0
  9
$USERI4
 70
     0
  9
$USERI5
 70
     0
  9
$USERR1
 40
0.0
  9
$USERR2
 40
0.0
  9
$USERR3
 40
0.0
  9
$USERR4
 40
0.0
  9
$USERR5
 40
0.0
  9
$WORLDVIEW
 70
     1
  9
$SHADEDGE
 70
     3
  9
$SHADEDIF
 70
    70
  9
$TILEMODE
 70
     1
  9
$MAXACTVP
 70
    64
  9
$PLIMCHECK
 70
     0
  9
$PEXTMIN
 10
1.000000000000000E+20
 20
1.000000000000000E+20
 30
1.000000000000000E+20
  9
$PEXTMAX
 10
-1.000000000000000E+20
 20
-1.000000000000000E+20
 30
-1.000000000000000E+20
  9
$PLIMMIN
 10
0.0
 20
0.0
  9
$PLIMMAX
 10
12.0
 20
9.0
  9
$UNITMODE
 70
     0
  9
$VISRETAIN
 70
     1
  9
$PLINEGEN
 70
     0
  9
$PSLTSCALE
 70
     1
  0
ENDSEC
  0
SECTION
  2
TABLES
  0
TABLE
  2
VPORT
 70
     1
  0
VPORT
  2
*ACTIVE
 70
     0
 10
0.0
 20
0.0
 11
1.0
 21
1.0
 12
10.42990654205607
 22
4.5
 13
0.0
 23
0.0
 14
0.5
 24
0.5
 15
0.5
 25
0.5
 16
0.0
 26
0.0
 36
1.0
 17
0.0
 27
0.0
 37
0.0
 40
9.0
 41
1.972972972850329
 42
50.0
 43
0.0
 44
0.0
 50
0.0
 51
0.0
 71
     0
 72
   100
 73
     1
 74
     3
 75
     0
 76
     0
 77
     0
 78
     0
  0
ENDTAB
  0
TABLE
  2
LTYPE
 70
     7
  0
LTYPE
  2
CONTINUOUS
 70
     0
  3
Solid line
 72
    65
 73
     0
 40
0.0
  0
LTYPE
  2
ONS_PHANTOM
 70
     0
  3
Onshape Phantom line ______ __ __ ______
 72
    65
 73
     6
 40
0.4999999999999999
 49
0.25
 49
-0.05
 49
0.05
 49
-0.05
 49
0.05
 49
-0.05
  0
LTYPE
  2
CENTER
 70
     0
  3
Center line ____ _ ____ _ ____ _
 72
    65
 73
     4
 40
0.7199999999999999
 49
0.45
 49
-0.09
 49
0.09
 49
-0.09
  0
LTYPE
  2
DASHED
 70
     0
  3
Dashed line __ __ __ __ __
 72
    65
 73
     2
 40
0.75
 49
0.5
 49
-0.25
  0
LTYPE
  2
ONS_DASHDOT
 70
     0
  3
Onshape Dashed with Dot _ . ____ . ____
 72
    65
 73
     4
 40
0.71
 49
0.5
 49
-0.1
 49
0.01
 49
-0.1
  0
LTYPE
  2
ONS_DOTTED
 70
     0
  3
Onshape Dotted line . . . . . . .
 72
    65
 73
     2
 40
0.11
 49
0.01
 49
-0.1
  0
LTYPE
  2
HIDDEN
 70
     0
  3
Hidden line ____ ____ ____ ____ 
 72
    65
 73
     2
 40
0.15
 49
0.1
 49
-0.05
  0
ENDTAB
  0
TABLE
  2
LAYER
 70
    48
  0
LAYER
  2
0
 70
     0
 62
     7
  6
CONTINUOUS
  0
LAYER
  2
SECTION_CUTTING_LINE
 70
     0
 62
     7
  6
ONS_PHANTOM
  0
LAYER
  2
DETAIL_VIEW_BORDER
 70
     0
 62
     7
  6
CONTINUOUS
  0
LAYER
  2
DETAIL_VIEW_PARENT_BORDER
 70
     0
 62
     7
  6
ONS_PHANTOM
  0
LAYER
  2
TEXT
 70
     0
 62
     7
  6
CONTINUOUS
  0
LAYER
  2
SKETCHED_GEOMETRY
 70
     0
 62
    -7
  6
CONTINUOUS
  0
LAYER
  2
VIRTUAL_SHARPS
 70
     0
 62
    -7
  6
CONTINUOUS
  0
LAYER
  2
CENTERLINES
 70
     0
 62
    -7
  6
CENTER
  0
LAYER
  2
CENTERMARKS
 70
     0
 62
    -7
  6
CONTINUOUS
  0
LAYER
  2
TABLES
 70
     0
 62
     7
  6
CONTINUOUS
  0
LAYER
  2
IMAGES
 70
     0
 62
    -7
  6
CONTINUOUS
  0
LAYER
  2
ANNOTATION_LINES
 70
     0
 62
    -7
  6
CONTINUOUS
  0
LAYER
  2
ANNOTATION_TEXT
 70
     0
 62
    -7
  6
CONTINUOUS
  0
LAYER
  2
SIDE_THREAD_SYMBOLS
 70
     0
 62
     7
  6
HIDDEN
  0
LAYER
  2
SIDE_THREAD_SYMBOLS_HIDDEN
 70
     0
 62
    -7
  6
HIDDEN
  0
LAYER
  2
SURFACE_THREAD_SYMBOLS
 70
     0
 62
     7
  6
HIDDEN
  0
LAYER
  2
SURFACE_THREAD_SYMBOLS_ON_
 70
     0
 62
     7
  6
HIDDEN
  0
LAYER
  2
SURFACE_THREAD_SYMBOLS_HID
 70
     0
 62
    -7
  6
HIDDEN
  0
LAYER
  2
BLIND_THREAD_SYMBOLS
 70
     0
 62
     7
  6
CONTINUOUS
  0
LAYER
  2
BLIND_THREAD_SYMBOLS_HIDDE
 70
     0
 62
    -7
  6
HIDDEN
  0
LAYER
  2
EXPLODE_LINES
 70
     0
 62
     7
  6
ONS_PHANTOM
  0
LAYER
  2
HIDDEN_EXPLODE_LINES
 70
     0
 62
    -7
  6
ONS_PHANTOM
  0
LAYER
  2
BREAK_LINES
 70
     0
 62
    -7
  6
CONTINUOUS
  0
LAYER
  2
SHEETMETAL_BEND_LINES_UP
 70
     0
 62
     7
  6
CENTER
  0
LAYER
  2
SHEETMETAL_BEND_LINES_DOWN
 70
     0
 62
     7
  6
CENTER
  0
LAYER
  2
SHEETMETAL_BEND_TANGENT_LI
 70
     0
 62
     7
  6
CONTINUOUS
  0
LAYER
  2
SHEETMETAL_CUT_LINES
 70
     0
 62
     7
  6
CONTINUOUS
  0
LAYER
  2
SHEETMETAL_CBORE_CSINK_UP
 70
     0
 62
     7
  6
CONTINUOUS
  0
LAYER
  2
SHEETMETAL_CBORE_CSINK_DOW
 70
     0
 62
     7
  6
CONTINUOUS
  0
LAYER
  2
SHEETMETAL_CBORE_CSINK_UP_
 70
     0
 62
    -7
  6
HIDDEN
  0
LAYER
  2
SHEETMETAL_CBORE_CSINK_DO0
 70
     0
 62
    -7
  6
HIDDEN
  0
LAYER
  2
SHEETMETAL_FORM_TEAR
 70
     0
 62
     7
  6
CONTINUOUS
  0
LAYER
  2
SHEETMETAL_FORM_UP
 70
     0
 62
     7
  6
CENTER
  0
LAYER
  2
SHEETMETAL_FORM_DOWN
 70
     0
 62
     7
  6
CENTER
  0
LAYER
  2
SHEETMETAL_FORM_CENTERMARK
 70
     0
 62
     7
  6
CENTER
  0
LAYER
  2
REGION_ASSOC_POINTS
 70
     0
 62
    -7
  6
CONTINUOUS
  0
LAYER
  2
PATTERN_CENTERLINES
 70
     1
 62
    -7
  6
CENTER
  0
LAYER
  2
HIDDEN
 70
     0
 62
    -7
  6
HIDDEN
  0
LAYER
  2
VISIBLE
 70
     0
 62
     7
  6
CONTINUOUS
  0
LAYER
  2
MODELSKETCH_VISIBLE
 70
     0
 62
     7
  6
CONTINUOUS
  0
LAYER
  2
MODELSKETCH_POINT
 70
     0
 62
     7
  6
CONTINUOUS
  0
LAYER
  2
MODELSKETCH_CONSTRUCTION
 70
     0
 62
    -7
  6
CENTER
  0
LAYER
  2
HIDDEN_BASE_VIEW
 70
     0
 62
     7
  6
CONTINUOUS
  0
LAYER
  2
TANGENT_LINES
 70
     0
 62
    -7
  6
CONTINUOUS
  0
LAYER
  2
TANGENT_HIDDEN
 70
     0
 62
    -7
  6
HIDDEN
  0
LAYER
  2
INVISIBLE_LINES
 70
     0
 62
    -7
  6
CONTINUOUS
  0
LAYER
  2
VIEW_HATCHES
 70
     0
 62
    -7
  6
CONTINUOUS
  0
LAYER
  2
SECTION_JOG_LINES
 70
     0
 62
    -7
  6
CONTINUOUS
  0
ENDTAB
  0
TABLE
  2
STYLE
 70
     2
  0
STYLE
  2
STANDARD
 70
     0
 40
0.0
 41
1.0
 50
0.0
 71
     0
 42
0.2
  3
txt
  4

  0
STYLE
  2
TTFSTYLE
 70
     0
 40
0.0
 41
1.0
 50
0.0
 71
     0
 42
0.2
  3

  4

  0
ENDTAB
  0
TABLE
  2
VIEW
 70
     0
  0
ENDTAB
  0
TABLE
  2
UCS
 70
     0
  0
ENDTAB
  0
TABLE
  2
APPID
 70
     1
  0
APPID
  2
ACAD
 70
     0
  0
ENDTAB
  0
TABLE
  2
DIMSTYLE
 70
     1
  0
DIMSTYLE
  2
STANDARD
 70
     0
  3

  4

  5

  6

  7

 40
1.0
 41
0.18
 42
0.0625
 43
0.38
 44
0.18
 45
0.0
 46
0.0
 47
0.0
 48
0.0
140
0.18
141
0.09
142
0.0
143
25.4
144
1.0
145
0.0
146
1.0
147
0.09
 71
     0
 72
     0
 73
     1
 74
     1
 75
     0
 76
     0
 77
     0
 78
     0
170
     0
171
     2
172
     0
173
     0
174
     0
175
     0
176
     0
177
     0
178
     0
  0
ENDTAB
  0
ENDSEC
  0
SECTION
  2
BLOCKS
  0
BLOCK
  8
0
  2
$MODEL_SPACE
 70
     0
 10
0.0
 20
0.0
 30
0.0
  3
$MODEL_SPACE
  1

  0
ENDBLK
  5
21
  8
0
  0
BLOCK
 67
     1
  8
0
  2
$PAPER_SPACE
 70
     0
 10
0.0
 20
0.0
 30
0.0
  3
$PAPER_SPACE
  1

  0
ENDBLK
  5
1D
 67
     1
  8
0
  0
ENDSEC
  0
SECTION
  2
ENTITIES
  0
CIRCLE
  5
10000059
  8
VISIBLE
 10
0.0000000000002012
 20
1.62500000000002
 30
0.0
 40
0.062992125984252
  0
CIRCLE
  5
1000005F
  8
VISIBLE
 10
1.407291281149772
 20
-0.8125000000000826
 30
0.0
 40
0.062992125984252
  0
CIRCLE
  5
10000065
  8
VISIBLE
 10
0.0000000000000001
 20
-1.625
 30
0.0
 40
0.062992125984252
  0
LINE
  5
1000006B
  8
VISIBLE
 10
-0.3750000000000006
 20
2.677050983124842
 30
0.0
 11
0.3749999999999995
 21
2.677050983124842
 31
0.0
  0
ARC
  5
1000006F
  8
VISIBLE
 10
-0.3750000000000006
 20
2.552050983124842
 30
0.0
 40
0.125
 50
90.0
 51
180.0
  0
LINE
  5
10000075
  8
VISIBLE
 10
-0.5000000000000004
 20
1.767766952966369
 30
0.0
 11
-0.5000000000000006
 21
2.552050983124842
 31
0.0
  0
ARC
  5
10000079
  8
VISIBLE
 10
-0.6250000000000006
 20
1.767766952966369
 30
0.0
 40
0.125
 50
289.4712206344907
 51
0.0
  0
ARC
  5
1000007F
  8
VISIBLE
 10
0.0
 20
0.0
 30
0.0
 40
1.75
 50
109.4712206344907
 51
162.3519315601791
  0
ARC
  5
10000085
  8
VISIBLE
 10
-1.780190726002476
 20
0.5663539827055944
 30
0.0
 40
0.1181102362204725
 50
304.2727551399176
 51
342.3519315601786
  0
LINE
  5
1000008B
  8
VISIBLE
 10
-1.78470848494861
 20
0.4203480821037441
 30
0.0
 11
-1.713678934841067
 21
0.4687516797790905
 31
0.0
  0
ARC
  5
1000008F
  8
VISIBLE
 10
-1.718196693787205
 20
0.3227457791772413
 30
0.0
 40
0.1181102362204725
 50
124.2727551399165
 51
168.744506868731
  0
ARC
  5
10000095
  8
VISIBLE
 10
-0.0964566929133858
 20
0.0
 30
0.0
 40
1.771653543307087
 50
168.7445068687312
 51
191.2554931312688
  0
ARC
  5
1000009B
  8
VISIBLE
 10
-1.718196693787205
 20
-0.3227457791772413
 30
0.0
 40
0.1181102362204725
 50
191.255493131269
 51
235.7272448600835
  0
LINE
  5
100000A1
  8
VISIBLE
 10
-1.713678934841067
 20
-0.4687516797790905
 30
0.0
 11
-1.78470848494861
 21
-0.4203480821037441
 31
0.0
  0
ARC
  5
100000A5
  8
VISIBLE
 10
-1.780190726002476
 20
-0.5663539827055944
 30
0.0
 40
0.1181102362204725
 50
17.64806843982142
 51
55.72724486008233
  0
ARC
  5
100000AB
  8
VISIBLE
 10
0.0
 20
0.0
 30
0.0
 40
1.75
 50
197.6480684398209
 51
214.5287793655093
  0
ARC
  5
100000B1
  8
VISIBLE
 10
-1.544702965927976
 20
-1.062787724361415
 30
0.0
 40
0.125
 50
324.0
 51
34.52877936550927
  0
LINE
  5
100000B7
  8
VISIBLE
 10
-1.443575841631107
 20
-1.136260880897974
 30
0.0
 11
-1.904566428166763
 21
-1.770759989713053
 31
0.0
  0
ARC
  5
100000BB
  8
VISIBLE
 10
-1.803439303869895
 20
-1.844233146249612
 30
0.0
 40
0.125
 50
144.0
 51
234.0
  0
LINE
  5
100000C1
  8
VISIBLE
 10
-1.270149714625243
 20
-2.386199209765836
 30
0.0
 11
-1.876912460406454
 21
-1.945360270546481
 31
0.0
  0
ARC
  5
100000C5
  8
VISIBLE
 10
-1.196676558088684
 20
-2.285072085468967
 30
0.0
 40
0.125
 50
234.0000000000001
 51
324.0
  0
LINE
  5
100000CB
  8
VISIBLE
 10
-0.6345588472561597
 20
-1.724046133190448
 30
0.0
 11
-1.095549433791816
 21
-2.358545242005526
 31
0.0
  0
ARC
  5
100000CF
  8
VISIBLE
 10
-0.5334317229592914
 20
-1.797519289727006
 30
0.0
 40
0.125
 50
73.47122063449069
 51
144.0000000000001
  0
ARC
  5
100000D5
  8
VISIBLE
 10
0.0
 20
0.0
 30
0.0
 40
1.75
 50
253.4712206344907
 51
286.5287793655093
  0
ARC
  5
100000DB
  8
VISIBLE
 10
0.5334317229592916
 20
-1.797519289727007
 30
0.0
 40
0.125
 50
36.0
 51
106.5287793655093
  0
LINE
  5
100000E1
  8
VISIBLE
 10
0.6345588472561601
 20
-1.724046133190448
 30
0.0
 11
1.095549433791816
 21
-2.358545242005526
 31
0.0
  0
ARC
  5
100000E5
  8
VISIBLE
 10
1.196676558088684
 20
-2.285072085468967
 30
0.0
 40
0.125
 50
216.0
 51
305.9999999999999
  0
LINE
  5
100000EB
  8
VISIBLE
 10
1.876912460406454
 20
-1.945360270546481
 30
0.0
 11
1.270149714625243
 21
-2.386199209765836
 31
0.0
  0
ARC
  5
100000EF
  8
VISIBLE
 10
1.803439303869895
 20
-1.844233146249612
 30
0.0
 40
0.125
 50
306.0
 51
36.0
  0
LINE
  5
100000F5
  8
VISIBLE
 10
1.443575841631108
 20
-1.136260880897974
 30
0.0
 11
1.904566428166763
 21
-1.770759989713053
 31
0.0
  0
ARC
  5
100000F9
  8
VISIBLE
 10
1.544702965927976
 20
-1.062787724361415
 30
0.0
 40
0.125
 50
145.4712206344907
 51
216.0000000000001
  0
ARC
  5
100000FF
  8
VISIBLE
 10
0.0
 20
0.0
 30
0.0
 40
1.75
 50
325.4712206344907
 51
342.3519315601791
  0
ARC
  5
10000105
  8
VISIBLE
 10
1.780190726002476
 20
-0.5663539827055944
 30
0.0
 40
0.1181102362204725
 50
124.2727551399177
 51
162.3519315601786
  0
LINE
  5
1000010B
  8
VISIBLE
 10
1.78470848494861
 20
-0.4203480821037441
 30
0.0
 11
1.713678934841067
 21
-0.4687516797790905
 31
0.0
  0
ARC
  5
1000010F
  8
VISIBLE
 10
1.718196693787205
 20
-0.3227457791772413
 30
0.0
 40
0.1181102362204725
 50
304.2727551399165
 51
348.7445068687309
  0
ARC
  5
10000115
  8
VISIBLE
 10
0.0964566929133858
 20
0.0
 30
0.0
 40
1.771653543307087
 50
348.7445068687312
 51
11.25549313126874
  0
ARC
  5
1000011B
  8
VISIBLE
 10
1.718196693787205
 20
0.322745779177241
 30
0.0
 40
0.1181102362204725
 50
11.255493131269
 51
55.7272448600836
  0
LINE
  5
10000121
  8
VISIBLE
 10
1.713678934841067
 20
0.4687516797790905
 30
0.0
 11
1.78470848494861
 21
0.4203480821037441
 31
0.0
  0
ARC
  5
10000125
  8
VISIBLE
 10
1.780190726002476
 20
0.5663539827055944
 30
0.0
 40
0.1181102362204725
 50
197.6480684398214
 51
235.7272448600823
  0
ARC
  5
1000012B
  8
VISIBLE
 10
0.0
 20
0.0
 30
0.0
 40
1.75
 50
17.64806843982091
 51
70.52877936550931
  0
ARC
  5
10000131
  8
VISIBLE
 10
0.6249999999999997
 20
1.767766952966369
 30
0.0
 40
0.125
 50
180.0
 51
250.5287793655093
  0
LINE
  5
10000137
  8
VISIBLE
 10
0.4999999999999997
 20
1.767766952966369
 30
0.0
 11
0.4999999999999995
 21
2.552050983124842
 31
0.0
  0
ARC
  5
1000013B
  8
VISIBLE
 10
0.3749999999999995
 20
2.552050983124842
 30
0.0
 40
0.125
 50
0.0
 51
90.0
  0
CIRCLE
  5
10000141
  8
VISIBLE
 10
-1.407291281149571
 20
0.8125000000001024
 30
0.0
 40
0.062992125984252
  0
CIRCLE
  5
10000147
  8
VISIBLE
 10
1.407291281149874
 20
0.8124999999999292
 30
0.0
 40
0.062992125984252
  0
CIRCLE
  5
1000014D
  8
VISIBLE
 10
-1.407291281149673
 20
-0.8124999999999055
 30
0.0
 40
0.062992125984252
  0
CIRCLE
  5
10000153
  8
VISIBLE
 10
1.485363299671977
 20
-2.044427190999917
 30
0.0
 40
0.0679999999999999
  0
CIRCLE
  5
10000159
  8
VISIBLE
 10
-1.485363299671978
 20
-2.044427190999916
 30
0.0
 40
0.0679999999999999
  0
CIRCLE
  5
1000015F
  8
VISIBLE
 10
0.0
 20
2.527050983124842
 30
0.0
 40
0.068
  0
ENDSEC
  0
EOF
