<?xml version="1.0" encoding="utf-8"?>
<!-- Generator: Adobe Illustrator 27.7.0, SVG Export Plug-In . SVG Version: 6.00 Build 0)  -->
<svg version="1.1" id="b" xmlns="http://www.w3.org/2000/svg" xmlns:xlink="http://www.w3.org/1999/xlink" x="0px" y="0px"
	 viewBox="0 0 534.7 387.8" style="enable-background:new 0 0 534.7 387.8;" xml:space="preserve">
<style type="text/css">
	.st0{clip-path:url(#SVGID_00000134232326180060606050000002925340763832757915_);}
	.st1{fill:none;stroke:#231F20;stroke-width:0.75;stroke-miterlimit:10;}
	.st2{fill:#231F20;}
	.st3{fill:none;stroke:#231F20;stroke-width:0.75;stroke-linejoin:round;}
</style>
<g>
	<defs>
		<rect id="SVGID_1_" y="0" width="534.7" height="387.8"/>
	</defs>
	<clipPath id="SVGID_00000155847235838232762730000007151016882817003417_">
		<use xlink:href="#SVGID_1_"  style="overflow:visible;"/>
	</clipPath>
	<g style="clip-path:url(#SVGID_00000155847235838232762730000007151016882817003417_);">
		<path class="st1" d="M295,135.5l0.2-2.8c3-3,4.8-7.7,6.6-15.2s6.7-16.3,6.7-16.3C324,92.7,324,84.8,324,84.8
			c5.6,1.1,21-2.5,21-2.5c1.9,2.7,14.7,20.3,14.7,20.3c0,2.5,1,3.2,1,3.2c-15.2,10.8-30.7,10.2-51.4,20.7
			c-18.5,9.3-26.7,20.8-29.9,27.6s-1,15.4,4.2,18.5s10.4,1.6,17-0.5c3.9-1.2,11.7-4.9,20.5-7.7s23.6-11.1,32.5-11.6
			s28.6-1.8,35.8-0.6c9.5,1.4,46,3.6,57.4,1.7s49-16.3,63.8-22"/>
		<path class="st1" d="M338.2,83.8c-2.4,2.8-6.8,11.4-7.4,13.5s-1.4,12.7-1.3,14.7s0.2,5.4,0,6.6"/>
		<path class="st1" d="M356.8,98.8c-0.8,2.2-3.6,6.1-5.5,6.6c0,0,0.5,4.1-0.6,6.1"/>
		<path class="st1" d="M510.4,29.4c-11.3-2.2-57.7-8.6-67.9-11.6s-47-7.9-54.5-8.6s-7.8-3.1-20.9-2.3s-13-2-22.5,0.4s-15,13-15,13
			s-12.3,2.8-25.7,7.2s-21.2,7.2-24.3,10.9s-15,26.7-19.3,34.7s-8.6,18.9-9.7,22.2s-3.5,21.2-3.7,24.9s-1.7,10.4,0.9,13.2
			s9.1,7.4,16.4,0"/>
		<path class="st1" d="M332.3,16.3c-2.7,4-6,11.4-14,19.9s-15.4,14-23.3,23.3s-10.8,13.4-15.9,19s-9.2,28.4-11.2,36.2
			s-4.9,21.6-3.5,35.8s1.3,16.6,4.8,19.2c2.2,1.6,4.5,2.2,7,1.7"/>
		<path class="st2" d="M358.5,106.8c8.3-5.2,16.4-10.9,23.9-17.1c-7.2,6.7-15.3,12.4-23.5,17.8L358.5,106.8L358.5,106.8L358.5,106.8
			z"/>
		<path class="st2" d="M359.4,103.8c0.4-10.5,2.6-21.2-0.1-31.5c2.5,7.6,1.7,15.8,1.3,23.6c-0.1,2.6-0.4,5.3-0.5,7.9H359.4
			L359.4,103.8z"/>
		<path class="st2" d="M345.7,84c-2.9-4-5-8.6-6.2-13.4c-1.1-4.8-1.6-9.7-3.2-14.3c2.1,4.4,2.8,9.4,4,14.1c1.3,4.7,3.3,9.2,6,13.2
			L345.7,84L345.7,84L345.7,84z"/>
		<path class="st2" d="M325.5,85.4c-2-0.4-3.4-1.7-4.9-2.9c-4.1-3.7-7.3-8.4-9.3-13.4c2.3,4.9,5.6,9.4,9.7,13c1.3,1,2.9,2.3,4.5,2.6
			L325.5,85.4L325.5,85.4L325.5,85.4z"/>
		<path class="st2" d="M311.5,99.9c-2.6,1.2-5.4,1.3-8.1,1.4c-8.2,0.1-16.5-3.2-21.9-9.5c7.3,7.7,19.6,11.1,29.6,7.4L311.5,99.9
			L311.5,99.9L311.5,99.9z"/>
		<path class="st2" d="M296.6,131.7c-4.3,3.6-17.8-1.3-22.9-2.9l-3.1-1.1c5.5,1.5,21,7,25.5,3.5L296.6,131.7L296.6,131.7
			L296.6,131.7z"/>
		<path class="st2" d="M271.8,96.7c-3.1-3.1-6.8-6-10.9-7.5c4.3,1.3,8.1,4,11.5,6.9L271.8,96.7C271.8,96.7,271.8,96.7,271.8,96.7z"
			/>
		<path class="st2" d="M288.5,67.2c-3-2.9-4.9-7.1-5.7-11.2c1,3.9,3.1,7.9,6.1,10.6L288.5,67.2L288.5,67.2z"/>
		<path class="st2" d="M351.1,106.6c-0.6-6-4.8-11.3-9.9-14.2c5.4,2.8,9.8,8.1,10.7,14.2L351.1,106.6L351.1,106.6z"/>
		<path class="st2" d="M432.3,127.7c10.6-3,22.8-4.6,33.2,0C454.8,124.1,443.2,125.6,432.3,127.7L432.3,127.7z"/>
		<path class="st2" d="M319.4,129.6c1.9,2,4.3,3.1,5.8,5.3c0.6,1.3,0.9,2.5,1.3,3.8c1.5,5.6,4.5,10.7,8.5,15c0.4,0.5,0.9,1,1.3,1.5
			c-1.1-0.8-2.1-1.6-3.1-2.5c-2.7-2.9-4.7-6.4-6.1-10.1c-1-2.4-1.5-5-2.5-7.3C323,133.3,320.6,131.9,319.4,129.6L319.4,129.6
			L319.4,129.6z"/>
		<path class="st2" d="M318.1,139.3c0.9,6.5,2.9,12.8,6.1,18.6C320.1,152.8,317.9,145.9,318.1,139.3L318.1,139.3z"/>
		<path class="st2" d="M322.7,139.3c0.5,6.3,3.3,12.4,8.5,16.1C325.2,152.6,322.1,145.7,322.7,139.3L322.7,139.3z"/>
		<path class="st2" d="M298.3,149.9c0.2,4.8,2,9.4,5.9,12.4c0.5,0.5,1.1,0.8,1.6,1.3C300.4,161.2,297.3,155.8,298.3,149.9
			L298.3,149.9L298.3,149.9z"/>
		<path class="st1" d="M298.1,171.5c2.6-0.7,6.4-2.6,8.3-4.1s1.9-3.5-0.8-9.5s-6.5-11-9.2-11.9s-6.9,2.2-10.6,3.9s-5,6.6-4.9,11.3
			s2,7.6,3.4,8.7C286.3,171.8,288.4,174,298.1,171.5L298.1,171.5z"/>
		
			<ellipse transform="matrix(0.9964 -8.437393e-02 8.437393e-02 0.9964 -12.818 21.2678)" class="st1" cx="245.2" cy="162.3" rx="12.6" ry="8.9"/>
		<path class="st3" d="M238.3,154.6c0,0-6.7,5.2-6.7,5.8c0,0.9,1.7,7.5,2.3,10.3c0,0,8.3,0.7,13.8,3c0,0,8.2-6.9,11.6-7.7
			c0,0-1.6-8.1-2-9.4l-6.2-2.4"/>
		<path class="st3" d="M233.9,170.7l0.4,4c0,0,5,3.3,13.8,3.3c0,0,9.2-4.1,11.3-7.7l-0.2-4.3"/>
		<line class="st3" x1="247.7" y1="173.7" x2="248.2" y2="178"/>
		<path class="st1" d="M290,190.1c-1.7,7.7-6.6,14.4-18.1,21.4"/>
		<path class="st1" d="M247.9,221l-40.7-22.7c-9.6-24.6,17.6-44.9,41.4-44.9c5.8,0,11.2,0.7,16.1,2"/>
		<line class="st1" x1="207.3" y1="198.3" x2="211.4" y2="214.6"/>
		<path class="st1" d="M291.1,189.8c0.3,6.9,0.3,14.8,0.2,19c-0.2,7.4-6.2,11.5-6.2,11.5"/>
		<path class="st1" d="M278.2,164.4c-2.8,1.1-3.8,7.2,5,8.1"/>
		<path class="st1" d="M276.2,167.3l0.2,7c0,0,1.5,3.2,6.3,3.6s6.6-2.9,6.6-2.9"/>
		<path class="st1" d="M278.5,176.5c0,1.1,0.8,2.7,3.5,2.9s3.8-0.6,4.7-2.1"/>
		<path class="st1" d="M293.2,173.8c0.3,0.7,0.5,1.5,0.5,2.3c0,4.3-4.9,7.7-10.8,7.7s-10.8-3.4-10.8-7.7c0-2.5,1.7-4.7,4.2-6.1"/>
		<path class="st1" d="M297.1,173.2c1,1.5,1.5,3.2,1.5,5c0,6.6-7.3,11.9-16.3,11.9s-16.3-5.3-16.3-11.9c0-3,1.5-5.7,4-7.8"/>
		<path class="st1" d="M272,176.1c-0.1,2.7,0.1,8.2,9.3,9s11.6-4.4,12.1-7.4"/>
		<path class="st1" d="M266.1,178.2c-0.2,2.8-1.5,8.2,8.1,11.9c10.2,3.9,22.2,0,24.1-9.5"/>
		<ellipse class="st1" cx="252.7" cy="211.5" rx="4.7" ry="3.6"/>
		<ellipse class="st1" cx="213" cy="189.4" rx="4.6" ry="3.1"/>
		<path class="st1" d="M234.4,174.7l1.1,5.8c0,0,2.3,6.4,12.9,5.3s10.9-9.9,10.9-9.9l-0.4-4.8"/>
		<path class="st1" d="M259.5,169.4c2.1,1.8,3.5,4.1,3.8,6.8c0.6,6.6-6.2,12.5-15.1,13.3s-16.6-4-17.1-10.5
			c-0.2-2.8,0.9-5.5,2.9-7.7"/>
		<path class="st1" d="M263.3,176.2l0.4,6.8c0,6.3-6.1,11.6-14.7,12.4s-16.6-4-17.1-10.5l-0.8-5.9"/>
		
			<ellipse transform="matrix(0.7239 -0.6899 0.6899 0.7239 -99.3834 210.8776)" class="st1" cx="213.8" cy="229.6" rx="5" ry="11.2"/>
		<path class="st1" d="M212.1,215.3l5.5-5.4c2-1.9,7.1,0.2,11.3,4.7s6.1,9.6,4.1,11.5l-5.1,5.4"/>
		<path class="st3" d="M205.6,222.2l1.9-3.7c0,0,5.2,4.5,10.7,5.6c0,0,2.8,8.2,5.8,10.4l-2.5,3.2"/>
		<path class="st3" d="M207.5,218.5l3.5-3.5c0,0,5.2,0.9,10.8,5.4c0,0,5.8,5.2,6.1,10.5l-3.9,3.5"/>
		<line class="st3" x1="218.2" y1="224.1" x2="221.8" y2="220.4"/>
		<path class="st3" d="M227.9,230.9c0,0,0.3,2.8-2.9,5.5s-5.9,1.9-5.9,1.9"/>
		<line class="st1" x1="230.5" y1="228.8" x2="235.9" y2="231.8"/>
		<path class="st1" d="M299.1,172.5c14,8.3,23.6,20.8,25.2,35.6c3.2,29.6-26.2,57.2-65.9,61.5c-2.1,0.2-4.1,0.4-6.2,0.5"/>
		<path class="st1" d="M206.3,259.6c-14.2-8.3-23.8-20.9-25.5-35.8c-0.8-7.2,0.4-14.3,3.1-20.9"/>
		<path class="st1" d="M235.4,286.4c7.5,1.4,15.5,1.8,23.8,1c30.8-2.6,55.4-19.7,61.4-40.5l3.8-30.8"/>
		<path class="st1" d="M183.9,235.5l8.6,23.4c0.5,1,1.1,2,1.7,2.9"/>
		<ellipse class="st1" cx="310" cy="194.7" rx="5.4" ry="3.7"/>
		<ellipse class="st1" cx="271.5" cy="258.3" rx="5.5" ry="4.2"/>
		<ellipse class="st1" cx="192.5" cy="227.4" rx="5.1" ry="3.8"/>
		<path class="st1" d="M216.4,165.7l-16.3,3.4c-8.3,5.1-21.3,8.4-21.3,8.4c-7.7,17.5-18,20.8-18,20.8c2.7,11.3-5.6,28.3-5.6,28.3
			c3,6.8,7,14.5,12.7,19.1c9.2,7.4,14.3,14.2,14.3,14.2s4.6,2.2,14.4,2.1s14.7-6.4,24.5-14.6s12.8-16.5,26.7-26.4
			s20.7-10.2,26.4-9.2c3.3,0.6,10.8,4,11.1,10.6s-4.4,11.3-6.1,13.9s-3.2,6.7-11,15.6s-5,8.1-13.4,15.7s-14.4,12.6-23.5,23.2
			c-9.1,10.6-8.5,12.5-21.4,25s-8.2,18.3-29.5,43c-21.3,24.7-20.3,14-37.4,33.8c-17.2,19.9-25,42-41.6,64.8"/>
		<path class="st2" d="M233.6,155.6c4.8-10.3-2.8-14.2-12.2-14.8c-6.1-0.5-12.5-0.2-18.6-0.1c-10.2,1.4-20.3,4.2-30.4,6.5
			c-2,0.5-4.2,0.8-6.2,0.9c-4.1,0.4-8,1.9-11.5,4c-5.1,3.5-8.7,8.9-13.4,12.9c-6.4,5.4-10.7,12.6-16.4,18.6c-2.8,3.1-5.9,6-9.6,8.1
			c-3.6,2.1-7.2,4.1-10.7,6.3c-3.4,2.2-6.8,4.7-8.8,8.4c-3.7,7.4-3.2,16.2-3.2,24.3c-0.5-8.2-1.2-17,2.6-24.6c2-3.8,5.6-6.3,9-8.6
			c5.2-3.5,11-5.9,15.7-9.9c6.3-5.5,10.9-12.5,16.4-18.7c4.4-4.5,9.1-8.5,13.2-13.2c1.4-1.5,3-3,4.8-4.1c3.6-2.2,7.6-3.8,11.8-4.2
			c2.1-0.2,4.1-0.4,6.1-0.9c10.1-2.4,20.2-5.1,30.5-6.6c6.3-0.1,12.5-0.3,18.7,0.2c6,0.4,14.4,2.3,14.3,9.8c0,2.2-0.6,4.2-1.6,6.2
			L233.6,155.6L233.6,155.6L233.6,155.6z"/>
		<path class="st1" d="M266.1,218.8c3.4-3,9.7-5.7,14.1-2.6s5.9,7.8,3.5,13.6s-9.7,10.8-10.3,10.8s-2.4-5.1-4.6-8.4
			S261.7,222.7,266.1,218.8L266.1,218.8z"/>
		<path class="st2" d="M267.7,227.2c3.8,1.8,5.7,6.4,5.5,10.4C272.3,233.7,270.8,229.9,267.7,227.2L267.7,227.2z"/>
		<path class="st2" d="M248.9,236.6c3.1,2.4,5.1,6.1,7.1,9.5c1.8,3.5,3.8,7.1,4.1,11.1c-0.2-1-0.5-1.9-0.9-2.8
			c-1.8-4.6-4.3-8.8-6.8-13C251.3,239.7,250.4,237.9,248.9,236.6L248.9,236.6L248.9,236.6z"/>
		<path class="st2" d="M238.7,238.4c4.5,2.8,10.5,10,10.8,15.4c-0.1-0.4-0.2-0.8-0.3-1.1c-0.9-2.6-2.5-4.9-4.2-7.1
			C243.1,243,241.1,240.5,238.7,238.4L238.7,238.4L238.7,238.4z"/>
		<path class="st2" d="M248.4,242.3c3.6,5.1,4.4,11.6,6.4,17.3C251.8,254.3,251,247.8,248.4,242.3L248.4,242.3L248.4,242.3z"/>
		<path class="st1" d="M156,225c7.4-2.9,20.3-10.4,24.9-20.1c0,0,14.3-7.9,19.3-17.1c0,0,4.4-1.6,5.6-4.3"/>
		<path class="st2" d="M180.4,205.1c1.8-4.6,0.8-9.9-0.8-14.4c0.5,1.1,0.9,2.3,1.2,3.5c0.9,3.6,1.6,7.6,0.2,11.2L180.4,205.1
			L180.4,205.1L180.4,205.1z"/>
		<path class="st2" d="M199.7,187.7c0.6-2,0.6-4.1,0.5-6.3c-0.2-2.1-0.5-4.3-1.7-6.1c0.7,0.8,1.1,1.9,1.4,2.9
			c0.9,3.1,1.2,6.4,0.5,9.7L199.7,187.7L199.7,187.7L199.7,187.7z"/>
		<path class="st1" d="M94.4,208.7c-8.2,5.2-14.3,4.5-17.9,13.9s1.4,24.8,1.1,49.2s-1.9,27.9-5.2,47.6c-3.3,19.6-4.6,36-9.9,48.2
			s-13,15.8-20,26.9S34,411.1,24.2,425"/>
		<path class="st2" d="M160.9,200.1c-0.7-3.5-2.7-6.9-6-8.5c3.4,1.4,5.7,4.8,6.8,8.3L160.9,200.1L160.9,200.1z"/>
		<path class="st2" d="M178.1,178.2c1.3-3.7,0.7-8,0.2-11.8c-0.6-4-1.6-7.9-3.3-11.6c1.8,3.6,2.9,7.6,3.6,11.5
			c0.6,4,1.4,8.1,0.1,12.2L178.1,178.2L178.1,178.2L178.1,178.2z"/>
		<path class="st2" d="M199.9,168.7c5.1-5,3.1-15.9,1.5-22.2c1.8,6.4,4.2,17.5-1,22.8L199.9,168.7L199.9,168.7L199.9,168.7z"/>
		<path class="st2" d="M186.3,261.4c-10.3-2.4-19.4-8.5-26.6-16.1c7.2,7.4,16.5,13.3,26.7,15.4L186.3,261.4L186.3,261.4L186.3,261.4
			z"/>
	</g>
</g>
</svg>
